0, 0, Header, 1, 9, 192
1, 0, Start_track
1, 0, Tempo, 500000
1, 0, Time_signature, 4, 2, 24, 8
1, 262143, End_track
2, 0, Start_track
2, 0, Text_t, "Lead Vox"
2, 192, Control_c, 3, 121, 0
2, 237, Control_c, 3, 0, 0
2, 240, Control_c, 3, 32, 0
2, 288, Program_c, 3, 53
2, 336, Control_c, 3, 10, 64
2, 385, Control_c, 3, 91, 70
2, 432, Control_c, 3, 93, 38
2, 482, Control_c, 3, 7, 124
2, 518, Control_c, 3, 11, 127
2, 10949, Note_on_c, 3, 61, 127
2, 11016, Note_off_c, 3, 61, 127
2, 11035, Note_on_c, 3, 61, 118
2, 11132, Note_off_c, 3, 61, 118
2, 11143, Note_on_c, 3, 61, 127
2, 11212, Note_off_c, 3, 61, 127
2, 11233, Note_on_c, 3, 59, 123
2, 11311, Note_off_c, 3, 59, 123
2, 11335, Note_on_c, 3, 57, 109
2, 11412, Note_off_c, 3, 57, 109
2, 11437, Note_on_c, 3, 59, 127
2, 11591, Note_off_c, 3, 59, 127
2, 11629, Note_on_c, 3, 57, 91
2, 11690, Note_off_c, 3, 57, 91
2, 11722, Note_on_c, 3, 61, 127
2, 11788, Note_off_c, 3, 61, 127
2, 11820, Note_on_c, 3, 57, 119
2, 11850, Note_off_c, 3, 57, 119
2, 11868, Note_on_c, 3, 57, 78
2, 11900, Note_off_c, 3, 57, 78
2, 11919, Note_on_c, 3, 59, 127
2, 11982, Note_off_c, 3, 59, 127
2, 12008, Note_on_c, 3, 57, 127
2, 12077, Note_off_c, 3, 57, 127
2, 12100, Note_on_c, 3, 61, 127
2, 12222, Note_off_c, 3, 61, 127
2, 12390, Note_on_c, 3, 61, 127
2, 12468, Note_off_c, 3, 61, 127
2, 12485, Note_on_c, 3, 61, 127
2, 12568, Note_off_c, 3, 61, 127
2, 12577, Note_on_c, 3, 61, 127
2, 12669, Note_off_c, 3, 61, 127
2, 12684, Note_on_c, 3, 61, 127
2, 12759, Note_off_c, 3, 61, 127
2, 12777, Note_on_c, 3, 59, 127
2, 12848, Note_off_c, 3, 59, 127
2, 12870, Note_on_c, 3, 57, 127
2, 12947, Note_off_c, 3, 57, 127
2, 12969, Note_on_c, 3, 59, 127
2, 13044, Note_off_c, 3, 59, 127
2, 13066, Note_on_c, 3, 57, 127
2, 13121, Note_off_c, 3, 57, 127
2, 13156, Note_on_c, 3, 61, 127
2, 13336, Note_off_c, 3, 61, 127
2, 13357, Note_on_c, 3, 59, 127
2, 13524, Note_off_c, 3, 59, 127
2, 13547, Note_on_c, 3, 57, 127
2, 13623, Note_off_c, 3, 57, 127
2, 13648, Note_on_c, 3, 56, 127
2, 13723, Note_off_c, 3, 56, 127
2, 13749, Note_on_c, 3, 54, 127
2, 13900, Note_off_c, 3, 54, 127
2, 14401, Note_on_c, 3, 54, 127
2, 14444, Note_off_c, 3, 54, 127
2, 14453, Note_on_c, 3, 56, 127
2, 14482, Note_off_c, 3, 56, 127
2, 14499, Note_on_c, 3, 54, 127
2, 14612, Note_off_c, 3, 54, 127
2, 14784, Note_on_c, 3, 54, 127
2, 14822, Note_off_c, 3, 54, 127
2, 14842, Note_on_c, 3, 56, 116
2, 14863, Note_off_c, 3, 56, 116
2, 14887, Note_on_c, 3, 54, 127
2, 15006, Note_off_c, 3, 54, 127
2, 15171, Note_on_c, 3, 54, 127
2, 15204, Note_off_c, 3, 54, 127
2, 15224, Note_on_c, 3, 56, 119
2, 15241, Note_off_c, 3, 56, 119
2, 15266, Note_on_c, 3, 54, 127
2, 15371, Note_off_c, 3, 54, 127
2, 16226, Note_on_c, 3, 54, 127
2, 16278, Note_off_c, 3, 54, 127
2, 16319, Note_on_c, 3, 57, 127
2, 16396, Note_off_c, 3, 57, 127
2, 16419, Note_on_c, 3, 59, 127
2, 16583, Note_off_c, 3, 59, 127
2, 16609, Note_on_c, 3, 57, 127
2, 16676, Note_off_c, 3, 57, 127
2, 16702, Note_on_c, 3, 56, 127
2, 16777, Note_off_c, 3, 56, 127
2, 16806, Note_on_c, 3, 54, 127
2, 17097, Note_off_c, 3, 54, 127
2, 17474, Note_on_c, 3, 57, 127
2, 17514, Note_off_c, 3, 57, 127
2, 17524, Note_on_c, 3, 56, 127
2, 17567, Note_off_c, 3, 56, 127
2, 17578, Note_on_c, 3, 54, 127
2, 17806, Note_off_c, 3, 54, 127
2, 17855, Note_on_c, 3, 57, 127
2, 17895, Note_off_c, 3, 57, 127
2, 17907, Note_on_c, 3, 56, 127
2, 17938, Note_off_c, 3, 56, 127
2, 17959, Note_on_c, 3, 54, 127
2, 18194, Note_off_c, 3, 54, 127
2, 18239, Note_on_c, 3, 57, 127
2, 18282, Note_off_c, 3, 57, 127
2, 18289, Note_on_c, 3, 56, 127
2, 18332, Note_off_c, 3, 56, 127
2, 18338, Note_on_c, 3, 54, 127
2, 18502, Note_off_c, 3, 54, 127
2, 20165, Note_on_c, 3, 61, 127
2, 20232, Note_off_c, 3, 61, 127
2, 20251, Note_on_c, 3, 61, 118
2, 20348, Note_off_c, 3, 61, 118
2, 20359, Note_on_c, 3, 61, 127
2, 20428, Note_off_c, 3, 61, 127
2, 20449, Note_on_c, 3, 59, 123
2, 20527, Note_off_c, 3, 59, 123
2, 20551, Note_on_c, 3, 57, 109
2, 20628, Note_off_c, 3, 57, 109
2, 20653, Note_on_c, 3, 59, 127
2, 20807, Note_off_c, 3, 59, 127
2, 20845, Note_on_c, 3, 57, 91
2, 20906, Note_off_c, 3, 57, 91
2, 20938, Note_on_c, 3, 61, 127
2, 21004, Note_off_c, 3, 61, 127
2, 21036, Note_on_c, 3, 57, 119
2, 21066, Note_off_c, 3, 57, 119
2, 21084, Note_on_c, 3, 57, 78
2, 21116, Note_off_c, 3, 57, 78
2, 21135, Note_on_c, 3, 59, 127
2, 21198, Note_off_c, 3, 59, 127
2, 21224, Note_on_c, 3, 57, 127
2, 21293, Note_off_c, 3, 57, 127
2, 21316, Note_on_c, 3, 61, 127
2, 21438, Note_off_c, 3, 61, 127
2, 21606, Note_on_c, 3, 61, 127
2, 21684, Note_off_c, 3, 61, 127
2, 21701, Note_on_c, 3, 61, 127
2, 21784, Note_off_c, 3, 61, 127
2, 21793, Note_on_c, 3, 61, 127
2, 21885, Note_off_c, 3, 61, 127
2, 21900, Note_on_c, 3, 61, 127
2, 21975, Note_off_c, 3, 61, 127
2, 21993, Note_on_c, 3, 59, 127
2, 22064, Note_off_c, 3, 59, 127
2, 22086, Note_on_c, 3, 57, 127
2, 22163, Note_off_c, 3, 57, 127
2, 22185, Note_on_c, 3, 59, 127
2, 22260, Note_off_c, 3, 59, 127
2, 22282, Note_on_c, 3, 57, 127
2, 22337, Note_off_c, 3, 57, 127
2, 22372, Note_on_c, 3, 61, 127
2, 22552, Note_off_c, 3, 61, 127
2, 22573, Note_on_c, 3, 59, 127
2, 22740, Note_off_c, 3, 59, 127
2, 22763, Note_on_c, 3, 57, 127
2, 22839, Note_off_c, 3, 57, 127
2, 22864, Note_on_c, 3, 56, 127
2, 22939, Note_off_c, 3, 56, 127
2, 22965, Note_on_c, 3, 54, 127
2, 23040, Note_off_c, 3, 54, 127
2, 23617, Note_on_c, 3, 54, 127
2, 23660, Note_off_c, 3, 54, 127
2, 23669, Note_on_c, 3, 56, 70
2, 23698, Note_off_c, 3, 56, 70
2, 23715, Note_on_c, 3, 54, 127
2, 23828, Note_off_c, 3, 54, 127
2, 24005, Note_on_c, 3, 54, 127
2, 24043, Note_off_c, 3, 54, 127
2, 24058, Note_on_c, 3, 56, 116
2, 24079, Note_off_c, 3, 56, 116
2, 24104, Note_on_c, 3, 54, 127
2, 24223, Note_off_c, 3, 54, 127
2, 24386, Note_on_c, 3, 54, 127
2, 24419, Note_off_c, 3, 54, 127
2, 24440, Note_on_c, 3, 56, 90
2, 24468, Note_off_c, 3, 56, 90
2, 24485, Note_on_c, 3, 54, 127
2, 24590, Note_off_c, 3, 54, 127
2, 26112, Note_on_c, 3, 66, 118
2, 26196, Note_off_c, 3, 66, 118
2, 26206, Note_on_c, 3, 64, 111
2, 26238, Note_off_c, 3, 64, 111
2, 26252, Note_on_c, 3, 66, 127
2, 26338, Note_off_c, 3, 66, 127
2, 26352, Note_on_c, 3, 64, 64
2, 26388, Note_off_c, 3, 64, 64
2, 26405, Note_on_c, 3, 66, 127
2, 26566, Note_off_c, 3, 66, 127
2, 26585, Note_on_c, 3, 69, 127
2, 26762, Note_off_c, 3, 69, 127
2, 26786, Note_on_c, 3, 66, 127
2, 26868, Note_off_c, 3, 66, 127
2, 26880, Note_on_c, 3, 69, 127
2, 26963, Note_off_c, 3, 69, 127
2, 26972, Note_on_c, 3, 66, 127
2, 27010, Note_off_c, 3, 66, 127
2, 27021, Note_on_c, 3, 66, 127
2, 27100, Note_off_c, 3, 66, 127
2, 27116, Note_on_c, 3, 64, 127
2, 27149, Note_off_c, 3, 64, 127
2, 27162, Note_on_c, 3, 66, 127
2, 27240, Note_off_c, 3, 66, 127
2, 27557, Note_on_c, 3, 61, 126
2, 27599, Note_off_c, 3, 61, 126
2, 27603, Note_on_c, 3, 66, 127
2, 27644, Note_off_c, 3, 66, 127
2, 27653, Note_on_c, 3, 64, 127
2, 27685, Note_off_c, 3, 64, 127
2, 27702, Note_on_c, 3, 66, 127
2, 27734, Note_off_c, 3, 66, 127
2, 27748, Note_on_c, 3, 66, 127
2, 27933, Note_off_c, 3, 66, 127
2, 27945, Note_on_c, 3, 66, 127
2, 27980, Note_off_c, 3, 66, 127
2, 27997, Note_on_c, 3, 64, 127
2, 28027, Note_off_c, 3, 64, 127
2, 28048, Note_on_c, 3, 66, 127
2, 28129, Note_off_c, 3, 66, 127
2, 28153, Note_on_c, 3, 68, 127
2, 28307, Note_off_c, 3, 68, 127
2, 28333, Note_on_c, 3, 66, 127
2, 28476, Note_off_c, 3, 66, 127
2, 29091, Note_on_c, 3, 64, 127
2, 29172, Note_off_c, 3, 64, 127
2, 29191, Note_on_c, 3, 66, 127
2, 29265, Note_off_c, 3, 66, 127
2, 29284, Note_on_c, 3, 64, 127
2, 29312, Note_off_c, 3, 64, 127
2, 29335, Note_on_c, 3, 66, 127
2, 29415, Note_off_c, 3, 66, 127
2, 29435, Note_on_c, 3, 64, 127
2, 29471, Note_off_c, 3, 64, 127
2, 29484, Note_on_c, 3, 66, 127
2, 29584, Note_off_c, 3, 66, 127
2, 29597, Note_on_c, 3, 66, 127
2, 29660, Note_off_c, 3, 66, 127
2, 29850, Note_on_c, 3, 66, 127
2, 29876, Note_off_c, 3, 66, 127
2, 29896, Note_on_c, 3, 66, 127
2, 29937, Note_off_c, 3, 66, 127
2, 29948, Note_on_c, 3, 69, 127
2, 30039, Note_off_c, 3, 69, 127
2, 30049, Note_on_c, 3, 66, 127
2, 30090, Note_off_c, 3, 66, 127
2, 30102, Note_on_c, 3, 66, 127
2, 30190, Note_off_c, 3, 66, 127
2, 30209, Note_on_c, 3, 64, 127
2, 30245, Note_off_c, 3, 64, 127
2, 30259, Note_on_c, 3, 66, 127
2, 30363, Note_off_c, 3, 66, 127
2, 30626, Note_on_c, 3, 61, 127
2, 30661, Note_off_c, 3, 61, 127
2, 30676, Note_on_c, 3, 66, 127
2, 30709, Note_off_c, 3, 66, 127
2, 30722, Note_on_c, 3, 62, 127
2, 30803, Note_off_c, 3, 62, 127
2, 30820, Note_on_c, 3, 62, 127
2, 30848, Note_off_c, 3, 62, 127
2, 30863, Note_on_c, 3, 62, 127
2, 30905, Note_off_c, 3, 62, 127
2, 30915, Note_on_c, 3, 62, 127
2, 30963, Note_on_c, 3, 64, 127
2, 30964, Note_off_c, 3, 62, 127
2, 31102, Note_off_c, 3, 64, 127
2, 31116, Note_on_c, 3, 66, 127
2, 31319, Note_off_c, 3, 66, 127
2, 31389, Note_on_c, 3, 66, 127
2, 31474, Note_off_c, 3, 66, 127
2, 31489, Note_on_c, 3, 65, 127
2, 31574, Note_off_c, 3, 65, 127
2, 31589, Note_on_c, 3, 65, 127
2, 31622, Note_off_c, 3, 65, 127
2, 31636, Note_on_c, 3, 65, 127
2, 31671, Note_off_c, 3, 65, 127
2, 31687, Note_on_c, 3, 65, 127
2, 31721, Note_off_c, 3, 65, 127
2, 31737, Note_on_c, 3, 66, 127
2, 31872, Note_off_c, 3, 66, 127
2, 31885, Note_on_c, 3, 68, 127
2, 31990, Note_off_c, 3, 68, 127
2, 32073, Note_on_c, 3, 66, 127
2, 32143, Note_off_c, 3, 66, 127
2, 32166, Note_on_c, 3, 68, 127
2, 32233, Note_off_c, 3, 68, 127
2, 32454, Note_on_c, 3, 66, 127
2, 32511, Note_off_c, 3, 66, 127
2, 32536, Note_on_c, 3, 66, 127
2, 32623, Note_off_c, 3, 66, 127
2, 32641, Note_on_c, 3, 64, 125
2, 32737, Note_off_c, 3, 64, 125
2, 32743, Note_on_c, 3, 61, 127
2, 32914, Note_off_c, 3, 61, 127
2, 32936, Note_on_c, 3, 61, 127
2, 33009, Note_off_c, 3, 61, 127
2, 33036, Note_on_c, 3, 66, 127
2, 33089, Note_off_c, 3, 66, 127
2, 33129, Note_on_c, 3, 66, 127
2, 33209, Note_off_c, 3, 66, 127
2, 33309, Note_on_c, 3, 64, 120
2, 33491, Note_off_c, 3, 64, 120
2, 33504, Note_on_c, 3, 61, 127
2, 33693, Note_off_c, 3, 61, 127
2, 33886, Note_on_c, 3, 66, 127
2, 33969, Note_off_c, 3, 66, 127
2, 33986, Note_on_c, 3, 66, 127
2, 34069, Note_off_c, 3, 66, 127
2, 34084, Note_on_c, 3, 66, 127
2, 34164, Note_off_c, 3, 66, 127
2, 34188, Note_on_c, 3, 64, 127
2, 34269, Note_off_c, 3, 64, 127
2, 34279, Note_on_c, 3, 61, 127
2, 34352, Note_off_c, 3, 61, 127
2, 34372, Note_on_c, 3, 61, 127
2, 34471, Note_off_c, 3, 61, 127
2, 34560, Note_on_c, 3, 66, 127
2, 34644, Note_off_c, 3, 66, 127
2, 34673, Note_on_c, 3, 69, 127
2, 34751, Note_off_c, 3, 69, 127
2, 34851, Note_on_c, 3, 71, 127
2, 35019, Note_off_c, 3, 71, 127
2, 35047, Note_on_c, 3, 69, 127
2, 35123, Note_off_c, 3, 69, 127
2, 35142, Note_on_c, 3, 68, 127
2, 35215, Note_off_c, 3, 68, 127
2, 35234, Note_on_c, 3, 66, 127
2, 35384, Note_off_c, 3, 66, 127
2, 35805, Note_on_c, 3, 66, 127
2, 35916, Note_off_c, 3, 66, 127
2, 35997, Note_on_c, 3, 66, 127
2, 36075, Note_off_c, 3, 66, 127
2, 36097, Note_on_c, 3, 73, 127
2, 36170, Note_off_c, 3, 73, 127
2, 36194, Note_on_c, 3, 71, 127
2, 36282, Note_off_c, 3, 71, 127
2, 36303, Note_on_c, 3, 71, 127
2, 36432, Note_off_c, 3, 71, 127
2, 36487, Note_on_c, 3, 66, 127
2, 36556, Note_off_c, 3, 66, 127
2, 36590, Note_on_c, 3, 62, 127
2, 36756, Note_off_c, 3, 62, 127
2, 36783, Note_on_c, 3, 61, 127
2, 37076, Note_off_c, 3, 61, 127
2, 37731, Note_on_c, 3, 66, 127
2, 37802, Note_off_c, 3, 66, 127
2, 37821, Note_on_c, 3, 69, 127
2, 37907, Note_off_c, 3, 69, 127
2, 37925, Note_on_c, 3, 71, 127
2, 38091, Note_off_c, 3, 71, 127
2, 38110, Note_on_c, 3, 69, 127
2, 38186, Note_off_c, 3, 69, 127
2, 38208, Note_on_c, 3, 68, 127
2, 38286, Note_off_c, 3, 68, 127
2, 38311, Note_on_c, 3, 66, 127
2, 38482, Note_off_c, 3, 66, 127
2, 38883, Note_on_c, 3, 66, 127
2, 38972, Note_off_c, 3, 66, 127
2, 39072, Note_on_c, 3, 66, 127
2, 39158, Note_off_c, 3, 66, 127
2, 39171, Note_on_c, 3, 73, 127
2, 39243, Note_off_c, 3, 73, 127
2, 39266, Note_on_c, 3, 71, 127
2, 39342, Note_off_c, 3, 71, 127
2, 39367, Note_on_c, 3, 71, 127
2, 39478, Note_off_c, 3, 71, 127
2, 39556, Note_on_c, 3, 66, 127
2, 39656, Note_off_c, 3, 66, 127
2, 39657, Note_on_c, 3, 62, 127
2, 39822, Note_off_c, 3, 62, 127
2, 39850, Note_on_c, 3, 61, 127
2, 40150, Note_off_c, 3, 61, 127
2, 41669, Note_on_c, 3, 61, 127
2, 41736, Note_off_c, 3, 61, 127
2, 41755, Note_on_c, 3, 61, 118
2, 41852, Note_off_c, 3, 61, 118
2, 41863, Note_on_c, 3, 61, 127
2, 41932, Note_off_c, 3, 61, 127
2, 41953, Note_on_c, 3, 59, 123
2, 42031, Note_off_c, 3, 59, 123
2, 42055, Note_on_c, 3, 57, 109
2, 42132, Note_off_c, 3, 57, 109
2, 42157, Note_on_c, 3, 59, 127
2, 42311, Note_off_c, 3, 59, 127
2, 42349, Note_on_c, 3, 57, 91
2, 42410, Note_off_c, 3, 57, 91
2, 42442, Note_on_c, 3, 61, 127
2, 42508, Note_off_c, 3, 61, 127
2, 42540, Note_on_c, 3, 57, 119
2, 42570, Note_off_c, 3, 57, 119
2, 42588, Note_on_c, 3, 57, 78
2, 42620, Note_off_c, 3, 57, 78
2, 42639, Note_on_c, 3, 59, 127
2, 42702, Note_off_c, 3, 59, 127
2, 42728, Note_on_c, 3, 57, 127
2, 42797, Note_off_c, 3, 57, 127
2, 42820, Note_on_c, 3, 61, 127
2, 42942, Note_off_c, 3, 61, 127
2, 43110, Note_on_c, 3, 61, 127
2, 43188, Note_off_c, 3, 61, 127
2, 43205, Note_on_c, 3, 61, 127
2, 43288, Note_off_c, 3, 61, 127
2, 43297, Note_on_c, 3, 61, 127
2, 43389, Note_off_c, 3, 61, 127
2, 43404, Note_on_c, 3, 61, 127
2, 43479, Note_off_c, 3, 61, 127
2, 43497, Note_on_c, 3, 59, 127
2, 43568, Note_off_c, 3, 59, 127
2, 43590, Note_on_c, 3, 57, 127
2, 43667, Note_off_c, 3, 57, 127
2, 43689, Note_on_c, 3, 59, 127
2, 43764, Note_off_c, 3, 59, 127
2, 43786, Note_on_c, 3, 57, 127
2, 43841, Note_off_c, 3, 57, 127
2, 43876, Note_on_c, 3, 61, 127
2, 44056, Note_off_c, 3, 61, 127
2, 44077, Note_on_c, 3, 59, 127
2, 44244, Note_off_c, 3, 59, 127
2, 44267, Note_on_c, 3, 57, 127
2, 44343, Note_off_c, 3, 57, 127
2, 44368, Note_on_c, 3, 56, 127
2, 44443, Note_off_c, 3, 56, 127
2, 44469, Note_on_c, 3, 54, 127
2, 44620, Note_off_c, 3, 54, 127
2, 45121, Note_on_c, 3, 54, 127
2, 45164, Note_off_c, 3, 54, 127
2, 45173, Note_on_c, 3, 56, 127
2, 45202, Note_off_c, 3, 56, 127
2, 45219, Note_on_c, 3, 54, 127
2, 45332, Note_off_c, 3, 54, 127
2, 45504, Note_on_c, 3, 54, 127
2, 45542, Note_off_c, 3, 54, 127
2, 45562, Note_on_c, 3, 56, 116
2, 45583, Note_off_c, 3, 56, 116
2, 45607, Note_on_c, 3, 54, 127
2, 45726, Note_off_c, 3, 54, 127
2, 45891, Note_on_c, 3, 54, 127
2, 45924, Note_off_c, 3, 54, 127
2, 45944, Note_on_c, 3, 56, 119
2, 45961, Note_off_c, 3, 56, 119
2, 45986, Note_on_c, 3, 54, 127
2, 46091, Note_off_c, 3, 54, 127
2, 46946, Note_on_c, 3, 54, 127
2, 46998, Note_off_c, 3, 54, 127
2, 47039, Note_on_c, 3, 57, 127
2, 47116, Note_off_c, 3, 57, 127
2, 47139, Note_on_c, 3, 59, 127
2, 47303, Note_off_c, 3, 59, 127
2, 47329, Note_on_c, 3, 57, 127
2, 47396, Note_off_c, 3, 57, 127
2, 47422, Note_on_c, 3, 56, 127
2, 47497, Note_off_c, 3, 56, 127
2, 47526, Note_on_c, 3, 54, 127
2, 47817, Note_off_c, 3, 54, 127
2, 48194, Note_on_c, 3, 57, 127
2, 48234, Note_off_c, 3, 57, 127
2, 48244, Note_on_c, 3, 56, 127
2, 48287, Note_off_c, 3, 56, 127
2, 48298, Note_on_c, 3, 54, 127
2, 48526, Note_off_c, 3, 54, 127
2, 48575, Note_on_c, 3, 57, 127
2, 48615, Note_off_c, 3, 57, 127
2, 48627, Note_on_c, 3, 56, 127
2, 48658, Note_off_c, 3, 56, 127
2, 48679, Note_on_c, 3, 54, 127
2, 48914, Note_off_c, 3, 54, 127
2, 48959, Note_on_c, 3, 57, 127
2, 49002, Note_off_c, 3, 57, 127
2, 49009, Note_on_c, 3, 56, 127
2, 49052, Note_off_c, 3, 56, 127
2, 49058, Note_on_c, 3, 54, 127
2, 49222, Note_off_c, 3, 54, 127
2, 50885, Note_on_c, 3, 61, 127
2, 50952, Note_off_c, 3, 61, 127
2, 50971, Note_on_c, 3, 61, 118
2, 51068, Note_off_c, 3, 61, 118
2, 51079, Note_on_c, 3, 61, 127
2, 51148, Note_off_c, 3, 61, 127
2, 51169, Note_on_c, 3, 59, 123
2, 51247, Note_off_c, 3, 59, 123
2, 51271, Note_on_c, 3, 57, 109
2, 51348, Note_off_c, 3, 57, 109
2, 51373, Note_on_c, 3, 59, 127
2, 51527, Note_off_c, 3, 59, 127
2, 51565, Note_on_c, 3, 57, 91
2, 51626, Note_off_c, 3, 57, 91
2, 51658, Note_on_c, 3, 61, 127
2, 51724, Note_off_c, 3, 61, 127
2, 51756, Note_on_c, 3, 57, 119
2, 51786, Note_off_c, 3, 57, 119
2, 51804, Note_on_c, 3, 57, 78
2, 51836, Note_off_c, 3, 57, 78
2, 51855, Note_on_c, 3, 59, 127
2, 51918, Note_off_c, 3, 59, 127
2, 51944, Note_on_c, 3, 57, 127
2, 52013, Note_off_c, 3, 57, 127
2, 52036, Note_on_c, 3, 61, 127
2, 52158, Note_off_c, 3, 61, 127
2, 52326, Note_on_c, 3, 61, 127
2, 52404, Note_off_c, 3, 61, 127
2, 52421, Note_on_c, 3, 61, 127
2, 52504, Note_off_c, 3, 61, 127
2, 52513, Note_on_c, 3, 61, 127
2, 52605, Note_off_c, 3, 61, 127
2, 52620, Note_on_c, 3, 61, 127
2, 52695, Note_off_c, 3, 61, 127
2, 52713, Note_on_c, 3, 59, 127
2, 52784, Note_off_c, 3, 59, 127
2, 52806, Note_on_c, 3, 57, 127
2, 52883, Note_off_c, 3, 57, 127
2, 52905, Note_on_c, 3, 59, 127
2, 52980, Note_off_c, 3, 59, 127
2, 53002, Note_on_c, 3, 57, 127
2, 53057, Note_off_c, 3, 57, 127
2, 53092, Note_on_c, 3, 61, 127
2, 53272, Note_off_c, 3, 61, 127
2, 53293, Note_on_c, 3, 59, 127
2, 53460, Note_off_c, 3, 59, 127
2, 53483, Note_on_c, 3, 57, 127
2, 53559, Note_off_c, 3, 57, 127
2, 53584, Note_on_c, 3, 56, 127
2, 53659, Note_off_c, 3, 56, 127
2, 53685, Note_on_c, 3, 54, 127
2, 53760, Note_off_c, 3, 54, 127
2, 54337, Note_on_c, 3, 54, 127
2, 54380, Note_off_c, 3, 54, 127
2, 54389, Note_on_c, 3, 56, 70
2, 54418, Note_off_c, 3, 56, 70
2, 54435, Note_on_c, 3, 54, 127
2, 54548, Note_off_c, 3, 54, 127
2, 54725, Note_on_c, 3, 54, 127
2, 54763, Note_off_c, 3, 54, 127
2, 54778, Note_on_c, 3, 56, 116
2, 54799, Note_off_c, 3, 56, 116
2, 54824, Note_on_c, 3, 54, 127
2, 54943, Note_off_c, 3, 54, 127
2, 55106, Note_on_c, 3, 54, 127
2, 55139, Note_off_c, 3, 54, 127
2, 55160, Note_on_c, 3, 56, 90
2, 55188, Note_off_c, 3, 56, 90
2, 55205, Note_on_c, 3, 54, 127
2, 55310, Note_off_c, 3, 54, 127
2, 56832, Note_on_c, 3, 66, 118
2, 56916, Note_off_c, 3, 66, 118
2, 56926, Note_on_c, 3, 64, 111
2, 56958, Note_off_c, 3, 64, 111
2, 56972, Note_on_c, 3, 66, 127
2, 57058, Note_off_c, 3, 66, 127
2, 57072, Note_on_c, 3, 64, 64
2, 57108, Note_off_c, 3, 64, 64
2, 57125, Note_on_c, 3, 66, 127
2, 57286, Note_off_c, 3, 66, 127
2, 57305, Note_on_c, 3, 69, 127
2, 57482, Note_off_c, 3, 69, 127
2, 57506, Note_on_c, 3, 66, 127
2, 57588, Note_off_c, 3, 66, 127
2, 57600, Note_on_c, 3, 69, 127
2, 57683, Note_off_c, 3, 69, 127
2, 57692, Note_on_c, 3, 66, 127
2, 57730, Note_off_c, 3, 66, 127
2, 57741, Note_on_c, 3, 66, 127
2, 57820, Note_off_c, 3, 66, 127
2, 57836, Note_on_c, 3, 64, 127
2, 57869, Note_off_c, 3, 64, 127
2, 57882, Note_on_c, 3, 66, 127
2, 57960, Note_off_c, 3, 66, 127
2, 58277, Note_on_c, 3, 61, 126
2, 58319, Note_off_c, 3, 61, 126
2, 58323, Note_on_c, 3, 66, 127
2, 58364, Note_off_c, 3, 66, 127
2, 58373, Note_on_c, 3, 64, 127
2, 58405, Note_off_c, 3, 64, 127
2, 58422, Note_on_c, 3, 66, 127
2, 58454, Note_off_c, 3, 66, 127
2, 58468, Note_on_c, 3, 66, 127
2, 58653, Note_off_c, 3, 66, 127
2, 58665, Note_on_c, 3, 66, 127
2, 58700, Note_off_c, 3, 66, 127
2, 58717, Note_on_c, 3, 64, 127
2, 58747, Note_off_c, 3, 64, 127
2, 58768, Note_on_c, 3, 66, 127
2, 58849, Note_off_c, 3, 66, 127
2, 58873, Note_on_c, 3, 68, 127
2, 59027, Note_off_c, 3, 68, 127
2, 59053, Note_on_c, 3, 66, 127
2, 59196, Note_off_c, 3, 66, 127
2, 59811, Note_on_c, 3, 64, 127
2, 59892, Note_off_c, 3, 64, 127
2, 59911, Note_on_c, 3, 66, 127
2, 59985, Note_off_c, 3, 66, 127
2, 60004, Note_on_c, 3, 64, 127
2, 60032, Note_off_c, 3, 64, 127
2, 60055, Note_on_c, 3, 66, 127
2, 60135, Note_off_c, 3, 66, 127
2, 60155, Note_on_c, 3, 64, 127
2, 60191, Note_off_c, 3, 64, 127
2, 60204, Note_on_c, 3, 66, 127
2, 60304, Note_off_c, 3, 66, 127
2, 60317, Note_on_c, 3, 66, 127
2, 60380, Note_off_c, 3, 66, 127
2, 60570, Note_on_c, 3, 66, 127
2, 60596, Note_off_c, 3, 66, 127
2, 60616, Note_on_c, 3, 66, 127
2, 60657, Note_off_c, 3, 66, 127
2, 60668, Note_on_c, 3, 69, 127
2, 60759, Note_off_c, 3, 69, 127
2, 60769, Note_on_c, 3, 66, 127
2, 60810, Note_off_c, 3, 66, 127
2, 60822, Note_on_c, 3, 66, 127
2, 60910, Note_off_c, 3, 66, 127
2, 60929, Note_on_c, 3, 64, 127
2, 60965, Note_off_c, 3, 64, 127
2, 60979, Note_on_c, 3, 66, 127
2, 61083, Note_off_c, 3, 66, 127
2, 61346, Note_on_c, 3, 61, 127
2, 61381, Note_off_c, 3, 61, 127
2, 61396, Note_on_c, 3, 66, 127
2, 61429, Note_off_c, 3, 66, 127
2, 61442, Note_on_c, 3, 62, 127
2, 61523, Note_off_c, 3, 62, 127
2, 61540, Note_on_c, 3, 62, 127
2, 61568, Note_off_c, 3, 62, 127
2, 61583, Note_on_c, 3, 62, 127
2, 61625, Note_off_c, 3, 62, 127
2, 61635, Note_on_c, 3, 62, 127
2, 61683, Note_on_c, 3, 64, 127
2, 61684, Note_off_c, 3, 62, 127
2, 61822, Note_off_c, 3, 64, 127
2, 61836, Note_on_c, 3, 66, 127
2, 62039, Note_off_c, 3, 66, 127
2, 62109, Note_on_c, 3, 66, 127
2, 62194, Note_off_c, 3, 66, 127
2, 62209, Note_on_c, 3, 65, 127
2, 62294, Note_off_c, 3, 65, 127
2, 62309, Note_on_c, 3, 65, 127
2, 62342, Note_off_c, 3, 65, 127
2, 62356, Note_on_c, 3, 65, 127
2, 62391, Note_off_c, 3, 65, 127
2, 62407, Note_on_c, 3, 65, 127
2, 62441, Note_off_c, 3, 65, 127
2, 62457, Note_on_c, 3, 66, 127
2, 62592, Note_off_c, 3, 66, 127
2, 62605, Note_on_c, 3, 68, 127
2, 62710, Note_off_c, 3, 68, 127
2, 62793, Note_on_c, 3, 66, 127
2, 62863, Note_off_c, 3, 66, 127
2, 62886, Note_on_c, 3, 68, 127
2, 62953, Note_off_c, 3, 68, 127
2, 63174, Note_on_c, 3, 66, 127
2, 63231, Note_off_c, 3, 66, 127
2, 63256, Note_on_c, 3, 66, 127
2, 63343, Note_off_c, 3, 66, 127
2, 63361, Note_on_c, 3, 64, 125
2, 63457, Note_off_c, 3, 64, 125
2, 63463, Note_on_c, 3, 61, 127
2, 63634, Note_off_c, 3, 61, 127
2, 63656, Note_on_c, 3, 61, 127
2, 63729, Note_off_c, 3, 61, 127
2, 63756, Note_on_c, 3, 66, 127
2, 63809, Note_off_c, 3, 66, 127
2, 63849, Note_on_c, 3, 66, 127
2, 63929, Note_off_c, 3, 66, 127
2, 64029, Note_on_c, 3, 64, 120
2, 64211, Note_off_c, 3, 64, 120
2, 64224, Note_on_c, 3, 61, 127
2, 64413, Note_off_c, 3, 61, 127
2, 64606, Note_on_c, 3, 66, 127
2, 64689, Note_off_c, 3, 66, 127
2, 64706, Note_on_c, 3, 66, 127
2, 64789, Note_off_c, 3, 66, 127
2, 64804, Note_on_c, 3, 66, 127
2, 64884, Note_off_c, 3, 66, 127
2, 64908, Note_on_c, 3, 64, 127
2, 64989, Note_off_c, 3, 64, 127
2, 64999, Note_on_c, 3, 61, 127
2, 65072, Note_off_c, 3, 61, 127
2, 65092, Note_on_c, 3, 61, 127
2, 65191, Note_off_c, 3, 61, 127
2, 65280, Note_on_c, 3, 66, 127
2, 65364, Note_off_c, 3, 66, 127
2, 65393, Note_on_c, 3, 69, 127
2, 65471, Note_off_c, 3, 69, 127
2, 65571, Note_on_c, 3, 71, 127
2, 65739, Note_off_c, 3, 71, 127
2, 65767, Note_on_c, 3, 69, 127
2, 65843, Note_off_c, 3, 69, 127
2, 65862, Note_on_c, 3, 68, 127
2, 65935, Note_off_c, 3, 68, 127
2, 65954, Note_on_c, 3, 66, 127
2, 66104, Note_off_c, 3, 66, 127
2, 66525, Note_on_c, 3, 66, 127
2, 66636, Note_off_c, 3, 66, 127
2, 66717, Note_on_c, 3, 66, 127
2, 66795, Note_off_c, 3, 66, 127
2, 66817, Note_on_c, 3, 73, 127
2, 66890, Note_off_c, 3, 73, 127
2, 66914, Note_on_c, 3, 71, 127
2, 67002, Note_off_c, 3, 71, 127
2, 67023, Note_on_c, 3, 71, 127
2, 67152, Note_off_c, 3, 71, 127
2, 67207, Note_on_c, 3, 66, 127
2, 67276, Note_off_c, 3, 66, 127
2, 67310, Note_on_c, 3, 62, 127
2, 67476, Note_off_c, 3, 62, 127
2, 67503, Note_on_c, 3, 61, 127
2, 67796, Note_off_c, 3, 61, 127
2, 69318, Note_on_c, 3, 66, 127
2, 69375, Note_off_c, 3, 66, 127
2, 69400, Note_on_c, 3, 66, 127
2, 69487, Note_off_c, 3, 66, 127
2, 69505, Note_on_c, 3, 64, 125
2, 69601, Note_off_c, 3, 64, 125
2, 69607, Note_on_c, 3, 61, 127
2, 69778, Note_off_c, 3, 61, 127
2, 69800, Note_on_c, 3, 61, 127
2, 69873, Note_off_c, 3, 61, 127
2, 69900, Note_on_c, 3, 66, 127
2, 69953, Note_off_c, 3, 66, 127
2, 69993, Note_on_c, 3, 66, 127
2, 70073, Note_off_c, 3, 66, 127
2, 70173, Note_on_c, 3, 64, 120
2, 70355, Note_off_c, 3, 64, 120
2, 70368, Note_on_c, 3, 61, 127
2, 70557, Note_off_c, 3, 61, 127
2, 70750, Note_on_c, 3, 66, 127
2, 70833, Note_off_c, 3, 66, 127
2, 70850, Note_on_c, 3, 66, 127
2, 70933, Note_off_c, 3, 66, 127
2, 70948, Note_on_c, 3, 66, 127
2, 71028, Note_off_c, 3, 66, 127
2, 71052, Note_on_c, 3, 64, 127
2, 71133, Note_off_c, 3, 64, 127
2, 71143, Note_on_c, 3, 61, 127
2, 71216, Note_off_c, 3, 61, 127
2, 71236, Note_on_c, 3, 61, 127
2, 71335, Note_off_c, 3, 61, 127
2, 71424, Note_on_c, 3, 66, 127
2, 71508, Note_off_c, 3, 66, 127
2, 71537, Note_on_c, 3, 69, 127
2, 71615, Note_off_c, 3, 69, 127
2, 71715, Note_on_c, 3, 71, 127
2, 71883, Note_off_c, 3, 71, 127
2, 71911, Note_on_c, 3, 69, 127
2, 71987, Note_off_c, 3, 69, 127
2, 72006, Note_on_c, 3, 68, 127
2, 72079, Note_off_c, 3, 68, 127
2, 72098, Note_on_c, 3, 66, 127
2, 72248, Note_off_c, 3, 66, 127
2, 72669, Note_on_c, 3, 66, 127
2, 72780, Note_off_c, 3, 66, 127
2, 72861, Note_on_c, 3, 66, 127
2, 72939, Note_off_c, 3, 66, 127
2, 72961, Note_on_c, 3, 73, 127
2, 73034, Note_off_c, 3, 73, 127
2, 73058, Note_on_c, 3, 71, 127
2, 73146, Note_off_c, 3, 71, 127
2, 73167, Note_on_c, 3, 71, 127
2, 73296, Note_off_c, 3, 71, 127
2, 73351, Note_on_c, 3, 66, 127
2, 73420, Note_off_c, 3, 66, 127
2, 73454, Note_on_c, 3, 62, 127
2, 73620, Note_off_c, 3, 62, 127
2, 73647, Note_on_c, 3, 61, 127
2, 73940, Note_off_c, 3, 61, 127
2, 74595, Note_on_c, 3, 66, 127
2, 74666, Note_off_c, 3, 66, 127
2, 74685, Note_on_c, 3, 69, 127
2, 74771, Note_off_c, 3, 69, 127
2, 74789, Note_on_c, 3, 71, 127
2, 74955, Note_off_c, 3, 71, 127
2, 74974, Note_on_c, 3, 69, 127
2, 75050, Note_off_c, 3, 69, 127
2, 75072, Note_on_c, 3, 68, 127
2, 75150, Note_off_c, 3, 68, 127
2, 75175, Note_on_c, 3, 66, 127
2, 75346, Note_off_c, 3, 66, 127
2, 75747, Note_on_c, 3, 66, 127
2, 75836, Note_off_c, 3, 66, 127
2, 75936, Note_on_c, 3, 66, 127
2, 76022, Note_off_c, 3, 66, 127
2, 76035, Note_on_c, 3, 73, 127
2, 76107, Note_off_c, 3, 73, 127
2, 76130, Note_on_c, 3, 71, 127
2, 76206, Note_off_c, 3, 71, 127
2, 76231, Note_on_c, 3, 71, 127
2, 76342, Note_off_c, 3, 71, 127
2, 76420, Note_on_c, 3, 66, 127
2, 76520, Note_off_c, 3, 66, 127
2, 76521, Note_on_c, 3, 62, 127
2, 76686, Note_off_c, 3, 62, 127
2, 76714, Note_on_c, 3, 61, 127
2, 77014, Note_off_c, 3, 61, 127
2, 83811, Note_on_c, 3, 66, 127
2, 83882, Note_off_c, 3, 66, 127
2, 83901, Note_on_c, 3, 69, 127
2, 83987, Note_off_c, 3, 69, 127
2, 84005, Note_on_c, 3, 71, 127
2, 84171, Note_off_c, 3, 71, 127
2, 84190, Note_on_c, 3, 69, 127
2, 84266, Note_off_c, 3, 69, 127
2, 84288, Note_on_c, 3, 68, 127
2, 84366, Note_off_c, 3, 68, 127
2, 84391, Note_on_c, 3, 66, 127
2, 84562, Note_off_c, 3, 66, 127
2, 84963, Note_on_c, 3, 66, 127
2, 85052, Note_off_c, 3, 66, 127
2, 85152, Note_on_c, 3, 66, 127
2, 85238, Note_off_c, 3, 66, 127
2, 85251, Note_on_c, 3, 73, 127
2, 85323, Note_off_c, 3, 73, 127
2, 85346, Note_on_c, 3, 71, 127
2, 85422, Note_off_c, 3, 71, 127
2, 85447, Note_on_c, 3, 71, 127
2, 85558, Note_off_c, 3, 71, 127
2, 85636, Note_on_c, 3, 66, 127
2, 85736, Note_off_c, 3, 66, 127
2, 85737, Note_on_c, 3, 62, 127
2, 85902, Note_off_c, 3, 62, 127
2, 85930, Note_on_c, 3, 61, 127
2, 86230, Note_off_c, 3, 61, 127
2, 87750, Note_on_c, 3, 66, 127
2, 87807, Note_off_c, 3, 66, 127
2, 87832, Note_on_c, 3, 66, 127
2, 87919, Note_off_c, 3, 66, 127
2, 87937, Note_on_c, 3, 64, 125
2, 88033, Note_off_c, 3, 64, 125
2, 88039, Note_on_c, 3, 61, 127
2, 88210, Note_off_c, 3, 61, 127
2, 88232, Note_on_c, 3, 61, 127
2, 88305, Note_off_c, 3, 61, 127
2, 88332, Note_on_c, 3, 66, 127
2, 88385, Note_off_c, 3, 66, 127
2, 88425, Note_on_c, 3, 66, 127
2, 88505, Note_off_c, 3, 66, 127
2, 88605, Note_on_c, 3, 64, 120
2, 88787, Note_off_c, 3, 64, 120
2, 88800, Note_on_c, 3, 61, 127
2, 88989, Note_off_c, 3, 61, 127
2, 89182, Note_on_c, 3, 66, 127
2, 89265, Note_off_c, 3, 66, 127
2, 89282, Note_on_c, 3, 66, 127
2, 89365, Note_off_c, 3, 66, 127
2, 89380, Note_on_c, 3, 66, 127
2, 89460, Note_off_c, 3, 66, 127
2, 89484, Note_on_c, 3, 64, 127
2, 89565, Note_off_c, 3, 64, 127
2, 89575, Note_on_c, 3, 61, 127
2, 89648, Note_off_c, 3, 61, 127
2, 89668, Note_on_c, 3, 61, 127
2, 89767, Note_off_c, 3, 61, 127
2, 89856, Note_on_c, 3, 66, 127
2, 89940, Note_off_c, 3, 66, 127
2, 89969, Note_on_c, 3, 69, 127
2, 90047, Note_off_c, 3, 69, 127
2, 90147, Note_on_c, 3, 71, 127
2, 90315, Note_off_c, 3, 71, 127
2, 90343, Note_on_c, 3, 69, 127
2, 90419, Note_off_c, 3, 69, 127
2, 90438, Note_on_c, 3, 68, 127
2, 90511, Note_off_c, 3, 68, 127
2, 90530, Note_on_c, 3, 66, 127
2, 90680, Note_off_c, 3, 66, 127
2, 91101, Note_on_c, 3, 66, 127
2, 91212, Note_off_c, 3, 66, 127
2, 91293, Note_on_c, 3, 66, 127
2, 91371, Note_off_c, 3, 66, 127
2, 91393, Note_on_c, 3, 73, 127
2, 91466, Note_off_c, 3, 73, 127
2, 91490, Note_on_c, 3, 71, 127
2, 91578, Note_off_c, 3, 71, 127
2, 91599, Note_on_c, 3, 71, 127
2, 91728, Note_off_c, 3, 71, 127
2, 91783, Note_on_c, 3, 66, 127
2, 91852, Note_off_c, 3, 66, 127
2, 91886, Note_on_c, 3, 62, 127
2, 92052, Note_off_c, 3, 62, 127
2, 92079, Note_on_c, 3, 61, 127
2, 92372, Note_off_c, 3, 61, 127
2, 93027, Note_on_c, 3, 66, 127
2, 93098, Note_off_c, 3, 66, 127
2, 93117, Note_on_c, 3, 69, 127
2, 93203, Note_off_c, 3, 69, 127
2, 93221, Note_on_c, 3, 71, 127
2, 93387, Note_off_c, 3, 71, 127
2, 93406, Note_on_c, 3, 69, 127
2, 93482, Note_off_c, 3, 69, 127
2, 93504, Note_on_c, 3, 68, 127
2, 93582, Note_off_c, 3, 68, 127
2, 93607, Note_on_c, 3, 66, 127
2, 93778, Note_off_c, 3, 66, 127
2, 94179, Note_on_c, 3, 66, 127
2, 94268, Note_off_c, 3, 66, 127
2, 94368, Note_on_c, 3, 66, 127
2, 94454, Note_off_c, 3, 66, 127
2, 94467, Note_on_c, 3, 73, 127
2, 94539, Note_off_c, 3, 73, 127
2, 94562, Note_on_c, 3, 71, 127
2, 94638, Note_off_c, 3, 71, 127
2, 94663, Note_on_c, 3, 71, 127
2, 94774, Note_off_c, 3, 71, 127
2, 94852, Note_on_c, 3, 66, 127
2, 94952, Note_off_c, 3, 66, 127
2, 94953, Note_on_c, 3, 62, 127
2, 95118, Note_off_c, 3, 62, 127
2, 95146, Note_on_c, 3, 61, 127
2, 95446, Note_off_c, 3, 61, 127
2, 96966, Note_on_c, 3, 66, 127
2, 97023, Note_off_c, 3, 66, 127
2, 97048, Note_on_c, 3, 66, 127
2, 97135, Note_off_c, 3, 66, 127
2, 97153, Note_on_c, 3, 64, 125
2, 97249, Note_off_c, 3, 64, 125
2, 97255, Note_on_c, 3, 61, 127
2, 97426, Note_off_c, 3, 61, 127
2, 97448, Note_on_c, 3, 61, 127
2, 97521, Note_off_c, 3, 61, 127
2, 97548, Note_on_c, 3, 66, 127
2, 97601, Note_off_c, 3, 66, 127
2, 97641, Note_on_c, 3, 66, 127
2, 97721, Note_off_c, 3, 66, 127
2, 97821, Note_on_c, 3, 64, 120
2, 98003, Note_off_c, 3, 64, 120
2, 98016, Note_on_c, 3, 61, 127
2, 98205, Note_off_c, 3, 61, 127
2, 98502, Note_on_c, 3, 66, 127
2, 98559, Note_off_c, 3, 66, 127
2, 98584, Note_on_c, 3, 66, 127
2, 98671, Note_off_c, 3, 66, 127
2, 98689, Note_on_c, 3, 64, 125
2, 98785, Note_off_c, 3, 64, 125
2, 98791, Note_on_c, 3, 61, 127
2, 98962, Note_off_c, 3, 61, 127
2, 98984, Note_on_c, 3, 61, 127
2, 99057, Note_off_c, 3, 61, 127
2, 99084, Note_on_c, 3, 66, 127
2, 99137, Note_off_c, 3, 66, 127
2, 99177, Note_on_c, 3, 66, 127
2, 99257, Note_off_c, 3, 66, 127
2, 99357, Note_on_c, 3, 64, 120
2, 99539, Note_off_c, 3, 64, 120
2, 99552, Note_on_c, 3, 61, 127
2, 99741, Note_off_c, 3, 61, 127
2, 100038, Note_on_c, 3, 66, 127
2, 100095, Note_off_c, 3, 66, 127
2, 100120, Note_on_c, 3, 66, 127
2, 100207, Note_off_c, 3, 66, 127
2, 100225, Note_on_c, 3, 64, 125
2, 100321, Note_off_c, 3, 64, 125
2, 100327, Note_on_c, 3, 61, 127
2, 100498, Note_off_c, 3, 61, 127
2, 100520, Note_on_c, 3, 61, 127
2, 100593, Note_off_c, 3, 61, 127
2, 100620, Note_on_c, 3, 66, 127
2, 100673, Note_off_c, 3, 66, 127
2, 100713, Note_on_c, 3, 66, 127
2, 100793, Note_off_c, 3, 66, 127
2, 100893, Note_on_c, 3, 64, 120
2, 101075, Note_off_c, 3, 64, 120
2, 101088, Note_on_c, 3, 61, 127
2, 101277, Note_off_c, 3, 61, 127
2, 101574, Note_on_c, 3, 66, 127
2, 101631, Note_off_c, 3, 66, 127
2, 101656, Note_on_c, 3, 66, 127
2, 101743, Note_off_c, 3, 66, 127
2, 101761, Note_on_c, 3, 64, 125
2, 101857, Note_off_c, 3, 64, 125
2, 101863, Note_on_c, 3, 61, 127
2, 102034, Note_off_c, 3, 61, 127
2, 102056, Note_on_c, 3, 61, 127
2, 102129, Note_off_c, 3, 61, 127
2, 102156, Note_on_c, 3, 66, 127
2, 102209, Note_off_c, 3, 66, 127
2, 102249, Note_on_c, 3, 66, 127
2, 102329, Note_off_c, 3, 66, 127
2, 102429, Note_on_c, 3, 64, 120
2, 102611, Note_off_c, 3, 64, 120
2, 102624, Note_on_c, 3, 61, 127
2, 102813, Note_off_c, 3, 61, 127
2, 102912, Control_c, 3, 11, 127
2, 102960, Control_c, 3, 11, 126
2, 103000, Control_c, 3, 11, 125
2, 103040, Control_c, 3, 11, 124
2, 103088, Control_c, 3, 11, 123
2, 103110, Note_on_c, 3, 66, 127
2, 103128, Control_c, 3, 11, 122
2, 103167, Note_off_c, 3, 66, 127
2, 103168, Control_c, 3, 11, 121
2, 103192, Note_on_c, 3, 66, 127
2, 103208, Control_c, 3, 11, 120
2, 103256, Control_c, 3, 11, 119
2, 103279, Note_off_c, 3, 66, 127
2, 103296, Control_c, 3, 11, 118
2, 103297, Note_on_c, 3, 64, 125
2, 103336, Control_c, 3, 11, 117
2, 103376, Control_c, 3, 11, 116
2, 103393, Note_off_c, 3, 64, 125
2, 103399, Note_on_c, 3, 61, 127
2, 103424, Control_c, 3, 11, 115
2, 103464, Control_c, 3, 11, 114
2, 103504, Control_c, 3, 11, 113
2, 103544, Control_c, 3, 11, 112
2, 103570, Note_off_c, 3, 61, 127
2, 103592, Control_c, 3, 11, 111
2, 103592, Note_on_c, 3, 61, 127
2, 103632, Control_c, 3, 11, 110
2, 103665, Note_off_c, 3, 61, 127
2, 103672, Control_c, 3, 11, 109
2, 103692, Note_on_c, 3, 66, 127
2, 103712, Control_c, 3, 11, 108
2, 103745, Note_off_c, 3, 66, 127
2, 103760, Control_c, 3, 11, 107
2, 103785, Note_on_c, 3, 66, 127
2, 103800, Control_c, 3, 11, 106
2, 103840, Control_c, 3, 11, 105
2, 103865, Note_off_c, 3, 66, 127
2, 103880, Control_c, 3, 11, 104
2, 103928, Control_c, 3, 11, 103
2, 103965, Note_on_c, 3, 64, 120
2, 103968, Control_c, 3, 11, 102
2, 104008, Control_c, 3, 11, 101
2, 104048, Control_c, 3, 11, 100
2, 104096, Control_c, 3, 11, 99
2, 104136, Control_c, 3, 11, 98
2, 104147, Note_off_c, 3, 64, 120
2, 104160, Note_on_c, 3, 61, 127
2, 104176, Control_c, 3, 11, 97
2, 104216, Control_c, 3, 11, 96
2, 104264, Control_c, 3, 11, 95
2, 104304, Control_c, 3, 11, 94
2, 104344, Control_c, 3, 11, 93
2, 104349, Note_off_c, 3, 61, 127
2, 104392, Control_c, 3, 11, 92
2, 104432, Control_c, 3, 11, 91
2, 104472, Control_c, 3, 11, 90
2, 104512, Control_c, 3, 11, 89
2, 104560, Control_c, 3, 11, 88
2, 104600, Control_c, 3, 11, 87
2, 104640, Control_c, 3, 11, 86
2, 104646, Note_on_c, 3, 66, 127
2, 104680, Control_c, 3, 11, 85
2, 104703, Note_off_c, 3, 66, 127
2, 104728, Control_c, 3, 11, 84
2, 104728, Note_on_c, 3, 66, 127
2, 104768, Control_c, 3, 11, 83
2, 104808, Control_c, 3, 11, 82
2, 104815, Note_off_c, 3, 66, 127
2, 104833, Note_on_c, 3, 64, 125
2, 104848, Control_c, 3, 11, 81
2, 104896, Control_c, 3, 11, 80
2, 104929, Note_off_c, 3, 64, 125
2, 104935, Note_on_c, 3, 61, 127
2, 104936, Control_c, 3, 11, 79
2, 104976, Control_c, 3, 11, 78
2, 105016, Control_c, 3, 11, 77
2, 105064, Control_c, 3, 11, 76
2, 105104, Control_c, 3, 11, 75
2, 105106, Note_off_c, 3, 61, 127
2, 105128, Note_on_c, 3, 61, 127
2, 105144, Control_c, 3, 11, 74
2, 105184, Control_c, 3, 11, 73
2, 105201, Note_off_c, 3, 61, 127
2, 105228, Note_on_c, 3, 66, 127
2, 105232, Control_c, 3, 11, 72
2, 105272, Control_c, 3, 11, 71
2, 105281, Note_off_c, 3, 66, 127
2, 105312, Control_c, 3, 11, 70
2, 105321, Note_on_c, 3, 66, 127
2, 105352, Control_c, 3, 11, 69
2, 105400, Control_c, 3, 11, 68
2, 105401, Note_off_c, 3, 66, 127
2, 105440, Control_c, 3, 11, 67
2, 105480, Control_c, 3, 11, 66
2, 105501, Note_on_c, 3, 64, 120
2, 105520, Control_c, 3, 11, 65
2, 105568, Control_c, 3, 11, 64
2, 105608, Control_c, 3, 11, 63
2, 105648, Control_c, 3, 11, 62
2, 105683, Note_off_c, 3, 64, 120
2, 105696, Control_c, 3, 11, 61
2, 105696, Note_on_c, 3, 61, 127
2, 105736, Control_c, 3, 11, 60
2, 105776, Control_c, 3, 11, 59
2, 105816, Control_c, 3, 11, 58
2, 105864, Control_c, 3, 11, 57
2, 105885, Note_off_c, 3, 61, 127
2, 105904, Control_c, 3, 11, 56
2, 105944, Control_c, 3, 11, 55
2, 105984, Control_c, 3, 11, 54
2, 106032, Control_c, 3, 11, 53
2, 106072, Control_c, 3, 11, 52
2, 106112, Control_c, 3, 11, 51
2, 106152, Control_c, 3, 11, 50
2, 106182, Note_on_c, 3, 66, 127
2, 106200, Control_c, 3, 11, 49
2, 106239, Note_off_c, 3, 66, 127
2, 106240, Control_c, 3, 11, 48
2, 106264, Note_on_c, 3, 66, 127
2, 106280, Control_c, 3, 11, 47
2, 106320, Control_c, 3, 11, 46
2, 106351, Note_off_c, 3, 66, 127
2, 106368, Control_c, 3, 11, 45
2, 106369, Note_on_c, 3, 64, 125
2, 106408, Control_c, 3, 11, 44
2, 106448, Control_c, 3, 11, 43
2, 106465, Note_off_c, 3, 64, 125
2, 106471, Note_on_c, 3, 61, 127
2, 106488, Control_c, 3, 11, 42
2, 106536, Control_c, 3, 11, 41
2, 106576, Control_c, 3, 11, 40
2, 106616, Control_c, 3, 11, 39
2, 106642, Note_off_c, 3, 61, 127
2, 106656, Control_c, 3, 11, 38
2, 106664, Note_on_c, 3, 61, 127
2, 106704, Control_c, 3, 11, 37
2, 106737, Note_off_c, 3, 61, 127
2, 106744, Control_c, 3, 11, 36
2, 106764, Note_on_c, 3, 66, 127
2, 106784, Control_c, 3, 11, 35
2, 106817, Note_off_c, 3, 66, 127
2, 106824, Control_c, 3, 11, 34
2, 106857, Note_on_c, 3, 66, 127
2, 106872, Control_c, 3, 11, 33
2, 106912, Control_c, 3, 11, 32
2, 106937, Note_off_c, 3, 66, 127
2, 106952, Control_c, 3, 11, 31
2, 107000, Control_c, 3, 11, 30
2, 107037, Note_on_c, 3, 64, 120
2, 107040, Control_c, 3, 11, 29
2, 107080, Control_c, 3, 11, 28
2, 107120, Control_c, 3, 11, 27
2, 107168, Control_c, 3, 11, 26
2, 107208, Control_c, 3, 11, 25
2, 107219, Note_off_c, 3, 64, 120
2, 107232, Note_on_c, 3, 61, 127
2, 107248, Control_c, 3, 11, 24
2, 107288, Control_c, 3, 11, 23
2, 107336, Control_c, 3, 11, 22
2, 107376, Control_c, 3, 11, 21
2, 107416, Control_c, 3, 11, 20
2, 107421, Note_off_c, 3, 61, 127
2, 107456, Control_c, 3, 11, 19
2, 107504, Control_c, 3, 11, 18
2, 107544, Control_c, 3, 11, 17
2, 107584, Control_c, 3, 11, 16
2, 107624, Control_c, 3, 11, 15
2, 107672, Control_c, 3, 11, 14
2, 107712, Control_c, 3, 11, 13
2, 107752, Control_c, 3, 11, 12
2, 107792, Control_c, 3, 11, 11
2, 107840, Control_c, 3, 11, 10
2, 107880, Control_c, 3, 11, 9
2, 107920, Control_c, 3, 11, 8
2, 107960, Control_c, 3, 11, 7
2, 108008, Control_c, 3, 11, 6
2, 108048, Control_c, 3, 11, 5
2, 108088, Control_c, 3, 11, 4
2, 108128, Control_c, 3, 11, 3
2, 108176, Control_c, 3, 11, 2
2, 108216, Control_c, 3, 11, 1
2, 108292, Control_c, 3, 120, 0
2, 108344, Control_c, 3, 123, 0
2, 108344, End_track
3, 0, Start_track
3, 0, Text_t, "Elec Piano"
3, 192, Control_c, 0, 121, 0
3, 237, Control_c, 0, 0, 8
3, 240, Control_c, 0, 32, 0
3, 288, Program_c, 0, 5
3, 336, Control_c, 0, 10, 64
3, 384, Control_c, 0, 91, 50
3, 432, Control_c, 0, 93, 30
3, 482, Control_c, 0, 7, 123
3, 518, Control_c, 0, 11, 127
3, 26112, Note_on_c, 0, 50, 89
3, 26112, Note_on_c, 0, 57, 91
3, 26112, Note_on_c, 0, 62, 81
3, 26592, Note_off_c, 0, 50, 89
3, 26592, Note_on_c, 0, 52, 97
3, 26736, Note_off_c, 0, 52, 97
3, 26736, Note_on_c, 0, 50, 97
3, 26868, Note_off_c, 0, 62, 81
3, 26872, Note_off_c, 0, 57, 91
3, 26880, Note_off_c, 0, 50, 97
3, 26880, Note_on_c, 0, 49, 86
3, 26880, Note_on_c, 0, 54, 97
3, 27648, Note_off_c, 0, 54, 97
3, 27648, Note_off_c, 0, 49, 86
3, 27648, Note_on_c, 0, 50, 85
3, 27648, Note_on_c, 0, 57, 76
3, 27648, Note_on_c, 0, 62, 84
3, 28112, Note_off_c, 0, 50, 85
3, 28128, Note_on_c, 0, 52, 97
3, 28272, Note_off_c, 0, 52, 97
3, 28272, Note_on_c, 0, 50, 97
3, 28400, Note_off_c, 0, 62, 84
3, 28404, Note_off_c, 0, 57, 76
3, 28416, Note_off_c, 0, 50, 97
3, 28416, Note_on_c, 0, 54, 90
3, 28416, Note_on_c, 0, 57, 97
3, 29184, Note_off_c, 0, 57, 97
3, 29184, Note_off_c, 0, 54, 90
3, 29184, Note_on_c, 0, 50, 85
3, 29184, Note_on_c, 0, 57, 82
3, 29184, Note_on_c, 0, 62, 83
3, 29616, Note_off_c, 0, 50, 85
3, 29664, Note_on_c, 0, 52, 97
3, 29800, Note_off_c, 0, 52, 97
3, 29808, Note_on_c, 0, 50, 97
3, 29936, Note_off_c, 0, 62, 83
3, 29940, Note_off_c, 0, 57, 82
3, 29952, Note_off_c, 0, 50, 97
3, 29952, Note_on_c, 0, 49, 87
3, 29952, Note_on_c, 0, 54, 93
3, 30432, Note_off_c, 0, 54, 93
3, 30432, Note_off_c, 0, 49, 87
3, 30432, Note_on_c, 0, 49, 78
3, 30432, Note_on_c, 0, 54, 82
3, 30720, Note_off_c, 0, 54, 82
3, 30720, Note_off_c, 0, 49, 78
3, 30720, Note_on_c, 0, 50, 88
3, 30720, Note_on_c, 0, 57, 82
3, 30720, Note_on_c, 0, 62, 88
3, 31184, Note_off_c, 0, 50, 88
3, 31200, Note_on_c, 0, 52, 97
3, 31332, Note_off_c, 0, 52, 97
3, 31344, Note_on_c, 0, 50, 97
3, 31472, Note_off_c, 0, 62, 88
3, 31472, Note_off_c, 0, 57, 82
3, 31483, Note_off_c, 0, 50, 97
3, 31488, Note_on_c, 0, 49, 92
3, 31488, Note_on_c, 0, 56, 97
3, 31488, Note_on_c, 0, 59, 97
3, 31751, Note_off_c, 0, 49, 92
3, 31752, Note_off_c, 0, 59, 97
3, 31752, Note_off_c, 0, 56, 97
3, 31776, Note_on_c, 0, 49, 68
3, 31776, Note_on_c, 0, 56, 95
3, 31776, Note_on_c, 0, 59, 64
3, 31962, Note_off_c, 0, 59, 64
3, 31962, Note_off_c, 0, 56, 95
3, 31968, Note_off_c, 0, 49, 68
3, 31968, Note_on_c, 0, 49, 50
3, 31968, Note_on_c, 0, 56, 71
3, 31968, Note_on_c, 0, 59, 55
3, 32055, Note_off_c, 0, 59, 55
3, 32057, Note_off_c, 0, 56, 71
3, 32057, Note_off_c, 0, 49, 50
3, 32064, Note_on_c, 0, 49, 66
3, 32064, Note_on_c, 0, 56, 90
3, 32064, Note_on_c, 0, 59, 62
3, 32127, Note_off_c, 0, 49, 66
3, 32131, Note_off_c, 0, 59, 62
3, 32133, Note_off_c, 0, 56, 90
3, 32160, Note_on_c, 0, 49, 74
3, 32160, Note_on_c, 0, 56, 98
3, 32160, Note_on_c, 0, 59, 80
3, 32230, Note_off_c, 0, 49, 74
3, 32231, Note_off_c, 0, 59, 80
3, 32234, Note_off_c, 0, 56, 98
3, 56832, Note_on_c, 0, 50, 55
3, 56832, Note_on_c, 0, 57, 47
3, 56832, Note_on_c, 0, 62, 39
3, 57312, Note_off_c, 0, 50, 55
3, 57312, Note_on_c, 0, 52, 97
3, 57456, Note_off_c, 0, 52, 97
3, 57456, Note_on_c, 0, 50, 97
3, 57588, Note_off_c, 0, 62, 39
3, 57592, Note_off_c, 0, 57, 47
3, 57600, Note_off_c, 0, 50, 97
3, 57600, Note_on_c, 0, 49, 83
3, 57600, Note_on_c, 0, 54, 96
3, 58368, Note_off_c, 0, 54, 96
3, 58368, Note_off_c, 0, 49, 83
3, 58368, Note_on_c, 0, 50, 45
3, 58368, Note_on_c, 0, 57, 52
3, 58368, Note_on_c, 0, 62, 85
3, 58832, Note_off_c, 0, 50, 45
3, 58848, Note_on_c, 0, 52, 97
3, 58992, Note_off_c, 0, 52, 97
3, 58992, Note_on_c, 0, 50, 97
3, 59120, Note_off_c, 0, 62, 85
3, 59124, Note_off_c, 0, 57, 52
3, 59136, Note_off_c, 0, 50, 97
3, 59136, Note_on_c, 0, 54, 87
3, 59136, Note_on_c, 0, 57, 96
3, 59904, Note_off_c, 0, 57, 96
3, 59904, Note_off_c, 0, 54, 87
3, 59904, Note_on_c, 0, 50, 64
3, 59904, Note_on_c, 0, 57, 57
3, 59904, Note_on_c, 0, 62, 71
3, 60336, Note_off_c, 0, 50, 64
3, 60384, Note_on_c, 0, 52, 97
3, 60520, Note_off_c, 0, 52, 97
3, 60528, Note_on_c, 0, 50, 97
3, 60656, Note_off_c, 0, 62, 71
3, 60660, Note_off_c, 0, 57, 57
3, 60672, Note_off_c, 0, 50, 97
3, 60672, Note_on_c, 0, 49, 84
3, 60672, Note_on_c, 0, 54, 90
3, 61152, Note_off_c, 0, 54, 90
3, 61152, Note_off_c, 0, 49, 84
3, 61152, Note_on_c, 0, 49, 75
3, 61152, Note_on_c, 0, 54, 79
3, 61440, Note_off_c, 0, 54, 79
3, 61440, Note_off_c, 0, 49, 75
3, 61440, Note_on_c, 0, 50, 97
3, 61440, Note_on_c, 0, 57, 97
3, 61440, Note_on_c, 0, 62, 97
3, 61792, Note_off_c, 0, 50, 97
3, 61795, Note_off_c, 0, 57, 97
3, 61799, Note_off_c, 0, 62, 97
3, 61824, Note_on_c, 0, 50, 37
3, 61824, Note_on_c, 0, 57, 62
3, 61824, Note_on_c, 0, 62, 50
3, 61899, Note_off_c, 0, 57, 62
3, 61900, Note_off_c, 0, 62, 50
3, 61900, Note_off_c, 0, 50, 37
3, 61920, Note_on_c, 0, 50, 72
3, 61920, Note_on_c, 0, 57, 70
3, 61920, Note_on_c, 0, 62, 63
3, 61984, Note_off_c, 0, 62, 63
3, 61984, Note_off_c, 0, 50, 72
3, 61986, Note_off_c, 0, 57, 70
3, 62016, Note_on_c, 0, 50, 81
3, 62016, Note_on_c, 0, 57, 97
3, 62016, Note_on_c, 0, 62, 82
3, 62080, Note_off_c, 0, 50, 81
3, 62083, Note_off_c, 0, 62, 82
3, 62085, Note_off_c, 0, 57, 97
3, 62112, Note_on_c, 0, 50, 74
3, 62112, Note_on_c, 0, 57, 97
3, 62112, Note_on_c, 0, 62, 88
3, 62167, Note_off_c, 0, 62, 88
3, 62170, Note_off_c, 0, 57, 97
3, 62171, Note_off_c, 0, 50, 74
3, 62208, Note_on_c, 0, 49, 97
3, 62208, Note_on_c, 0, 56, 97
3, 62208, Note_on_c, 0, 59, 97
3, 62755, Note_off_c, 0, 59, 97
3, 62755, Note_off_c, 0, 49, 97
3, 62757, Note_off_c, 0, 56, 97
3, 62784, Note_on_c, 0, 49, 97
3, 62784, Note_on_c, 0, 56, 97
3, 62784, Note_on_c, 0, 59, 97
3, 62856, Note_off_c, 0, 49, 97
3, 62857, Note_off_c, 0, 59, 97
3, 62861, Note_off_c, 0, 56, 97
3, 63506, Control_c, 0, 120, 0
3, 63579, Control_c, 0, 123, 0
3, 63579, End_track
4, 0, Start_track
4, 0, Text_t, "Rhythm Gtr"
4, 192, Control_c, 4, 121, 0
4, 237, Control_c, 4, 0, 0
4, 240, Control_c, 4, 32, 0
4, 288, Program_c, 4, 27
4, 336, Control_c, 4, 10, 64
4, 385, Control_c, 4, 91, 100
4, 432, Control_c, 4, 93, 60
4, 482, Control_c, 4, 7, 70
4, 518, Control_c, 4, 11, 127
4, 35328, Note_on_c, 4, 54, 107
4, 35329, Note_on_c, 4, 66, 127
4, 35363, Note_off_c, 4, 66, 127
4, 35363, Note_off_c, 4, 54, 107
4, 35421, Note_on_c, 4, 54, 81
4, 35422, Note_off_c, 4, 54, 81
4, 35429, Note_on_c, 4, 66, 85
4, 35430, Note_off_c, 4, 66, 85
4, 35468, Note_on_c, 4, 66, 85
4, 35469, Note_off_c, 4, 66, 85
4, 35472, Note_on_c, 4, 54, 85
4, 35473, Note_off_c, 4, 54, 85
4, 35518, Note_on_c, 4, 54, 121
4, 35523, Note_on_c, 4, 66, 127
4, 35549, Note_off_c, 4, 54, 121
4, 35553, Note_off_c, 4, 66, 127
4, 35614, Note_on_c, 4, 54, 85
4, 35615, Note_off_c, 4, 54, 85
4, 35621, Note_on_c, 4, 66, 85
4, 35622, Note_off_c, 4, 66, 85
4, 35660, Note_on_c, 4, 66, 85
4, 35661, Note_off_c, 4, 66, 85
4, 35666, Note_on_c, 4, 54, 85
4, 35667, Note_off_c, 4, 54, 85
4, 35708, Note_on_c, 4, 54, 107
4, 35712, Note_on_c, 4, 66, 127
4, 35740, Note_off_c, 4, 54, 107
4, 35748, Note_off_c, 4, 66, 127
4, 35807, Note_on_c, 4, 54, 81
4, 35808, Note_off_c, 4, 54, 81
4, 35815, Note_on_c, 4, 66, 77
4, 35816, Note_off_c, 4, 66, 77
4, 35850, Note_on_c, 4, 66, 77
4, 35851, Note_off_c, 4, 66, 77
4, 35856, Note_on_c, 4, 54, 77
4, 35857, Note_off_c, 4, 54, 77
4, 35901, Note_on_c, 4, 54, 107
4, 35905, Note_on_c, 4, 66, 127
4, 35936, Note_off_c, 4, 54, 107
4, 35939, Note_off_c, 4, 66, 127
4, 35998, Note_on_c, 4, 54, 73
4, 35999, Note_off_c, 4, 54, 73
4, 36000, Note_on_c, 4, 66, 73
4, 36001, Note_off_c, 4, 66, 73
4, 36045, Note_on_c, 4, 66, 73
4, 36046, Note_off_c, 4, 66, 73
4, 36051, Note_on_c, 4, 54, 73
4, 36052, Note_off_c, 4, 54, 73
4, 36093, Note_on_c, 4, 54, 107
4, 36097, Note_on_c, 4, 66, 127
4, 36128, Note_off_c, 4, 54, 107
4, 36131, Note_off_c, 4, 66, 127
4, 36189, Note_on_c, 4, 54, 73
4, 36190, Note_off_c, 4, 54, 73
4, 36195, Note_on_c, 4, 66, 81
4, 36196, Note_off_c, 4, 66, 81
4, 36233, Note_on_c, 4, 66, 81
4, 36234, Note_off_c, 4, 66, 81
4, 36242, Note_on_c, 4, 54, 77
4, 36243, Note_off_c, 4, 54, 77
4, 36286, Note_on_c, 4, 54, 102
4, 36294, Note_on_c, 4, 66, 127
4, 36321, Note_off_c, 4, 54, 102
4, 36322, Note_off_c, 4, 66, 127
4, 36385, Note_on_c, 4, 54, 77
4, 36386, Note_off_c, 4, 54, 77
4, 36390, Note_on_c, 4, 66, 81
4, 36391, Note_off_c, 4, 66, 81
4, 36430, Note_on_c, 4, 66, 81
4, 36431, Note_off_c, 4, 66, 81
4, 36436, Note_on_c, 4, 54, 81
4, 36437, Note_off_c, 4, 54, 81
4, 36477, Note_on_c, 4, 54, 107
4, 36486, Note_on_c, 4, 66, 127
4, 36507, Note_off_c, 4, 54, 107
4, 36518, Note_off_c, 4, 66, 127
4, 36572, Note_on_c, 4, 54, 76
4, 36573, Note_off_c, 4, 54, 76
4, 36583, Note_on_c, 4, 66, 73
4, 36584, Note_off_c, 4, 66, 73
4, 36620, Note_on_c, 4, 66, 73
4, 36621, Note_off_c, 4, 66, 73
4, 36627, Note_on_c, 4, 54, 73
4, 36628, Note_off_c, 4, 54, 73
4, 36671, Note_on_c, 4, 54, 107
4, 36674, Note_on_c, 4, 66, 127
4, 36698, Note_off_c, 4, 54, 107
4, 36703, Note_off_c, 4, 66, 127
4, 36764, Note_on_c, 4, 54, 73
4, 36765, Note_off_c, 4, 54, 73
4, 36774, Note_on_c, 4, 66, 73
4, 36775, Note_off_c, 4, 66, 73
4, 36815, Note_on_c, 4, 66, 77
4, 36816, Note_off_c, 4, 66, 77
4, 36819, Note_on_c, 4, 54, 77
4, 36820, Note_off_c, 4, 54, 77
4, 36862, Note_on_c, 4, 54, 107
4, 36867, Note_on_c, 4, 66, 127
4, 36892, Note_off_c, 4, 54, 107
4, 36893, Note_off_c, 4, 66, 127
4, 38305, Note_on_c, 4, 54, 86
4, 38306, Note_off_c, 4, 54, 86
4, 38307, Note_on_c, 4, 66, 76
4, 38308, Note_off_c, 4, 66, 76
4, 38353, Note_on_c, 4, 54, 87
4, 38354, Note_off_c, 4, 54, 87
4, 38355, Note_on_c, 4, 66, 76
4, 38356, Note_off_c, 4, 66, 76
4, 38400, Note_on_c, 4, 54, 107
4, 38401, Note_on_c, 4, 66, 127
4, 38435, Note_off_c, 4, 66, 127
4, 38435, Note_off_c, 4, 54, 107
4, 38493, Note_on_c, 4, 54, 81
4, 38494, Note_off_c, 4, 54, 81
4, 38501, Note_on_c, 4, 66, 85
4, 38502, Note_off_c, 4, 66, 85
4, 38540, Note_on_c, 4, 66, 85
4, 38541, Note_off_c, 4, 66, 85
4, 38544, Note_on_c, 4, 54, 85
4, 38545, Note_off_c, 4, 54, 85
4, 38590, Note_on_c, 4, 54, 121
4, 38595, Note_on_c, 4, 66, 127
4, 38621, Note_off_c, 4, 54, 121
4, 38625, Note_off_c, 4, 66, 127
4, 38686, Note_on_c, 4, 54, 85
4, 38687, Note_off_c, 4, 54, 85
4, 38693, Note_on_c, 4, 66, 85
4, 38694, Note_off_c, 4, 66, 85
4, 38732, Note_on_c, 4, 66, 85
4, 38733, Note_off_c, 4, 66, 85
4, 38738, Note_on_c, 4, 54, 85
4, 38739, Note_off_c, 4, 54, 85
4, 38780, Note_on_c, 4, 54, 107
4, 38784, Note_on_c, 4, 66, 127
4, 38812, Note_off_c, 4, 54, 107
4, 38820, Note_off_c, 4, 66, 127
4, 38879, Note_on_c, 4, 54, 81
4, 38880, Note_off_c, 4, 54, 81
4, 38887, Note_on_c, 4, 66, 77
4, 38888, Note_off_c, 4, 66, 77
4, 38922, Note_on_c, 4, 66, 77
4, 38923, Note_off_c, 4, 66, 77
4, 38928, Note_on_c, 4, 54, 77
4, 38929, Note_off_c, 4, 54, 77
4, 38973, Note_on_c, 4, 54, 107
4, 38977, Note_on_c, 4, 66, 127
4, 39008, Note_off_c, 4, 54, 107
4, 39011, Note_off_c, 4, 66, 127
4, 39070, Note_on_c, 4, 54, 73
4, 39071, Note_off_c, 4, 54, 73
4, 39072, Note_on_c, 4, 66, 73
4, 39073, Note_off_c, 4, 66, 73
4, 39117, Note_on_c, 4, 66, 73
4, 39118, Note_off_c, 4, 66, 73
4, 39123, Note_on_c, 4, 54, 73
4, 39124, Note_off_c, 4, 54, 73
4, 39165, Note_on_c, 4, 54, 107
4, 39169, Note_on_c, 4, 66, 127
4, 39200, Note_off_c, 4, 54, 107
4, 39203, Note_off_c, 4, 66, 127
4, 39261, Note_on_c, 4, 54, 73
4, 39262, Note_off_c, 4, 54, 73
4, 39267, Note_on_c, 4, 66, 81
4, 39268, Note_off_c, 4, 66, 81
4, 39305, Note_on_c, 4, 66, 81
4, 39306, Note_off_c, 4, 66, 81
4, 39314, Note_on_c, 4, 54, 77
4, 39315, Note_off_c, 4, 54, 77
4, 39358, Note_on_c, 4, 54, 102
4, 39366, Note_on_c, 4, 66, 127
4, 39393, Note_off_c, 4, 54, 102
4, 39394, Note_off_c, 4, 66, 127
4, 39457, Note_on_c, 4, 54, 77
4, 39458, Note_off_c, 4, 54, 77
4, 39462, Note_on_c, 4, 66, 81
4, 39463, Note_off_c, 4, 66, 81
4, 39502, Note_on_c, 4, 66, 81
4, 39503, Note_off_c, 4, 66, 81
4, 39508, Note_on_c, 4, 54, 81
4, 39509, Note_off_c, 4, 54, 81
4, 39549, Note_on_c, 4, 54, 107
4, 39558, Note_on_c, 4, 66, 127
4, 39579, Note_off_c, 4, 54, 107
4, 39590, Note_off_c, 4, 66, 127
4, 39644, Note_on_c, 4, 54, 76
4, 39645, Note_off_c, 4, 54, 76
4, 39655, Note_on_c, 4, 66, 73
4, 39656, Note_off_c, 4, 66, 73
4, 39692, Note_on_c, 4, 66, 73
4, 39693, Note_off_c, 4, 66, 73
4, 39699, Note_on_c, 4, 54, 73
4, 39700, Note_off_c, 4, 54, 73
4, 39743, Note_on_c, 4, 54, 107
4, 39746, Note_on_c, 4, 66, 127
4, 39770, Note_off_c, 4, 54, 107
4, 39775, Note_off_c, 4, 66, 127
4, 39836, Note_on_c, 4, 54, 73
4, 39837, Note_off_c, 4, 54, 73
4, 39846, Note_on_c, 4, 66, 73
4, 39847, Note_off_c, 4, 66, 73
4, 39887, Note_on_c, 4, 66, 77
4, 39888, Note_off_c, 4, 66, 77
4, 39891, Note_on_c, 4, 54, 77
4, 39892, Note_off_c, 4, 54, 77
4, 39934, Note_on_c, 4, 54, 107
4, 39939, Note_on_c, 4, 66, 127
4, 39964, Note_off_c, 4, 54, 107
4, 39965, Note_off_c, 4, 66, 127
4, 41377, Note_on_c, 4, 54, 86
4, 41378, Note_off_c, 4, 54, 86
4, 41379, Note_on_c, 4, 66, 76
4, 41380, Note_off_c, 4, 66, 76
4, 41425, Note_on_c, 4, 54, 87
4, 41426, Note_off_c, 4, 54, 87
4, 41427, Note_on_c, 4, 66, 76
4, 41428, Note_off_c, 4, 66, 76
4, 66048, Note_on_c, 4, 54, 102
4, 66049, Note_on_c, 4, 66, 127
4, 66083, Note_off_c, 4, 66, 127
4, 66083, Note_off_c, 4, 54, 102
4, 66141, Note_on_c, 4, 54, 76
4, 66142, Note_off_c, 4, 54, 76
4, 66149, Note_on_c, 4, 66, 80
4, 66150, Note_off_c, 4, 66, 80
4, 66188, Note_on_c, 4, 66, 80
4, 66189, Note_off_c, 4, 66, 80
4, 66192, Note_on_c, 4, 54, 80
4, 66193, Note_off_c, 4, 54, 80
4, 66238, Note_on_c, 4, 54, 116
4, 66243, Note_on_c, 4, 66, 127
4, 66269, Note_off_c, 4, 54, 116
4, 66273, Note_off_c, 4, 66, 127
4, 66334, Note_on_c, 4, 54, 80
4, 66335, Note_off_c, 4, 54, 80
4, 66341, Note_on_c, 4, 66, 80
4, 66342, Note_off_c, 4, 66, 80
4, 66380, Note_on_c, 4, 66, 80
4, 66381, Note_off_c, 4, 66, 80
4, 66386, Note_on_c, 4, 54, 80
4, 66387, Note_off_c, 4, 54, 80
4, 66428, Note_on_c, 4, 54, 102
4, 66432, Note_on_c, 4, 66, 127
4, 66460, Note_off_c, 4, 54, 102
4, 66468, Note_off_c, 4, 66, 127
4, 66527, Note_on_c, 4, 54, 76
4, 66528, Note_off_c, 4, 54, 76
4, 66535, Note_on_c, 4, 66, 72
4, 66536, Note_off_c, 4, 66, 72
4, 66570, Note_on_c, 4, 66, 72
4, 66571, Note_off_c, 4, 66, 72
4, 66576, Note_on_c, 4, 54, 72
4, 66577, Note_off_c, 4, 54, 72
4, 66621, Note_on_c, 4, 54, 102
4, 66625, Note_on_c, 4, 66, 127
4, 66656, Note_off_c, 4, 54, 102
4, 66659, Note_off_c, 4, 66, 127
4, 66718, Note_on_c, 4, 54, 68
4, 66719, Note_off_c, 4, 54, 68
4, 66720, Note_on_c, 4, 66, 68
4, 66721, Note_off_c, 4, 66, 68
4, 66765, Note_on_c, 4, 66, 68
4, 66766, Note_off_c, 4, 66, 68
4, 66771, Note_on_c, 4, 54, 68
4, 66772, Note_off_c, 4, 54, 68
4, 66813, Note_on_c, 4, 54, 102
4, 66817, Note_on_c, 4, 66, 127
4, 66848, Note_off_c, 4, 54, 102
4, 66851, Note_off_c, 4, 66, 127
4, 66909, Note_on_c, 4, 54, 68
4, 66910, Note_off_c, 4, 54, 68
4, 66915, Note_on_c, 4, 66, 76
4, 66916, Note_off_c, 4, 66, 76
4, 66953, Note_on_c, 4, 66, 76
4, 66954, Note_off_c, 4, 66, 76
4, 66962, Note_on_c, 4, 54, 72
4, 66963, Note_off_c, 4, 54, 72
4, 67006, Note_on_c, 4, 54, 97
4, 67014, Note_on_c, 4, 66, 127
4, 67041, Note_off_c, 4, 54, 97
4, 67042, Note_off_c, 4, 66, 127
4, 67105, Note_on_c, 4, 54, 72
4, 67106, Note_off_c, 4, 54, 72
4, 67110, Note_on_c, 4, 66, 76
4, 67111, Note_off_c, 4, 66, 76
4, 67150, Note_on_c, 4, 66, 76
4, 67151, Note_off_c, 4, 66, 76
4, 67156, Note_on_c, 4, 54, 76
4, 67157, Note_off_c, 4, 54, 76
4, 67197, Note_on_c, 4, 54, 102
4, 67206, Note_on_c, 4, 66, 127
4, 67227, Note_off_c, 4, 54, 102
4, 67238, Note_off_c, 4, 66, 127
4, 67292, Note_on_c, 4, 54, 71
4, 67293, Note_off_c, 4, 54, 71
4, 67303, Note_on_c, 4, 66, 68
4, 67304, Note_off_c, 4, 66, 68
4, 67340, Note_on_c, 4, 66, 68
4, 67341, Note_off_c, 4, 66, 68
4, 67347, Note_on_c, 4, 54, 68
4, 67348, Note_off_c, 4, 54, 68
4, 67391, Note_on_c, 4, 54, 102
4, 67394, Note_on_c, 4, 66, 127
4, 67418, Note_off_c, 4, 54, 102
4, 67423, Note_off_c, 4, 66, 127
4, 67484, Note_on_c, 4, 54, 68
4, 67485, Note_off_c, 4, 54, 68
4, 67494, Note_on_c, 4, 66, 68
4, 67495, Note_off_c, 4, 66, 68
4, 67535, Note_on_c, 4, 66, 72
4, 67536, Note_off_c, 4, 66, 72
4, 67539, Note_on_c, 4, 54, 72
4, 67540, Note_off_c, 4, 54, 72
4, 67582, Note_on_c, 4, 54, 102
4, 67587, Note_on_c, 4, 66, 127
4, 67612, Note_off_c, 4, 54, 102
4, 67613, Note_off_c, 4, 66, 127
4, 68784, Control_c, 4, 0, 8
4, 68836, Program_c, 4, 28
4, 68880, Control_c, 4, 10, 39
4, 68928, Control_c, 4, 7, 75
4, 69025, Note_on_c, 4, 54, 86
4, 69026, Note_off_c, 4, 54, 86
4, 69027, Note_on_c, 4, 66, 76
4, 69028, Note_off_c, 4, 66, 76
4, 69073, Note_on_c, 4, 54, 87
4, 69074, Note_off_c, 4, 54, 87
4, 69075, Note_on_c, 4, 66, 76
4, 69076, Note_off_c, 4, 66, 76
4, 69130, Note_on_c, 4, 61, 120
4, 69153, Note_off_c, 4, 61, 120
4, 69170, Note_on_c, 4, 61, 120
4, 69194, Note_off_c, 4, 61, 120
4, 69226, Note_on_c, 4, 61, 81
4, 69238, Note_off_c, 4, 61, 81
4, 69266, Note_on_c, 4, 59, 120
4, 69296, Note_off_c, 4, 59, 120
4, 69366, Note_on_c, 4, 57, 95
4, 69388, Note_off_c, 4, 57, 95
4, 69407, Note_on_c, 4, 60, 120
4, 69430, Note_off_c, 4, 60, 120
4, 69430, Note_on_c, 4, 61, 120
4, 69734, Note_off_c, 4, 61, 120
4, 69895, Note_on_c, 4, 61, 120
4, 69918, Note_off_c, 4, 61, 120
4, 69940, Note_on_c, 4, 61, 120
4, 69963, Note_off_c, 4, 61, 120
4, 69986, Note_on_c, 4, 61, 79
4, 70007, Note_off_c, 4, 61, 79
4, 70041, Note_on_c, 4, 59, 120
4, 70065, Note_off_c, 4, 59, 120
4, 70132, Note_on_c, 4, 57, 105
4, 70159, Note_off_c, 4, 57, 105
4, 70181, Note_on_c, 4, 61, 120
4, 70474, Note_off_c, 4, 61, 120
4, 70664, Note_on_c, 4, 61, 120
4, 70687, Note_off_c, 4, 61, 120
4, 70709, Note_on_c, 4, 61, 120
4, 70736, Note_off_c, 4, 61, 120
4, 70755, Note_on_c, 4, 61, 89
4, 70776, Note_off_c, 4, 61, 89
4, 70805, Note_on_c, 4, 59, 120
4, 70833, Note_off_c, 4, 59, 120
4, 70902, Note_on_c, 4, 57, 94
4, 70920, Note_off_c, 4, 57, 94
4, 70932, Note_on_c, 4, 60, 63
4, 70940, Note_off_c, 4, 60, 63
4, 70943, Note_on_c, 4, 61, 120
4, 71323, Note_off_c, 4, 61, 120
4, 71431, Note_on_c, 4, 61, 120
4, 71457, Note_off_c, 4, 61, 120
4, 71476, Note_on_c, 4, 61, 120
4, 71501, Note_off_c, 4, 61, 120
4, 71527, Note_on_c, 4, 61, 82
4, 71545, Note_off_c, 4, 61, 82
4, 71570, Note_on_c, 4, 59, 120
4, 71597, Note_off_c, 4, 59, 120
4, 71668, Note_on_c, 4, 57, 92
4, 71694, Note_off_c, 4, 57, 92
4, 71713, Note_on_c, 4, 61, 120
4, 72013, Note_off_c, 4, 61, 120
4, 72048, Control_c, 4, 0, 0
4, 72078, Program_c, 4, 27
4, 72116, Control_c, 4, 10, 64
4, 72144, Control_c, 4, 7, 70
4, 72192, Note_on_c, 4, 54, 102
4, 72193, Note_on_c, 4, 66, 127
4, 72227, Note_off_c, 4, 66, 127
4, 72227, Note_off_c, 4, 54, 102
4, 72285, Note_on_c, 4, 54, 76
4, 72286, Note_off_c, 4, 54, 76
4, 72293, Note_on_c, 4, 66, 80
4, 72294, Note_off_c, 4, 66, 80
4, 72332, Note_on_c, 4, 66, 80
4, 72333, Note_off_c, 4, 66, 80
4, 72336, Note_on_c, 4, 54, 80
4, 72337, Note_off_c, 4, 54, 80
4, 72382, Note_on_c, 4, 54, 116
4, 72387, Note_on_c, 4, 66, 127
4, 72413, Note_off_c, 4, 54, 116
4, 72417, Note_off_c, 4, 66, 127
4, 72478, Note_on_c, 4, 54, 80
4, 72479, Note_off_c, 4, 54, 80
4, 72485, Note_on_c, 4, 66, 80
4, 72486, Note_off_c, 4, 66, 80
4, 72524, Note_on_c, 4, 66, 80
4, 72525, Note_off_c, 4, 66, 80
4, 72530, Note_on_c, 4, 54, 80
4, 72531, Note_off_c, 4, 54, 80
4, 72572, Note_on_c, 4, 54, 102
4, 72576, Note_on_c, 4, 66, 127
4, 72604, Note_off_c, 4, 54, 102
4, 72612, Note_off_c, 4, 66, 127
4, 72671, Note_on_c, 4, 54, 76
4, 72672, Note_off_c, 4, 54, 76
4, 72679, Note_on_c, 4, 66, 72
4, 72680, Note_off_c, 4, 66, 72
4, 72714, Note_on_c, 4, 66, 72
4, 72715, Note_off_c, 4, 66, 72
4, 72720, Note_on_c, 4, 54, 72
4, 72721, Note_off_c, 4, 54, 72
4, 72765, Note_on_c, 4, 54, 102
4, 72769, Note_on_c, 4, 66, 127
4, 72800, Note_off_c, 4, 54, 102
4, 72803, Note_off_c, 4, 66, 127
4, 72862, Note_on_c, 4, 54, 68
4, 72863, Note_off_c, 4, 54, 68
4, 72864, Note_on_c, 4, 66, 68
4, 72865, Note_off_c, 4, 66, 68
4, 72909, Note_on_c, 4, 66, 68
4, 72910, Note_off_c, 4, 66, 68
4, 72915, Note_on_c, 4, 54, 68
4, 72916, Note_off_c, 4, 54, 68
4, 72957, Note_on_c, 4, 54, 102
4, 72961, Note_on_c, 4, 66, 127
4, 72992, Note_off_c, 4, 54, 102
4, 72995, Note_off_c, 4, 66, 127
4, 73053, Note_on_c, 4, 54, 68
4, 73054, Note_off_c, 4, 54, 68
4, 73059, Note_on_c, 4, 66, 76
4, 73060, Note_off_c, 4, 66, 76
4, 73097, Note_on_c, 4, 66, 76
4, 73098, Note_off_c, 4, 66, 76
4, 73106, Note_on_c, 4, 54, 72
4, 73107, Note_off_c, 4, 54, 72
4, 73150, Note_on_c, 4, 54, 97
4, 73158, Note_on_c, 4, 66, 127
4, 73185, Note_off_c, 4, 54, 97
4, 73186, Note_off_c, 4, 66, 127
4, 73249, Note_on_c, 4, 54, 72
4, 73250, Note_off_c, 4, 54, 72
4, 73254, Note_on_c, 4, 66, 76
4, 73255, Note_off_c, 4, 66, 76
4, 73294, Note_on_c, 4, 66, 76
4, 73295, Note_off_c, 4, 66, 76
4, 73300, Note_on_c, 4, 54, 76
4, 73301, Note_off_c, 4, 54, 76
4, 73341, Note_on_c, 4, 54, 102
4, 73350, Note_on_c, 4, 66, 127
4, 73371, Note_off_c, 4, 54, 102
4, 73382, Note_off_c, 4, 66, 127
4, 73436, Note_on_c, 4, 54, 71
4, 73437, Note_off_c, 4, 54, 71
4, 73447, Note_on_c, 4, 66, 68
4, 73448, Note_off_c, 4, 66, 68
4, 73484, Note_on_c, 4, 66, 68
4, 73485, Note_off_c, 4, 66, 68
4, 73491, Note_on_c, 4, 54, 68
4, 73492, Note_off_c, 4, 54, 68
4, 73535, Note_on_c, 4, 54, 102
4, 73538, Note_on_c, 4, 66, 127
4, 73562, Note_off_c, 4, 54, 102
4, 73567, Note_off_c, 4, 66, 127
4, 73628, Note_on_c, 4, 54, 68
4, 73629, Note_off_c, 4, 54, 68
4, 73638, Note_on_c, 4, 66, 68
4, 73639, Note_off_c, 4, 66, 68
4, 73679, Note_on_c, 4, 66, 72
4, 73680, Note_off_c, 4, 66, 72
4, 73683, Note_on_c, 4, 54, 72
4, 73684, Note_off_c, 4, 54, 72
4, 73726, Note_on_c, 4, 54, 102
4, 73731, Note_on_c, 4, 66, 127
4, 73756, Note_off_c, 4, 54, 102
4, 73757, Note_off_c, 4, 66, 127
4, 75024, Control_c, 4, 7, 70
4, 75169, Note_on_c, 4, 54, 86
4, 75170, Note_off_c, 4, 54, 86
4, 75171, Note_on_c, 4, 66, 76
4, 75172, Note_off_c, 4, 66, 76
4, 75217, Note_on_c, 4, 54, 87
4, 75218, Note_off_c, 4, 54, 87
4, 75219, Note_on_c, 4, 66, 76
4, 75220, Note_off_c, 4, 66, 76
4, 75264, Note_on_c, 4, 54, 104
4, 75265, Note_on_c, 4, 66, 127
4, 75299, Note_off_c, 4, 66, 127
4, 75299, Note_off_c, 4, 54, 104
4, 75357, Note_on_c, 4, 54, 78
4, 75358, Note_off_c, 4, 54, 78
4, 75365, Note_on_c, 4, 66, 82
4, 75366, Note_off_c, 4, 66, 82
4, 75404, Note_on_c, 4, 66, 82
4, 75405, Note_off_c, 4, 66, 82
4, 75408, Note_on_c, 4, 54, 82
4, 75409, Note_off_c, 4, 54, 82
4, 75454, Note_on_c, 4, 54, 118
4, 75459, Note_on_c, 4, 66, 127
4, 75485, Note_off_c, 4, 54, 118
4, 75489, Note_off_c, 4, 66, 127
4, 75550, Note_on_c, 4, 54, 82
4, 75551, Note_off_c, 4, 54, 82
4, 75557, Note_on_c, 4, 66, 82
4, 75558, Note_off_c, 4, 66, 82
4, 75596, Note_on_c, 4, 66, 82
4, 75597, Note_off_c, 4, 66, 82
4, 75602, Note_on_c, 4, 54, 82
4, 75603, Note_off_c, 4, 54, 82
4, 75644, Note_on_c, 4, 54, 104
4, 75648, Note_on_c, 4, 66, 127
4, 75676, Note_off_c, 4, 54, 104
4, 75684, Note_off_c, 4, 66, 127
4, 75743, Note_on_c, 4, 54, 78
4, 75744, Note_off_c, 4, 54, 78
4, 75751, Note_on_c, 4, 66, 74
4, 75752, Note_off_c, 4, 66, 74
4, 75786, Note_on_c, 4, 66, 74
4, 75787, Note_off_c, 4, 66, 74
4, 75792, Note_on_c, 4, 54, 74
4, 75793, Note_off_c, 4, 54, 74
4, 75837, Note_on_c, 4, 54, 104
4, 75841, Note_on_c, 4, 66, 127
4, 75872, Note_off_c, 4, 54, 104
4, 75875, Note_off_c, 4, 66, 127
4, 75934, Note_on_c, 4, 54, 70
4, 75935, Note_off_c, 4, 54, 70
4, 75936, Note_on_c, 4, 66, 70
4, 75937, Note_off_c, 4, 66, 70
4, 75981, Note_on_c, 4, 66, 70
4, 75982, Note_off_c, 4, 66, 70
4, 75987, Note_on_c, 4, 54, 70
4, 75988, Note_off_c, 4, 54, 70
4, 76029, Note_on_c, 4, 54, 104
4, 76033, Note_on_c, 4, 66, 127
4, 76064, Note_off_c, 4, 54, 104
4, 76067, Note_off_c, 4, 66, 127
4, 76125, Note_on_c, 4, 54, 70
4, 76126, Note_off_c, 4, 54, 70
4, 76131, Note_on_c, 4, 66, 78
4, 76132, Note_off_c, 4, 66, 78
4, 76169, Note_on_c, 4, 66, 78
4, 76170, Note_off_c, 4, 66, 78
4, 76178, Note_on_c, 4, 54, 74
4, 76179, Note_off_c, 4, 54, 74
4, 76222, Note_on_c, 4, 54, 99
4, 76230, Note_on_c, 4, 66, 127
4, 76257, Note_off_c, 4, 54, 99
4, 76258, Note_off_c, 4, 66, 127
4, 76321, Note_on_c, 4, 54, 74
4, 76322, Note_off_c, 4, 54, 74
4, 76326, Note_on_c, 4, 66, 78
4, 76327, Note_off_c, 4, 66, 78
4, 76366, Note_on_c, 4, 66, 78
4, 76367, Note_off_c, 4, 66, 78
4, 76372, Note_on_c, 4, 54, 78
4, 76373, Note_off_c, 4, 54, 78
4, 76413, Note_on_c, 4, 54, 104
4, 76422, Note_on_c, 4, 66, 127
4, 76443, Note_off_c, 4, 54, 104
4, 76454, Note_off_c, 4, 66, 127
4, 76508, Note_on_c, 4, 54, 73
4, 76509, Note_off_c, 4, 54, 73
4, 76519, Note_on_c, 4, 66, 70
4, 76520, Note_off_c, 4, 66, 70
4, 76556, Note_on_c, 4, 66, 70
4, 76557, Note_off_c, 4, 66, 70
4, 76563, Note_on_c, 4, 54, 70
4, 76564, Note_off_c, 4, 54, 70
4, 76607, Note_on_c, 4, 54, 104
4, 76610, Note_on_c, 4, 66, 127
4, 76634, Note_off_c, 4, 54, 104
4, 76639, Note_off_c, 4, 66, 127
4, 76700, Note_on_c, 4, 54, 70
4, 76701, Note_off_c, 4, 54, 70
4, 76710, Note_on_c, 4, 66, 70
4, 76711, Note_off_c, 4, 66, 70
4, 76751, Note_on_c, 4, 66, 74
4, 76752, Note_off_c, 4, 66, 74
4, 76755, Note_on_c, 4, 54, 74
4, 76756, Note_off_c, 4, 54, 74
4, 76798, Note_on_c, 4, 54, 104
4, 76803, Note_on_c, 4, 66, 127
4, 76828, Note_off_c, 4, 54, 104
4, 76829, Note_off_c, 4, 66, 127
4, 77760, Control_c, 4, 0, 8
4, 77808, Program_c, 4, 28
4, 77856, Control_c, 4, 7, 93
4, 78246, Note_on_c, 4, 54, 127
4, 78247, Note_off_c, 4, 54, 127
4, 78294, Note_on_c, 4, 54, 127
4, 78295, Note_off_c, 4, 54, 127
4, 78343, Note_on_c, 4, 61, 127
4, 78371, Note_off_c, 4, 61, 127
4, 78385, Note_on_c, 4, 61, 127
4, 78417, Note_off_c, 4, 61, 127
4, 78439, Note_on_c, 4, 50, 71
4, 78445, Note_off_c, 4, 50, 71
4, 78484, Note_on_c, 4, 59, 127
4, 78543, Note_off_c, 4, 59, 127
4, 78584, Note_on_c, 4, 57, 127
4, 78605, Note_off_c, 4, 57, 127
4, 78627, Note_on_c, 4, 60, 127
4, 78635, Note_on_c, 4, 61, 127
4, 78643, Note_off_c, 4, 60, 127
4, 78946, Note_off_c, 4, 61, 127
4, 79016, Note_on_c, 4, 54, 121
4, 79017, Note_off_c, 4, 54, 121
4, 79064, Note_on_c, 4, 54, 120
4, 79065, Note_off_c, 4, 54, 120
4, 79112, Note_on_c, 4, 61, 127
4, 79143, Note_off_c, 4, 61, 127
4, 79152, Note_on_c, 4, 61, 127
4, 79189, Note_off_c, 4, 61, 127
4, 79207, Note_on_c, 4, 50, 71
4, 79221, Note_off_c, 4, 50, 71
4, 79252, Note_on_c, 4, 59, 127
4, 79300, Note_off_c, 4, 59, 127
4, 79346, Note_on_c, 4, 57, 127
4, 79369, Note_on_c, 4, 59, 102
4, 79371, Note_off_c, 4, 59, 102
4, 79374, Note_off_c, 4, 57, 127
4, 79384, Note_on_c, 4, 60, 110
4, 79396, Note_off_c, 4, 60, 110
4, 79398, Note_on_c, 4, 61, 127
4, 79728, Note_off_c, 4, 61, 127
4, 79776, Note_on_c, 4, 54, 121
4, 79788, Note_off_c, 4, 54, 121
4, 79824, Note_on_c, 4, 54, 122
4, 79836, Note_off_c, 4, 54, 122
4, 79882, Note_on_c, 4, 61, 127
4, 79913, Note_off_c, 4, 61, 127
4, 79920, Note_on_c, 4, 61, 127
4, 79957, Note_off_c, 4, 61, 127
4, 80020, Note_on_c, 4, 59, 127
4, 80068, Note_off_c, 4, 59, 127
4, 80113, Note_on_c, 4, 57, 102
4, 80133, Note_off_c, 4, 57, 102
4, 80161, Note_on_c, 4, 61, 127
4, 80509, Note_off_c, 4, 61, 127
4, 80544, Note_on_c, 4, 54, 120
4, 80545, Note_off_c, 4, 54, 120
4, 80592, Note_on_c, 4, 54, 121
4, 80593, Note_off_c, 4, 54, 121
4, 80648, Note_on_c, 4, 61, 127
4, 80679, Note_off_c, 4, 61, 127
4, 80688, Note_on_c, 4, 61, 127
4, 80718, Note_off_c, 4, 61, 127
4, 80749, Note_on_c, 4, 50, 35
4, 80753, Note_off_c, 4, 50, 35
4, 80786, Note_on_c, 4, 59, 127
4, 80839, Note_off_c, 4, 59, 127
4, 80885, Note_on_c, 4, 57, 127
4, 80915, Note_off_c, 4, 57, 127
4, 80929, Note_on_c, 4, 54, 120
4, 80930, Note_off_c, 4, 54, 120
4, 80977, Note_on_c, 4, 54, 121
4, 80978, Note_off_c, 4, 54, 121
4, 81033, Note_on_c, 4, 61, 127
4, 81060, Note_off_c, 4, 61, 127
4, 81072, Note_on_c, 4, 61, 127
4, 81118, Note_off_c, 4, 61, 127
4, 81179, Note_on_c, 4, 59, 127
4, 81213, Note_off_c, 4, 59, 127
4, 81270, Note_on_c, 4, 57, 127
4, 81305, Note_off_c, 4, 57, 127
4, 81314, Note_on_c, 4, 54, 120
4, 81315, Note_off_c, 4, 54, 120
4, 81362, Note_on_c, 4, 54, 121
4, 81363, Note_off_c, 4, 54, 121
4, 81417, Note_on_c, 4, 61, 127
4, 81445, Note_off_c, 4, 61, 127
4, 81457, Note_on_c, 4, 61, 127
4, 81503, Note_off_c, 4, 61, 127
4, 81529, Note_on_c, 4, 59, 32
4, 81540, Note_off_c, 4, 59, 32
4, 81553, Note_on_c, 4, 59, 127
4, 81612, Note_off_c, 4, 59, 127
4, 81648, Note_on_c, 4, 57, 127
4, 81668, Note_off_c, 4, 57, 127
4, 81701, Note_on_c, 4, 60, 108
4, 81708, Note_on_c, 4, 61, 127
4, 81719, Note_off_c, 4, 60, 108
4, 82040, Note_off_c, 4, 61, 127
4, 82082, Note_on_c, 4, 54, 120
4, 82083, Note_off_c, 4, 54, 120
4, 82131, Note_on_c, 4, 54, 121
4, 82132, Note_off_c, 4, 54, 121
4, 82185, Note_on_c, 4, 61, 127
4, 82216, Note_off_c, 4, 61, 127
4, 82228, Note_on_c, 4, 61, 127
4, 82258, Note_off_c, 4, 61, 127
4, 82275, Note_on_c, 4, 49, 78
4, 82279, Note_off_c, 4, 49, 78
4, 82326, Note_on_c, 4, 59, 127
4, 82363, Note_off_c, 4, 59, 127
4, 82418, Note_on_c, 4, 57, 127
4, 82448, Note_off_c, 4, 57, 127
4, 82468, Note_on_c, 4, 54, 121
4, 82480, Note_off_c, 4, 54, 121
4, 82514, Note_on_c, 4, 54, 120
4, 82524, Note_off_c, 4, 54, 120
4, 82564, Note_on_c, 4, 61, 127
4, 82591, Note_off_c, 4, 61, 127
4, 82608, Note_on_c, 4, 61, 127
4, 82654, Note_off_c, 4, 61, 127
4, 82719, Note_on_c, 4, 59, 127
4, 82754, Note_off_c, 4, 59, 127
4, 82804, Note_on_c, 4, 57, 127
4, 82838, Note_off_c, 4, 57, 127
4, 82854, Note_on_c, 4, 54, 120
4, 82855, Note_off_c, 4, 54, 120
4, 82899, Note_on_c, 4, 54, 120
4, 82900, Note_off_c, 4, 54, 120
4, 82952, Note_on_c, 4, 61, 127
4, 82980, Note_off_c, 4, 61, 127
4, 82993, Note_on_c, 4, 61, 127
4, 83039, Note_off_c, 4, 61, 127
4, 83065, Note_on_c, 4, 59, 32
4, 83076, Note_off_c, 4, 59, 32
4, 83089, Note_on_c, 4, 59, 127
4, 83141, Note_off_c, 4, 59, 127
4, 83184, Note_on_c, 4, 57, 127
4, 83204, Note_off_c, 4, 57, 127
4, 83237, Note_on_c, 4, 60, 127
4, 83245, Note_on_c, 4, 61, 127
4, 83259, Note_off_c, 4, 60, 127
4, 83585, Note_off_c, 4, 61, 127
4, 83620, Note_on_c, 4, 54, 120
4, 83621, Note_off_c, 4, 54, 120
4, 83666, Note_on_c, 4, 54, 121
4, 83667, Note_off_c, 4, 54, 121
4, 83716, Note_on_c, 4, 61, 127
4, 83746, Note_off_c, 4, 61, 127
4, 83759, Note_on_c, 4, 61, 127
4, 83815, Note_off_c, 4, 61, 127
4, 83860, Note_on_c, 4, 59, 127
4, 83907, Note_off_c, 4, 59, 127
4, 83950, Note_on_c, 4, 57, 127
4, 83980, Note_off_c, 4, 57, 127
4, 83988, Note_on_c, 4, 60, 110
4, 83998, Note_on_c, 4, 61, 127
4, 84007, Note_off_c, 4, 60, 110
4, 84369, Note_off_c, 4, 61, 127
4, 84387, Control_c, 4, 0, 0
4, 84410, Control_c, 4, 7, 70
4, 84441, Program_c, 4, 27
4, 84480, Note_on_c, 4, 54, 102
4, 84481, Note_on_c, 4, 66, 127
4, 84515, Note_off_c, 4, 66, 127
4, 84515, Note_off_c, 4, 54, 102
4, 84573, Note_on_c, 4, 54, 76
4, 84574, Note_off_c, 4, 54, 76
4, 84581, Note_on_c, 4, 66, 80
4, 84582, Note_off_c, 4, 66, 80
4, 84620, Note_on_c, 4, 66, 80
4, 84621, Note_off_c, 4, 66, 80
4, 84624, Note_on_c, 4, 54, 80
4, 84625, Note_off_c, 4, 54, 80
4, 84670, Note_on_c, 4, 54, 116
4, 84675, Note_on_c, 4, 66, 127
4, 84701, Note_off_c, 4, 54, 116
4, 84705, Note_off_c, 4, 66, 127
4, 84766, Note_on_c, 4, 54, 80
4, 84767, Note_off_c, 4, 54, 80
4, 84773, Note_on_c, 4, 66, 80
4, 84774, Note_off_c, 4, 66, 80
4, 84812, Note_on_c, 4, 66, 80
4, 84813, Note_off_c, 4, 66, 80
4, 84818, Note_on_c, 4, 54, 80
4, 84819, Note_off_c, 4, 54, 80
4, 84860, Note_on_c, 4, 54, 102
4, 84864, Note_on_c, 4, 66, 127
4, 84892, Note_off_c, 4, 54, 102
4, 84900, Note_off_c, 4, 66, 127
4, 84959, Note_on_c, 4, 54, 76
4, 84960, Note_off_c, 4, 54, 76
4, 84967, Note_on_c, 4, 66, 72
4, 84968, Note_off_c, 4, 66, 72
4, 85002, Note_on_c, 4, 66, 72
4, 85003, Note_off_c, 4, 66, 72
4, 85008, Note_on_c, 4, 54, 72
4, 85009, Note_off_c, 4, 54, 72
4, 85053, Note_on_c, 4, 54, 102
4, 85057, Note_on_c, 4, 66, 127
4, 85088, Note_off_c, 4, 54, 102
4, 85091, Note_off_c, 4, 66, 127
4, 85150, Note_on_c, 4, 54, 68
4, 85151, Note_off_c, 4, 54, 68
4, 85152, Note_on_c, 4, 66, 68
4, 85153, Note_off_c, 4, 66, 68
4, 85197, Note_on_c, 4, 66, 68
4, 85198, Note_off_c, 4, 66, 68
4, 85203, Note_on_c, 4, 54, 68
4, 85204, Note_off_c, 4, 54, 68
4, 85245, Note_on_c, 4, 54, 102
4, 85249, Note_on_c, 4, 66, 127
4, 85280, Note_off_c, 4, 54, 102
4, 85283, Note_off_c, 4, 66, 127
4, 85341, Note_on_c, 4, 54, 68
4, 85342, Note_off_c, 4, 54, 68
4, 85347, Note_on_c, 4, 66, 76
4, 85348, Note_off_c, 4, 66, 76
4, 85385, Note_on_c, 4, 66, 76
4, 85386, Note_off_c, 4, 66, 76
4, 85394, Note_on_c, 4, 54, 72
4, 85395, Note_off_c, 4, 54, 72
4, 85438, Note_on_c, 4, 54, 97
4, 85446, Note_on_c, 4, 66, 127
4, 85473, Note_off_c, 4, 54, 97
4, 85474, Note_off_c, 4, 66, 127
4, 85537, Note_on_c, 4, 54, 72
4, 85538, Note_off_c, 4, 54, 72
4, 85542, Note_on_c, 4, 66, 76
4, 85543, Note_off_c, 4, 66, 76
4, 85582, Note_on_c, 4, 66, 76
4, 85583, Note_off_c, 4, 66, 76
4, 85588, Note_on_c, 4, 54, 76
4, 85589, Note_off_c, 4, 54, 76
4, 85629, Note_on_c, 4, 54, 102
4, 85638, Note_on_c, 4, 66, 127
4, 85659, Note_off_c, 4, 54, 102
4, 85670, Note_off_c, 4, 66, 127
4, 85724, Note_on_c, 4, 54, 71
4, 85725, Note_off_c, 4, 54, 71
4, 85735, Note_on_c, 4, 66, 68
4, 85736, Note_off_c, 4, 66, 68
4, 85772, Note_on_c, 4, 66, 68
4, 85773, Note_off_c, 4, 66, 68
4, 85779, Note_on_c, 4, 54, 68
4, 85780, Note_off_c, 4, 54, 68
4, 85823, Note_on_c, 4, 54, 102
4, 85826, Note_on_c, 4, 66, 127
4, 85850, Note_off_c, 4, 54, 102
4, 85855, Note_off_c, 4, 66, 127
4, 85916, Note_on_c, 4, 54, 68
4, 85917, Note_off_c, 4, 54, 68
4, 85926, Note_on_c, 4, 66, 68
4, 85927, Note_off_c, 4, 66, 68
4, 85967, Note_on_c, 4, 66, 72
4, 85968, Note_off_c, 4, 66, 72
4, 85971, Note_on_c, 4, 54, 72
4, 85972, Note_off_c, 4, 54, 72
4, 86014, Note_on_c, 4, 54, 102
4, 86019, Note_on_c, 4, 66, 127
4, 86044, Note_off_c, 4, 54, 102
4, 86045, Note_off_c, 4, 66, 127
4, 90624, Note_on_c, 4, 54, 102
4, 90625, Note_on_c, 4, 66, 127
4, 90659, Note_off_c, 4, 66, 127
4, 90659, Note_off_c, 4, 54, 102
4, 90717, Note_on_c, 4, 54, 76
4, 90718, Note_off_c, 4, 54, 76
4, 90725, Note_on_c, 4, 66, 80
4, 90726, Note_off_c, 4, 66, 80
4, 90764, Note_on_c, 4, 66, 80
4, 90765, Note_off_c, 4, 66, 80
4, 90768, Note_on_c, 4, 54, 80
4, 90769, Note_off_c, 4, 54, 80
4, 90814, Note_on_c, 4, 54, 116
4, 90819, Note_on_c, 4, 66, 127
4, 90845, Note_off_c, 4, 54, 116
4, 90849, Note_off_c, 4, 66, 127
4, 90910, Note_on_c, 4, 54, 80
4, 90911, Note_off_c, 4, 54, 80
4, 90917, Note_on_c, 4, 66, 80
4, 90918, Note_off_c, 4, 66, 80
4, 90956, Note_on_c, 4, 66, 80
4, 90957, Note_off_c, 4, 66, 80
4, 90962, Note_on_c, 4, 54, 80
4, 90963, Note_off_c, 4, 54, 80
4, 91004, Note_on_c, 4, 54, 102
4, 91008, Note_on_c, 4, 66, 127
4, 91036, Note_off_c, 4, 54, 102
4, 91044, Note_off_c, 4, 66, 127
4, 91103, Note_on_c, 4, 54, 76
4, 91104, Note_off_c, 4, 54, 76
4, 91111, Note_on_c, 4, 66, 72
4, 91112, Note_off_c, 4, 66, 72
4, 91146, Note_on_c, 4, 66, 72
4, 91147, Note_off_c, 4, 66, 72
4, 91152, Note_on_c, 4, 54, 72
4, 91153, Note_off_c, 4, 54, 72
4, 91197, Note_on_c, 4, 54, 102
4, 91201, Note_on_c, 4, 66, 127
4, 91232, Note_off_c, 4, 54, 102
4, 91235, Note_off_c, 4, 66, 127
4, 91294, Note_on_c, 4, 54, 68
4, 91295, Note_off_c, 4, 54, 68
4, 91296, Note_on_c, 4, 66, 68
4, 91297, Note_off_c, 4, 66, 68
4, 91341, Note_on_c, 4, 66, 68
4, 91342, Note_off_c, 4, 66, 68
4, 91347, Note_on_c, 4, 54, 68
4, 91348, Note_off_c, 4, 54, 68
4, 91389, Note_on_c, 4, 54, 102
4, 91393, Note_on_c, 4, 66, 127
4, 91424, Note_off_c, 4, 54, 102
4, 91427, Note_off_c, 4, 66, 127
4, 91485, Note_on_c, 4, 54, 68
4, 91486, Note_off_c, 4, 54, 68
4, 91491, Note_on_c, 4, 66, 76
4, 91492, Note_off_c, 4, 66, 76
4, 91529, Note_on_c, 4, 66, 76
4, 91530, Note_off_c, 4, 66, 76
4, 91538, Note_on_c, 4, 54, 72
4, 91539, Note_off_c, 4, 54, 72
4, 91582, Note_on_c, 4, 54, 97
4, 91590, Note_on_c, 4, 66, 127
4, 91617, Note_off_c, 4, 54, 97
4, 91618, Note_off_c, 4, 66, 127
4, 91681, Note_on_c, 4, 54, 72
4, 91682, Note_off_c, 4, 54, 72
4, 91686, Note_on_c, 4, 66, 76
4, 91687, Note_off_c, 4, 66, 76
4, 91726, Note_on_c, 4, 66, 76
4, 91727, Note_off_c, 4, 66, 76
4, 91732, Note_on_c, 4, 54, 76
4, 91733, Note_off_c, 4, 54, 76
4, 91773, Note_on_c, 4, 54, 102
4, 91782, Note_on_c, 4, 66, 127
4, 91803, Note_off_c, 4, 54, 102
4, 91814, Note_off_c, 4, 66, 127
4, 91868, Note_on_c, 4, 54, 71
4, 91869, Note_off_c, 4, 54, 71
4, 91879, Note_on_c, 4, 66, 68
4, 91880, Note_off_c, 4, 66, 68
4, 91916, Note_on_c, 4, 66, 68
4, 91917, Note_off_c, 4, 66, 68
4, 91923, Note_on_c, 4, 54, 68
4, 91924, Note_off_c, 4, 54, 68
4, 91967, Note_on_c, 4, 54, 102
4, 91970, Note_on_c, 4, 66, 127
4, 91994, Note_off_c, 4, 54, 102
4, 91999, Note_off_c, 4, 66, 127
4, 92060, Note_on_c, 4, 54, 68
4, 92061, Note_off_c, 4, 54, 68
4, 92070, Note_on_c, 4, 66, 68
4, 92071, Note_off_c, 4, 66, 68
4, 92111, Note_on_c, 4, 66, 72
4, 92112, Note_off_c, 4, 66, 72
4, 92115, Note_on_c, 4, 54, 72
4, 92116, Note_off_c, 4, 54, 72
4, 92158, Note_on_c, 4, 54, 102
4, 92163, Note_on_c, 4, 66, 127
4, 92188, Note_off_c, 4, 54, 102
4, 92189, Note_off_c, 4, 66, 127
4, 93601, Note_on_c, 4, 54, 86
4, 93602, Note_off_c, 4, 54, 86
4, 93603, Note_on_c, 4, 66, 76
4, 93604, Note_off_c, 4, 66, 76
4, 93649, Note_on_c, 4, 54, 87
4, 93650, Note_off_c, 4, 54, 87
4, 93651, Note_on_c, 4, 66, 76
4, 93652, Note_off_c, 4, 66, 76
4, 93696, Note_on_c, 4, 54, 102
4, 93697, Note_on_c, 4, 66, 127
4, 93731, Note_off_c, 4, 66, 127
4, 93731, Note_off_c, 4, 54, 102
4, 93789, Note_on_c, 4, 54, 76
4, 93790, Note_off_c, 4, 54, 76
4, 93797, Note_on_c, 4, 66, 80
4, 93798, Note_off_c, 4, 66, 80
4, 93836, Note_on_c, 4, 66, 80
4, 93837, Note_off_c, 4, 66, 80
4, 93840, Note_on_c, 4, 54, 80
4, 93841, Note_off_c, 4, 54, 80
4, 93886, Note_on_c, 4, 54, 116
4, 93891, Note_on_c, 4, 66, 127
4, 93917, Note_off_c, 4, 54, 116
4, 93921, Note_off_c, 4, 66, 127
4, 93982, Note_on_c, 4, 54, 80
4, 93983, Note_off_c, 4, 54, 80
4, 93989, Note_on_c, 4, 66, 80
4, 93990, Note_off_c, 4, 66, 80
4, 94028, Note_on_c, 4, 66, 80
4, 94029, Note_off_c, 4, 66, 80
4, 94034, Note_on_c, 4, 54, 80
4, 94035, Note_off_c, 4, 54, 80
4, 94076, Note_on_c, 4, 54, 102
4, 94080, Note_on_c, 4, 66, 127
4, 94108, Note_off_c, 4, 54, 102
4, 94116, Note_off_c, 4, 66, 127
4, 94175, Note_on_c, 4, 54, 76
4, 94176, Note_off_c, 4, 54, 76
4, 94183, Note_on_c, 4, 66, 72
4, 94184, Note_off_c, 4, 66, 72
4, 94218, Note_on_c, 4, 66, 72
4, 94219, Note_off_c, 4, 66, 72
4, 94224, Note_on_c, 4, 54, 72
4, 94225, Note_off_c, 4, 54, 72
4, 94269, Note_on_c, 4, 54, 102
4, 94273, Note_on_c, 4, 66, 127
4, 94304, Note_off_c, 4, 54, 102
4, 94307, Note_off_c, 4, 66, 127
4, 94366, Note_on_c, 4, 54, 68
4, 94367, Note_off_c, 4, 54, 68
4, 94368, Note_on_c, 4, 66, 68
4, 94369, Note_off_c, 4, 66, 68
4, 94413, Note_on_c, 4, 66, 68
4, 94414, Note_off_c, 4, 66, 68
4, 94419, Note_on_c, 4, 54, 68
4, 94420, Note_off_c, 4, 54, 68
4, 94461, Note_on_c, 4, 54, 102
4, 94465, Note_on_c, 4, 66, 127
4, 94496, Note_off_c, 4, 54, 102
4, 94499, Note_off_c, 4, 66, 127
4, 94557, Note_on_c, 4, 54, 68
4, 94558, Note_off_c, 4, 54, 68
4, 94563, Note_on_c, 4, 66, 76
4, 94564, Note_off_c, 4, 66, 76
4, 94601, Note_on_c, 4, 66, 76
4, 94602, Note_off_c, 4, 66, 76
4, 94610, Note_on_c, 4, 54, 72
4, 94611, Note_off_c, 4, 54, 72
4, 94654, Note_on_c, 4, 54, 97
4, 94662, Note_on_c, 4, 66, 127
4, 94689, Note_off_c, 4, 54, 97
4, 94690, Note_off_c, 4, 66, 127
4, 94753, Note_on_c, 4, 54, 72
4, 94754, Note_off_c, 4, 54, 72
4, 94758, Note_on_c, 4, 66, 76
4, 94759, Note_off_c, 4, 66, 76
4, 94798, Note_on_c, 4, 66, 76
4, 94799, Note_off_c, 4, 66, 76
4, 94804, Note_on_c, 4, 54, 76
4, 94805, Note_off_c, 4, 54, 76
4, 94845, Note_on_c, 4, 54, 102
4, 94854, Note_on_c, 4, 66, 127
4, 94875, Note_off_c, 4, 54, 102
4, 94886, Note_off_c, 4, 66, 127
4, 94940, Note_on_c, 4, 54, 71
4, 94941, Note_off_c, 4, 54, 71
4, 94951, Note_on_c, 4, 66, 68
4, 94952, Note_off_c, 4, 66, 68
4, 94988, Note_on_c, 4, 66, 68
4, 94989, Note_off_c, 4, 66, 68
4, 94995, Note_on_c, 4, 54, 68
4, 94996, Note_off_c, 4, 54, 68
4, 95039, Note_on_c, 4, 54, 102
4, 95042, Note_on_c, 4, 66, 127
4, 95066, Note_off_c, 4, 54, 102
4, 95071, Note_off_c, 4, 66, 127
4, 95132, Note_on_c, 4, 54, 68
4, 95133, Note_off_c, 4, 54, 68
4, 95142, Note_on_c, 4, 66, 68
4, 95143, Note_off_c, 4, 66, 68
4, 95183, Note_on_c, 4, 66, 72
4, 95184, Note_off_c, 4, 66, 72
4, 95187, Note_on_c, 4, 54, 72
4, 95188, Note_off_c, 4, 54, 72
4, 95230, Note_on_c, 4, 54, 102
4, 95235, Note_on_c, 4, 66, 127
4, 95260, Note_off_c, 4, 54, 102
4, 95261, Note_off_c, 4, 66, 127
4, 96384, Control_c, 4, 0, 8
4, 96436, Program_c, 4, 28
4, 96484, Control_c, 4, 7, 76
4, 96673, Note_on_c, 4, 54, 86
4, 96674, Note_off_c, 4, 54, 86
4, 96675, Note_on_c, 4, 66, 76
4, 96676, Note_off_c, 4, 66, 76
4, 96721, Note_on_c, 4, 54, 87
4, 96722, Note_off_c, 4, 54, 87
4, 96723, Note_on_c, 4, 66, 76
4, 96724, Note_off_c, 4, 66, 76
4, 96775, Note_on_c, 4, 61, 127
4, 96803, Note_off_c, 4, 61, 127
4, 96817, Note_on_c, 4, 61, 127
4, 96849, Note_off_c, 4, 61, 127
4, 96871, Note_on_c, 4, 50, 71
4, 96877, Note_off_c, 4, 50, 71
4, 96916, Note_on_c, 4, 59, 127
4, 96975, Note_off_c, 4, 59, 127
4, 97016, Note_on_c, 4, 57, 127
4, 97037, Note_off_c, 4, 57, 127
4, 97059, Note_on_c, 4, 60, 127
4, 97067, Note_on_c, 4, 61, 127
4, 97075, Note_off_c, 4, 60, 127
4, 97378, Note_off_c, 4, 61, 127
4, 97448, Note_on_c, 4, 54, 121
4, 97449, Note_off_c, 4, 54, 121
4, 97496, Note_on_c, 4, 54, 120
4, 97497, Note_off_c, 4, 54, 120
4, 97544, Note_on_c, 4, 61, 127
4, 97575, Note_off_c, 4, 61, 127
4, 97584, Note_on_c, 4, 61, 127
4, 97621, Note_off_c, 4, 61, 127
4, 97639, Note_on_c, 4, 50, 71
4, 97653, Note_off_c, 4, 50, 71
4, 97684, Note_on_c, 4, 59, 127
4, 97732, Note_off_c, 4, 59, 127
4, 97778, Note_on_c, 4, 57, 127
4, 97801, Note_on_c, 4, 59, 102
4, 97803, Note_off_c, 4, 59, 102
4, 97806, Note_off_c, 4, 57, 127
4, 97816, Note_on_c, 4, 60, 110
4, 97828, Note_off_c, 4, 60, 110
4, 97830, Note_on_c, 4, 61, 127
4, 98160, Note_off_c, 4, 61, 127
4, 98208, Note_on_c, 4, 54, 121
4, 98220, Note_off_c, 4, 54, 121
4, 98256, Note_on_c, 4, 54, 122
4, 98268, Note_off_c, 4, 54, 122
4, 98314, Note_on_c, 4, 61, 127
4, 98345, Note_off_c, 4, 61, 127
4, 98352, Note_on_c, 4, 61, 127
4, 98389, Note_off_c, 4, 61, 127
4, 98452, Note_on_c, 4, 59, 127
4, 98500, Note_off_c, 4, 59, 127
4, 98545, Note_on_c, 4, 57, 102
4, 98565, Note_off_c, 4, 57, 102
4, 98593, Note_on_c, 4, 61, 127
4, 98941, Note_off_c, 4, 61, 127
4, 98976, Note_on_c, 4, 54, 120
4, 98977, Note_off_c, 4, 54, 120
4, 99024, Note_on_c, 4, 54, 121
4, 99025, Note_off_c, 4, 54, 121
4, 99080, Note_on_c, 4, 61, 127
4, 99111, Note_off_c, 4, 61, 127
4, 99120, Note_on_c, 4, 61, 127
4, 99150, Note_off_c, 4, 61, 127
4, 99181, Note_on_c, 4, 50, 35
4, 99185, Note_off_c, 4, 50, 35
4, 99218, Note_on_c, 4, 59, 127
4, 99271, Note_off_c, 4, 59, 127
4, 99317, Note_on_c, 4, 57, 127
4, 99347, Note_off_c, 4, 57, 127
4, 99361, Note_on_c, 4, 54, 120
4, 99362, Note_off_c, 4, 54, 120
4, 99409, Note_on_c, 4, 54, 121
4, 99410, Note_off_c, 4, 54, 121
4, 99465, Note_on_c, 4, 61, 127
4, 99492, Note_off_c, 4, 61, 127
4, 99504, Note_on_c, 4, 61, 127
4, 99550, Note_off_c, 4, 61, 127
4, 99611, Note_on_c, 4, 59, 127
4, 99645, Note_off_c, 4, 59, 127
4, 99702, Note_on_c, 4, 57, 127
4, 99737, Note_off_c, 4, 57, 127
4, 99746, Note_on_c, 4, 54, 120
4, 99747, Note_off_c, 4, 54, 120
4, 99794, Note_on_c, 4, 54, 121
4, 99795, Note_off_c, 4, 54, 121
4, 99847, Note_on_c, 4, 61, 127
4, 99875, Note_off_c, 4, 61, 127
4, 99889, Note_on_c, 4, 61, 127
4, 99921, Note_off_c, 4, 61, 127
4, 99943, Note_on_c, 4, 50, 71
4, 99949, Note_off_c, 4, 50, 71
4, 99988, Note_on_c, 4, 59, 127
4, 100047, Note_off_c, 4, 59, 127
4, 100088, Note_on_c, 4, 57, 127
4, 100109, Note_off_c, 4, 57, 127
4, 100131, Note_on_c, 4, 60, 127
4, 100139, Note_on_c, 4, 61, 127
4, 100147, Note_off_c, 4, 60, 127
4, 100450, Note_off_c, 4, 61, 127
4, 100520, Note_on_c, 4, 54, 121
4, 100521, Note_off_c, 4, 54, 121
4, 100568, Note_on_c, 4, 54, 120
4, 100569, Note_off_c, 4, 54, 120
4, 100615, Note_on_c, 4, 61, 127
4, 100643, Note_off_c, 4, 61, 127
4, 100657, Note_on_c, 4, 61, 127
4, 100689, Note_off_c, 4, 61, 127
4, 100711, Note_on_c, 4, 50, 71
4, 100717, Note_off_c, 4, 50, 71
4, 100756, Note_on_c, 4, 59, 127
4, 100815, Note_off_c, 4, 59, 127
4, 100856, Note_on_c, 4, 57, 127
4, 100877, Note_off_c, 4, 57, 127
4, 100899, Note_on_c, 4, 60, 127
4, 100907, Note_on_c, 4, 61, 127
4, 100915, Note_off_c, 4, 60, 127
4, 101218, Note_off_c, 4, 61, 127
4, 101288, Note_on_c, 4, 54, 121
4, 101289, Note_off_c, 4, 54, 121
4, 101336, Note_on_c, 4, 54, 120
4, 101337, Note_off_c, 4, 54, 120
4, 101385, Note_on_c, 4, 61, 127
4, 101413, Note_off_c, 4, 61, 127
4, 101425, Note_on_c, 4, 61, 127
4, 101471, Note_off_c, 4, 61, 127
4, 101497, Note_on_c, 4, 59, 32
4, 101508, Note_off_c, 4, 59, 32
4, 101521, Note_on_c, 4, 59, 127
4, 101580, Note_off_c, 4, 59, 127
4, 101616, Note_on_c, 4, 57, 127
4, 101636, Note_off_c, 4, 57, 127
4, 101669, Note_on_c, 4, 60, 108
4, 101676, Note_on_c, 4, 61, 127
4, 101687, Note_off_c, 4, 60, 108
4, 102008, Note_off_c, 4, 61, 127
4, 102050, Note_on_c, 4, 54, 120
4, 102051, Note_off_c, 4, 54, 120
4, 102099, Note_on_c, 4, 54, 121
4, 102100, Note_off_c, 4, 54, 121
4, 102153, Note_on_c, 4, 61, 127
4, 102184, Note_off_c, 4, 61, 127
4, 102196, Note_on_c, 4, 61, 127
4, 102226, Note_off_c, 4, 61, 127
4, 102243, Note_on_c, 4, 49, 78
4, 102247, Note_off_c, 4, 49, 78
4, 102294, Note_on_c, 4, 59, 127
4, 102331, Note_off_c, 4, 59, 127
4, 102386, Note_on_c, 4, 57, 127
4, 102416, Note_off_c, 4, 57, 127
4, 102436, Note_on_c, 4, 54, 121
4, 102448, Note_off_c, 4, 54, 121
4, 102482, Note_on_c, 4, 54, 120
4, 102492, Note_off_c, 4, 54, 120
4, 102532, Note_on_c, 4, 61, 127
4, 102559, Note_off_c, 4, 61, 127
4, 102576, Note_on_c, 4, 61, 127
4, 102622, Note_off_c, 4, 61, 127
4, 102687, Note_on_c, 4, 59, 127
4, 102722, Note_off_c, 4, 59, 127
4, 102772, Note_on_c, 4, 57, 127
4, 102806, Note_off_c, 4, 57, 127
4, 102822, Note_on_c, 4, 54, 120
4, 102823, Note_off_c, 4, 54, 120
4, 102867, Note_on_c, 4, 54, 120
4, 102868, Note_off_c, 4, 54, 120
4, 102920, Control_c, 4, 11, 127
4, 102920, Note_on_c, 4, 61, 127
4, 102948, Note_off_c, 4, 61, 127
4, 102961, Note_on_c, 4, 61, 127
4, 102968, Control_c, 4, 11, 126
4, 103007, Note_off_c, 4, 61, 127
4, 103008, Control_c, 4, 11, 125
4, 103033, Note_on_c, 4, 59, 32
4, 103044, Note_off_c, 4, 59, 32
4, 103048, Control_c, 4, 11, 124
4, 103057, Note_on_c, 4, 59, 127
4, 103096, Control_c, 4, 11, 123
4, 103109, Note_off_c, 4, 59, 127
4, 103136, Control_c, 4, 11, 122
4, 103152, Note_on_c, 4, 57, 127
4, 103172, Note_off_c, 4, 57, 127
4, 103176, Control_c, 4, 11, 121
4, 103205, Note_on_c, 4, 60, 127
4, 103213, Note_on_c, 4, 61, 127
4, 103216, Control_c, 4, 11, 120
4, 103227, Note_off_c, 4, 60, 127
4, 103264, Control_c, 4, 11, 119
4, 103304, Control_c, 4, 11, 118
4, 103344, Control_c, 4, 11, 117
4, 103384, Control_c, 4, 11, 116
4, 103432, Control_c, 4, 11, 115
4, 103472, Control_c, 4, 11, 114
4, 103512, Control_c, 4, 11, 113
4, 103552, Control_c, 4, 11, 112
4, 103553, Note_off_c, 4, 61, 127
4, 103588, Note_on_c, 4, 54, 120
4, 103589, Note_off_c, 4, 54, 120
4, 103600, Control_c, 4, 11, 111
4, 103634, Note_on_c, 4, 54, 121
4, 103635, Note_off_c, 4, 54, 121
4, 103640, Control_c, 4, 11, 110
4, 103680, Control_c, 4, 11, 109
4, 103687, Note_on_c, 4, 61, 127
4, 103715, Note_off_c, 4, 61, 127
4, 103720, Control_c, 4, 11, 108
4, 103729, Note_on_c, 4, 61, 127
4, 103761, Note_off_c, 4, 61, 127
4, 103768, Control_c, 4, 11, 107
4, 103783, Note_on_c, 4, 50, 71
4, 103789, Note_off_c, 4, 50, 71
4, 103808, Control_c, 4, 11, 106
4, 103828, Note_on_c, 4, 59, 127
4, 103848, Control_c, 4, 11, 105
4, 103887, Note_off_c, 4, 59, 127
4, 103888, Control_c, 4, 11, 104
4, 103928, Note_on_c, 4, 57, 127
4, 103936, Control_c, 4, 11, 103
4, 103949, Note_off_c, 4, 57, 127
4, 103971, Note_on_c, 4, 60, 127
4, 103976, Control_c, 4, 11, 102
4, 103979, Note_on_c, 4, 61, 127
4, 103987, Note_off_c, 4, 60, 127
4, 104016, Control_c, 4, 11, 101
4, 104056, Control_c, 4, 11, 100
4, 104104, Control_c, 4, 11, 99
4, 104144, Control_c, 4, 11, 98
4, 104184, Control_c, 4, 11, 97
4, 104224, Control_c, 4, 11, 96
4, 104272, Control_c, 4, 11, 95
4, 104290, Note_off_c, 4, 61, 127
4, 104312, Control_c, 4, 11, 94
4, 104352, Control_c, 4, 11, 93
4, 104360, Note_on_c, 4, 54, 121
4, 104361, Note_off_c, 4, 54, 121
4, 104392, Control_c, 4, 11, 92
4, 104408, Note_on_c, 4, 54, 120
4, 104409, Note_off_c, 4, 54, 120
4, 104440, Control_c, 4, 11, 91
4, 104455, Note_on_c, 4, 61, 127
4, 104480, Control_c, 4, 11, 90
4, 104483, Note_off_c, 4, 61, 127
4, 104497, Note_on_c, 4, 61, 127
4, 104520, Control_c, 4, 11, 89
4, 104529, Note_off_c, 4, 61, 127
4, 104551, Note_on_c, 4, 50, 71
4, 104557, Note_off_c, 4, 50, 71
4, 104560, Control_c, 4, 11, 88
4, 104596, Note_on_c, 4, 59, 127
4, 104608, Control_c, 4, 11, 87
4, 104648, Control_c, 4, 11, 86
4, 104655, Note_off_c, 4, 59, 127
4, 104688, Control_c, 4, 11, 85
4, 104696, Note_on_c, 4, 57, 127
4, 104717, Note_off_c, 4, 57, 127
4, 104728, Control_c, 4, 11, 84
4, 104739, Note_on_c, 4, 60, 127
4, 104747, Note_on_c, 4, 61, 127
4, 104755, Note_off_c, 4, 60, 127
4, 104776, Control_c, 4, 11, 83
4, 104816, Control_c, 4, 11, 82
4, 104856, Control_c, 4, 11, 81
4, 104896, Control_c, 4, 11, 80
4, 104944, Control_c, 4, 11, 79
4, 104984, Control_c, 4, 11, 78
4, 105024, Control_c, 4, 11, 77
4, 105058, Note_off_c, 4, 61, 127
4, 105064, Control_c, 4, 11, 76
4, 105112, Control_c, 4, 11, 75
4, 105128, Note_on_c, 4, 54, 121
4, 105129, Note_off_c, 4, 54, 121
4, 105152, Control_c, 4, 11, 74
4, 105176, Note_on_c, 4, 54, 120
4, 105177, Note_off_c, 4, 54, 120
4, 105192, Control_c, 4, 11, 73
4, 105223, Note_on_c, 4, 61, 127
4, 105232, Control_c, 4, 11, 72
4, 105251, Note_off_c, 4, 61, 127
4, 105265, Note_on_c, 4, 61, 127
4, 105280, Control_c, 4, 11, 71
4, 105297, Note_off_c, 4, 61, 127
4, 105319, Note_on_c, 4, 50, 71
4, 105320, Control_c, 4, 11, 70
4, 105325, Note_off_c, 4, 50, 71
4, 105360, Control_c, 4, 11, 69
4, 105364, Note_on_c, 4, 59, 127
4, 105400, Control_c, 4, 11, 68
4, 105423, Note_off_c, 4, 59, 127
4, 105448, Control_c, 4, 11, 67
4, 105464, Note_on_c, 4, 57, 127
4, 105485, Note_off_c, 4, 57, 127
4, 105488, Control_c, 4, 11, 66
4, 105507, Note_on_c, 4, 60, 127
4, 105515, Note_on_c, 4, 61, 127
4, 105523, Note_off_c, 4, 60, 127
4, 105528, Control_c, 4, 11, 65
4, 105568, Control_c, 4, 11, 64
4, 105616, Control_c, 4, 11, 63
4, 105656, Control_c, 4, 11, 62
4, 105696, Control_c, 4, 11, 61
4, 105736, Control_c, 4, 11, 60
4, 105784, Control_c, 4, 11, 59
4, 105824, Control_c, 4, 11, 58
4, 105826, Note_off_c, 4, 61, 127
4, 105864, Control_c, 4, 11, 57
4, 105896, Note_on_c, 4, 54, 121
4, 105897, Note_off_c, 4, 54, 121
4, 105904, Control_c, 4, 11, 56
4, 105944, Note_on_c, 4, 54, 120
4, 105945, Note_off_c, 4, 54, 120
4, 105952, Control_c, 4, 11, 55
4, 105991, Note_on_c, 4, 61, 127
4, 105992, Control_c, 4, 11, 54
4, 106019, Note_off_c, 4, 61, 127
4, 106032, Control_c, 4, 11, 53
4, 106033, Note_on_c, 4, 61, 127
4, 106065, Note_off_c, 4, 61, 127
4, 106072, Control_c, 4, 11, 52
4, 106087, Note_on_c, 4, 50, 71
4, 106093, Note_off_c, 4, 50, 71
4, 106120, Control_c, 4, 11, 51
4, 106132, Note_on_c, 4, 59, 127
4, 106160, Control_c, 4, 11, 50
4, 106191, Note_off_c, 4, 59, 127
4, 106200, Control_c, 4, 11, 49
4, 106232, Note_on_c, 4, 57, 127
4, 106240, Control_c, 4, 11, 48
4, 106253, Note_off_c, 4, 57, 127
4, 106275, Note_on_c, 4, 60, 127
4, 106283, Note_on_c, 4, 61, 127
4, 106288, Control_c, 4, 11, 47
4, 106291, Note_off_c, 4, 60, 127
4, 106328, Control_c, 4, 11, 46
4, 106368, Control_c, 4, 11, 45
4, 106408, Control_c, 4, 11, 44
4, 106456, Control_c, 4, 11, 43
4, 106496, Control_c, 4, 11, 42
4, 106536, Control_c, 4, 11, 41
4, 106576, Control_c, 4, 11, 40
4, 106594, Note_off_c, 4, 61, 127
4, 106624, Control_c, 4, 11, 39
4, 106664, Control_c, 4, 11, 38
4, 106664, Note_on_c, 4, 54, 121
4, 106665, Note_off_c, 4, 54, 121
4, 106704, Control_c, 4, 11, 37
4, 106712, Note_on_c, 4, 54, 120
4, 106713, Note_off_c, 4, 54, 120
4, 106744, Control_c, 4, 11, 36
4, 106759, Note_on_c, 4, 61, 127
4, 106787, Note_off_c, 4, 61, 127
4, 106792, Control_c, 4, 11, 35
4, 106801, Note_on_c, 4, 61, 127
4, 106832, Control_c, 4, 11, 34
4, 106833, Note_off_c, 4, 61, 127
4, 106855, Note_on_c, 4, 50, 71
4, 106861, Note_off_c, 4, 50, 71
4, 106872, Control_c, 4, 11, 33
4, 106900, Note_on_c, 4, 59, 127
4, 106912, Control_c, 4, 11, 32
4, 106959, Note_off_c, 4, 59, 127
4, 106960, Control_c, 4, 11, 31
4, 107000, Control_c, 4, 11, 30
4, 107000, Note_on_c, 4, 57, 127
4, 107021, Note_off_c, 4, 57, 127
4, 107040, Control_c, 4, 11, 29
4, 107043, Note_on_c, 4, 60, 127
4, 107051, Note_on_c, 4, 61, 127
4, 107059, Note_off_c, 4, 60, 127
4, 107080, Control_c, 4, 11, 28
4, 107128, Control_c, 4, 11, 27
4, 107168, Control_c, 4, 11, 26
4, 107208, Control_c, 4, 11, 25
4, 107248, Control_c, 4, 11, 24
4, 107296, Control_c, 4, 11, 23
4, 107336, Control_c, 4, 11, 22
4, 107362, Note_off_c, 4, 61, 127
4, 107376, Control_c, 4, 11, 21
4, 107416, Control_c, 4, 11, 20
4, 107432, Note_on_c, 4, 54, 121
4, 107433, Note_off_c, 4, 54, 121
4, 107464, Control_c, 4, 11, 19
4, 107480, Note_on_c, 4, 54, 120
4, 107481, Note_off_c, 4, 54, 120
4, 107504, Control_c, 4, 11, 18
4, 107527, Note_on_c, 4, 61, 127
4, 107544, Control_c, 4, 11, 17
4, 107555, Note_off_c, 4, 61, 127
4, 107569, Note_on_c, 4, 61, 127
4, 107584, Control_c, 4, 11, 16
4, 107601, Note_off_c, 4, 61, 127
4, 107623, Note_on_c, 4, 50, 71
4, 107629, Note_off_c, 4, 50, 71
4, 107632, Control_c, 4, 11, 15
4, 107668, Note_on_c, 4, 59, 127
4, 107672, Control_c, 4, 11, 14
4, 107712, Control_c, 4, 11, 13
4, 107727, Note_off_c, 4, 59, 127
4, 107752, Control_c, 4, 11, 12
4, 107768, Note_on_c, 4, 57, 127
4, 107789, Note_off_c, 4, 57, 127
4, 107800, Control_c, 4, 11, 11
4, 107811, Note_on_c, 4, 60, 127
4, 107819, Note_on_c, 4, 61, 127
4, 107827, Note_off_c, 4, 60, 127
4, 107840, Control_c, 4, 11, 10
4, 107880, Control_c, 4, 11, 9
4, 107920, Control_c, 4, 11, 8
4, 107968, Control_c, 4, 11, 7
4, 108008, Control_c, 4, 11, 6
4, 108048, Control_c, 4, 11, 5
4, 108088, Control_c, 4, 11, 4
4, 108130, Note_off_c, 4, 61, 127
4, 108136, Control_c, 4, 11, 3
4, 108176, Control_c, 4, 11, 2
4, 108216, Control_c, 4, 11, 1
4, 108256, Control_c, 4, 11, 0
4, 108376, Control_c, 4, 120, 0
4, 108404, Control_c, 4, 123, 0
4, 108404, End_track
5, 0, Start_track
5, 0, Text_t, "Strings 2"
5, 192, Control_c, 6, 121, 0
5, 237, Control_c, 6, 0, 0
5, 240, Control_c, 6, 32, 0
5, 288, Program_c, 6, 49
5, 336, Control_c, 6, 10, 64
5, 385, Control_c, 6, 91, 127
5, 432, Control_c, 6, 93, 30
5, 482, Control_c, 6, 7, 84
5, 518, Control_c, 6, 11, 127
5, 594, Control_c, 6, 99, 1
5, 610, Control_c, 6, 98, 99
5, 628, Control_c, 6, 6, 52
5, 30720, Note_on_c, 6, 74, 78
5, 30720, Note_on_c, 6, 78, 78
5, 30720, Note_on_c, 6, 81, 78
5, 31488, Note_off_c, 6, 81, 78
5, 31488, Note_on_c, 6, 83, 79
5, 31872, Note_off_c, 6, 83, 79
5, 31872, Note_off_c, 6, 78, 78
5, 31872, Note_off_c, 6, 74, 78
5, 31872, Note_on_c, 6, 77, 78
5, 31872, Note_on_c, 6, 80, 78
5, 31872, Note_on_c, 6, 85, 79
5, 32252, Note_off_c, 6, 80, 78
5, 32256, Note_off_c, 6, 85, 79
5, 32256, Note_off_c, 6, 77, 78
5, 32256, Note_on_c, 6, 61, 76
5, 32256, Note_on_c, 6, 66, 76
5, 32496, Note_off_c, 6, 66, 76
5, 32496, Note_off_c, 6, 61, 76
5, 32544, Note_on_c, 6, 63, 76
5, 32544, Note_on_c, 6, 68, 76
5, 32928, Note_off_c, 6, 68, 76
5, 32928, Note_off_c, 6, 63, 76
5, 33024, Note_on_c, 6, 64, 76
5, 33024, Note_on_c, 6, 69, 76
5, 33262, Note_off_c, 6, 69, 76
5, 33264, Note_off_c, 6, 64, 76
5, 33312, Note_on_c, 6, 63, 76
5, 33312, Note_on_c, 6, 68, 76
5, 33652, Note_off_c, 6, 63, 76
5, 33653, Note_off_c, 6, 68, 76
5, 33792, Note_on_c, 6, 61, 76
5, 33792, Note_on_c, 6, 66, 76
5, 34030, Note_off_c, 6, 61, 76
5, 34032, Note_off_c, 6, 66, 76
5, 34080, Note_on_c, 6, 63, 76
5, 34080, Note_on_c, 6, 68, 76
5, 34373, Note_off_c, 6, 68, 76
5, 34378, Note_off_c, 6, 63, 76
5, 34560, Note_on_c, 6, 64, 76
5, 34560, Note_on_c, 6, 69, 76
5, 34773, Note_off_c, 6, 69, 76
5, 34773, Note_off_c, 6, 64, 76
5, 34848, Note_on_c, 6, 63, 76
5, 34848, Note_on_c, 6, 68, 76
5, 35127, Note_off_c, 6, 63, 76
5, 35129, Note_off_c, 6, 68, 76
5, 35328, Note_on_c, 6, 74, 76
5, 35328, Note_on_c, 6, 78, 78
5, 36864, Note_off_c, 6, 78, 78
5, 36864, Note_off_c, 6, 74, 76
5, 38400, Note_on_c, 6, 74, 76
5, 38400, Note_on_c, 6, 78, 78
5, 39936, Note_off_c, 6, 78, 78
5, 39936, Note_off_c, 6, 74, 76
5, 41472, Note_on_c, 6, 61, 124
5, 42618, Note_off_c, 6, 61, 124
5, 42618, Note_on_c, 6, 63, 124
5, 42821, Note_off_c, 6, 63, 124
5, 42821, Note_on_c, 6, 59, 124
5, 43018, Note_off_c, 6, 59, 124
5, 43018, Note_on_c, 6, 61, 124
5, 44161, Note_off_c, 6, 61, 124
5, 44161, Note_on_c, 6, 59, 124
5, 44357, Note_off_c, 6, 59, 124
5, 44357, Note_on_c, 6, 57, 124
5, 44548, Note_off_c, 6, 57, 124
5, 44548, Note_on_c, 6, 54, 124
5, 46080, Note_off_c, 6, 54, 124
5, 50691, Note_on_c, 6, 61, 124
5, 51826, Note_off_c, 6, 61, 124
5, 51826, Note_on_c, 6, 63, 124
5, 52025, Note_off_c, 6, 63, 124
5, 52025, Note_on_c, 6, 59, 124
5, 52217, Note_off_c, 6, 59, 124
5, 52217, Note_on_c, 6, 61, 124
5, 53346, Note_off_c, 6, 61, 124
5, 53346, Note_on_c, 6, 59, 124
5, 53561, Note_off_c, 6, 59, 124
5, 53561, Note_on_c, 6, 57, 116
5, 53760, Note_off_c, 6, 57, 116
5, 53760, Note_on_c, 6, 54, 124
5, 55283, Note_off_c, 6, 54, 124
5, 56833, Note_on_c, 6, 78, 90
5, 58063, Note_off_c, 6, 78, 90
5, 58067, Note_on_c, 6, 80, 97
5, 58173, Note_off_c, 6, 80, 97
5, 58173, Note_on_c, 6, 81, 97
5, 58271, Note_on_c, 6, 85, 97
5, 58272, Note_off_c, 6, 81, 97
5, 58384, Note_off_c, 6, 85, 97
5, 58384, Note_on_c, 6, 78, 90
5, 58857, Note_off_c, 6, 78, 90
5, 58857, Note_on_c, 6, 76, 97
5, 58998, Note_off_c, 6, 76, 97
5, 58998, Note_on_c, 6, 74, 92
5, 59144, Note_off_c, 6, 74, 92
5, 59144, Note_on_c, 6, 73, 83
5, 59904, Note_off_c, 6, 73, 83
5, 59904, Note_on_c, 6, 78, 90
5, 61155, Note_off_c, 6, 78, 90
5, 61155, Note_on_c, 6, 80, 97
5, 61257, Note_off_c, 6, 80, 97
5, 61257, Note_on_c, 6, 81, 97
5, 61349, Note_on_c, 6, 85, 97
5, 61351, Note_off_c, 6, 81, 97
5, 61460, Note_off_c, 6, 85, 97
5, 61460, Note_on_c, 6, 81, 80
5, 61462, Note_on_c, 6, 78, 77
5, 62146, Note_off_c, 6, 81, 80
5, 62212, Note_off_c, 6, 78, 77
5, 62212, Note_on_c, 6, 77, 79
5, 62215, Note_on_c, 6, 80, 79
5, 62565, Note_off_c, 6, 77, 79
5, 62595, Note_on_c, 6, 78, 79
5, 62792, Note_on_c, 6, 77, 79
5, 62793, Note_off_c, 6, 78, 79
5, 62928, Note_off_c, 6, 80, 79
5, 62968, Note_off_c, 6, 77, 79
5, 62976, Note_on_c, 6, 61, 70
5, 62976, Note_on_c, 6, 66, 70
5, 63216, Note_off_c, 6, 66, 70
5, 63216, Note_off_c, 6, 61, 70
5, 63264, Note_on_c, 6, 63, 70
5, 63264, Note_on_c, 6, 68, 70
5, 63648, Note_off_c, 6, 68, 70
5, 63648, Note_off_c, 6, 63, 70
5, 63744, Note_on_c, 6, 64, 70
5, 63744, Note_on_c, 6, 69, 70
5, 63982, Note_off_c, 6, 69, 70
5, 63984, Note_off_c, 6, 64, 70
5, 64032, Note_on_c, 6, 63, 70
5, 64032, Note_on_c, 6, 68, 70
5, 64372, Note_off_c, 6, 63, 70
5, 64373, Note_off_c, 6, 68, 70
5, 64512, Note_on_c, 6, 61, 70
5, 64512, Note_on_c, 6, 66, 70
5, 64750, Note_off_c, 6, 61, 70
5, 64752, Note_off_c, 6, 66, 70
5, 64800, Note_on_c, 6, 63, 70
5, 64800, Note_on_c, 6, 68, 70
5, 65093, Note_off_c, 6, 68, 70
5, 65098, Note_off_c, 6, 63, 70
5, 65280, Note_on_c, 6, 64, 70
5, 65280, Note_on_c, 6, 69, 70
5, 65493, Note_off_c, 6, 69, 70
5, 65493, Note_off_c, 6, 64, 70
5, 65568, Note_on_c, 6, 63, 70
5, 65568, Note_on_c, 6, 68, 70
5, 65847, Note_off_c, 6, 63, 70
5, 65849, Note_off_c, 6, 68, 70
5, 66048, Note_on_c, 6, 74, 71
5, 66048, Note_on_c, 6, 78, 72
5, 67584, Note_off_c, 6, 78, 72
5, 67584, Note_off_c, 6, 74, 71
5, 67872, Control_c, 6, 10, 0
5, 67966, Note_on_c, 6, 85, 126
5, 68014, Note_off_c, 6, 85, 126
5, 68015, Note_on_c, 6, 81, 126
5, 68063, Note_off_c, 6, 81, 126
5, 68065, Note_on_c, 6, 78, 126
5, 68113, Note_off_c, 6, 78, 126
5, 68113, Note_on_c, 6, 74, 126
5, 68161, Note_off_c, 6, 74, 126
5, 68161, Note_on_c, 6, 73, 97
5, 68640, Note_off_c, 6, 73, 97
5, 68660, Control_c, 6, 10, 127
5, 68721, Note_on_c, 6, 64, 113
5, 68803, Note_off_c, 6, 64, 113
5, 68804, Note_on_c, 6, 66, 113
5, 68864, Note_off_c, 6, 66, 113
5, 68980, Control_c, 6, 10, 64
5, 69120, Note_on_c, 6, 61, 70
5, 69120, Note_on_c, 6, 66, 70
5, 69360, Note_off_c, 6, 66, 70
5, 69360, Note_off_c, 6, 61, 70
5, 69408, Note_on_c, 6, 63, 70
5, 69408, Note_on_c, 6, 68, 70
5, 69792, Note_off_c, 6, 68, 70
5, 69792, Note_off_c, 6, 63, 70
5, 69888, Note_on_c, 6, 64, 70
5, 69888, Note_on_c, 6, 69, 70
5, 70126, Note_off_c, 6, 69, 70
5, 70128, Note_off_c, 6, 64, 70
5, 70176, Note_on_c, 6, 63, 70
5, 70176, Note_on_c, 6, 68, 70
5, 70516, Note_off_c, 6, 63, 70
5, 70517, Note_off_c, 6, 68, 70
5, 70656, Note_on_c, 6, 61, 70
5, 70656, Note_on_c, 6, 66, 70
5, 70894, Note_off_c, 6, 61, 70
5, 70896, Note_off_c, 6, 66, 70
5, 70944, Note_on_c, 6, 63, 70
5, 70944, Note_on_c, 6, 68, 70
5, 71237, Note_off_c, 6, 68, 70
5, 71242, Note_off_c, 6, 63, 70
5, 71424, Note_on_c, 6, 64, 70
5, 71424, Note_on_c, 6, 69, 70
5, 71637, Note_off_c, 6, 69, 70
5, 71637, Note_off_c, 6, 64, 70
5, 71712, Note_on_c, 6, 63, 70
5, 71712, Note_on_c, 6, 68, 70
5, 71991, Note_off_c, 6, 63, 70
5, 71993, Note_off_c, 6, 68, 70
5, 72192, Note_on_c, 6, 74, 69
5, 72192, Note_on_c, 6, 78, 72
5, 73728, Note_off_c, 6, 78, 72
5, 73728, Note_off_c, 6, 74, 69
5, 74016, Control_c, 6, 10, 0
5, 74110, Note_on_c, 6, 85, 126
5, 74158, Note_off_c, 6, 85, 126
5, 74159, Note_on_c, 6, 81, 126
5, 74207, Note_off_c, 6, 81, 126
5, 74209, Note_on_c, 6, 78, 126
5, 74257, Note_off_c, 6, 78, 126
5, 74257, Note_on_c, 6, 74, 126
5, 74305, Note_off_c, 6, 74, 126
5, 74305, Note_on_c, 6, 73, 97
5, 74784, Note_off_c, 6, 73, 97
5, 74804, Control_c, 6, 10, 127
5, 74865, Note_on_c, 6, 64, 113
5, 74947, Note_off_c, 6, 64, 113
5, 74948, Note_on_c, 6, 66, 113
5, 75008, Note_off_c, 6, 66, 113
5, 75124, Control_c, 6, 10, 64
5, 75264, Note_on_c, 6, 74, 68
5, 75264, Note_on_c, 6, 78, 72
5, 76800, Note_off_c, 6, 78, 72
5, 76800, Note_off_c, 6, 74, 68
5, 77088, Control_c, 6, 10, 0
5, 77182, Note_on_c, 6, 85, 126
5, 77230, Note_off_c, 6, 85, 126
5, 77231, Note_on_c, 6, 81, 126
5, 77279, Note_off_c, 6, 81, 126
5, 77281, Note_on_c, 6, 78, 126
5, 77329, Note_off_c, 6, 78, 126
5, 77329, Note_on_c, 6, 74, 126
5, 77377, Note_off_c, 6, 74, 126
5, 77377, Note_on_c, 6, 73, 97
5, 77856, Note_off_c, 6, 73, 97
5, 77876, Control_c, 6, 10, 127
5, 77937, Note_on_c, 6, 64, 113
5, 78019, Note_off_c, 6, 64, 113
5, 78020, Note_on_c, 6, 66, 113
5, 78080, Note_off_c, 6, 66, 113
5, 78196, Control_c, 6, 10, 64
5, 78336, Note_on_c, 6, 61, 70
5, 78336, Note_on_c, 6, 66, 70
5, 78576, Note_off_c, 6, 66, 70
5, 78576, Note_off_c, 6, 61, 70
5, 78624, Note_on_c, 6, 63, 70
5, 78624, Note_on_c, 6, 68, 70
5, 79008, Note_off_c, 6, 68, 70
5, 79008, Note_off_c, 6, 63, 70
5, 79104, Note_on_c, 6, 64, 70
5, 79104, Note_on_c, 6, 69, 70
5, 79342, Note_off_c, 6, 69, 70
5, 79344, Note_off_c, 6, 64, 70
5, 79392, Note_on_c, 6, 63, 70
5, 79392, Note_on_c, 6, 68, 70
5, 79732, Note_off_c, 6, 63, 70
5, 79733, Note_off_c, 6, 68, 70
5, 79872, Note_on_c, 6, 61, 70
5, 79872, Note_on_c, 6, 66, 70
5, 80110, Note_off_c, 6, 61, 70
5, 80112, Note_off_c, 6, 66, 70
5, 80160, Note_on_c, 6, 63, 70
5, 80160, Note_on_c, 6, 68, 70
5, 80453, Note_off_c, 6, 68, 70
5, 80458, Note_off_c, 6, 63, 70
5, 80640, Note_on_c, 6, 64, 70
5, 80640, Note_on_c, 6, 69, 70
5, 80853, Note_off_c, 6, 69, 70
5, 80853, Note_off_c, 6, 64, 70
5, 80928, Note_on_c, 6, 63, 70
5, 80928, Note_on_c, 6, 68, 70
5, 81067, Note_off_c, 6, 68, 70
5, 81067, Note_off_c, 6, 63, 70
5, 81087, Control_c, 6, 10, 0
5, 81115, Note_on_c, 6, 66, 126
5, 81115, Note_on_c, 6, 78, 126
5, 81155, Note_off_c, 6, 66, 126
5, 81157, Note_off_c, 6, 78, 126
5, 81210, Note_on_c, 6, 66, 126
5, 81210, Note_on_c, 6, 78, 126
5, 81250, Note_off_c, 6, 78, 126
5, 81253, Note_off_c, 6, 66, 126
5, 81284, Control_c, 6, 10, 64
5, 81408, Note_on_c, 6, 61, 70
5, 81408, Note_on_c, 6, 66, 70
5, 81648, Note_off_c, 6, 66, 70
5, 81648, Note_off_c, 6, 61, 70
5, 81696, Note_on_c, 6, 63, 70
5, 81696, Note_on_c, 6, 68, 70
5, 82080, Note_off_c, 6, 68, 70
5, 82080, Note_off_c, 6, 63, 70
5, 82176, Note_on_c, 6, 64, 70
5, 82176, Note_on_c, 6, 69, 70
5, 82414, Note_off_c, 6, 69, 70
5, 82416, Note_off_c, 6, 64, 70
5, 82464, Note_on_c, 6, 63, 70
5, 82464, Note_on_c, 6, 68, 70
5, 82600, Note_off_c, 6, 68, 70
5, 82602, Note_off_c, 6, 63, 70
5, 82623, Control_c, 6, 10, 0
5, 82649, Note_on_c, 6, 66, 126
5, 82650, Note_on_c, 6, 78, 126
5, 82692, Note_off_c, 6, 66, 126
5, 82693, Note_off_c, 6, 78, 126
5, 82747, Note_on_c, 6, 66, 126
5, 82747, Note_on_c, 6, 78, 126
5, 82787, Note_off_c, 6, 66, 126
5, 82788, Note_off_c, 6, 78, 126
5, 82824, Control_c, 6, 10, 64
5, 82944, Note_on_c, 6, 61, 70
5, 82944, Note_on_c, 6, 66, 70
5, 83182, Note_off_c, 6, 61, 70
5, 83184, Note_off_c, 6, 66, 70
5, 83232, Note_on_c, 6, 63, 70
5, 83232, Note_on_c, 6, 68, 70
5, 83525, Note_off_c, 6, 68, 70
5, 83530, Note_off_c, 6, 63, 70
5, 83712, Note_on_c, 6, 64, 70
5, 83712, Note_on_c, 6, 69, 70
5, 83925, Note_off_c, 6, 69, 70
5, 83925, Note_off_c, 6, 64, 70
5, 84000, Note_on_c, 6, 63, 70
5, 84000, Note_on_c, 6, 68, 70
5, 84279, Note_off_c, 6, 63, 70
5, 84281, Note_off_c, 6, 68, 70
5, 84480, Note_on_c, 6, 74, 67
5, 84480, Note_on_c, 6, 78, 72
5, 86016, Note_off_c, 6, 78, 72
5, 86016, Note_off_c, 6, 74, 67
5, 86304, Control_c, 6, 10, 0
5, 86398, Note_on_c, 6, 85, 126
5, 86446, Note_off_c, 6, 85, 126
5, 86447, Note_on_c, 6, 81, 126
5, 86495, Note_off_c, 6, 81, 126
5, 86497, Note_on_c, 6, 78, 126
5, 86545, Note_off_c, 6, 78, 126
5, 86545, Note_on_c, 6, 74, 126
5, 86593, Note_off_c, 6, 74, 126
5, 86593, Note_on_c, 6, 73, 97
5, 87072, Note_off_c, 6, 73, 97
5, 87092, Control_c, 6, 10, 127
5, 87153, Note_on_c, 6, 64, 113
5, 87235, Note_off_c, 6, 64, 113
5, 87236, Note_on_c, 6, 66, 113
5, 87296, Note_off_c, 6, 66, 113
5, 87412, Control_c, 6, 10, 64
5, 87552, Note_on_c, 6, 61, 70
5, 87552, Note_on_c, 6, 66, 70
5, 87792, Note_off_c, 6, 66, 70
5, 87792, Note_off_c, 6, 61, 70
5, 87840, Note_on_c, 6, 63, 70
5, 87840, Note_on_c, 6, 68, 70
5, 88224, Note_off_c, 6, 68, 70
5, 88224, Note_off_c, 6, 63, 70
5, 88320, Note_on_c, 6, 64, 70
5, 88320, Note_on_c, 6, 69, 70
5, 88558, Note_off_c, 6, 69, 70
5, 88560, Note_off_c, 6, 64, 70
5, 88608, Note_on_c, 6, 63, 70
5, 88608, Note_on_c, 6, 68, 70
5, 88948, Note_off_c, 6, 63, 70
5, 88949, Note_off_c, 6, 68, 70
5, 89088, Note_on_c, 6, 61, 70
5, 89088, Note_on_c, 6, 66, 70
5, 89326, Note_off_c, 6, 61, 70
5, 89328, Note_off_c, 6, 66, 70
5, 89376, Note_on_c, 6, 63, 70
5, 89376, Note_on_c, 6, 68, 70
5, 89669, Note_off_c, 6, 68, 70
5, 89674, Note_off_c, 6, 63, 70
5, 89856, Note_on_c, 6, 64, 70
5, 89856, Note_on_c, 6, 69, 70
5, 90069, Note_off_c, 6, 69, 70
5, 90069, Note_off_c, 6, 64, 70
5, 90144, Note_on_c, 6, 63, 70
5, 90144, Note_on_c, 6, 68, 70
5, 90423, Note_off_c, 6, 63, 70
5, 90425, Note_off_c, 6, 68, 70
5, 90624, Note_on_c, 6, 74, 71
5, 90624, Note_on_c, 6, 78, 72
5, 92160, Note_off_c, 6, 78, 72
5, 92160, Note_off_c, 6, 74, 71
5, 92448, Control_c, 6, 10, 0
5, 92542, Note_on_c, 6, 85, 126
5, 92590, Note_off_c, 6, 85, 126
5, 92591, Note_on_c, 6, 81, 126
5, 92639, Note_off_c, 6, 81, 126
5, 92641, Note_on_c, 6, 78, 126
5, 92689, Note_off_c, 6, 78, 126
5, 92689, Note_on_c, 6, 74, 126
5, 92737, Note_off_c, 6, 74, 126
5, 92737, Note_on_c, 6, 73, 97
5, 93216, Note_off_c, 6, 73, 97
5, 93236, Control_c, 6, 10, 127
5, 93297, Note_on_c, 6, 64, 113
5, 93379, Note_off_c, 6, 64, 113
5, 93380, Note_on_c, 6, 66, 113
5, 93440, Note_off_c, 6, 66, 113
5, 93556, Control_c, 6, 10, 64
5, 93696, Note_on_c, 6, 74, 71
5, 93696, Note_on_c, 6, 78, 72
5, 95232, Note_off_c, 6, 78, 72
5, 95232, Note_off_c, 6, 74, 71
5, 95520, Control_c, 6, 10, 0
5, 95614, Note_on_c, 6, 85, 126
5, 95662, Note_off_c, 6, 85, 126
5, 95663, Note_on_c, 6, 81, 126
5, 95711, Note_off_c, 6, 81, 126
5, 95713, Note_on_c, 6, 78, 126
5, 95761, Note_off_c, 6, 78, 126
5, 95761, Note_on_c, 6, 74, 126
5, 95809, Note_off_c, 6, 74, 126
5, 95809, Note_on_c, 6, 73, 97
5, 96288, Note_off_c, 6, 73, 97
5, 96308, Control_c, 6, 10, 127
5, 96369, Note_on_c, 6, 64, 113
5, 96451, Note_off_c, 6, 64, 113
5, 96452, Note_on_c, 6, 66, 113
5, 96512, Note_off_c, 6, 66, 113
5, 96628, Control_c, 6, 10, 64
5, 96768, Note_on_c, 6, 61, 70
5, 96768, Note_on_c, 6, 66, 70
5, 97008, Note_off_c, 6, 66, 70
5, 97008, Note_off_c, 6, 61, 70
5, 97056, Note_on_c, 6, 63, 70
5, 97056, Note_on_c, 6, 68, 70
5, 97440, Note_off_c, 6, 68, 70
5, 97440, Note_off_c, 6, 63, 70
5, 97536, Note_on_c, 6, 64, 70
5, 97536, Note_on_c, 6, 69, 70
5, 97774, Note_off_c, 6, 69, 70
5, 97776, Note_off_c, 6, 64, 70
5, 97824, Note_on_c, 6, 63, 70
5, 97824, Note_on_c, 6, 68, 70
5, 98164, Note_off_c, 6, 63, 70
5, 98165, Note_off_c, 6, 68, 70
5, 98304, Note_on_c, 6, 61, 70
5, 98304, Note_on_c, 6, 66, 70
5, 98542, Note_off_c, 6, 61, 70
5, 98544, Note_off_c, 6, 66, 70
5, 98592, Note_on_c, 6, 63, 70
5, 98592, Note_on_c, 6, 68, 70
5, 98885, Note_off_c, 6, 68, 70
5, 98890, Note_off_c, 6, 63, 70
5, 99072, Note_on_c, 6, 64, 70
5, 99072, Note_on_c, 6, 69, 70
5, 99285, Note_off_c, 6, 69, 70
5, 99285, Note_off_c, 6, 64, 70
5, 99360, Note_on_c, 6, 63, 70
5, 99360, Note_on_c, 6, 68, 70
5, 99499, Note_off_c, 6, 68, 70
5, 99499, Note_off_c, 6, 63, 70
5, 99519, Control_c, 6, 10, 0
5, 99547, Note_on_c, 6, 66, 126
5, 99547, Note_on_c, 6, 78, 126
5, 99587, Note_off_c, 6, 66, 126
5, 99589, Note_off_c, 6, 78, 126
5, 99642, Note_on_c, 6, 66, 126
5, 99642, Note_on_c, 6, 78, 126
5, 99682, Note_off_c, 6, 78, 126
5, 99685, Note_off_c, 6, 66, 126
5, 99716, Control_c, 6, 10, 64
5, 99840, Note_on_c, 6, 61, 70
5, 99840, Note_on_c, 6, 66, 70
5, 100080, Note_off_c, 6, 66, 70
5, 100080, Note_off_c, 6, 61, 70
5, 100128, Note_on_c, 6, 63, 70
5, 100128, Note_on_c, 6, 68, 70
5, 100512, Note_off_c, 6, 68, 70
5, 100512, Note_off_c, 6, 63, 70
5, 100608, Note_on_c, 6, 64, 70
5, 100608, Note_on_c, 6, 69, 70
5, 100846, Note_off_c, 6, 69, 70
5, 100848, Note_off_c, 6, 64, 70
5, 100896, Note_on_c, 6, 63, 70
5, 100896, Note_on_c, 6, 68, 70
5, 101236, Note_off_c, 6, 63, 70
5, 101237, Note_off_c, 6, 68, 70
5, 101376, Note_on_c, 6, 61, 70
5, 101376, Note_on_c, 6, 66, 70
5, 101614, Note_off_c, 6, 61, 70
5, 101616, Note_off_c, 6, 66, 70
5, 101664, Note_on_c, 6, 63, 70
5, 101664, Note_on_c, 6, 68, 70
5, 101957, Note_off_c, 6, 68, 70
5, 101962, Note_off_c, 6, 63, 70
5, 102144, Note_on_c, 6, 64, 70
5, 102144, Note_on_c, 6, 69, 70
5, 102357, Note_off_c, 6, 69, 70
5, 102357, Note_off_c, 6, 64, 70
5, 102432, Note_on_c, 6, 63, 70
5, 102432, Note_on_c, 6, 68, 70
5, 102571, Note_off_c, 6, 68, 70
5, 102571, Note_off_c, 6, 63, 70
5, 102591, Control_c, 6, 10, 0
5, 102619, Note_on_c, 6, 66, 126
5, 102619, Note_on_c, 6, 78, 126
5, 102659, Note_off_c, 6, 66, 126
5, 102661, Note_off_c, 6, 78, 126
5, 102714, Note_on_c, 6, 66, 126
5, 102714, Note_on_c, 6, 78, 126
5, 102754, Note_off_c, 6, 78, 126
5, 102757, Note_off_c, 6, 66, 126
5, 102788, Control_c, 6, 10, 64
5, 102912, Note_on_c, 6, 61, 57
5, 102912, Note_on_c, 6, 66, 57
5, 102920, Control_c, 6, 11, 127
5, 102968, Control_c, 6, 11, 126
5, 103008, Control_c, 6, 11, 125
5, 103048, Control_c, 6, 11, 124
5, 103096, Control_c, 6, 11, 123
5, 103136, Control_c, 6, 11, 122
5, 103152, Note_off_c, 6, 66, 57
5, 103152, Note_off_c, 6, 61, 57
5, 103176, Control_c, 6, 11, 121
5, 103200, Note_on_c, 6, 63, 57
5, 103200, Note_on_c, 6, 68, 57
5, 103216, Control_c, 6, 11, 120
5, 103264, Control_c, 6, 11, 119
5, 103304, Control_c, 6, 11, 118
5, 103344, Control_c, 6, 11, 117
5, 103384, Control_c, 6, 11, 116
5, 103432, Control_c, 6, 11, 115
5, 103472, Control_c, 6, 11, 114
5, 103512, Control_c, 6, 11, 113
5, 103552, Control_c, 6, 11, 112
5, 103584, Note_off_c, 6, 68, 57
5, 103584, Note_off_c, 6, 63, 57
5, 103600, Control_c, 6, 11, 111
5, 103640, Control_c, 6, 11, 110
5, 103680, Control_c, 6, 11, 109
5, 103680, Note_on_c, 6, 64, 57
5, 103680, Note_on_c, 6, 69, 57
5, 103720, Control_c, 6, 11, 108
5, 103768, Control_c, 6, 11, 107
5, 103808, Control_c, 6, 11, 106
5, 103848, Control_c, 6, 11, 105
5, 103888, Control_c, 6, 11, 104
5, 103918, Note_off_c, 6, 69, 57
5, 103920, Note_off_c, 6, 64, 57
5, 103936, Control_c, 6, 11, 103
5, 103968, Note_on_c, 6, 63, 57
5, 103968, Note_on_c, 6, 68, 57
5, 103976, Control_c, 6, 11, 102
5, 104016, Control_c, 6, 11, 101
5, 104056, Control_c, 6, 11, 100
5, 104104, Control_c, 6, 11, 99
5, 104144, Control_c, 6, 11, 98
5, 104184, Control_c, 6, 11, 97
5, 104224, Control_c, 6, 11, 96
5, 104272, Control_c, 6, 11, 95
5, 104308, Note_off_c, 6, 63, 57
5, 104309, Note_off_c, 6, 68, 57
5, 104312, Control_c, 6, 11, 94
5, 104352, Control_c, 6, 11, 93
5, 104392, Control_c, 6, 11, 92
5, 104440, Control_c, 6, 11, 91
5, 104448, Note_on_c, 6, 61, 57
5, 104448, Note_on_c, 6, 66, 57
5, 104480, Control_c, 6, 11, 90
5, 104520, Control_c, 6, 11, 89
5, 104560, Control_c, 6, 11, 88
5, 104608, Control_c, 6, 11, 87
5, 104648, Control_c, 6, 11, 86
5, 104686, Note_off_c, 6, 61, 57
5, 104688, Note_off_c, 6, 66, 57
5, 104688, Control_c, 6, 11, 85
5, 104728, Control_c, 6, 11, 84
5, 104736, Note_on_c, 6, 63, 57
5, 104736, Note_on_c, 6, 68, 57
5, 104776, Control_c, 6, 11, 83
5, 104816, Control_c, 6, 11, 82
5, 104856, Control_c, 6, 11, 81
5, 104896, Control_c, 6, 11, 80
5, 104944, Control_c, 6, 11, 79
5, 104984, Control_c, 6, 11, 78
5, 105024, Control_c, 6, 11, 77
5, 105029, Note_off_c, 6, 68, 57
5, 105034, Note_off_c, 6, 63, 57
5, 105064, Control_c, 6, 11, 76
5, 105112, Control_c, 6, 11, 75
5, 105152, Control_c, 6, 11, 74
5, 105192, Control_c, 6, 11, 73
5, 105216, Note_on_c, 6, 64, 57
5, 105216, Note_on_c, 6, 69, 57
5, 105232, Control_c, 6, 11, 72
5, 105280, Control_c, 6, 11, 71
5, 105320, Control_c, 6, 11, 70
5, 105360, Control_c, 6, 11, 69
5, 105400, Control_c, 6, 11, 68
5, 105429, Note_off_c, 6, 69, 57
5, 105429, Note_off_c, 6, 64, 57
5, 105448, Control_c, 6, 11, 67
5, 105488, Control_c, 6, 11, 66
5, 105504, Note_on_c, 6, 63, 57
5, 105504, Note_on_c, 6, 68, 57
5, 105528, Control_c, 6, 11, 65
5, 105568, Control_c, 6, 11, 64
5, 105616, Control_c, 6, 11, 63
5, 105643, Note_off_c, 6, 68, 57
5, 105643, Note_off_c, 6, 63, 57
5, 105656, Control_c, 6, 11, 62
5, 105663, Control_c, 6, 10, 0
5, 105691, Note_on_c, 6, 66, 126
5, 105691, Note_on_c, 6, 78, 126
5, 105696, Control_c, 6, 11, 61
5, 105731, Note_off_c, 6, 66, 126
5, 105733, Note_off_c, 6, 78, 126
5, 105736, Control_c, 6, 11, 60
5, 105784, Control_c, 6, 11, 59
5, 105786, Note_on_c, 6, 66, 126
5, 105786, Note_on_c, 6, 78, 126
5, 105824, Control_c, 6, 11, 58
5, 105826, Note_off_c, 6, 78, 126
5, 105829, Note_off_c, 6, 66, 126
5, 105860, Control_c, 6, 10, 64
5, 105864, Control_c, 6, 11, 57
5, 105904, Control_c, 6, 11, 56
5, 105952, Control_c, 6, 11, 55
5, 105984, Note_on_c, 6, 61, 57
5, 105984, Note_on_c, 6, 66, 57
5, 105992, Control_c, 6, 11, 54
5, 106032, Control_c, 6, 11, 53
5, 106072, Control_c, 6, 11, 52
5, 106120, Control_c, 6, 11, 51
5, 106160, Control_c, 6, 11, 50
5, 106200, Control_c, 6, 11, 49
5, 106224, Note_off_c, 6, 66, 57
5, 106224, Note_off_c, 6, 61, 57
5, 106240, Control_c, 6, 11, 48
5, 106272, Note_on_c, 6, 63, 57
5, 106272, Note_on_c, 6, 68, 57
5, 106288, Control_c, 6, 11, 47
5, 106328, Control_c, 6, 11, 46
5, 106368, Control_c, 6, 11, 45
5, 106408, Control_c, 6, 11, 44
5, 106456, Control_c, 6, 11, 43
5, 106496, Control_c, 6, 11, 42
5, 106536, Control_c, 6, 11, 41
5, 106576, Control_c, 6, 11, 40
5, 106624, Control_c, 6, 11, 39
5, 106656, Note_off_c, 6, 68, 57
5, 106656, Note_off_c, 6, 63, 57
5, 106664, Control_c, 6, 11, 38
5, 106704, Control_c, 6, 11, 37
5, 106744, Control_c, 6, 11, 36
5, 106752, Note_on_c, 6, 64, 57
5, 106752, Note_on_c, 6, 69, 57
5, 106792, Control_c, 6, 11, 35
5, 106832, Control_c, 6, 11, 34
5, 106872, Control_c, 6, 11, 33
5, 106912, Control_c, 6, 11, 32
5, 106960, Control_c, 6, 11, 31
5, 106990, Note_off_c, 6, 69, 57
5, 106992, Note_off_c, 6, 64, 57
5, 107000, Control_c, 6, 11, 30
5, 107040, Control_c, 6, 11, 29
5, 107040, Note_on_c, 6, 63, 57
5, 107040, Note_on_c, 6, 68, 57
5, 107080, Control_c, 6, 11, 28
5, 107128, Control_c, 6, 11, 27
5, 107168, Control_c, 6, 11, 26
5, 107208, Control_c, 6, 11, 25
5, 107248, Control_c, 6, 11, 24
5, 107296, Control_c, 6, 11, 23
5, 107336, Control_c, 6, 11, 22
5, 107376, Control_c, 6, 11, 21
5, 107380, Note_off_c, 6, 63, 57
5, 107381, Note_off_c, 6, 68, 57
5, 107416, Control_c, 6, 11, 20
5, 107464, Control_c, 6, 11, 19
5, 107504, Control_c, 6, 11, 18
5, 107520, Note_on_c, 6, 61, 57
5, 107520, Note_on_c, 6, 66, 57
5, 107544, Control_c, 6, 11, 17
5, 107584, Control_c, 6, 11, 16
5, 107632, Control_c, 6, 11, 15
5, 107672, Control_c, 6, 11, 14
5, 107712, Control_c, 6, 11, 13
5, 107752, Control_c, 6, 11, 12
5, 107758, Note_off_c, 6, 61, 57
5, 107760, Note_off_c, 6, 66, 57
5, 107800, Control_c, 6, 11, 11
5, 107808, Note_on_c, 6, 63, 37
5, 107808, Note_on_c, 6, 68, 37
5, 107840, Control_c, 6, 11, 10
5, 107880, Control_c, 6, 11, 9
5, 107904, Note_off_c, 6, 68, 37
5, 107904, Note_off_c, 6, 63, 37
5, 107920, Control_c, 6, 11, 8
5, 107968, Control_c, 6, 11, 7
5, 108008, Control_c, 6, 11, 6
5, 108048, Control_c, 6, 11, 5
5, 108088, Control_c, 6, 11, 4
5, 108136, Control_c, 6, 11, 3
5, 108176, Control_c, 6, 11, 2
5, 108216, Control_c, 6, 11, 0
5, 108292, Control_c, 6, 120, 0
5, 108344, Control_c, 6, 123, 0
5, 108344, End_track
6, 0, Start_track
6, 0, Text_t, "Clav/Brass"
6, 192, Control_c, 10, 121, 0
6, 237, Control_c, 10, 0, 0
6, 240, Control_c, 10, 32, 0
6, 288, Program_c, 10, 7
6, 336, Control_c, 10, 10, 64
6, 385, Control_c, 10, 91, 70
6, 432, Control_c, 10, 93, 30
6, 482, Control_c, 10, 7, 53
6, 518, Control_c, 10, 11, 127
6, 2304, Note_on_c, 10, 30, 117
6, 2400, Note_off_c, 10, 30, 117
6, 2592, Note_on_c, 10, 30, 117
6, 2688, Note_off_c, 10, 30, 117
6, 3072, Note_on_c, 10, 30, 117
6, 3168, Note_off_c, 10, 30, 117
6, 3360, Note_on_c, 10, 30, 117
6, 3456, Note_off_c, 10, 30, 117
6, 3840, Note_on_c, 10, 30, 117
6, 3936, Note_off_c, 10, 30, 117
6, 4128, Note_on_c, 10, 30, 117
6, 4224, Note_off_c, 10, 30, 117
6, 4608, Note_on_c, 10, 30, 117
6, 4704, Note_off_c, 10, 30, 117
6, 4896, Note_on_c, 10, 30, 117
6, 4992, Note_off_c, 10, 30, 117
6, 5376, Note_on_c, 10, 30, 117
6, 5472, Note_off_c, 10, 30, 117
6, 5664, Note_on_c, 10, 30, 117
6, 5760, Note_off_c, 10, 30, 117
6, 6144, Note_on_c, 10, 30, 117
6, 6240, Note_off_c, 10, 30, 117
6, 6432, Note_on_c, 10, 30, 117
6, 6528, Note_off_c, 10, 30, 117
6, 6912, Note_on_c, 10, 30, 117
6, 7008, Note_off_c, 10, 30, 117
6, 7200, Note_on_c, 10, 30, 117
6, 7296, Note_off_c, 10, 30, 117
6, 7680, Note_on_c, 10, 30, 117
6, 7776, Note_off_c, 10, 30, 117
6, 7968, Note_on_c, 10, 30, 117
6, 8064, Note_off_c, 10, 30, 117
6, 8448, Note_on_c, 10, 30, 117
6, 8544, Note_off_c, 10, 30, 117
6, 8736, Note_on_c, 10, 30, 117
6, 8832, Note_off_c, 10, 30, 117
6, 9216, Note_on_c, 10, 30, 117
6, 9312, Note_off_c, 10, 30, 117
6, 9504, Note_on_c, 10, 30, 117
6, 9600, Note_off_c, 10, 30, 117
6, 9984, Note_on_c, 10, 30, 117
6, 10080, Note_off_c, 10, 30, 117
6, 10272, Note_on_c, 10, 30, 117
6, 10368, Note_off_c, 10, 30, 117
6, 26160, Program_c, 10, 63
6, 26256, Control_c, 10, 10, 127
6, 26352, Control_c, 10, 7, 58
6, 27164, Note_on_c, 10, 66, 127
6, 27191, Note_off_c, 10, 66, 127
6, 27262, Note_on_c, 10, 69, 127
6, 27349, Note_off_c, 10, 69, 127
6, 27367, Note_on_c, 10, 66, 99
6, 27394, Note_off_c, 10, 66, 99
6, 27457, Note_on_c, 10, 76, 127
6, 27527, Note_off_c, 10, 76, 127
6, 27555, Note_on_c, 10, 73, 127
6, 27624, Note_off_c, 10, 73, 127
6, 30236, Note_on_c, 10, 66, 127
6, 30263, Note_off_c, 10, 66, 127
6, 30334, Note_on_c, 10, 69, 127
6, 30421, Note_off_c, 10, 69, 127
6, 30439, Note_on_c, 10, 66, 99
6, 30466, Note_off_c, 10, 66, 99
6, 30529, Note_on_c, 10, 76, 127
6, 30599, Note_off_c, 10, 76, 127
6, 30627, Note_on_c, 10, 73, 127
6, 30700, Note_off_c, 10, 73, 127
6, 30768, Control_c, 10, 10, 64
6, 40752, Program_c, 10, 88
6, 40800, Control_c, 10, 7, 61
6, 41472, Note_on_c, 10, 61, 127
6, 41856, Note_off_c, 10, 61, 127
6, 42618, Note_on_c, 10, 63, 127
6, 42810, Note_off_c, 10, 63, 127
6, 42821, Note_on_c, 10, 59, 127
6, 43013, Note_off_c, 10, 59, 127
6, 43018, Note_on_c, 10, 61, 127
6, 43392, Note_off_c, 10, 61, 127
6, 44161, Note_on_c, 10, 59, 127
6, 44353, Note_off_c, 10, 59, 127
6, 44357, Note_on_c, 10, 57, 127
6, 44548, Note_on_c, 10, 54, 127
6, 44549, Note_off_c, 10, 57, 127
6, 44928, Note_off_c, 10, 54, 127
6, 50691, Note_on_c, 10, 61, 127
6, 51072, Note_off_c, 10, 61, 127
6, 51826, Note_on_c, 10, 63, 127
6, 52010, Note_off_c, 10, 63, 127
6, 52025, Note_on_c, 10, 59, 127
6, 52209, Note_off_c, 10, 59, 127
6, 52217, Note_on_c, 10, 61, 127
6, 52621, Note_off_c, 10, 61, 127
6, 53371, Note_on_c, 10, 59, 127
6, 53551, Note_off_c, 10, 59, 127
6, 53561, Note_on_c, 10, 57, 119
6, 53749, Note_off_c, 10, 57, 119
6, 53760, Note_on_c, 10, 54, 127
6, 54156, Note_off_c, 10, 54, 127
6, 56736, Control_c, 10, 7, 45
6, 68400, Program_c, 10, 62
6, 68448, Control_c, 10, 10, 127
6, 68495, Control_c, 10, 7, 60
6, 69592, Note_on_c, 10, 73, 127
6, 69622, Note_off_c, 10, 73, 127
6, 69694, Note_on_c, 10, 73, 127
6, 69731, Note_off_c, 10, 73, 127
6, 69795, Note_on_c, 10, 73, 127
6, 70320, Note_off_c, 10, 73, 127
6, 70366, Note_on_c, 10, 71, 127
6, 70411, Note_off_c, 10, 71, 127
6, 70421, Note_on_c, 10, 69, 127
6, 70453, Note_off_c, 10, 69, 127
6, 70470, Note_on_c, 10, 71, 127
6, 70509, Note_off_c, 10, 71, 127
6, 70525, Note_on_c, 10, 69, 127
6, 70551, Note_off_c, 10, 69, 127
6, 70554, Note_on_c, 10, 71, 127
6, 70557, Note_off_c, 10, 71, 127
6, 70563, Note_on_c, 10, 72, 127
6, 70573, Note_on_c, 10, 73, 127
6, 70580, Note_off_c, 10, 72, 127
6, 70677, Note_off_c, 10, 73, 127
6, 71135, Note_on_c, 10, 73, 127
6, 71163, Note_off_c, 10, 73, 127
6, 71233, Note_on_c, 10, 72, 86
6, 71241, Note_off_c, 10, 72, 86
6, 71241, Note_on_c, 10, 73, 127
6, 71269, Note_off_c, 10, 73, 127
6, 71340, Note_on_c, 10, 73, 127
6, 71809, Note_off_c, 10, 73, 127
6, 71894, Note_on_c, 10, 73, 127
6, 71935, Note_off_c, 10, 73, 127
6, 71947, Note_on_c, 10, 67, 43
6, 71964, Note_off_c, 10, 67, 43
6, 71971, Note_on_c, 10, 71, 42
6, 71981, Note_off_c, 10, 71, 42
6, 71996, Note_on_c, 10, 71, 127
6, 72039, Note_off_c, 10, 71, 127
6, 72051, Note_on_c, 10, 69, 127
6, 72104, Note_off_c, 10, 69, 127
6, 72108, Note_on_c, 10, 66, 127
6, 72147, Note_off_c, 10, 66, 127
6, 72163, Note_on_c, 10, 64, 127
6, 72181, Note_off_c, 10, 64, 127
6, 72182, Note_on_c, 10, 66, 127
6, 72194, Note_off_c, 10, 66, 127
6, 72205, Note_on_c, 10, 66, 127
6, 72392, Note_on_c, 10, 65, 38
6, 72400, Note_off_c, 10, 66, 127
6, 72405, Note_on_c, 10, 66, 50
6, 72414, Note_off_c, 10, 66, 50
6, 72414, Note_off_c, 10, 65, 38
6, 73818, Note_on_c, 10, 73, 127
6, 73864, Note_off_c, 10, 73, 127
6, 73917, Note_on_c, 10, 84, 127
6, 73945, Pitch_bend_c, 10, 10336
6, 73948, Pitch_bend_c, 10, 12096
6, 73959, Pitch_bend_c, 10, 12192
6, 73973, Pitch_bend_c, 10, 12288
6, 73999, Note_off_c, 10, 84, 127
6, 74000, Pitch_bend_c, 10, 8192
6, 74019, Note_on_c, 10, 73, 127
6, 74069, Note_off_c, 10, 73, 127
6, 74582, Note_on_c, 10, 73, 127
6, 74625, Note_off_c, 10, 73, 127
6, 74684, Note_on_c, 10, 84, 127
6, 74698, Pitch_bend_c, 10, 10336
6, 74712, Pitch_bend_c, 10, 12096
6, 74728, Pitch_bend_c, 10, 12192
6, 74746, Pitch_bend_c, 10, 12288
6, 74754, Pitch_bend_c, 10, 12192
6, 74765, Pitch_bend_c, 10, 8192
6, 74771, Note_off_c, 10, 84, 127
6, 74780, Note_on_c, 10, 73, 123
6, 74837, Note_off_c, 10, 73, 123
6, 76890, Note_on_c, 10, 73, 127
6, 76936, Note_off_c, 10, 73, 127
6, 76989, Note_on_c, 10, 84, 127
6, 77017, Pitch_bend_c, 10, 10336
6, 77020, Pitch_bend_c, 10, 12096
6, 77031, Pitch_bend_c, 10, 12192
6, 77045, Pitch_bend_c, 10, 12288
6, 77066, Pitch_bend_c, 10, 8192
6, 77071, Note_off_c, 10, 84, 127
6, 77091, Note_on_c, 10, 73, 127
6, 77141, Note_off_c, 10, 73, 127
6, 77654, Note_on_c, 10, 73, 127
6, 77697, Note_off_c, 10, 73, 127
6, 77756, Note_on_c, 10, 84, 127
6, 77770, Pitch_bend_c, 10, 10336
6, 77784, Pitch_bend_c, 10, 12096
6, 77800, Pitch_bend_c, 10, 12192
6, 77834, Pitch_bend_c, 10, 12288
6, 77841, Pitch_bend_c, 10, 8192
6, 77843, Note_off_c, 10, 84, 127
6, 77852, Note_on_c, 10, 73, 123
6, 77909, Note_off_c, 10, 73, 123
6, 78288, Control_c, 10, 10, 64
6, 90056, Control_c, 10, 0, 8
6, 90104, Program_c, 10, 28
6, 90156, Control_c, 10, 7, 70
6, 90200, Control_c, 10, 91, 100
6, 90256, Control_c, 10, 93, 60
6, 90296, Control_c, 10, 10, 39
6, 90721, Note_on_c, 10, 60, 127
6, 90735, Pitch_bend_c, 10, 11168
6, 90744, Pitch_bend_c, 10, 12096
6, 90749, Pitch_bend_c, 10, 12288
6, 90763, Note_off_c, 10, 60, 127
6, 90764, Pitch_bend_c, 10, 8192
6, 90776, Note_on_c, 10, 59, 127
6, 90815, Note_off_c, 10, 59, 127
6, 90868, Note_on_c, 10, 57, 127
6, 90869, Note_off_c, 10, 57, 127
6, 90919, Note_on_c, 10, 59, 127
6, 90947, Note_off_c, 10, 59, 127
6, 90970, Note_on_c, 10, 54, 88
6, 90971, Note_off_c, 10, 54, 88
6, 91017, Note_on_c, 10, 57, 127
6, 91132, Note_off_c, 10, 57, 127
6, 91153, Note_on_c, 10, 59, 127
6, 91185, Note_off_c, 10, 59, 127
6, 91484, Note_on_c, 10, 60, 127
6, 91495, Pitch_bend_c, 10, 8032
6, 91506, Pitch_bend_c, 10, 11872
6, 91511, Pitch_bend_c, 10, 12096
6, 91520, Pitch_bend_c, 10, 12416
6, 91524, Note_off_c, 10, 60, 127
6, 91525, Pitch_bend_c, 10, 8192
6, 91534, Note_on_c, 10, 59, 127
6, 91592, Note_off_c, 10, 59, 127
6, 91640, Note_on_c, 10, 57, 127
6, 91641, Note_off_c, 10, 57, 127
6, 91680, Note_on_c, 10, 59, 127
6, 91708, Note_off_c, 10, 59, 127
6, 91740, Note_on_c, 10, 54, 88
6, 91741, Note_off_c, 10, 54, 88
6, 91780, Note_on_c, 10, 57, 127
6, 91895, Note_off_c, 10, 57, 127
6, 91922, Note_on_c, 10, 54, 127
6, 91955, Note_off_c, 10, 54, 127
6, 93793, Note_on_c, 10, 60, 127
6, 93807, Pitch_bend_c, 10, 11168
6, 93816, Pitch_bend_c, 10, 12096
6, 93829, Pitch_bend_c, 10, 12416
6, 93835, Note_off_c, 10, 60, 127
6, 93837, Pitch_bend_c, 10, 8192
6, 93848, Note_on_c, 10, 59, 127
6, 93887, Note_off_c, 10, 59, 127
6, 93940, Note_on_c, 10, 57, 127
6, 93941, Note_off_c, 10, 57, 127
6, 93991, Note_on_c, 10, 59, 127
6, 94019, Note_off_c, 10, 59, 127
6, 94042, Note_on_c, 10, 54, 88
6, 94043, Note_off_c, 10, 54, 88
6, 94089, Note_on_c, 10, 57, 127
6, 94204, Note_off_c, 10, 57, 127
6, 94225, Note_on_c, 10, 59, 127
6, 94257, Note_off_c, 10, 59, 127
6, 94556, Note_on_c, 10, 60, 127
6, 94556, Pitch_bend_c, 10, 8192
6, 94563, Pitch_bend_c, 10, 8032
6, 94578, Pitch_bend_c, 10, 11872
6, 94583, Pitch_bend_c, 10, 12096
6, 94592, Pitch_bend_c, 10, 12416
6, 94596, Note_off_c, 10, 60, 127
6, 94598, Pitch_bend_c, 10, 8288
6, 94606, Note_on_c, 10, 59, 127
6, 94664, Note_off_c, 10, 59, 127
6, 94712, Note_on_c, 10, 57, 127
6, 94713, Note_off_c, 10, 57, 127
6, 94752, Note_on_c, 10, 59, 127
6, 94780, Note_off_c, 10, 59, 127
6, 94812, Note_on_c, 10, 54, 88
6, 94813, Note_off_c, 10, 54, 88
6, 94852, Note_on_c, 10, 57, 127
6, 94967, Note_off_c, 10, 57, 127
6, 94994, Note_on_c, 10, 54, 127
6, 95027, Note_off_c, 10, 54, 127
6, 95191, Control_c, 10, 120, 0
6, 95204, Control_c, 10, 123, 0
6, 95204, End_track
7, 0, Start_track
7, 0, Text_t, "Strings"
7, 192, Control_c, 2, 121, 0
7, 237, Control_c, 2, 0, 0
7, 240, Control_c, 2, 32, 0
7, 288, Program_c, 2, 50
7, 336, Control_c, 2, 10, 64
7, 385, Control_c, 2, 91, 110
7, 432, Control_c, 2, 93, 30
7, 482, Control_c, 2, 7, 91
7, 518, Control_c, 2, 11, 127
7, 594, Control_c, 2, 99, 1
7, 610, Control_c, 2, 98, 99
7, 628, Control_c, 2, 6, 56
7, 658, Control_c, 2, 99, 1
7, 676, Control_c, 2, 98, 32
7, 701, Control_c, 2, 6, 59
7, 7680, Note_on_c, 2, 57, 96
7, 7680, Note_on_c, 2, 61, 96
7, 7680, Note_on_c, 2, 66, 96
7, 7728, Note_off_c, 2, 66, 96
7, 7728, Note_off_c, 2, 61, 96
7, 7728, Note_off_c, 2, 57, 96
7, 7968, Note_on_c, 2, 59, 96
7, 7968, Note_on_c, 2, 63, 96
7, 7968, Note_on_c, 2, 68, 96
7, 8016, Note_off_c, 2, 68, 96
7, 8016, Note_off_c, 2, 63, 96
7, 8016, Note_off_c, 2, 59, 96
7, 8448, Note_on_c, 2, 61, 96
7, 8448, Note_on_c, 2, 64, 96
7, 8448, Note_on_c, 2, 69, 96
7, 8496, Note_off_c, 2, 69, 96
7, 8496, Note_off_c, 2, 64, 96
7, 8496, Note_off_c, 2, 61, 96
7, 8736, Note_on_c, 2, 59, 96
7, 8736, Note_on_c, 2, 63, 96
7, 8736, Note_on_c, 2, 68, 96
7, 8784, Note_off_c, 2, 68, 96
7, 8784, Note_off_c, 2, 63, 96
7, 8784, Note_off_c, 2, 59, 96
7, 9216, Note_on_c, 2, 57, 96
7, 9216, Note_on_c, 2, 61, 96
7, 9216, Note_on_c, 2, 66, 96
7, 9264, Note_off_c, 2, 66, 96
7, 9264, Note_off_c, 2, 61, 96
7, 9264, Note_off_c, 2, 57, 96
7, 9504, Note_on_c, 2, 59, 96
7, 9504, Note_on_c, 2, 63, 96
7, 9504, Note_on_c, 2, 68, 96
7, 9552, Note_off_c, 2, 68, 96
7, 9552, Note_off_c, 2, 63, 96
7, 9552, Note_off_c, 2, 59, 96
7, 9984, Note_on_c, 2, 61, 96
7, 9984, Note_on_c, 2, 64, 96
7, 9984, Note_on_c, 2, 69, 96
7, 10032, Note_off_c, 2, 69, 96
7, 10032, Note_off_c, 2, 64, 96
7, 10032, Note_off_c, 2, 61, 96
7, 10272, Note_on_c, 2, 59, 96
7, 10272, Note_on_c, 2, 63, 96
7, 10272, Note_on_c, 2, 68, 96
7, 10320, Note_off_c, 2, 68, 96
7, 10320, Note_off_c, 2, 63, 96
7, 10320, Note_off_c, 2, 59, 96
7, 10752, Note_on_c, 2, 57, 96
7, 10752, Note_on_c, 2, 61, 96
7, 10752, Note_on_c, 2, 66, 96
7, 10800, Note_off_c, 2, 66, 96
7, 10800, Note_off_c, 2, 61, 96
7, 10800, Note_off_c, 2, 57, 96
7, 11040, Note_on_c, 2, 59, 96
7, 11040, Note_on_c, 2, 63, 96
7, 11040, Note_on_c, 2, 68, 96
7, 11088, Note_off_c, 2, 68, 96
7, 11088, Note_off_c, 2, 63, 96
7, 11088, Note_off_c, 2, 59, 96
7, 11520, Note_on_c, 2, 61, 96
7, 11520, Note_on_c, 2, 64, 96
7, 11520, Note_on_c, 2, 69, 96
7, 11568, Note_off_c, 2, 69, 96
7, 11568, Note_off_c, 2, 64, 96
7, 11568, Note_off_c, 2, 61, 96
7, 11808, Note_on_c, 2, 59, 96
7, 11808, Note_on_c, 2, 63, 96
7, 11808, Note_on_c, 2, 68, 96
7, 11856, Note_off_c, 2, 68, 96
7, 11856, Note_off_c, 2, 63, 96
7, 11856, Note_off_c, 2, 59, 96
7, 12288, Note_on_c, 2, 57, 96
7, 12288, Note_on_c, 2, 61, 96
7, 12288, Note_on_c, 2, 66, 96
7, 12336, Note_off_c, 2, 66, 96
7, 12336, Note_off_c, 2, 61, 96
7, 12336, Note_off_c, 2, 57, 96
7, 12576, Note_on_c, 2, 59, 96
7, 12576, Note_on_c, 2, 63, 96
7, 12576, Note_on_c, 2, 68, 96
7, 12624, Note_off_c, 2, 68, 96
7, 12624, Note_off_c, 2, 63, 96
7, 12624, Note_off_c, 2, 59, 96
7, 13056, Note_on_c, 2, 61, 96
7, 13056, Note_on_c, 2, 64, 96
7, 13056, Note_on_c, 2, 69, 96
7, 13104, Note_off_c, 2, 69, 96
7, 13104, Note_off_c, 2, 64, 96
7, 13104, Note_off_c, 2, 61, 96
7, 13344, Note_on_c, 2, 59, 96
7, 13344, Note_on_c, 2, 63, 96
7, 13344, Note_on_c, 2, 68, 96
7, 13392, Note_off_c, 2, 68, 96
7, 13392, Note_off_c, 2, 63, 96
7, 13392, Note_off_c, 2, 59, 96
7, 13824, Note_on_c, 2, 57, 96
7, 13824, Note_on_c, 2, 62, 96
7, 13824, Note_on_c, 2, 66, 96
7, 13872, Note_off_c, 2, 66, 96
7, 13872, Note_off_c, 2, 62, 96
7, 13872, Note_off_c, 2, 57, 96
7, 14112, Note_on_c, 2, 57, 96
7, 14112, Note_on_c, 2, 62, 96
7, 14112, Note_on_c, 2, 66, 96
7, 14160, Note_off_c, 2, 66, 96
7, 14160, Note_off_c, 2, 62, 96
7, 14160, Note_off_c, 2, 57, 96
7, 14592, Note_on_c, 2, 57, 96
7, 14592, Note_on_c, 2, 62, 96
7, 14592, Note_on_c, 2, 66, 96
7, 14640, Note_off_c, 2, 66, 96
7, 14640, Note_off_c, 2, 62, 96
7, 14640, Note_off_c, 2, 57, 96
7, 14880, Note_on_c, 2, 57, 96
7, 14880, Note_on_c, 2, 62, 96
7, 14880, Note_on_c, 2, 66, 96
7, 14928, Note_off_c, 2, 66, 96
7, 14928, Note_off_c, 2, 62, 96
7, 14928, Note_off_c, 2, 57, 96
7, 15360, Note_on_c, 2, 57, 96
7, 15360, Note_on_c, 2, 61, 96
7, 15360, Note_on_c, 2, 66, 96
7, 15408, Note_off_c, 2, 66, 96
7, 15408, Note_off_c, 2, 61, 96
7, 15408, Note_off_c, 2, 57, 96
7, 15648, Note_on_c, 2, 59, 96
7, 15648, Note_on_c, 2, 63, 96
7, 15648, Note_on_c, 2, 68, 96
7, 15696, Note_off_c, 2, 68, 96
7, 15696, Note_off_c, 2, 63, 96
7, 15696, Note_off_c, 2, 59, 96
7, 16128, Note_on_c, 2, 61, 96
7, 16128, Note_on_c, 2, 64, 96
7, 16128, Note_on_c, 2, 69, 96
7, 16176, Note_off_c, 2, 69, 96
7, 16176, Note_off_c, 2, 64, 96
7, 16176, Note_off_c, 2, 61, 96
7, 16416, Note_on_c, 2, 59, 96
7, 16416, Note_on_c, 2, 63, 96
7, 16416, Note_on_c, 2, 68, 96
7, 16464, Note_off_c, 2, 68, 96
7, 16464, Note_off_c, 2, 63, 96
7, 16464, Note_off_c, 2, 59, 96
7, 16896, Note_on_c, 2, 57, 96
7, 16896, Note_on_c, 2, 62, 96
7, 16896, Note_on_c, 2, 66, 96
7, 16944, Note_off_c, 2, 66, 96
7, 16944, Note_off_c, 2, 62, 96
7, 16944, Note_off_c, 2, 57, 96
7, 17184, Note_on_c, 2, 57, 96
7, 17184, Note_on_c, 2, 62, 96
7, 17184, Note_on_c, 2, 66, 96
7, 17232, Note_off_c, 2, 66, 96
7, 17232, Note_off_c, 2, 62, 96
7, 17232, Note_off_c, 2, 57, 96
7, 17664, Note_on_c, 2, 57, 96
7, 17664, Note_on_c, 2, 62, 96
7, 17664, Note_on_c, 2, 66, 96
7, 17712, Note_off_c, 2, 66, 96
7, 17712, Note_off_c, 2, 62, 96
7, 17712, Note_off_c, 2, 57, 96
7, 17856, Control_c, 2, 11, 127
7, 17904, Control_c, 2, 11, 81
7, 17952, Control_c, 2, 11, 86
7, 17952, Note_on_c, 2, 57, 100
7, 17952, Note_on_c, 2, 62, 100
7, 17952, Note_on_c, 2, 66, 100
7, 18000, Control_c, 2, 11, 92
7, 18048, Control_c, 2, 11, 97
7, 18096, Control_c, 2, 11, 103
7, 18144, Control_c, 2, 11, 108
7, 18192, Control_c, 2, 11, 114
7, 18240, Control_c, 2, 11, 119
7, 18288, Control_c, 2, 11, 127
7, 18384, Note_off_c, 2, 66, 100
7, 18384, Note_off_c, 2, 62, 100
7, 18384, Note_off_c, 2, 57, 100
7, 18432, Note_on_c, 2, 57, 96
7, 18432, Note_on_c, 2, 61, 96
7, 18432, Note_on_c, 2, 66, 96
7, 18480, Note_off_c, 2, 66, 96
7, 18480, Note_off_c, 2, 61, 96
7, 18480, Note_off_c, 2, 57, 96
7, 18720, Note_on_c, 2, 59, 96
7, 18720, Note_on_c, 2, 63, 96
7, 18720, Note_on_c, 2, 68, 96
7, 18768, Note_off_c, 2, 68, 96
7, 18768, Note_off_c, 2, 63, 96
7, 18768, Note_off_c, 2, 59, 96
7, 19200, Note_on_c, 2, 61, 96
7, 19200, Note_on_c, 2, 64, 96
7, 19200, Note_on_c, 2, 69, 96
7, 19248, Note_off_c, 2, 69, 96
7, 19248, Note_off_c, 2, 64, 96
7, 19248, Note_off_c, 2, 61, 96
7, 19488, Note_on_c, 2, 59, 96
7, 19488, Note_on_c, 2, 63, 96
7, 19488, Note_on_c, 2, 68, 96
7, 19536, Note_off_c, 2, 68, 96
7, 19536, Note_off_c, 2, 63, 96
7, 19536, Note_off_c, 2, 59, 96
7, 19968, Note_on_c, 2, 57, 96
7, 19968, Note_on_c, 2, 61, 96
7, 19968, Note_on_c, 2, 66, 96
7, 20016, Note_off_c, 2, 66, 96
7, 20016, Note_off_c, 2, 61, 96
7, 20016, Note_off_c, 2, 57, 96
7, 20256, Note_on_c, 2, 59, 96
7, 20256, Note_on_c, 2, 63, 96
7, 20256, Note_on_c, 2, 68, 96
7, 20304, Note_off_c, 2, 68, 96
7, 20304, Note_off_c, 2, 63, 96
7, 20304, Note_off_c, 2, 59, 96
7, 20736, Note_on_c, 2, 61, 96
7, 20736, Note_on_c, 2, 64, 96
7, 20736, Note_on_c, 2, 69, 96
7, 20784, Note_off_c, 2, 69, 96
7, 20784, Note_off_c, 2, 64, 96
7, 20784, Note_off_c, 2, 61, 96
7, 21024, Note_on_c, 2, 59, 96
7, 21024, Note_on_c, 2, 63, 96
7, 21024, Note_on_c, 2, 68, 96
7, 21072, Note_off_c, 2, 68, 96
7, 21072, Note_off_c, 2, 63, 96
7, 21072, Note_off_c, 2, 59, 96
7, 21504, Note_on_c, 2, 57, 96
7, 21504, Note_on_c, 2, 61, 96
7, 21504, Note_on_c, 2, 66, 96
7, 21552, Note_off_c, 2, 66, 96
7, 21552, Note_off_c, 2, 61, 96
7, 21552, Note_off_c, 2, 57, 96
7, 21792, Note_on_c, 2, 59, 96
7, 21792, Note_on_c, 2, 63, 96
7, 21792, Note_on_c, 2, 68, 96
7, 21840, Note_off_c, 2, 68, 96
7, 21840, Note_off_c, 2, 63, 96
7, 21840, Note_off_c, 2, 59, 96
7, 22272, Note_on_c, 2, 61, 96
7, 22272, Note_on_c, 2, 64, 96
7, 22272, Note_on_c, 2, 69, 96
7, 22320, Note_off_c, 2, 69, 96
7, 22320, Note_off_c, 2, 64, 96
7, 22320, Note_off_c, 2, 61, 96
7, 22560, Note_on_c, 2, 59, 96
7, 22560, Note_on_c, 2, 63, 96
7, 22560, Note_on_c, 2, 68, 96
7, 22608, Note_off_c, 2, 68, 96
7, 22608, Note_off_c, 2, 63, 96
7, 22608, Note_off_c, 2, 59, 96
7, 23040, Note_on_c, 2, 57, 96
7, 23040, Note_on_c, 2, 62, 96
7, 23040, Note_on_c, 2, 66, 96
7, 23088, Note_off_c, 2, 66, 96
7, 23088, Note_off_c, 2, 62, 96
7, 23088, Note_off_c, 2, 57, 96
7, 23328, Note_on_c, 2, 57, 96
7, 23328, Note_on_c, 2, 62, 96
7, 23328, Note_on_c, 2, 66, 96
7, 23376, Note_off_c, 2, 66, 96
7, 23376, Note_off_c, 2, 62, 96
7, 23376, Note_off_c, 2, 57, 96
7, 23808, Note_on_c, 2, 57, 96
7, 23808, Note_on_c, 2, 62, 96
7, 23808, Note_on_c, 2, 66, 96
7, 23856, Note_off_c, 2, 66, 96
7, 23856, Note_off_c, 2, 62, 96
7, 23856, Note_off_c, 2, 57, 96
7, 24000, Control_c, 2, 11, 127
7, 24048, Control_c, 2, 11, 81
7, 24096, Control_c, 2, 11, 87
7, 24096, Note_on_c, 2, 57, 100
7, 24096, Note_on_c, 2, 62, 100
7, 24096, Note_on_c, 2, 66, 100
7, 24144, Control_c, 2, 11, 93
7, 24192, Control_c, 2, 11, 100
7, 24240, Control_c, 2, 11, 106
7, 24288, Control_c, 2, 11, 112
7, 24336, Control_c, 2, 11, 118
7, 24384, Control_c, 2, 11, 127
7, 24528, Note_off_c, 2, 66, 100
7, 24528, Note_off_c, 2, 62, 100
7, 24528, Note_off_c, 2, 57, 100
7, 24576, Note_on_c, 2, 57, 96
7, 24576, Note_on_c, 2, 61, 96
7, 24576, Note_on_c, 2, 66, 96
7, 24624, Note_off_c, 2, 66, 96
7, 24624, Note_off_c, 2, 61, 96
7, 24624, Note_off_c, 2, 57, 96
7, 24864, Note_on_c, 2, 59, 96
7, 24864, Note_on_c, 2, 63, 96
7, 24864, Note_on_c, 2, 68, 96
7, 24912, Note_off_c, 2, 68, 96
7, 24912, Note_off_c, 2, 63, 96
7, 24912, Note_off_c, 2, 59, 96
7, 25344, Note_on_c, 2, 61, 96
7, 25344, Note_on_c, 2, 64, 96
7, 25344, Note_on_c, 2, 69, 96
7, 25392, Note_off_c, 2, 69, 96
7, 25392, Note_off_c, 2, 64, 96
7, 25392, Note_off_c, 2, 61, 96
7, 25632, Note_on_c, 2, 59, 96
7, 25632, Note_on_c, 2, 63, 96
7, 25632, Note_on_c, 2, 68, 96
7, 25680, Note_off_c, 2, 68, 96
7, 25680, Note_off_c, 2, 63, 96
7, 25680, Note_off_c, 2, 59, 96
7, 32256, Note_on_c, 2, 57, 73
7, 32256, Note_on_c, 2, 61, 73
7, 32256, Note_on_c, 2, 66, 73
7, 32496, Note_off_c, 2, 66, 73
7, 32496, Note_off_c, 2, 61, 73
7, 32496, Note_off_c, 2, 57, 73
7, 32544, Note_on_c, 2, 59, 73
7, 32544, Note_on_c, 2, 63, 73
7, 32544, Note_on_c, 2, 68, 73
7, 32928, Note_off_c, 2, 68, 73
7, 32928, Note_off_c, 2, 63, 73
7, 32928, Note_off_c, 2, 59, 73
7, 33024, Note_on_c, 2, 61, 73
7, 33024, Note_on_c, 2, 64, 73
7, 33024, Note_on_c, 2, 69, 73
7, 33264, Note_off_c, 2, 69, 73
7, 33264, Note_off_c, 2, 64, 73
7, 33264, Note_off_c, 2, 61, 73
7, 33312, Note_on_c, 2, 59, 73
7, 33312, Note_on_c, 2, 63, 73
7, 33312, Note_on_c, 2, 68, 73
7, 33696, Note_off_c, 2, 68, 73
7, 33696, Note_off_c, 2, 63, 73
7, 33696, Note_off_c, 2, 59, 73
7, 33792, Note_on_c, 2, 57, 73
7, 33792, Note_on_c, 2, 61, 73
7, 33792, Note_on_c, 2, 66, 73
7, 34032, Note_off_c, 2, 66, 73
7, 34032, Note_off_c, 2, 61, 73
7, 34032, Note_off_c, 2, 57, 73
7, 34080, Note_on_c, 2, 59, 73
7, 34080, Note_on_c, 2, 63, 73
7, 34080, Note_on_c, 2, 68, 73
7, 34464, Note_off_c, 2, 68, 73
7, 34464, Note_off_c, 2, 63, 73
7, 34464, Note_off_c, 2, 59, 73
7, 34560, Note_on_c, 2, 61, 73
7, 34560, Note_on_c, 2, 64, 73
7, 34560, Note_on_c, 2, 69, 73
7, 34800, Note_off_c, 2, 69, 73
7, 34800, Note_off_c, 2, 64, 73
7, 34800, Note_off_c, 2, 61, 73
7, 34848, Note_on_c, 2, 59, 73
7, 34848, Note_on_c, 2, 63, 73
7, 34848, Note_on_c, 2, 68, 73
7, 35280, Note_off_c, 2, 68, 73
7, 35280, Note_off_c, 2, 63, 73
7, 35280, Note_off_c, 2, 59, 73
7, 35328, Note_on_c, 2, 57, 73
7, 35328, Note_on_c, 2, 62, 73
7, 35328, Note_on_c, 2, 66, 73
7, 36828, Note_off_c, 2, 57, 73
7, 36832, Note_off_c, 2, 66, 73
7, 36840, Note_off_c, 2, 62, 73
7, 36864, Note_on_c, 2, 57, 96
7, 36864, Note_on_c, 2, 61, 96
7, 36864, Note_on_c, 2, 66, 96
7, 36912, Note_off_c, 2, 66, 96
7, 36912, Note_off_c, 2, 61, 96
7, 36912, Note_off_c, 2, 57, 96
7, 37152, Note_on_c, 2, 59, 96
7, 37152, Note_on_c, 2, 63, 96
7, 37152, Note_on_c, 2, 68, 96
7, 37200, Note_off_c, 2, 68, 96
7, 37200, Note_off_c, 2, 63, 96
7, 37200, Note_off_c, 2, 59, 96
7, 37632, Note_on_c, 2, 61, 96
7, 37632, Note_on_c, 2, 64, 96
7, 37632, Note_on_c, 2, 69, 96
7, 37680, Note_off_c, 2, 69, 96
7, 37680, Note_off_c, 2, 64, 96
7, 37680, Note_off_c, 2, 61, 96
7, 37920, Note_on_c, 2, 59, 96
7, 37920, Note_on_c, 2, 63, 96
7, 37920, Note_on_c, 2, 68, 96
7, 37968, Note_off_c, 2, 68, 96
7, 37968, Note_off_c, 2, 63, 96
7, 37968, Note_off_c, 2, 59, 96
7, 38400, Note_on_c, 2, 57, 73
7, 38400, Note_on_c, 2, 62, 73
7, 38400, Note_on_c, 2, 66, 73
7, 39916, Note_off_c, 2, 66, 73
7, 39920, Note_off_c, 2, 62, 73
7, 39920, Note_off_c, 2, 57, 73
7, 39936, Note_on_c, 2, 57, 96
7, 39936, Note_on_c, 2, 61, 96
7, 39936, Note_on_c, 2, 66, 96
7, 39988, Note_off_c, 2, 57, 96
7, 39991, Note_off_c, 2, 66, 96
7, 39991, Note_off_c, 2, 61, 96
7, 40224, Note_on_c, 2, 59, 96
7, 40224, Note_on_c, 2, 63, 96
7, 40224, Note_on_c, 2, 68, 96
7, 40272, Note_off_c, 2, 68, 96
7, 40272, Note_off_c, 2, 63, 96
7, 40272, Note_off_c, 2, 59, 96
7, 40704, Note_on_c, 2, 61, 96
7, 40704, Note_on_c, 2, 64, 96
7, 40704, Note_on_c, 2, 69, 96
7, 40752, Note_off_c, 2, 69, 96
7, 40752, Note_off_c, 2, 64, 96
7, 40752, Note_off_c, 2, 61, 96
7, 40992, Note_on_c, 2, 59, 96
7, 40992, Note_on_c, 2, 63, 96
7, 40992, Note_on_c, 2, 68, 96
7, 41040, Note_off_c, 2, 68, 96
7, 41040, Note_off_c, 2, 63, 96
7, 41040, Note_off_c, 2, 59, 96
7, 41472, Note_on_c, 2, 57, 96
7, 41472, Note_on_c, 2, 61, 96
7, 41472, Note_on_c, 2, 66, 96
7, 41520, Note_off_c, 2, 66, 96
7, 41520, Note_off_c, 2, 61, 96
7, 41520, Note_off_c, 2, 57, 96
7, 41760, Note_on_c, 2, 59, 96
7, 41760, Note_on_c, 2, 63, 96
7, 41760, Note_on_c, 2, 68, 96
7, 41808, Note_off_c, 2, 68, 96
7, 41808, Note_off_c, 2, 63, 96
7, 41808, Note_off_c, 2, 59, 96
7, 42240, Note_on_c, 2, 61, 96
7, 42240, Note_on_c, 2, 64, 96
7, 42240, Note_on_c, 2, 69, 96
7, 42288, Note_off_c, 2, 69, 96
7, 42288, Note_off_c, 2, 64, 96
7, 42288, Note_off_c, 2, 61, 96
7, 42528, Note_on_c, 2, 59, 96
7, 42528, Note_on_c, 2, 63, 96
7, 42528, Note_on_c, 2, 68, 96
7, 42576, Note_off_c, 2, 68, 96
7, 42576, Note_off_c, 2, 63, 96
7, 42576, Note_off_c, 2, 59, 96
7, 43008, Note_on_c, 2, 57, 96
7, 43008, Note_on_c, 2, 61, 96
7, 43008, Note_on_c, 2, 66, 96
7, 43056, Note_off_c, 2, 66, 96
7, 43056, Note_off_c, 2, 61, 96
7, 43056, Note_off_c, 2, 57, 96
7, 43296, Note_on_c, 2, 59, 96
7, 43296, Note_on_c, 2, 63, 96
7, 43296, Note_on_c, 2, 68, 96
7, 43344, Note_off_c, 2, 68, 96
7, 43344, Note_off_c, 2, 63, 96
7, 43344, Note_off_c, 2, 59, 96
7, 43776, Note_on_c, 2, 61, 96
7, 43776, Note_on_c, 2, 64, 96
7, 43776, Note_on_c, 2, 69, 96
7, 43824, Note_off_c, 2, 69, 96
7, 43824, Note_off_c, 2, 64, 96
7, 43824, Note_off_c, 2, 61, 96
7, 44064, Note_on_c, 2, 59, 96
7, 44064, Note_on_c, 2, 63, 96
7, 44064, Note_on_c, 2, 68, 96
7, 44112, Note_off_c, 2, 68, 96
7, 44112, Note_off_c, 2, 63, 96
7, 44112, Note_off_c, 2, 59, 96
7, 44544, Note_on_c, 2, 57, 96
7, 44544, Note_on_c, 2, 62, 96
7, 44544, Note_on_c, 2, 66, 96
7, 44592, Note_off_c, 2, 66, 96
7, 44592, Note_off_c, 2, 62, 96
7, 44592, Note_off_c, 2, 57, 96
7, 44832, Note_on_c, 2, 57, 96
7, 44832, Note_on_c, 2, 62, 96
7, 44832, Note_on_c, 2, 66, 96
7, 44880, Note_off_c, 2, 66, 96
7, 44880, Note_off_c, 2, 62, 96
7, 44880, Note_off_c, 2, 57, 96
7, 45312, Note_on_c, 2, 57, 96
7, 45312, Note_on_c, 2, 62, 96
7, 45312, Note_on_c, 2, 66, 96
7, 45360, Note_off_c, 2, 66, 96
7, 45360, Note_off_c, 2, 62, 96
7, 45360, Note_off_c, 2, 57, 96
7, 45600, Note_on_c, 2, 57, 96
7, 45600, Note_on_c, 2, 62, 96
7, 45600, Note_on_c, 2, 66, 96
7, 45648, Note_off_c, 2, 66, 96
7, 45648, Note_off_c, 2, 62, 96
7, 45648, Note_off_c, 2, 57, 96
7, 46080, Note_on_c, 2, 57, 96
7, 46080, Note_on_c, 2, 61, 96
7, 46080, Note_on_c, 2, 66, 96
7, 46128, Note_off_c, 2, 66, 96
7, 46128, Note_off_c, 2, 61, 96
7, 46128, Note_off_c, 2, 57, 96
7, 46368, Note_on_c, 2, 59, 96
7, 46368, Note_on_c, 2, 63, 96
7, 46368, Note_on_c, 2, 68, 96
7, 46416, Note_off_c, 2, 68, 96
7, 46416, Note_off_c, 2, 63, 96
7, 46416, Note_off_c, 2, 59, 96
7, 46848, Note_on_c, 2, 61, 96
7, 46848, Note_on_c, 2, 64, 96
7, 46848, Note_on_c, 2, 69, 96
7, 46896, Note_off_c, 2, 69, 96
7, 46896, Note_off_c, 2, 64, 96
7, 46896, Note_off_c, 2, 61, 96
7, 47136, Note_on_c, 2, 59, 96
7, 47136, Note_on_c, 2, 63, 96
7, 47136, Note_on_c, 2, 68, 96
7, 47184, Note_off_c, 2, 68, 96
7, 47184, Note_off_c, 2, 63, 96
7, 47184, Note_off_c, 2, 59, 96
7, 47616, Note_on_c, 2, 57, 96
7, 47616, Note_on_c, 2, 62, 96
7, 47616, Note_on_c, 2, 66, 96
7, 47664, Note_off_c, 2, 66, 96
7, 47664, Note_off_c, 2, 62, 96
7, 47664, Note_off_c, 2, 57, 96
7, 47904, Note_on_c, 2, 57, 96
7, 47904, Note_on_c, 2, 62, 96
7, 47904, Note_on_c, 2, 66, 96
7, 47952, Note_off_c, 2, 66, 96
7, 47952, Note_off_c, 2, 62, 96
7, 47952, Note_off_c, 2, 57, 96
7, 48384, Note_on_c, 2, 57, 96
7, 48384, Note_on_c, 2, 62, 96
7, 48384, Note_on_c, 2, 66, 96
7, 48432, Note_off_c, 2, 66, 96
7, 48432, Note_off_c, 2, 62, 96
7, 48432, Note_off_c, 2, 57, 96
7, 48672, Note_on_c, 2, 57, 96
7, 48672, Note_on_c, 2, 62, 96
7, 48672, Note_on_c, 2, 66, 96
7, 48720, Note_off_c, 2, 66, 96
7, 48720, Note_off_c, 2, 62, 96
7, 48720, Note_off_c, 2, 57, 96
7, 49152, Note_on_c, 2, 57, 96
7, 49152, Note_on_c, 2, 61, 96
7, 49152, Note_on_c, 2, 66, 96
7, 49200, Note_off_c, 2, 66, 96
7, 49200, Note_off_c, 2, 61, 96
7, 49200, Note_off_c, 2, 57, 96
7, 49440, Note_on_c, 2, 59, 96
7, 49440, Note_on_c, 2, 63, 96
7, 49440, Note_on_c, 2, 68, 96
7, 49488, Note_off_c, 2, 68, 96
7, 49488, Note_off_c, 2, 63, 96
7, 49488, Note_off_c, 2, 59, 96
7, 49920, Note_on_c, 2, 61, 96
7, 49920, Note_on_c, 2, 64, 96
7, 49920, Note_on_c, 2, 69, 96
7, 49968, Note_off_c, 2, 69, 96
7, 49968, Note_off_c, 2, 64, 96
7, 49968, Note_off_c, 2, 61, 96
7, 50208, Note_on_c, 2, 59, 96
7, 50208, Note_on_c, 2, 63, 96
7, 50208, Note_on_c, 2, 68, 96
7, 50256, Note_off_c, 2, 68, 96
7, 50256, Note_off_c, 2, 63, 96
7, 50256, Note_off_c, 2, 59, 96
7, 50688, Note_on_c, 2, 57, 96
7, 50688, Note_on_c, 2, 61, 96
7, 50688, Note_on_c, 2, 66, 96
7, 50736, Note_off_c, 2, 66, 96
7, 50736, Note_off_c, 2, 61, 96
7, 50736, Note_off_c, 2, 57, 96
7, 50976, Note_on_c, 2, 59, 96
7, 50976, Note_on_c, 2, 63, 96
7, 50976, Note_on_c, 2, 68, 96
7, 51024, Note_off_c, 2, 68, 96
7, 51024, Note_off_c, 2, 63, 96
7, 51024, Note_off_c, 2, 59, 96
7, 51456, Note_on_c, 2, 61, 96
7, 51456, Note_on_c, 2, 64, 96
7, 51456, Note_on_c, 2, 69, 96
7, 51504, Note_off_c, 2, 69, 96
7, 51504, Note_off_c, 2, 64, 96
7, 51504, Note_off_c, 2, 61, 96
7, 51744, Note_on_c, 2, 59, 96
7, 51744, Note_on_c, 2, 63, 96
7, 51744, Note_on_c, 2, 68, 96
7, 51792, Note_off_c, 2, 68, 96
7, 51792, Note_off_c, 2, 63, 96
7, 51792, Note_off_c, 2, 59, 96
7, 52224, Note_on_c, 2, 57, 96
7, 52224, Note_on_c, 2, 61, 96
7, 52224, Note_on_c, 2, 66, 96
7, 52272, Note_off_c, 2, 66, 96
7, 52272, Note_off_c, 2, 61, 96
7, 52272, Note_off_c, 2, 57, 96
7, 52512, Note_on_c, 2, 59, 96
7, 52512, Note_on_c, 2, 63, 96
7, 52512, Note_on_c, 2, 68, 96
7, 52560, Note_off_c, 2, 68, 96
7, 52560, Note_off_c, 2, 63, 96
7, 52560, Note_off_c, 2, 59, 96
7, 52992, Note_on_c, 2, 61, 96
7, 52992, Note_on_c, 2, 64, 96
7, 52992, Note_on_c, 2, 69, 96
7, 53040, Note_off_c, 2, 69, 96
7, 53040, Note_off_c, 2, 64, 96
7, 53040, Note_off_c, 2, 61, 96
7, 53280, Note_on_c, 2, 59, 96
7, 53280, Note_on_c, 2, 63, 96
7, 53280, Note_on_c, 2, 68, 96
7, 53328, Note_off_c, 2, 68, 96
7, 53328, Note_off_c, 2, 63, 96
7, 53328, Note_off_c, 2, 59, 96
7, 53760, Note_on_c, 2, 57, 96
7, 53760, Note_on_c, 2, 62, 96
7, 53760, Note_on_c, 2, 66, 96
7, 53808, Note_off_c, 2, 66, 96
7, 53808, Note_off_c, 2, 62, 96
7, 53808, Note_off_c, 2, 57, 96
7, 54048, Note_on_c, 2, 57, 96
7, 54048, Note_on_c, 2, 62, 96
7, 54048, Note_on_c, 2, 66, 96
7, 54096, Note_off_c, 2, 66, 96
7, 54096, Note_off_c, 2, 62, 96
7, 54096, Note_off_c, 2, 57, 96
7, 54528, Note_on_c, 2, 57, 96
7, 54528, Note_on_c, 2, 62, 96
7, 54528, Note_on_c, 2, 66, 96
7, 54576, Note_off_c, 2, 66, 96
7, 54576, Note_off_c, 2, 62, 96
7, 54576, Note_off_c, 2, 57, 96
7, 54816, Note_on_c, 2, 57, 96
7, 54816, Note_on_c, 2, 62, 96
7, 54816, Note_on_c, 2, 66, 96
7, 54864, Note_off_c, 2, 66, 96
7, 54864, Note_off_c, 2, 62, 96
7, 54864, Note_off_c, 2, 57, 96
7, 55296, Note_on_c, 2, 57, 96
7, 55296, Note_on_c, 2, 61, 96
7, 55296, Note_on_c, 2, 66, 96
7, 55344, Note_off_c, 2, 66, 96
7, 55344, Note_off_c, 2, 61, 96
7, 55344, Note_off_c, 2, 57, 96
7, 55584, Note_on_c, 2, 59, 96
7, 55584, Note_on_c, 2, 63, 96
7, 55584, Note_on_c, 2, 68, 96
7, 55632, Note_off_c, 2, 68, 96
7, 55632, Note_off_c, 2, 63, 96
7, 55632, Note_off_c, 2, 59, 96
7, 56064, Note_on_c, 2, 61, 96
7, 56064, Note_on_c, 2, 64, 96
7, 56064, Note_on_c, 2, 69, 96
7, 56112, Note_off_c, 2, 69, 96
7, 56112, Note_off_c, 2, 64, 96
7, 56112, Note_off_c, 2, 61, 96
7, 56352, Note_on_c, 2, 59, 96
7, 56352, Note_on_c, 2, 63, 96
7, 56352, Note_on_c, 2, 68, 96
7, 56400, Note_off_c, 2, 68, 96
7, 56400, Note_off_c, 2, 63, 96
7, 56400, Note_off_c, 2, 59, 96
7, 62976, Note_on_c, 2, 57, 73
7, 62976, Note_on_c, 2, 61, 73
7, 62976, Note_on_c, 2, 66, 73
7, 63216, Note_off_c, 2, 66, 73
7, 63216, Note_off_c, 2, 61, 73
7, 63216, Note_off_c, 2, 57, 73
7, 63264, Note_on_c, 2, 59, 73
7, 63264, Note_on_c, 2, 63, 73
7, 63264, Note_on_c, 2, 68, 73
7, 63648, Note_off_c, 2, 68, 73
7, 63648, Note_off_c, 2, 63, 73
7, 63648, Note_off_c, 2, 59, 73
7, 63744, Note_on_c, 2, 61, 73
7, 63744, Note_on_c, 2, 64, 73
7, 63744, Note_on_c, 2, 69, 73
7, 63984, Note_off_c, 2, 69, 73
7, 63984, Note_off_c, 2, 64, 73
7, 63984, Note_off_c, 2, 61, 73
7, 64032, Note_on_c, 2, 59, 73
7, 64032, Note_on_c, 2, 63, 73
7, 64032, Note_on_c, 2, 68, 73
7, 64416, Note_off_c, 2, 68, 73
7, 64416, Note_off_c, 2, 63, 73
7, 64416, Note_off_c, 2, 59, 73
7, 64512, Note_on_c, 2, 57, 73
7, 64512, Note_on_c, 2, 61, 73
7, 64512, Note_on_c, 2, 66, 73
7, 64752, Note_off_c, 2, 66, 73
7, 64752, Note_off_c, 2, 61, 73
7, 64752, Note_off_c, 2, 57, 73
7, 64800, Note_on_c, 2, 59, 73
7, 64800, Note_on_c, 2, 63, 73
7, 64800, Note_on_c, 2, 68, 73
7, 65184, Note_off_c, 2, 68, 73
7, 65184, Note_off_c, 2, 63, 73
7, 65184, Note_off_c, 2, 59, 73
7, 65280, Note_on_c, 2, 61, 73
7, 65280, Note_on_c, 2, 64, 73
7, 65280, Note_on_c, 2, 69, 73
7, 65520, Note_off_c, 2, 69, 73
7, 65520, Note_off_c, 2, 64, 73
7, 65520, Note_off_c, 2, 61, 73
7, 65568, Note_on_c, 2, 59, 73
7, 65568, Note_on_c, 2, 63, 73
7, 65568, Note_on_c, 2, 68, 73
7, 66000, Note_off_c, 2, 68, 73
7, 66000, Note_off_c, 2, 63, 73
7, 66000, Note_off_c, 2, 59, 73
7, 66048, Note_on_c, 2, 57, 73
7, 66048, Note_on_c, 2, 62, 73
7, 66048, Note_on_c, 2, 66, 73
7, 67548, Note_off_c, 2, 57, 73
7, 67552, Note_off_c, 2, 66, 73
7, 67560, Note_off_c, 2, 62, 73
7, 67584, Note_on_c, 2, 57, 96
7, 67584, Note_on_c, 2, 61, 96
7, 67584, Note_on_c, 2, 66, 96
7, 67632, Note_off_c, 2, 66, 96
7, 67632, Note_off_c, 2, 61, 96
7, 67632, Note_off_c, 2, 57, 96
7, 67872, Note_on_c, 2, 59, 96
7, 67872, Note_on_c, 2, 63, 96
7, 67872, Note_on_c, 2, 68, 96
7, 67920, Note_off_c, 2, 68, 96
7, 67920, Note_off_c, 2, 63, 96
7, 67920, Note_off_c, 2, 59, 96
7, 68352, Note_on_c, 2, 61, 96
7, 68352, Note_on_c, 2, 64, 96
7, 68352, Note_on_c, 2, 69, 96
7, 68400, Note_off_c, 2, 69, 96
7, 68400, Note_off_c, 2, 64, 96
7, 68400, Note_off_c, 2, 61, 96
7, 68640, Note_on_c, 2, 59, 96
7, 68640, Note_on_c, 2, 63, 96
7, 68640, Note_on_c, 2, 68, 96
7, 68688, Note_off_c, 2, 68, 96
7, 68688, Note_off_c, 2, 63, 96
7, 68688, Note_off_c, 2, 59, 96
7, 69120, Note_on_c, 2, 57, 73
7, 69120, Note_on_c, 2, 61, 73
7, 69120, Note_on_c, 2, 66, 73
7, 69360, Note_off_c, 2, 66, 73
7, 69360, Note_off_c, 2, 61, 73
7, 69360, Note_off_c, 2, 57, 73
7, 69408, Note_on_c, 2, 59, 73
7, 69408, Note_on_c, 2, 63, 73
7, 69408, Note_on_c, 2, 68, 73
7, 69792, Note_off_c, 2, 68, 73
7, 69792, Note_off_c, 2, 63, 73
7, 69792, Note_off_c, 2, 59, 73
7, 69888, Note_on_c, 2, 61, 73
7, 69888, Note_on_c, 2, 64, 73
7, 69888, Note_on_c, 2, 69, 73
7, 70128, Note_off_c, 2, 69, 73
7, 70128, Note_off_c, 2, 64, 73
7, 70128, Note_off_c, 2, 61, 73
7, 70176, Note_on_c, 2, 59, 73
7, 70176, Note_on_c, 2, 63, 73
7, 70176, Note_on_c, 2, 68, 73
7, 70560, Note_off_c, 2, 68, 73
7, 70560, Note_off_c, 2, 63, 73
7, 70560, Note_off_c, 2, 59, 73
7, 70656, Note_on_c, 2, 57, 73
7, 70656, Note_on_c, 2, 61, 73
7, 70656, Note_on_c, 2, 66, 73
7, 70896, Note_off_c, 2, 66, 73
7, 70896, Note_off_c, 2, 61, 73
7, 70896, Note_off_c, 2, 57, 73
7, 70944, Note_on_c, 2, 59, 73
7, 70944, Note_on_c, 2, 63, 73
7, 70944, Note_on_c, 2, 68, 73
7, 71328, Note_off_c, 2, 68, 73
7, 71328, Note_off_c, 2, 63, 73
7, 71328, Note_off_c, 2, 59, 73
7, 71424, Note_on_c, 2, 61, 73
7, 71424, Note_on_c, 2, 64, 73
7, 71424, Note_on_c, 2, 69, 73
7, 71664, Note_off_c, 2, 69, 73
7, 71664, Note_off_c, 2, 64, 73
7, 71664, Note_off_c, 2, 61, 73
7, 71712, Note_on_c, 2, 59, 73
7, 71712, Note_on_c, 2, 63, 73
7, 71712, Note_on_c, 2, 68, 73
7, 72144, Note_off_c, 2, 68, 73
7, 72144, Note_off_c, 2, 63, 73
7, 72144, Note_off_c, 2, 59, 73
7, 72192, Note_on_c, 2, 57, 73
7, 72192, Note_on_c, 2, 62, 73
7, 72192, Note_on_c, 2, 66, 73
7, 73692, Note_off_c, 2, 57, 73
7, 73696, Note_off_c, 2, 66, 73
7, 73704, Note_off_c, 2, 62, 73
7, 73728, Note_on_c, 2, 57, 96
7, 73728, Note_on_c, 2, 61, 96
7, 73728, Note_on_c, 2, 66, 96
7, 73776, Note_off_c, 2, 66, 96
7, 73776, Note_off_c, 2, 61, 96
7, 73776, Note_off_c, 2, 57, 96
7, 74016, Note_on_c, 2, 59, 96
7, 74016, Note_on_c, 2, 63, 96
7, 74016, Note_on_c, 2, 68, 96
7, 74064, Note_off_c, 2, 68, 96
7, 74064, Note_off_c, 2, 63, 96
7, 74064, Note_off_c, 2, 59, 96
7, 74496, Note_on_c, 2, 61, 96
7, 74496, Note_on_c, 2, 64, 96
7, 74496, Note_on_c, 2, 69, 96
7, 74544, Note_off_c, 2, 69, 96
7, 74544, Note_off_c, 2, 64, 96
7, 74544, Note_off_c, 2, 61, 96
7, 74784, Note_on_c, 2, 59, 96
7, 74784, Note_on_c, 2, 63, 96
7, 74784, Note_on_c, 2, 68, 96
7, 74832, Note_off_c, 2, 68, 96
7, 74832, Note_off_c, 2, 63, 96
7, 74832, Note_off_c, 2, 59, 96
7, 75264, Note_on_c, 2, 57, 73
7, 75264, Note_on_c, 2, 62, 73
7, 75264, Note_on_c, 2, 66, 73
7, 76780, Note_off_c, 2, 66, 73
7, 76784, Note_off_c, 2, 62, 73
7, 76784, Note_off_c, 2, 57, 73
7, 76800, Note_on_c, 2, 57, 96
7, 76800, Note_on_c, 2, 61, 96
7, 76800, Note_on_c, 2, 66, 96
7, 76852, Note_off_c, 2, 57, 96
7, 76855, Note_off_c, 2, 66, 96
7, 76855, Note_off_c, 2, 61, 96
7, 77088, Note_on_c, 2, 59, 96
7, 77088, Note_on_c, 2, 63, 96
7, 77088, Note_on_c, 2, 68, 96
7, 77136, Note_off_c, 2, 68, 96
7, 77136, Note_off_c, 2, 63, 96
7, 77136, Note_off_c, 2, 59, 96
7, 77568, Note_on_c, 2, 61, 96
7, 77568, Note_on_c, 2, 64, 96
7, 77568, Note_on_c, 2, 69, 96
7, 77616, Note_off_c, 2, 69, 96
7, 77616, Note_off_c, 2, 64, 96
7, 77616, Note_off_c, 2, 61, 96
7, 77856, Note_on_c, 2, 59, 96
7, 77856, Note_on_c, 2, 63, 96
7, 77856, Note_on_c, 2, 68, 96
7, 77904, Note_off_c, 2, 68, 96
7, 77904, Note_off_c, 2, 63, 96
7, 77904, Note_off_c, 2, 59, 96
7, 78336, Note_on_c, 2, 57, 73
7, 78336, Note_on_c, 2, 61, 73
7, 78336, Note_on_c, 2, 66, 73
7, 78576, Note_off_c, 2, 66, 73
7, 78576, Note_off_c, 2, 61, 73
7, 78576, Note_off_c, 2, 57, 73
7, 78624, Note_on_c, 2, 59, 73
7, 78624, Note_on_c, 2, 63, 73
7, 78624, Note_on_c, 2, 68, 73
7, 79008, Note_off_c, 2, 68, 73
7, 79008, Note_off_c, 2, 63, 73
7, 79008, Note_off_c, 2, 59, 73
7, 79104, Note_on_c, 2, 61, 73
7, 79104, Note_on_c, 2, 64, 73
7, 79104, Note_on_c, 2, 69, 73
7, 79344, Note_off_c, 2, 69, 73
7, 79344, Note_off_c, 2, 64, 73
7, 79344, Note_off_c, 2, 61, 73
7, 79392, Note_on_c, 2, 59, 73
7, 79392, Note_on_c, 2, 63, 73
7, 79392, Note_on_c, 2, 68, 73
7, 79776, Note_off_c, 2, 68, 73
7, 79776, Note_off_c, 2, 63, 73
7, 79776, Note_off_c, 2, 59, 73
7, 79872, Note_on_c, 2, 57, 73
7, 79872, Note_on_c, 2, 61, 73
7, 79872, Note_on_c, 2, 66, 73
7, 80112, Note_off_c, 2, 66, 73
7, 80112, Note_off_c, 2, 61, 73
7, 80112, Note_off_c, 2, 57, 73
7, 80160, Note_on_c, 2, 59, 73
7, 80160, Note_on_c, 2, 63, 73
7, 80160, Note_on_c, 2, 68, 73
7, 80544, Note_off_c, 2, 68, 73
7, 80544, Note_off_c, 2, 63, 73
7, 80544, Note_off_c, 2, 59, 73
7, 80640, Note_on_c, 2, 61, 73
7, 80640, Note_on_c, 2, 64, 73
7, 80640, Note_on_c, 2, 69, 73
7, 80880, Note_off_c, 2, 69, 73
7, 80880, Note_off_c, 2, 64, 73
7, 80880, Note_off_c, 2, 61, 73
7, 80928, Note_on_c, 2, 59, 73
7, 80928, Note_on_c, 2, 63, 73
7, 80928, Note_on_c, 2, 68, 73
7, 81360, Note_off_c, 2, 68, 73
7, 81360, Note_off_c, 2, 63, 73
7, 81360, Note_off_c, 2, 59, 73
7, 81408, Note_on_c, 2, 57, 73
7, 81408, Note_on_c, 2, 61, 73
7, 81408, Note_on_c, 2, 66, 73
7, 81648, Note_off_c, 2, 66, 73
7, 81648, Note_off_c, 2, 61, 73
7, 81648, Note_off_c, 2, 57, 73
7, 81696, Note_on_c, 2, 59, 73
7, 81696, Note_on_c, 2, 63, 73
7, 81696, Note_on_c, 2, 68, 73
7, 82080, Note_off_c, 2, 68, 73
7, 82080, Note_off_c, 2, 63, 73
7, 82080, Note_off_c, 2, 59, 73
7, 82176, Note_on_c, 2, 61, 73
7, 82176, Note_on_c, 2, 64, 73
7, 82176, Note_on_c, 2, 69, 73
7, 82416, Note_off_c, 2, 69, 73
7, 82416, Note_off_c, 2, 64, 73
7, 82416, Note_off_c, 2, 61, 73
7, 82464, Note_on_c, 2, 59, 73
7, 82464, Note_on_c, 2, 63, 73
7, 82464, Note_on_c, 2, 68, 73
7, 82848, Note_off_c, 2, 68, 73
7, 82848, Note_off_c, 2, 63, 73
7, 82848, Note_off_c, 2, 59, 73
7, 82944, Note_on_c, 2, 57, 73
7, 82944, Note_on_c, 2, 61, 73
7, 82944, Note_on_c, 2, 66, 73
7, 83184, Note_off_c, 2, 66, 73
7, 83184, Note_off_c, 2, 61, 73
7, 83184, Note_off_c, 2, 57, 73
7, 83232, Note_on_c, 2, 59, 73
7, 83232, Note_on_c, 2, 63, 73
7, 83232, Note_on_c, 2, 68, 73
7, 83616, Note_off_c, 2, 68, 73
7, 83616, Note_off_c, 2, 63, 73
7, 83616, Note_off_c, 2, 59, 73
7, 83712, Note_on_c, 2, 61, 73
7, 83712, Note_on_c, 2, 64, 73
7, 83712, Note_on_c, 2, 69, 73
7, 83952, Note_off_c, 2, 69, 73
7, 83952, Note_off_c, 2, 64, 73
7, 83952, Note_off_c, 2, 61, 73
7, 84000, Note_on_c, 2, 59, 73
7, 84000, Note_on_c, 2, 63, 73
7, 84000, Note_on_c, 2, 68, 73
7, 84432, Note_off_c, 2, 68, 73
7, 84432, Note_off_c, 2, 63, 73
7, 84432, Note_off_c, 2, 59, 73
7, 84480, Note_on_c, 2, 57, 73
7, 84480, Note_on_c, 2, 62, 73
7, 84480, Note_on_c, 2, 66, 73
7, 85996, Note_off_c, 2, 66, 73
7, 86000, Note_off_c, 2, 62, 73
7, 86000, Note_off_c, 2, 57, 73
7, 86016, Note_on_c, 2, 57, 96
7, 86016, Note_on_c, 2, 61, 96
7, 86016, Note_on_c, 2, 66, 96
7, 86068, Note_off_c, 2, 57, 96
7, 86071, Note_off_c, 2, 66, 96
7, 86071, Note_off_c, 2, 61, 96
7, 86304, Note_on_c, 2, 59, 96
7, 86304, Note_on_c, 2, 63, 96
7, 86304, Note_on_c, 2, 68, 96
7, 86352, Note_off_c, 2, 68, 96
7, 86352, Note_off_c, 2, 63, 96
7, 86352, Note_off_c, 2, 59, 96
7, 86784, Note_on_c, 2, 61, 96
7, 86784, Note_on_c, 2, 64, 96
7, 86784, Note_on_c, 2, 69, 96
7, 86832, Note_off_c, 2, 69, 96
7, 86832, Note_off_c, 2, 64, 96
7, 86832, Note_off_c, 2, 61, 96
7, 87072, Note_on_c, 2, 59, 96
7, 87072, Note_on_c, 2, 63, 96
7, 87072, Note_on_c, 2, 68, 96
7, 87120, Note_off_c, 2, 68, 96
7, 87120, Note_off_c, 2, 63, 96
7, 87120, Note_off_c, 2, 59, 96
7, 87552, Note_on_c, 2, 57, 73
7, 87552, Note_on_c, 2, 61, 73
7, 87552, Note_on_c, 2, 66, 73
7, 87792, Note_off_c, 2, 66, 73
7, 87792, Note_off_c, 2, 61, 73
7, 87792, Note_off_c, 2, 57, 73
7, 87840, Note_on_c, 2, 59, 73
7, 87840, Note_on_c, 2, 63, 73
7, 87840, Note_on_c, 2, 68, 73
7, 88224, Note_off_c, 2, 68, 73
7, 88224, Note_off_c, 2, 63, 73
7, 88224, Note_off_c, 2, 59, 73
7, 88320, Note_on_c, 2, 61, 73
7, 88320, Note_on_c, 2, 64, 73
7, 88320, Note_on_c, 2, 69, 73
7, 88560, Note_off_c, 2, 69, 73
7, 88560, Note_off_c, 2, 64, 73
7, 88560, Note_off_c, 2, 61, 73
7, 88608, Note_on_c, 2, 59, 73
7, 88608, Note_on_c, 2, 63, 73
7, 88608, Note_on_c, 2, 68, 73
7, 88992, Note_off_c, 2, 68, 73
7, 88992, Note_off_c, 2, 63, 73
7, 88992, Note_off_c, 2, 59, 73
7, 89088, Note_on_c, 2, 57, 73
7, 89088, Note_on_c, 2, 61, 73
7, 89088, Note_on_c, 2, 66, 73
7, 89328, Note_off_c, 2, 66, 73
7, 89328, Note_off_c, 2, 61, 73
7, 89328, Note_off_c, 2, 57, 73
7, 89376, Note_on_c, 2, 59, 73
7, 89376, Note_on_c, 2, 63, 73
7, 89376, Note_on_c, 2, 68, 73
7, 89760, Note_off_c, 2, 68, 73
7, 89760, Note_off_c, 2, 63, 73
7, 89760, Note_off_c, 2, 59, 73
7, 89856, Note_on_c, 2, 61, 73
7, 89856, Note_on_c, 2, 64, 73
7, 89856, Note_on_c, 2, 69, 73
7, 90096, Note_off_c, 2, 69, 73
7, 90096, Note_off_c, 2, 64, 73
7, 90096, Note_off_c, 2, 61, 73
7, 90144, Note_on_c, 2, 59, 73
7, 90144, Note_on_c, 2, 63, 73
7, 90144, Note_on_c, 2, 68, 73
7, 90576, Note_off_c, 2, 68, 73
7, 90576, Note_off_c, 2, 63, 73
7, 90576, Note_off_c, 2, 59, 73
7, 90624, Note_on_c, 2, 57, 73
7, 90624, Note_on_c, 2, 62, 73
7, 90624, Note_on_c, 2, 66, 73
7, 92124, Note_off_c, 2, 57, 73
7, 92128, Note_off_c, 2, 66, 73
7, 92136, Note_off_c, 2, 62, 73
7, 92160, Note_on_c, 2, 57, 96
7, 92160, Note_on_c, 2, 61, 96
7, 92160, Note_on_c, 2, 66, 96
7, 92208, Note_off_c, 2, 66, 96
7, 92208, Note_off_c, 2, 61, 96
7, 92208, Note_off_c, 2, 57, 96
7, 92448, Note_on_c, 2, 59, 96
7, 92448, Note_on_c, 2, 63, 96
7, 92448, Note_on_c, 2, 68, 96
7, 92496, Note_off_c, 2, 68, 96
7, 92496, Note_off_c, 2, 63, 96
7, 92496, Note_off_c, 2, 59, 96
7, 92928, Note_on_c, 2, 61, 96
7, 92928, Note_on_c, 2, 64, 96
7, 92928, Note_on_c, 2, 69, 96
7, 92976, Note_off_c, 2, 69, 96
7, 92976, Note_off_c, 2, 64, 96
7, 92976, Note_off_c, 2, 61, 96
7, 93216, Note_on_c, 2, 59, 96
7, 93216, Note_on_c, 2, 63, 96
7, 93216, Note_on_c, 2, 68, 96
7, 93264, Note_off_c, 2, 68, 96
7, 93264, Note_off_c, 2, 63, 96
7, 93264, Note_off_c, 2, 59, 96
7, 93696, Note_on_c, 2, 57, 73
7, 93696, Note_on_c, 2, 62, 73
7, 93696, Note_on_c, 2, 66, 73
7, 95212, Note_off_c, 2, 66, 73
7, 95216, Note_off_c, 2, 62, 73
7, 95216, Note_off_c, 2, 57, 73
7, 95232, Note_on_c, 2, 57, 96
7, 95232, Note_on_c, 2, 61, 96
7, 95232, Note_on_c, 2, 66, 96
7, 95284, Note_off_c, 2, 57, 96
7, 95287, Note_off_c, 2, 66, 96
7, 95287, Note_off_c, 2, 61, 96
7, 95520, Note_on_c, 2, 59, 96
7, 95520, Note_on_c, 2, 63, 96
7, 95520, Note_on_c, 2, 68, 96
7, 95568, Note_off_c, 2, 68, 96
7, 95568, Note_off_c, 2, 63, 96
7, 95568, Note_off_c, 2, 59, 96
7, 96000, Note_on_c, 2, 61, 96
7, 96000, Note_on_c, 2, 64, 96
7, 96000, Note_on_c, 2, 69, 96
7, 96048, Note_off_c, 2, 69, 96
7, 96048, Note_off_c, 2, 64, 96
7, 96048, Note_off_c, 2, 61, 96
7, 96288, Note_on_c, 2, 59, 96
7, 96288, Note_on_c, 2, 63, 96
7, 96288, Note_on_c, 2, 68, 96
7, 96336, Note_off_c, 2, 68, 96
7, 96336, Note_off_c, 2, 63, 96
7, 96336, Note_off_c, 2, 59, 96
7, 96768, Note_on_c, 2, 57, 73
7, 96768, Note_on_c, 2, 61, 73
7, 96768, Note_on_c, 2, 66, 73
7, 97008, Note_off_c, 2, 66, 73
7, 97008, Note_off_c, 2, 61, 73
7, 97008, Note_off_c, 2, 57, 73
7, 97056, Note_on_c, 2, 59, 73
7, 97056, Note_on_c, 2, 63, 73
7, 97056, Note_on_c, 2, 68, 73
7, 97440, Note_off_c, 2, 68, 73
7, 97440, Note_off_c, 2, 63, 73
7, 97440, Note_off_c, 2, 59, 73
7, 97536, Note_on_c, 2, 61, 73
7, 97536, Note_on_c, 2, 64, 73
7, 97536, Note_on_c, 2, 69, 73
7, 97776, Note_off_c, 2, 69, 73
7, 97776, Note_off_c, 2, 64, 73
7, 97776, Note_off_c, 2, 61, 73
7, 97824, Note_on_c, 2, 59, 73
7, 97824, Note_on_c, 2, 63, 73
7, 97824, Note_on_c, 2, 68, 73
7, 98208, Note_off_c, 2, 68, 73
7, 98208, Note_off_c, 2, 63, 73
7, 98208, Note_off_c, 2, 59, 73
7, 98304, Note_on_c, 2, 57, 73
7, 98304, Note_on_c, 2, 61, 73
7, 98304, Note_on_c, 2, 66, 73
7, 98544, Note_off_c, 2, 66, 73
7, 98544, Note_off_c, 2, 61, 73
7, 98544, Note_off_c, 2, 57, 73
7, 98592, Note_on_c, 2, 59, 73
7, 98592, Note_on_c, 2, 63, 73
7, 98592, Note_on_c, 2, 68, 73
7, 98976, Note_off_c, 2, 68, 73
7, 98976, Note_off_c, 2, 63, 73
7, 98976, Note_off_c, 2, 59, 73
7, 99072, Note_on_c, 2, 61, 73
7, 99072, Note_on_c, 2, 64, 73
7, 99072, Note_on_c, 2, 69, 73
7, 99312, Note_off_c, 2, 69, 73
7, 99312, Note_off_c, 2, 64, 73
7, 99312, Note_off_c, 2, 61, 73
7, 99360, Note_on_c, 2, 59, 73
7, 99360, Note_on_c, 2, 63, 73
7, 99360, Note_on_c, 2, 68, 73
7, 99792, Note_off_c, 2, 68, 73
7, 99792, Note_off_c, 2, 63, 73
7, 99792, Note_off_c, 2, 59, 73
7, 99840, Note_on_c, 2, 57, 73
7, 99840, Note_on_c, 2, 61, 73
7, 99840, Note_on_c, 2, 66, 73
7, 100080, Note_off_c, 2, 66, 73
7, 100080, Note_off_c, 2, 61, 73
7, 100080, Note_off_c, 2, 57, 73
7, 100128, Note_on_c, 2, 59, 73
7, 100128, Note_on_c, 2, 63, 73
7, 100128, Note_on_c, 2, 68, 73
7, 100512, Note_off_c, 2, 68, 73
7, 100512, Note_off_c, 2, 63, 73
7, 100512, Note_off_c, 2, 59, 73
7, 100608, Note_on_c, 2, 61, 73
7, 100608, Note_on_c, 2, 64, 73
7, 100608, Note_on_c, 2, 69, 73
7, 100848, Note_off_c, 2, 69, 73
7, 100848, Note_off_c, 2, 64, 73
7, 100848, Note_off_c, 2, 61, 73
7, 100896, Note_on_c, 2, 59, 73
7, 100896, Note_on_c, 2, 63, 73
7, 100896, Note_on_c, 2, 68, 73
7, 101280, Note_off_c, 2, 68, 73
7, 101280, Note_off_c, 2, 63, 73
7, 101280, Note_off_c, 2, 59, 73
7, 101376, Note_on_c, 2, 57, 73
7, 101376, Note_on_c, 2, 61, 73
7, 101376, Note_on_c, 2, 66, 73
7, 101616, Note_off_c, 2, 66, 73
7, 101616, Note_off_c, 2, 61, 73
7, 101616, Note_off_c, 2, 57, 73
7, 101664, Note_on_c, 2, 59, 73
7, 101664, Note_on_c, 2, 63, 73
7, 101664, Note_on_c, 2, 68, 73
7, 102048, Note_off_c, 2, 68, 73
7, 102048, Note_off_c, 2, 63, 73
7, 102048, Note_off_c, 2, 59, 73
7, 102144, Note_on_c, 2, 61, 73
7, 102144, Note_on_c, 2, 64, 73
7, 102144, Note_on_c, 2, 69, 73
7, 102384, Note_off_c, 2, 69, 73
7, 102384, Note_off_c, 2, 64, 73
7, 102384, Note_off_c, 2, 61, 73
7, 102432, Note_on_c, 2, 59, 73
7, 102432, Note_on_c, 2, 63, 73
7, 102432, Note_on_c, 2, 68, 73
7, 102864, Note_off_c, 2, 68, 73
7, 102864, Note_off_c, 2, 63, 73
7, 102864, Note_off_c, 2, 59, 73
7, 102912, Note_on_c, 2, 57, 73
7, 102912, Note_on_c, 2, 61, 73
7, 102912, Note_on_c, 2, 66, 73
7, 102928, Control_c, 2, 11, 127
7, 102976, Control_c, 2, 11, 126
7, 103016, Control_c, 2, 11, 125
7, 103056, Control_c, 2, 11, 124
7, 103104, Control_c, 2, 11, 123
7, 103144, Control_c, 2, 11, 122
7, 103152, Note_off_c, 2, 66, 73
7, 103152, Note_off_c, 2, 61, 73
7, 103152, Note_off_c, 2, 57, 73
7, 103184, Control_c, 2, 11, 121
7, 103200, Note_on_c, 2, 59, 73
7, 103200, Note_on_c, 2, 63, 73
7, 103200, Note_on_c, 2, 68, 73
7, 103224, Control_c, 2, 11, 120
7, 103272, Control_c, 2, 11, 119
7, 103312, Control_c, 2, 11, 118
7, 103352, Control_c, 2, 11, 117
7, 103392, Control_c, 2, 11, 116
7, 103440, Control_c, 2, 11, 115
7, 103480, Control_c, 2, 11, 114
7, 103520, Control_c, 2, 11, 113
7, 103560, Control_c, 2, 11, 112
7, 103584, Note_off_c, 2, 68, 73
7, 103584, Note_off_c, 2, 63, 73
7, 103584, Note_off_c, 2, 59, 73
7, 103608, Control_c, 2, 11, 111
7, 103648, Control_c, 2, 11, 110
7, 103680, Note_on_c, 2, 61, 73
7, 103680, Note_on_c, 2, 64, 73
7, 103680, Note_on_c, 2, 69, 73
7, 103688, Control_c, 2, 11, 109
7, 103728, Control_c, 2, 11, 108
7, 103776, Control_c, 2, 11, 107
7, 103816, Control_c, 2, 11, 106
7, 103856, Control_c, 2, 11, 105
7, 103896, Control_c, 2, 11, 104
7, 103920, Note_off_c, 2, 69, 73
7, 103920, Note_off_c, 2, 64, 73
7, 103920, Note_off_c, 2, 61, 73
7, 103944, Control_c, 2, 11, 103
7, 103968, Note_on_c, 2, 59, 73
7, 103968, Note_on_c, 2, 63, 73
7, 103968, Note_on_c, 2, 68, 73
7, 103984, Control_c, 2, 11, 102
7, 104024, Control_c, 2, 11, 101
7, 104064, Control_c, 2, 11, 100
7, 104112, Control_c, 2, 11, 99
7, 104152, Control_c, 2, 11, 98
7, 104192, Control_c, 2, 11, 97
7, 104232, Control_c, 2, 11, 96
7, 104280, Control_c, 2, 11, 95
7, 104320, Control_c, 2, 11, 94
7, 104352, Note_off_c, 2, 68, 73
7, 104352, Note_off_c, 2, 63, 73
7, 104352, Note_off_c, 2, 59, 73
7, 104360, Control_c, 2, 11, 93
7, 104400, Control_c, 2, 11, 92
7, 104448, Control_c, 2, 11, 91
7, 104448, Note_on_c, 2, 57, 73
7, 104448, Note_on_c, 2, 61, 73
7, 104448, Note_on_c, 2, 66, 73
7, 104488, Control_c, 2, 11, 90
7, 104528, Control_c, 2, 11, 89
7, 104568, Control_c, 2, 11, 88
7, 104616, Control_c, 2, 11, 87
7, 104656, Control_c, 2, 11, 86
7, 104688, Note_off_c, 2, 66, 73
7, 104688, Note_off_c, 2, 61, 73
7, 104688, Note_off_c, 2, 57, 73
7, 104696, Control_c, 2, 11, 85
7, 104736, Control_c, 2, 11, 84
7, 104736, Note_on_c, 2, 59, 73
7, 104736, Note_on_c, 2, 63, 73
7, 104736, Note_on_c, 2, 68, 73
7, 104784, Control_c, 2, 11, 83
7, 104824, Control_c, 2, 11, 82
7, 104864, Control_c, 2, 11, 81
7, 104904, Control_c, 2, 11, 80
7, 104952, Control_c, 2, 11, 79
7, 104992, Control_c, 2, 11, 78
7, 105032, Control_c, 2, 11, 77
7, 105072, Control_c, 2, 11, 76
7, 105120, Note_off_c, 2, 68, 73
7, 105120, Note_off_c, 2, 63, 73
7, 105120, Note_off_c, 2, 59, 73
7, 105120, Control_c, 2, 11, 75
7, 105160, Control_c, 2, 11, 74
7, 105200, Control_c, 2, 11, 73
7, 105216, Note_on_c, 2, 61, 73
7, 105216, Note_on_c, 2, 64, 73
7, 105216, Note_on_c, 2, 69, 73
7, 105240, Control_c, 2, 11, 72
7, 105288, Control_c, 2, 11, 71
7, 105328, Control_c, 2, 11, 70
7, 105368, Control_c, 2, 11, 69
7, 105408, Control_c, 2, 11, 68
7, 105456, Note_off_c, 2, 69, 73
7, 105456, Note_off_c, 2, 64, 73
7, 105456, Note_off_c, 2, 61, 73
7, 105456, Control_c, 2, 11, 67
7, 105496, Control_c, 2, 11, 66
7, 105504, Note_on_c, 2, 59, 73
7, 105504, Note_on_c, 2, 63, 73
7, 105504, Note_on_c, 2, 68, 73
7, 105536, Control_c, 2, 11, 65
7, 105576, Control_c, 2, 11, 64
7, 105624, Control_c, 2, 11, 63
7, 105664, Control_c, 2, 11, 62
7, 105704, Control_c, 2, 11, 61
7, 105744, Control_c, 2, 11, 60
7, 105792, Control_c, 2, 11, 59
7, 105832, Control_c, 2, 11, 58
7, 105872, Control_c, 2, 11, 57
7, 105912, Control_c, 2, 11, 56
7, 105936, Note_off_c, 2, 68, 73
7, 105936, Note_off_c, 2, 63, 73
7, 105936, Note_off_c, 2, 59, 73
7, 105960, Control_c, 2, 11, 55
7, 105984, Note_on_c, 2, 57, 73
7, 105984, Note_on_c, 2, 61, 73
7, 105984, Note_on_c, 2, 66, 73
7, 106000, Control_c, 2, 11, 54
7, 106040, Control_c, 2, 11, 53
7, 106080, Control_c, 2, 11, 52
7, 106128, Control_c, 2, 11, 51
7, 106168, Control_c, 2, 11, 50
7, 106208, Control_c, 2, 11, 49
7, 106224, Note_off_c, 2, 66, 73
7, 106224, Note_off_c, 2, 61, 73
7, 106224, Note_off_c, 2, 57, 73
7, 106248, Control_c, 2, 11, 48
7, 106272, Note_on_c, 2, 59, 73
7, 106272, Note_on_c, 2, 63, 73
7, 106272, Note_on_c, 2, 68, 73
7, 106296, Control_c, 2, 11, 47
7, 106336, Control_c, 2, 11, 46
7, 106376, Control_c, 2, 11, 45
7, 106416, Control_c, 2, 11, 44
7, 106464, Control_c, 2, 11, 43
7, 106504, Control_c, 2, 11, 42
7, 106544, Control_c, 2, 11, 41
7, 106584, Control_c, 2, 11, 40
7, 106632, Control_c, 2, 11, 39
7, 106656, Note_off_c, 2, 68, 73
7, 106656, Note_off_c, 2, 63, 73
7, 106656, Note_off_c, 2, 59, 73
7, 106672, Control_c, 2, 11, 38
7, 106712, Control_c, 2, 11, 37
7, 106752, Control_c, 2, 11, 36
7, 106752, Note_on_c, 2, 61, 73
7, 106752, Note_on_c, 2, 64, 73
7, 106752, Note_on_c, 2, 69, 73
7, 106800, Control_c, 2, 11, 35
7, 106840, Control_c, 2, 11, 34
7, 106880, Control_c, 2, 11, 33
7, 106920, Control_c, 2, 11, 32
7, 106968, Control_c, 2, 11, 31
7, 106992, Note_off_c, 2, 69, 73
7, 106992, Note_off_c, 2, 64, 73
7, 106992, Note_off_c, 2, 61, 73
7, 107008, Control_c, 2, 11, 30
7, 107040, Note_on_c, 2, 59, 73
7, 107040, Note_on_c, 2, 63, 73
7, 107040, Note_on_c, 2, 68, 73
7, 107048, Control_c, 2, 11, 29
7, 107088, Control_c, 2, 11, 28
7, 107136, Control_c, 2, 11, 27
7, 107176, Control_c, 2, 11, 26
7, 107216, Control_c, 2, 11, 25
7, 107256, Control_c, 2, 11, 24
7, 107304, Control_c, 2, 11, 23
7, 107344, Control_c, 2, 11, 22
7, 107384, Control_c, 2, 11, 21
7, 107424, Note_off_c, 2, 68, 73
7, 107424, Note_off_c, 2, 63, 73
7, 107424, Note_off_c, 2, 59, 73
7, 107424, Control_c, 2, 11, 20
7, 107472, Control_c, 2, 11, 19
7, 107512, Control_c, 2, 11, 18
7, 107520, Note_on_c, 2, 57, 31
7, 107520, Note_on_c, 2, 61, 31
7, 107520, Note_on_c, 2, 66, 27
7, 107552, Control_c, 2, 11, 17
7, 107592, Control_c, 2, 11, 16
7, 107640, Control_c, 2, 11, 15
7, 107680, Control_c, 2, 11, 14
7, 107720, Control_c, 2, 11, 13
7, 107760, Note_off_c, 2, 66, 27
7, 107760, Note_off_c, 2, 61, 31
7, 107760, Note_off_c, 2, 57, 31
7, 107760, Control_c, 2, 11, 12
7, 107808, Control_c, 2, 11, 11
7, 107808, Note_on_c, 2, 59, 35
7, 107808, Note_on_c, 2, 63, 35
7, 107808, Note_on_c, 2, 68, 35
7, 107848, Control_c, 2, 11, 10
7, 107888, Control_c, 2, 11, 9
7, 107928, Control_c, 2, 11, 8
7, 107976, Control_c, 2, 11, 7
7, 108012, Note_off_c, 2, 68, 35
7, 108012, Note_off_c, 2, 63, 35
7, 108012, Note_off_c, 2, 59, 35
7, 108016, Control_c, 2, 11, 6
7, 108056, Control_c, 2, 11, 5
7, 108096, Control_c, 2, 11, 4
7, 108144, Control_c, 2, 11, 3
7, 108184, Control_c, 2, 11, 2
7, 108224, Control_c, 2, 11, 1
7, 108264, Control_c, 2, 11, 0
7, 108376, Control_c, 2, 120, 0
7, 108404, Control_c, 2, 123, 0
7, 108404, End_track
8, 0, Start_track
8, 0, Text_t, "Bass"
8, 192, Control_c, 1, 121, 0
8, 237, Control_c, 1, 0, 0
8, 240, Control_c, 1, 32, 0
8, 288, Program_c, 1, 35
8, 336, Control_c, 1, 10, 64
8, 384, Control_c, 1, 91, 30
8, 432, Control_c, 1, 93, 0
8, 482, Control_c, 1, 7, 91
8, 518, Control_c, 1, 11, 127
8, 600, Control_c, 1, 99, 1
8, 623, Control_c, 1, 98, 99
8, 642, Control_c, 1, 6, 0
8, 658, Control_c, 1, 99, 1
8, 670, Control_c, 1, 98, 32
8, 682, Control_c, 1, 6, 27
8, 720, Note_on_c, 1, 60, 1
8, 721, Note_off_c, 1, 60, 1
8, 2304, Note_on_c, 1, 42, 127
8, 2354, Note_off_c, 1, 42, 127
8, 2400, Note_on_c, 1, 37, 127
8, 2452, Note_off_c, 1, 37, 127
8, 2496, Note_on_c, 1, 40, 127
8, 2551, Note_off_c, 1, 40, 127
8, 2592, Note_on_c, 1, 42, 127
8, 2643, Note_off_c, 1, 42, 127
8, 2688, Note_on_c, 1, 40, 127
8, 2744, Note_off_c, 1, 40, 127
8, 2784, Note_on_c, 1, 37, 127
8, 2835, Note_off_c, 1, 37, 127
8, 2880, Note_on_c, 1, 35, 127
8, 2941, Note_off_c, 1, 35, 127
8, 2976, Note_on_c, 1, 37, 127
8, 3030, Note_off_c, 1, 37, 127
8, 3072, Note_on_c, 1, 42, 127
8, 3119, Note_off_c, 1, 42, 127
8, 3168, Note_on_c, 1, 37, 127
8, 3216, Note_off_c, 1, 37, 127
8, 3264, Note_on_c, 1, 40, 127
8, 3317, Note_off_c, 1, 40, 127
8, 3360, Note_on_c, 1, 42, 127
8, 3406, Note_off_c, 1, 42, 127
8, 3456, Note_on_c, 1, 40, 127
8, 3515, Note_off_c, 1, 40, 127
8, 3552, Note_on_c, 1, 37, 127
8, 3606, Note_off_c, 1, 37, 127
8, 3648, Note_on_c, 1, 35, 127
8, 3713, Note_off_c, 1, 35, 127
8, 3744, Note_on_c, 1, 37, 127
8, 3795, Note_off_c, 1, 37, 127
8, 3840, Note_on_c, 1, 42, 127
8, 3890, Note_off_c, 1, 42, 127
8, 3936, Note_on_c, 1, 37, 127
8, 3988, Note_off_c, 1, 37, 127
8, 4032, Note_on_c, 1, 40, 127
8, 4087, Note_off_c, 1, 40, 127
8, 4128, Note_on_c, 1, 42, 127
8, 4179, Note_off_c, 1, 42, 127
8, 4224, Note_on_c, 1, 40, 127
8, 4280, Note_off_c, 1, 40, 127
8, 4320, Note_on_c, 1, 37, 127
8, 4371, Note_off_c, 1, 37, 127
8, 4416, Note_on_c, 1, 35, 127
8, 4477, Note_off_c, 1, 35, 127
8, 4512, Note_on_c, 1, 37, 127
8, 4566, Note_off_c, 1, 37, 127
8, 4608, Note_on_c, 1, 42, 127
8, 4655, Note_off_c, 1, 42, 127
8, 4704, Note_on_c, 1, 37, 127
8, 4752, Note_off_c, 1, 37, 127
8, 4800, Note_on_c, 1, 40, 127
8, 4853, Note_off_c, 1, 40, 127
8, 4896, Note_on_c, 1, 42, 127
8, 4942, Note_off_c, 1, 42, 127
8, 4992, Note_on_c, 1, 40, 127
8, 5051, Note_off_c, 1, 40, 127
8, 5088, Note_on_c, 1, 37, 127
8, 5142, Note_off_c, 1, 37, 127
8, 5184, Note_on_c, 1, 35, 127
8, 5249, Note_off_c, 1, 35, 127
8, 5280, Note_on_c, 1, 37, 127
8, 5331, Note_off_c, 1, 37, 127
8, 5376, Note_on_c, 1, 42, 127
8, 5426, Note_off_c, 1, 42, 127
8, 5472, Note_on_c, 1, 37, 127
8, 5524, Note_off_c, 1, 37, 127
8, 5568, Note_on_c, 1, 40, 127
8, 5623, Note_off_c, 1, 40, 127
8, 5664, Note_on_c, 1, 42, 127
8, 5715, Note_off_c, 1, 42, 127
8, 5760, Note_on_c, 1, 40, 127
8, 5816, Note_off_c, 1, 40, 127
8, 5856, Note_on_c, 1, 37, 127
8, 5907, Note_off_c, 1, 37, 127
8, 5952, Note_on_c, 1, 35, 127
8, 6013, Note_off_c, 1, 35, 127
8, 6048, Note_on_c, 1, 37, 127
8, 6102, Note_off_c, 1, 37, 127
8, 6144, Note_on_c, 1, 42, 127
8, 6191, Note_off_c, 1, 42, 127
8, 6240, Note_on_c, 1, 37, 127
8, 6288, Note_off_c, 1, 37, 127
8, 6336, Note_on_c, 1, 40, 127
8, 6389, Note_off_c, 1, 40, 127
8, 6432, Note_on_c, 1, 42, 127
8, 6478, Note_off_c, 1, 42, 127
8, 6528, Note_on_c, 1, 40, 127
8, 6587, Note_off_c, 1, 40, 127
8, 6624, Note_on_c, 1, 37, 127
8, 6678, Note_off_c, 1, 37, 127
8, 6720, Note_on_c, 1, 35, 127
8, 6785, Note_off_c, 1, 35, 127
8, 6816, Note_on_c, 1, 37, 127
8, 6867, Note_off_c, 1, 37, 127
8, 6912, Note_on_c, 1, 42, 127
8, 6962, Note_off_c, 1, 42, 127
8, 7008, Note_on_c, 1, 37, 127
8, 7060, Note_off_c, 1, 37, 127
8, 7104, Note_on_c, 1, 40, 127
8, 7159, Note_off_c, 1, 40, 127
8, 7200, Note_on_c, 1, 42, 127
8, 7251, Note_off_c, 1, 42, 127
8, 7296, Note_on_c, 1, 40, 127
8, 7352, Note_off_c, 1, 40, 127
8, 7392, Note_on_c, 1, 37, 127
8, 7443, Note_off_c, 1, 37, 127
8, 7488, Note_on_c, 1, 35, 127
8, 7549, Note_off_c, 1, 35, 127
8, 7584, Note_on_c, 1, 37, 127
8, 7631, Note_off_c, 1, 37, 127
8, 7644, Control_c, 1, 11, 127
8, 7644, Control_c, 1, 99, 1
8, 7644, Control_c, 1, 98, 33
8, 7648, Control_c, 1, 6, 70
8, 7680, Note_on_c, 1, 42, 127
8, 7727, Note_off_c, 1, 42, 127
8, 7776, Note_on_c, 1, 37, 127
8, 7824, Note_off_c, 1, 37, 127
8, 7872, Note_on_c, 1, 40, 127
8, 7925, Note_off_c, 1, 40, 127
8, 7968, Note_on_c, 1, 42, 127
8, 8014, Note_off_c, 1, 42, 127
8, 8064, Note_on_c, 1, 40, 127
8, 8123, Note_off_c, 1, 40, 127
8, 8160, Note_on_c, 1, 37, 127
8, 8214, Note_off_c, 1, 37, 127
8, 8256, Note_on_c, 1, 35, 127
8, 8321, Note_off_c, 1, 35, 127
8, 8352, Note_on_c, 1, 37, 127
8, 8403, Note_off_c, 1, 37, 127
8, 8448, Note_on_c, 1, 42, 127
8, 8498, Note_off_c, 1, 42, 127
8, 8544, Note_on_c, 1, 37, 127
8, 8596, Note_off_c, 1, 37, 127
8, 8640, Note_on_c, 1, 40, 127
8, 8695, Note_off_c, 1, 40, 127
8, 8736, Note_on_c, 1, 42, 127
8, 8787, Note_off_c, 1, 42, 127
8, 8832, Note_on_c, 1, 40, 127
8, 8888, Note_off_c, 1, 40, 127
8, 8928, Note_on_c, 1, 37, 127
8, 8979, Note_off_c, 1, 37, 127
8, 9024, Note_on_c, 1, 35, 127
8, 9085, Note_off_c, 1, 35, 127
8, 9120, Note_on_c, 1, 37, 127
8, 9174, Note_off_c, 1, 37, 127
8, 9216, Note_on_c, 1, 42, 127
8, 9263, Note_off_c, 1, 42, 127
8, 9312, Note_on_c, 1, 37, 127
8, 9360, Note_off_c, 1, 37, 127
8, 9408, Note_on_c, 1, 40, 127
8, 9461, Note_off_c, 1, 40, 127
8, 9504, Note_on_c, 1, 42, 127
8, 9550, Note_off_c, 1, 42, 127
8, 9600, Note_on_c, 1, 40, 127
8, 9659, Note_off_c, 1, 40, 127
8, 9696, Note_on_c, 1, 37, 127
8, 9750, Note_off_c, 1, 37, 127
8, 9792, Note_on_c, 1, 35, 127
8, 9857, Note_off_c, 1, 35, 127
8, 9888, Note_on_c, 1, 37, 127
8, 9939, Note_off_c, 1, 37, 127
8, 9984, Note_on_c, 1, 42, 127
8, 10034, Note_off_c, 1, 42, 127
8, 10080, Note_on_c, 1, 37, 127
8, 10132, Note_off_c, 1, 37, 127
8, 10176, Note_on_c, 1, 40, 127
8, 10231, Note_off_c, 1, 40, 127
8, 10272, Note_on_c, 1, 42, 127
8, 10323, Note_off_c, 1, 42, 127
8, 10368, Note_on_c, 1, 40, 127
8, 10424, Note_off_c, 1, 40, 127
8, 10464, Note_on_c, 1, 37, 127
8, 10515, Note_off_c, 1, 37, 127
8, 10560, Note_on_c, 1, 35, 127
8, 10621, Note_off_c, 1, 35, 127
8, 10656, Note_on_c, 1, 37, 127
8, 10710, Note_off_c, 1, 37, 127
8, 10752, Note_on_c, 1, 42, 127
8, 10799, Note_off_c, 1, 42, 127
8, 10848, Note_on_c, 1, 37, 127
8, 10896, Note_off_c, 1, 37, 127
8, 10944, Note_on_c, 1, 40, 127
8, 10997, Note_off_c, 1, 40, 127
8, 11040, Note_on_c, 1, 42, 127
8, 11086, Note_off_c, 1, 42, 127
8, 11136, Note_on_c, 1, 40, 127
8, 11195, Note_off_c, 1, 40, 127
8, 11232, Note_on_c, 1, 37, 127
8, 11286, Note_off_c, 1, 37, 127
8, 11328, Note_on_c, 1, 35, 127
8, 11393, Note_off_c, 1, 35, 127
8, 11424, Note_on_c, 1, 37, 127
8, 11475, Note_off_c, 1, 37, 127
8, 11520, Note_on_c, 1, 42, 127
8, 11570, Note_off_c, 1, 42, 127
8, 11616, Note_on_c, 1, 37, 127
8, 11668, Note_off_c, 1, 37, 127
8, 11712, Note_on_c, 1, 40, 127
8, 11767, Note_off_c, 1, 40, 127
8, 11808, Note_on_c, 1, 42, 127
8, 11859, Note_off_c, 1, 42, 127
8, 11904, Note_on_c, 1, 40, 127
8, 11960, Note_off_c, 1, 40, 127
8, 12000, Note_on_c, 1, 37, 127
8, 12051, Note_off_c, 1, 37, 127
8, 12096, Note_on_c, 1, 35, 127
8, 12157, Note_off_c, 1, 35, 127
8, 12192, Note_on_c, 1, 37, 127
8, 12246, Note_off_c, 1, 37, 127
8, 12288, Note_on_c, 1, 42, 127
8, 12335, Note_off_c, 1, 42, 127
8, 12384, Note_on_c, 1, 37, 127
8, 12432, Note_off_c, 1, 37, 127
8, 12480, Note_on_c, 1, 40, 127
8, 12533, Note_off_c, 1, 40, 127
8, 12576, Note_on_c, 1, 42, 127
8, 12622, Note_off_c, 1, 42, 127
8, 12672, Note_on_c, 1, 40, 127
8, 12731, Note_off_c, 1, 40, 127
8, 12768, Note_on_c, 1, 37, 127
8, 12822, Note_off_c, 1, 37, 127
8, 12864, Note_on_c, 1, 35, 127
8, 12929, Note_off_c, 1, 35, 127
8, 12960, Note_on_c, 1, 37, 127
8, 13011, Note_off_c, 1, 37, 127
8, 13056, Note_on_c, 1, 42, 127
8, 13106, Note_off_c, 1, 42, 127
8, 13152, Note_on_c, 1, 37, 127
8, 13204, Note_off_c, 1, 37, 127
8, 13248, Note_on_c, 1, 40, 127
8, 13303, Note_off_c, 1, 40, 127
8, 13344, Note_on_c, 1, 42, 127
8, 13395, Note_off_c, 1, 42, 127
8, 13440, Note_on_c, 1, 40, 127
8, 13496, Note_off_c, 1, 40, 127
8, 13536, Note_on_c, 1, 37, 127
8, 13587, Note_off_c, 1, 37, 127
8, 13632, Note_on_c, 1, 35, 127
8, 13693, Note_off_c, 1, 35, 127
8, 13728, Note_on_c, 1, 37, 127
8, 13782, Note_off_c, 1, 37, 127
8, 13824, Note_on_c, 1, 47, 127
8, 13872, Note_off_c, 1, 47, 127
8, 13920, Note_on_c, 1, 42, 127
8, 13955, Note_off_c, 1, 42, 127
8, 14016, Note_on_c, 1, 45, 127
8, 14068, Note_off_c, 1, 45, 127
8, 14112, Note_on_c, 1, 47, 127
8, 14182, Note_off_c, 1, 47, 127
8, 14304, Note_on_c, 1, 42, 127
8, 14360, Note_off_c, 1, 42, 127
8, 14400, Note_on_c, 1, 40, 127
8, 14460, Note_off_c, 1, 40, 127
8, 14496, Note_on_c, 1, 42, 127
8, 14548, Note_off_c, 1, 42, 127
8, 14592, Note_on_c, 1, 47, 127
8, 14641, Note_off_c, 1, 47, 127
8, 14688, Note_on_c, 1, 42, 127
8, 14738, Note_off_c, 1, 42, 127
8, 14784, Note_on_c, 1, 45, 127
8, 14841, Note_off_c, 1, 45, 127
8, 14880, Note_on_c, 1, 47, 127
8, 14948, Note_off_c, 1, 47, 127
8, 15072, Note_on_c, 1, 42, 127
8, 15135, Note_off_c, 1, 42, 127
8, 15168, Note_on_c, 1, 40, 127
8, 15228, Note_off_c, 1, 40, 127
8, 15264, Note_on_c, 1, 37, 127
8, 15327, Note_off_c, 1, 37, 127
8, 15360, Note_on_c, 1, 42, 127
8, 15410, Note_off_c, 1, 42, 127
8, 15456, Note_on_c, 1, 37, 127
8, 15508, Note_off_c, 1, 37, 127
8, 15552, Note_on_c, 1, 40, 127
8, 15607, Note_off_c, 1, 40, 127
8, 15648, Note_on_c, 1, 42, 127
8, 15699, Note_off_c, 1, 42, 127
8, 15744, Note_on_c, 1, 40, 127
8, 15800, Note_off_c, 1, 40, 127
8, 15840, Note_on_c, 1, 37, 127
8, 15891, Note_off_c, 1, 37, 127
8, 15936, Note_on_c, 1, 35, 127
8, 15997, Note_off_c, 1, 35, 127
8, 16032, Note_on_c, 1, 37, 127
8, 16086, Note_off_c, 1, 37, 127
8, 16128, Note_on_c, 1, 42, 127
8, 16175, Note_off_c, 1, 42, 127
8, 16224, Note_on_c, 1, 37, 127
8, 16272, Note_off_c, 1, 37, 127
8, 16320, Note_on_c, 1, 40, 127
8, 16373, Note_off_c, 1, 40, 127
8, 16416, Note_on_c, 1, 42, 127
8, 16462, Note_off_c, 1, 42, 127
8, 16512, Note_on_c, 1, 40, 127
8, 16571, Note_off_c, 1, 40, 127
8, 16608, Note_on_c, 1, 37, 127
8, 16662, Note_off_c, 1, 37, 127
8, 16704, Note_on_c, 1, 35, 127
8, 16769, Note_off_c, 1, 35, 127
8, 16800, Note_on_c, 1, 37, 127
8, 16851, Note_off_c, 1, 37, 127
8, 16896, Note_on_c, 1, 47, 127
8, 16944, Note_off_c, 1, 47, 127
8, 16992, Note_on_c, 1, 42, 127
8, 17027, Note_off_c, 1, 42, 127
8, 17088, Note_on_c, 1, 45, 127
8, 17140, Note_off_c, 1, 45, 127
8, 17184, Note_on_c, 1, 47, 127
8, 17254, Note_off_c, 1, 47, 127
8, 17376, Note_on_c, 1, 42, 127
8, 17432, Note_off_c, 1, 42, 127
8, 17472, Note_on_c, 1, 40, 127
8, 17532, Note_off_c, 1, 40, 127
8, 17568, Note_on_c, 1, 42, 127
8, 17620, Note_off_c, 1, 42, 127
8, 17664, Note_on_c, 1, 47, 127
8, 17713, Note_off_c, 1, 47, 127
8, 17760, Note_on_c, 1, 42, 127
8, 17810, Note_off_c, 1, 42, 127
8, 17856, Note_on_c, 1, 45, 127
8, 17913, Note_off_c, 1, 45, 127
8, 17952, Note_on_c, 1, 47, 127
8, 18020, Note_off_c, 1, 47, 127
8, 18144, Note_on_c, 1, 42, 127
8, 18207, Note_off_c, 1, 42, 127
8, 18240, Note_on_c, 1, 40, 127
8, 18300, Note_off_c, 1, 40, 127
8, 18336, Note_on_c, 1, 37, 127
8, 18399, Note_off_c, 1, 37, 127
8, 18432, Note_on_c, 1, 42, 127
8, 18482, Note_off_c, 1, 42, 127
8, 18528, Note_on_c, 1, 37, 127
8, 18580, Note_off_c, 1, 37, 127
8, 18624, Note_on_c, 1, 40, 127
8, 18679, Note_off_c, 1, 40, 127
8, 18720, Note_on_c, 1, 42, 127
8, 18771, Note_off_c, 1, 42, 127
8, 18816, Note_on_c, 1, 40, 127
8, 18872, Note_off_c, 1, 40, 127
8, 18912, Note_on_c, 1, 37, 127
8, 18963, Note_off_c, 1, 37, 127
8, 19008, Note_on_c, 1, 35, 127
8, 19069, Note_off_c, 1, 35, 127
8, 19104, Note_on_c, 1, 37, 127
8, 19158, Note_off_c, 1, 37, 127
8, 19200, Note_on_c, 1, 42, 127
8, 19247, Note_off_c, 1, 42, 127
8, 19296, Note_on_c, 1, 37, 127
8, 19344, Note_off_c, 1, 37, 127
8, 19392, Note_on_c, 1, 40, 127
8, 19445, Note_off_c, 1, 40, 127
8, 19488, Note_on_c, 1, 42, 127
8, 19534, Note_off_c, 1, 42, 127
8, 19584, Note_on_c, 1, 40, 127
8, 19643, Note_off_c, 1, 40, 127
8, 19680, Note_on_c, 1, 37, 127
8, 19734, Note_off_c, 1, 37, 127
8, 19776, Note_on_c, 1, 35, 127
8, 19841, Note_off_c, 1, 35, 127
8, 19872, Note_on_c, 1, 37, 127
8, 19923, Note_off_c, 1, 37, 127
8, 19968, Note_on_c, 1, 42, 127
8, 20018, Note_off_c, 1, 42, 127
8, 20064, Note_on_c, 1, 37, 127
8, 20116, Note_off_c, 1, 37, 127
8, 20160, Note_on_c, 1, 40, 127
8, 20215, Note_off_c, 1, 40, 127
8, 20256, Note_on_c, 1, 42, 127
8, 20307, Note_off_c, 1, 42, 127
8, 20352, Note_on_c, 1, 40, 127
8, 20408, Note_off_c, 1, 40, 127
8, 20448, Note_on_c, 1, 37, 127
8, 20499, Note_off_c, 1, 37, 127
8, 20544, Note_on_c, 1, 35, 127
8, 20605, Note_off_c, 1, 35, 127
8, 20640, Note_on_c, 1, 37, 127
8, 20694, Note_off_c, 1, 37, 127
8, 20736, Note_on_c, 1, 42, 127
8, 20783, Note_off_c, 1, 42, 127
8, 20832, Note_on_c, 1, 37, 127
8, 20880, Note_off_c, 1, 37, 127
8, 20928, Note_on_c, 1, 40, 127
8, 20981, Note_off_c, 1, 40, 127
8, 21024, Note_on_c, 1, 42, 127
8, 21070, Note_off_c, 1, 42, 127
8, 21120, Note_on_c, 1, 40, 127
8, 21179, Note_off_c, 1, 40, 127
8, 21216, Note_on_c, 1, 37, 127
8, 21270, Note_off_c, 1, 37, 127
8, 21312, Note_on_c, 1, 35, 127
8, 21377, Note_off_c, 1, 35, 127
8, 21408, Note_on_c, 1, 37, 127
8, 21459, Note_off_c, 1, 37, 127
8, 21504, Note_on_c, 1, 42, 127
8, 21554, Note_off_c, 1, 42, 127
8, 21600, Note_on_c, 1, 37, 127
8, 21652, Note_off_c, 1, 37, 127
8, 21696, Note_on_c, 1, 40, 127
8, 21751, Note_off_c, 1, 40, 127
8, 21792, Note_on_c, 1, 42, 127
8, 21843, Note_off_c, 1, 42, 127
8, 21888, Note_on_c, 1, 40, 127
8, 21944, Note_off_c, 1, 40, 127
8, 21984, Note_on_c, 1, 37, 127
8, 22035, Note_off_c, 1, 37, 127
8, 22080, Note_on_c, 1, 35, 127
8, 22141, Note_off_c, 1, 35, 127
8, 22176, Note_on_c, 1, 37, 127
8, 22230, Note_off_c, 1, 37, 127
8, 22272, Note_on_c, 1, 42, 127
8, 22319, Note_off_c, 1, 42, 127
8, 22368, Note_on_c, 1, 37, 127
8, 22416, Note_off_c, 1, 37, 127
8, 22464, Note_on_c, 1, 40, 127
8, 22517, Note_off_c, 1, 40, 127
8, 22560, Note_on_c, 1, 42, 127
8, 22606, Note_off_c, 1, 42, 127
8, 22656, Note_on_c, 1, 40, 127
8, 22715, Note_off_c, 1, 40, 127
8, 22752, Note_on_c, 1, 37, 127
8, 22806, Note_off_c, 1, 37, 127
8, 22848, Note_on_c, 1, 35, 127
8, 22913, Note_off_c, 1, 35, 127
8, 22944, Note_on_c, 1, 37, 127
8, 22995, Note_off_c, 1, 37, 127
8, 23040, Note_on_c, 1, 47, 127
8, 23088, Note_off_c, 1, 47, 127
8, 23136, Note_on_c, 1, 42, 127
8, 23171, Note_off_c, 1, 42, 127
8, 23232, Note_on_c, 1, 45, 127
8, 23284, Note_off_c, 1, 45, 127
8, 23328, Note_on_c, 1, 47, 127
8, 23398, Note_off_c, 1, 47, 127
8, 23520, Note_on_c, 1, 42, 127
8, 23576, Note_off_c, 1, 42, 127
8, 23616, Note_on_c, 1, 40, 127
8, 23676, Note_off_c, 1, 40, 127
8, 23712, Note_on_c, 1, 42, 127
8, 23764, Note_off_c, 1, 42, 127
8, 23808, Note_on_c, 1, 47, 127
8, 23857, Note_off_c, 1, 47, 127
8, 23904, Note_on_c, 1, 42, 127
8, 23954, Note_off_c, 1, 42, 127
8, 24000, Note_on_c, 1, 45, 127
8, 24057, Note_off_c, 1, 45, 127
8, 24096, Note_on_c, 1, 47, 127
8, 24164, Note_off_c, 1, 47, 127
8, 24288, Note_on_c, 1, 42, 127
8, 24351, Note_off_c, 1, 42, 127
8, 24384, Note_on_c, 1, 40, 127
8, 24444, Note_off_c, 1, 40, 127
8, 24480, Note_on_c, 1, 37, 127
8, 24543, Note_off_c, 1, 37, 127
8, 24576, Note_on_c, 1, 42, 127
8, 24626, Note_off_c, 1, 42, 127
8, 24672, Note_on_c, 1, 37, 127
8, 24724, Note_off_c, 1, 37, 127
8, 24768, Note_on_c, 1, 40, 127
8, 24823, Note_off_c, 1, 40, 127
8, 24864, Note_on_c, 1, 42, 127
8, 24915, Note_off_c, 1, 42, 127
8, 24960, Note_on_c, 1, 40, 127
8, 25016, Note_off_c, 1, 40, 127
8, 25056, Note_on_c, 1, 37, 127
8, 25107, Note_off_c, 1, 37, 127
8, 25152, Note_on_c, 1, 35, 127
8, 25213, Note_off_c, 1, 35, 127
8, 25248, Note_on_c, 1, 37, 127
8, 25302, Note_off_c, 1, 37, 127
8, 25344, Note_on_c, 1, 42, 127
8, 25391, Note_off_c, 1, 42, 127
8, 25440, Note_on_c, 1, 37, 127
8, 25488, Note_off_c, 1, 37, 127
8, 25536, Note_on_c, 1, 40, 127
8, 25589, Note_off_c, 1, 40, 127
8, 25632, Note_on_c, 1, 42, 127
8, 25678, Note_off_c, 1, 42, 127
8, 25728, Note_on_c, 1, 40, 127
8, 25787, Note_off_c, 1, 40, 127
8, 25824, Note_on_c, 1, 37, 127
8, 25878, Note_off_c, 1, 37, 127
8, 25920, Note_on_c, 1, 35, 127
8, 25985, Note_off_c, 1, 35, 127
8, 26016, Note_on_c, 1, 37, 127
8, 26055, Note_off_c, 1, 37, 127
8, 26071, Control_c, 1, 11, 127
8, 26075, Control_c, 1, 99, 1
8, 26078, Control_c, 1, 98, 33
8, 26083, Control_c, 1, 6, 64
8, 26112, Note_on_c, 1, 38, 127
8, 26418, Note_off_c, 1, 38, 127
8, 26448, Note_on_c, 1, 38, 127
8, 26491, Note_off_c, 1, 38, 127
8, 26496, Note_on_c, 1, 38, 127
8, 26747, Note_off_c, 1, 38, 127
8, 26784, Note_on_c, 1, 38, 127
8, 26839, Pitch_bend_c, 1, 11520
8, 26858, Pitch_bend_c, 1, 12160
8, 26867, Pitch_bend_c, 1, 13440
8, 26880, Note_on_c, 1, 42, 127
8, 26883, Note_off_c, 1, 38, 127
8, 26891, Pitch_bend_c, 1, 8192
8, 27173, Note_off_c, 1, 42, 127
8, 27216, Note_on_c, 1, 30, 127
8, 27256, Note_off_c, 1, 30, 127
8, 27264, Note_on_c, 1, 30, 127
8, 27467, Note_off_c, 1, 30, 127
8, 27552, Note_on_c, 1, 35, 127
8, 27640, Note_off_c, 1, 35, 127
8, 27648, Note_on_c, 1, 38, 127
8, 27938, Note_off_c, 1, 38, 127
8, 27984, Note_on_c, 1, 38, 127
8, 28032, Note_off_c, 1, 38, 127
8, 28032, Note_on_c, 1, 38, 127
8, 28292, Note_off_c, 1, 38, 127
8, 28320, Note_on_c, 1, 38, 127
8, 28359, Pitch_bend_c, 1, 9856
8, 28364, Pitch_bend_c, 1, 11776
8, 28371, Pitch_bend_c, 1, 14976
8, 28399, Pitch_bend_c, 1, 16383
8, 28415, Note_off_c, 1, 38, 127
8, 28416, Note_on_c, 1, 42, 127
8, 28428, Pitch_bend_c, 1, 8192
8, 28714, Note_off_c, 1, 42, 127
8, 28752, Note_on_c, 1, 30, 127
8, 28789, Note_off_c, 1, 30, 127
8, 28800, Note_on_c, 1, 30, 127
8, 29075, Note_off_c, 1, 30, 127
8, 29088, Note_on_c, 1, 35, 127
8, 29179, Note_off_c, 1, 35, 127
8, 29184, Note_on_c, 1, 38, 127
8, 29469, Note_off_c, 1, 38, 127
8, 29520, Note_on_c, 1, 38, 127
8, 29558, Note_off_c, 1, 38, 127
8, 29568, Note_on_c, 1, 38, 127
8, 29800, Note_off_c, 1, 38, 127
8, 29856, Note_on_c, 1, 38, 127
8, 29904, Pitch_bend_c, 1, 12032
8, 29911, Pitch_bend_c, 1, 13696
8, 29927, Pitch_bend_c, 1, 16256
8, 29949, Note_off_c, 1, 38, 127
8, 29952, Note_on_c, 1, 42, 127
8, 29954, Pitch_bend_c, 1, 8192
8, 30252, Note_off_c, 1, 42, 127
8, 30288, Note_on_c, 1, 30, 127
8, 30330, Note_off_c, 1, 30, 127
8, 30336, Note_on_c, 1, 30, 127
8, 30576, Note_off_c, 1, 30, 127
8, 30624, Note_on_c, 1, 35, 127
8, 30689, Pitch_bend_c, 1, 9984
8, 30697, Pitch_bend_c, 1, 11648
8, 30704, Pitch_bend_c, 1, 13824
8, 30709, Pitch_bend_c, 1, 15104
8, 30717, Note_off_c, 1, 35, 127
8, 30720, Note_on_c, 1, 38, 127
8, 30727, Pitch_bend_c, 1, 8192
8, 30999, Note_off_c, 1, 38, 127
8, 31056, Note_on_c, 1, 38, 127
8, 31104, Note_off_c, 1, 38, 127
8, 31104, Note_on_c, 1, 38, 127
8, 31259, Note_off_c, 1, 38, 127
8, 31296, Note_on_c, 1, 38, 127
8, 31386, Note_off_c, 1, 38, 127
8, 31392, Note_on_c, 1, 33, 127
8, 31476, Note_off_c, 1, 33, 127
8, 31488, Note_on_c, 1, 37, 127
8, 31545, Note_off_c, 1, 37, 127
8, 31584, Note_on_c, 1, 37, 123
8, 31676, Note_off_c, 1, 37, 123
8, 31680, Note_on_c, 1, 37, 127
8, 31753, Note_off_c, 1, 37, 127
8, 31776, Note_on_c, 1, 37, 127
8, 31835, Note_off_c, 1, 37, 127
8, 31872, Note_on_c, 1, 37, 127
8, 31944, Note_off_c, 1, 37, 127
8, 31968, Note_on_c, 1, 37, 127
8, 32041, Note_off_c, 1, 37, 127
8, 32064, Note_on_c, 1, 37, 127
8, 32116, Note_off_c, 1, 37, 127
8, 32160, Note_on_c, 1, 37, 127
8, 32203, Note_off_c, 1, 37, 127
8, 32220, Control_c, 1, 11, 127
8, 32224, Control_c, 1, 99, 1
8, 32224, Control_c, 1, 98, 33
8, 32224, Control_c, 1, 6, 70
8, 32256, Note_on_c, 1, 42, 127
8, 32306, Note_off_c, 1, 42, 127
8, 32352, Note_on_c, 1, 37, 127
8, 32404, Note_off_c, 1, 37, 127
8, 32448, Note_on_c, 1, 40, 127
8, 32503, Note_off_c, 1, 40, 127
8, 32544, Note_on_c, 1, 42, 127
8, 32595, Note_off_c, 1, 42, 127
8, 32640, Note_on_c, 1, 40, 127
8, 32696, Note_off_c, 1, 40, 127
8, 32736, Note_on_c, 1, 37, 127
8, 32787, Note_off_c, 1, 37, 127
8, 32832, Note_on_c, 1, 35, 127
8, 32893, Note_off_c, 1, 35, 127
8, 32928, Note_on_c, 1, 37, 127
8, 32982, Note_off_c, 1, 37, 127
8, 33024, Note_on_c, 1, 42, 127
8, 33071, Note_off_c, 1, 42, 127
8, 33120, Note_on_c, 1, 37, 127
8, 33168, Note_off_c, 1, 37, 127
8, 33216, Note_on_c, 1, 40, 127
8, 33269, Note_off_c, 1, 40, 127
8, 33312, Note_on_c, 1, 42, 127
8, 33358, Note_off_c, 1, 42, 127
8, 33408, Note_on_c, 1, 40, 127
8, 33467, Note_off_c, 1, 40, 127
8, 33504, Note_on_c, 1, 37, 127
8, 33558, Note_off_c, 1, 37, 127
8, 33600, Note_on_c, 1, 35, 127
8, 33665, Note_off_c, 1, 35, 127
8, 33696, Note_on_c, 1, 37, 127
8, 33747, Note_off_c, 1, 37, 127
8, 33792, Note_on_c, 1, 42, 127
8, 33842, Note_off_c, 1, 42, 127
8, 33888, Note_on_c, 1, 37, 127
8, 33940, Note_off_c, 1, 37, 127
8, 33984, Note_on_c, 1, 40, 127
8, 34039, Note_off_c, 1, 40, 127
8, 34080, Note_on_c, 1, 42, 127
8, 34131, Note_off_c, 1, 42, 127
8, 34176, Note_on_c, 1, 40, 127
8, 34232, Note_off_c, 1, 40, 127
8, 34272, Note_on_c, 1, 37, 127
8, 34323, Note_off_c, 1, 37, 127
8, 34368, Note_on_c, 1, 35, 127
8, 34429, Note_off_c, 1, 35, 127
8, 34464, Note_on_c, 1, 37, 127
8, 34518, Note_off_c, 1, 37, 127
8, 34560, Note_on_c, 1, 42, 127
8, 34607, Note_off_c, 1, 42, 127
8, 34656, Note_on_c, 1, 37, 127
8, 34704, Note_off_c, 1, 37, 127
8, 34752, Note_on_c, 1, 40, 127
8, 34805, Note_off_c, 1, 40, 127
8, 34848, Note_on_c, 1, 42, 127
8, 34894, Note_off_c, 1, 42, 127
8, 34944, Note_on_c, 1, 40, 127
8, 35003, Note_off_c, 1, 40, 127
8, 35040, Note_on_c, 1, 37, 127
8, 35094, Note_off_c, 1, 37, 127
8, 35136, Note_on_c, 1, 35, 127
8, 35201, Note_off_c, 1, 35, 127
8, 35232, Note_on_c, 1, 37, 127
8, 35283, Note_off_c, 1, 37, 127
8, 35328, Note_on_c, 1, 47, 127
8, 35376, Note_off_c, 1, 47, 127
8, 35424, Note_on_c, 1, 42, 127
8, 35459, Note_off_c, 1, 42, 127
8, 35520, Note_on_c, 1, 45, 127
8, 35572, Note_off_c, 1, 45, 127
8, 35616, Note_on_c, 1, 47, 127
8, 35686, Note_off_c, 1, 47, 127
8, 35808, Note_on_c, 1, 42, 127
8, 35864, Note_off_c, 1, 42, 127
8, 35904, Note_on_c, 1, 40, 127
8, 35964, Note_off_c, 1, 40, 127
8, 36000, Note_on_c, 1, 42, 127
8, 36052, Note_off_c, 1, 42, 127
8, 36096, Note_on_c, 1, 47, 127
8, 36145, Note_off_c, 1, 47, 127
8, 36192, Note_on_c, 1, 42, 127
8, 36242, Note_off_c, 1, 42, 127
8, 36288, Note_on_c, 1, 45, 127
8, 36345, Note_off_c, 1, 45, 127
8, 36384, Note_on_c, 1, 47, 127
8, 36452, Note_off_c, 1, 47, 127
8, 36576, Note_on_c, 1, 42, 127
8, 36639, Note_off_c, 1, 42, 127
8, 36672, Note_on_c, 1, 40, 127
8, 36732, Note_off_c, 1, 40, 127
8, 36768, Note_on_c, 1, 37, 127
8, 36831, Note_off_c, 1, 37, 127
8, 36864, Note_on_c, 1, 42, 127
8, 36914, Note_off_c, 1, 42, 127
8, 36960, Note_on_c, 1, 37, 127
8, 37012, Note_off_c, 1, 37, 127
8, 37056, Note_on_c, 1, 40, 127
8, 37111, Note_off_c, 1, 40, 127
8, 37152, Note_on_c, 1, 42, 127
8, 37203, Note_off_c, 1, 42, 127
8, 37248, Note_on_c, 1, 40, 127
8, 37304, Note_off_c, 1, 40, 127
8, 37344, Note_on_c, 1, 37, 127
8, 37395, Note_off_c, 1, 37, 127
8, 37440, Note_on_c, 1, 35, 127
8, 37501, Note_off_c, 1, 35, 127
8, 37536, Note_on_c, 1, 37, 127
8, 37590, Note_off_c, 1, 37, 127
8, 37632, Note_on_c, 1, 42, 127
8, 37679, Note_off_c, 1, 42, 127
8, 37728, Note_on_c, 1, 37, 127
8, 37776, Note_off_c, 1, 37, 127
8, 37824, Note_on_c, 1, 40, 127
8, 37877, Note_off_c, 1, 40, 127
8, 37920, Note_on_c, 1, 42, 127
8, 37966, Note_off_c, 1, 42, 127
8, 38016, Note_on_c, 1, 40, 127
8, 38075, Note_off_c, 1, 40, 127
8, 38112, Note_on_c, 1, 37, 127
8, 38166, Note_off_c, 1, 37, 127
8, 38208, Note_on_c, 1, 35, 127
8, 38273, Note_off_c, 1, 35, 127
8, 38304, Note_on_c, 1, 37, 127
8, 38355, Note_off_c, 1, 37, 127
8, 38400, Note_on_c, 1, 47, 127
8, 38448, Note_off_c, 1, 47, 127
8, 38496, Note_on_c, 1, 42, 127
8, 38531, Note_off_c, 1, 42, 127
8, 38592, Note_on_c, 1, 45, 127
8, 38644, Note_off_c, 1, 45, 127
8, 38688, Note_on_c, 1, 47, 127
8, 38758, Note_off_c, 1, 47, 127
8, 38880, Note_on_c, 1, 42, 127
8, 38936, Note_off_c, 1, 42, 127
8, 38976, Note_on_c, 1, 40, 127
8, 39036, Note_off_c, 1, 40, 127
8, 39072, Note_on_c, 1, 42, 127
8, 39124, Note_off_c, 1, 42, 127
8, 39168, Note_on_c, 1, 47, 127
8, 39217, Note_off_c, 1, 47, 127
8, 39264, Note_on_c, 1, 42, 127
8, 39314, Note_off_c, 1, 42, 127
8, 39360, Note_on_c, 1, 45, 127
8, 39417, Note_off_c, 1, 45, 127
8, 39456, Note_on_c, 1, 47, 127
8, 39524, Note_off_c, 1, 47, 127
8, 39648, Note_on_c, 1, 42, 127
8, 39711, Note_off_c, 1, 42, 127
8, 39744, Note_on_c, 1, 40, 127
8, 39804, Note_off_c, 1, 40, 127
8, 39840, Note_on_c, 1, 37, 127
8, 39903, Note_off_c, 1, 37, 127
8, 39936, Note_on_c, 1, 42, 127
8, 39986, Note_off_c, 1, 42, 127
8, 40032, Note_on_c, 1, 37, 127
8, 40084, Note_off_c, 1, 37, 127
8, 40128, Note_on_c, 1, 40, 127
8, 40183, Note_off_c, 1, 40, 127
8, 40224, Note_on_c, 1, 42, 127
8, 40275, Note_off_c, 1, 42, 127
8, 40320, Note_on_c, 1, 40, 127
8, 40376, Note_off_c, 1, 40, 127
8, 40416, Note_on_c, 1, 37, 127
8, 40467, Note_off_c, 1, 37, 127
8, 40512, Note_on_c, 1, 35, 127
8, 40573, Note_off_c, 1, 35, 127
8, 40608, Note_on_c, 1, 37, 127
8, 40662, Note_off_c, 1, 37, 127
8, 40704, Note_on_c, 1, 42, 127
8, 40751, Note_off_c, 1, 42, 127
8, 40800, Note_on_c, 1, 37, 127
8, 40848, Note_off_c, 1, 37, 127
8, 40896, Note_on_c, 1, 40, 127
8, 40949, Note_off_c, 1, 40, 127
8, 40992, Note_on_c, 1, 42, 127
8, 41038, Note_off_c, 1, 42, 127
8, 41088, Note_on_c, 1, 40, 127
8, 41147, Note_off_c, 1, 40, 127
8, 41184, Note_on_c, 1, 37, 127
8, 41238, Note_off_c, 1, 37, 127
8, 41280, Note_on_c, 1, 35, 127
8, 41345, Note_off_c, 1, 35, 127
8, 41376, Note_on_c, 1, 37, 127
8, 41427, Note_off_c, 1, 37, 127
8, 41472, Note_on_c, 1, 42, 127
8, 41519, Note_off_c, 1, 42, 127
8, 41568, Note_on_c, 1, 37, 127
8, 41616, Note_off_c, 1, 37, 127
8, 41664, Note_on_c, 1, 40, 127
8, 41717, Note_off_c, 1, 40, 127
8, 41760, Note_on_c, 1, 42, 127
8, 41806, Note_off_c, 1, 42, 127
8, 41856, Note_on_c, 1, 40, 127
8, 41915, Note_off_c, 1, 40, 127
8, 41952, Note_on_c, 1, 37, 127
8, 42006, Note_off_c, 1, 37, 127
8, 42048, Note_on_c, 1, 35, 127
8, 42113, Note_off_c, 1, 35, 127
8, 42144, Note_on_c, 1, 37, 127
8, 42195, Note_off_c, 1, 37, 127
8, 42240, Note_on_c, 1, 42, 127
8, 42290, Note_off_c, 1, 42, 127
8, 42336, Note_on_c, 1, 37, 127
8, 42388, Note_off_c, 1, 37, 127
8, 42432, Note_on_c, 1, 40, 127
8, 42487, Note_off_c, 1, 40, 127
8, 42528, Note_on_c, 1, 42, 127
8, 42579, Note_off_c, 1, 42, 127
8, 42624, Note_on_c, 1, 40, 127
8, 42680, Note_off_c, 1, 40, 127
8, 42720, Note_on_c, 1, 37, 127
8, 42771, Note_off_c, 1, 37, 127
8, 42816, Note_on_c, 1, 35, 127
8, 42877, Note_off_c, 1, 35, 127
8, 42912, Note_on_c, 1, 37, 127
8, 42966, Note_off_c, 1, 37, 127
8, 43008, Note_on_c, 1, 42, 127
8, 43055, Note_off_c, 1, 42, 127
8, 43104, Note_on_c, 1, 37, 127
8, 43152, Note_off_c, 1, 37, 127
8, 43200, Note_on_c, 1, 40, 127
8, 43253, Note_off_c, 1, 40, 127
8, 43296, Note_on_c, 1, 42, 127
8, 43342, Note_off_c, 1, 42, 127
8, 43392, Note_on_c, 1, 40, 127
8, 43451, Note_off_c, 1, 40, 127
8, 43488, Note_on_c, 1, 37, 127
8, 43542, Note_off_c, 1, 37, 127
8, 43584, Note_on_c, 1, 35, 127
8, 43649, Note_off_c, 1, 35, 127
8, 43680, Note_on_c, 1, 37, 127
8, 43731, Note_off_c, 1, 37, 127
8, 43776, Note_on_c, 1, 42, 127
8, 43826, Note_off_c, 1, 42, 127
8, 43872, Note_on_c, 1, 37, 127
8, 43924, Note_off_c, 1, 37, 127
8, 43968, Note_on_c, 1, 40, 127
8, 44023, Note_off_c, 1, 40, 127
8, 44064, Note_on_c, 1, 42, 127
8, 44115, Note_off_c, 1, 42, 127
8, 44160, Note_on_c, 1, 40, 127
8, 44216, Note_off_c, 1, 40, 127
8, 44256, Note_on_c, 1, 37, 127
8, 44307, Note_off_c, 1, 37, 127
8, 44352, Note_on_c, 1, 35, 127
8, 44413, Note_off_c, 1, 35, 127
8, 44448, Note_on_c, 1, 37, 127
8, 44502, Note_off_c, 1, 37, 127
8, 44544, Note_on_c, 1, 47, 127
8, 44592, Note_off_c, 1, 47, 127
8, 44640, Note_on_c, 1, 42, 127
8, 44675, Note_off_c, 1, 42, 127
8, 44736, Note_on_c, 1, 45, 127
8, 44788, Note_off_c, 1, 45, 127
8, 44832, Note_on_c, 1, 47, 127
8, 44902, Note_off_c, 1, 47, 127
8, 45024, Note_on_c, 1, 42, 127
8, 45080, Note_off_c, 1, 42, 127
8, 45120, Note_on_c, 1, 40, 127
8, 45180, Note_off_c, 1, 40, 127
8, 45216, Note_on_c, 1, 42, 127
8, 45268, Note_off_c, 1, 42, 127
8, 45312, Note_on_c, 1, 47, 127
8, 45361, Note_off_c, 1, 47, 127
8, 45408, Note_on_c, 1, 42, 127
8, 45458, Note_off_c, 1, 42, 127
8, 45504, Note_on_c, 1, 45, 127
8, 45561, Note_off_c, 1, 45, 127
8, 45600, Note_on_c, 1, 47, 127
8, 45668, Note_off_c, 1, 47, 127
8, 45792, Note_on_c, 1, 42, 127
8, 45855, Note_off_c, 1, 42, 127
8, 45888, Note_on_c, 1, 40, 127
8, 45948, Note_off_c, 1, 40, 127
8, 45984, Note_on_c, 1, 37, 127
8, 46047, Note_off_c, 1, 37, 127
8, 46080, Note_on_c, 1, 42, 127
8, 46130, Note_off_c, 1, 42, 127
8, 46176, Note_on_c, 1, 37, 127
8, 46228, Note_off_c, 1, 37, 127
8, 46272, Note_on_c, 1, 40, 127
8, 46327, Note_off_c, 1, 40, 127
8, 46368, Note_on_c, 1, 42, 127
8, 46419, Note_off_c, 1, 42, 127
8, 46464, Note_on_c, 1, 40, 127
8, 46520, Note_off_c, 1, 40, 127
8, 46560, Note_on_c, 1, 37, 127
8, 46611, Note_off_c, 1, 37, 127
8, 46656, Note_on_c, 1, 35, 127
8, 46717, Note_off_c, 1, 35, 127
8, 46752, Note_on_c, 1, 37, 127
8, 46806, Note_off_c, 1, 37, 127
8, 46848, Note_on_c, 1, 42, 127
8, 46895, Note_off_c, 1, 42, 127
8, 46944, Note_on_c, 1, 37, 127
8, 46992, Note_off_c, 1, 37, 127
8, 47040, Note_on_c, 1, 40, 127
8, 47093, Note_off_c, 1, 40, 127
8, 47136, Note_on_c, 1, 42, 127
8, 47182, Note_off_c, 1, 42, 127
8, 47232, Note_on_c, 1, 40, 127
8, 47291, Note_off_c, 1, 40, 127
8, 47328, Note_on_c, 1, 37, 127
8, 47382, Note_off_c, 1, 37, 127
8, 47424, Note_on_c, 1, 35, 127
8, 47489, Note_off_c, 1, 35, 127
8, 47520, Note_on_c, 1, 37, 127
8, 47571, Note_off_c, 1, 37, 127
8, 47616, Note_on_c, 1, 47, 127
8, 47664, Note_off_c, 1, 47, 127
8, 47712, Note_on_c, 1, 42, 127
8, 47747, Note_off_c, 1, 42, 127
8, 47808, Note_on_c, 1, 45, 127
8, 47860, Note_off_c, 1, 45, 127
8, 47904, Note_on_c, 1, 47, 127
8, 47974, Note_off_c, 1, 47, 127
8, 48096, Note_on_c, 1, 42, 127
8, 48152, Note_off_c, 1, 42, 127
8, 48192, Note_on_c, 1, 40, 127
8, 48252, Note_off_c, 1, 40, 127
8, 48288, Note_on_c, 1, 42, 127
8, 48340, Note_off_c, 1, 42, 127
8, 48384, Note_on_c, 1, 47, 127
8, 48433, Note_off_c, 1, 47, 127
8, 48480, Note_on_c, 1, 42, 127
8, 48530, Note_off_c, 1, 42, 127
8, 48576, Note_on_c, 1, 45, 127
8, 48633, Note_off_c, 1, 45, 127
8, 48672, Note_on_c, 1, 47, 127
8, 48740, Note_off_c, 1, 47, 127
8, 48864, Note_on_c, 1, 42, 127
8, 48927, Note_off_c, 1, 42, 127
8, 48960, Note_on_c, 1, 40, 127
8, 49020, Note_off_c, 1, 40, 127
8, 49056, Note_on_c, 1, 37, 127
8, 49119, Note_off_c, 1, 37, 127
8, 49152, Note_on_c, 1, 42, 127
8, 49202, Note_off_c, 1, 42, 127
8, 49248, Note_on_c, 1, 37, 127
8, 49300, Note_off_c, 1, 37, 127
8, 49344, Note_on_c, 1, 40, 127
8, 49399, Note_off_c, 1, 40, 127
8, 49440, Note_on_c, 1, 42, 127
8, 49491, Note_off_c, 1, 42, 127
8, 49536, Note_on_c, 1, 40, 127
8, 49592, Note_off_c, 1, 40, 127
8, 49632, Note_on_c, 1, 37, 127
8, 49683, Note_off_c, 1, 37, 127
8, 49728, Note_on_c, 1, 35, 127
8, 49789, Note_off_c, 1, 35, 127
8, 49824, Note_on_c, 1, 37, 127
8, 49878, Note_off_c, 1, 37, 127
8, 49920, Note_on_c, 1, 42, 127
8, 49967, Note_off_c, 1, 42, 127
8, 50016, Note_on_c, 1, 37, 127
8, 50064, Note_off_c, 1, 37, 127
8, 50112, Note_on_c, 1, 40, 127
8, 50165, Note_off_c, 1, 40, 127
8, 50208, Note_on_c, 1, 42, 127
8, 50254, Note_off_c, 1, 42, 127
8, 50304, Note_on_c, 1, 40, 127
8, 50363, Note_off_c, 1, 40, 127
8, 50400, Note_on_c, 1, 37, 127
8, 50454, Note_off_c, 1, 37, 127
8, 50496, Note_on_c, 1, 35, 127
8, 50561, Note_off_c, 1, 35, 127
8, 50592, Note_on_c, 1, 37, 127
8, 50643, Note_off_c, 1, 37, 127
8, 50688, Note_on_c, 1, 42, 127
8, 50738, Note_off_c, 1, 42, 127
8, 50784, Note_on_c, 1, 37, 127
8, 50836, Note_off_c, 1, 37, 127
8, 50880, Note_on_c, 1, 40, 127
8, 50935, Note_off_c, 1, 40, 127
8, 50976, Note_on_c, 1, 42, 127
8, 51027, Note_off_c, 1, 42, 127
8, 51072, Note_on_c, 1, 40, 127
8, 51128, Note_off_c, 1, 40, 127
8, 51168, Note_on_c, 1, 37, 127
8, 51219, Note_off_c, 1, 37, 127
8, 51264, Note_on_c, 1, 35, 127
8, 51325, Note_off_c, 1, 35, 127
8, 51360, Note_on_c, 1, 37, 127
8, 51414, Note_off_c, 1, 37, 127
8, 51456, Note_on_c, 1, 42, 127
8, 51503, Note_off_c, 1, 42, 127
8, 51552, Note_on_c, 1, 37, 127
8, 51600, Note_off_c, 1, 37, 127
8, 51648, Note_on_c, 1, 40, 127
8, 51701, Note_off_c, 1, 40, 127
8, 51744, Note_on_c, 1, 42, 127
8, 51790, Note_off_c, 1, 42, 127
8, 51840, Note_on_c, 1, 40, 127
8, 51899, Note_off_c, 1, 40, 127
8, 51936, Note_on_c, 1, 37, 127
8, 51990, Note_off_c, 1, 37, 127
8, 52032, Note_on_c, 1, 35, 127
8, 52097, Note_off_c, 1, 35, 127
8, 52128, Note_on_c, 1, 37, 127
8, 52179, Note_off_c, 1, 37, 127
8, 52224, Note_on_c, 1, 42, 127
8, 52274, Note_off_c, 1, 42, 127
8, 52320, Note_on_c, 1, 37, 127
8, 52372, Note_off_c, 1, 37, 127
8, 52416, Note_on_c, 1, 40, 127
8, 52471, Note_off_c, 1, 40, 127
8, 52512, Note_on_c, 1, 42, 127
8, 52563, Note_off_c, 1, 42, 127
8, 52608, Note_on_c, 1, 40, 127
8, 52664, Note_off_c, 1, 40, 127
8, 52704, Note_on_c, 1, 37, 127
8, 52755, Note_off_c, 1, 37, 127
8, 52800, Note_on_c, 1, 35, 127
8, 52861, Note_off_c, 1, 35, 127
8, 52896, Note_on_c, 1, 37, 127
8, 52950, Note_off_c, 1, 37, 127
8, 52992, Note_on_c, 1, 42, 127
8, 53039, Note_off_c, 1, 42, 127
8, 53088, Note_on_c, 1, 37, 127
8, 53136, Note_off_c, 1, 37, 127
8, 53184, Note_on_c, 1, 40, 127
8, 53237, Note_off_c, 1, 40, 127
8, 53280, Note_on_c, 1, 42, 127
8, 53326, Note_off_c, 1, 42, 127
8, 53376, Note_on_c, 1, 40, 127
8, 53435, Note_off_c, 1, 40, 127
8, 53472, Note_on_c, 1, 37, 127
8, 53526, Note_off_c, 1, 37, 127
8, 53568, Note_on_c, 1, 35, 127
8, 53633, Note_off_c, 1, 35, 127
8, 53664, Note_on_c, 1, 37, 127
8, 53715, Note_off_c, 1, 37, 127
8, 53760, Note_on_c, 1, 47, 127
8, 53808, Note_off_c, 1, 47, 127
8, 53856, Note_on_c, 1, 42, 127
8, 53891, Note_off_c, 1, 42, 127
8, 53952, Note_on_c, 1, 45, 127
8, 54004, Note_off_c, 1, 45, 127
8, 54048, Note_on_c, 1, 47, 127
8, 54118, Note_off_c, 1, 47, 127
8, 54240, Note_on_c, 1, 42, 127
8, 54296, Note_off_c, 1, 42, 127
8, 54336, Note_on_c, 1, 40, 127
8, 54396, Note_off_c, 1, 40, 127
8, 54432, Note_on_c, 1, 42, 127
8, 54484, Note_off_c, 1, 42, 127
8, 54528, Note_on_c, 1, 47, 127
8, 54577, Note_off_c, 1, 47, 127
8, 54624, Note_on_c, 1, 42, 127
8, 54674, Note_off_c, 1, 42, 127
8, 54720, Note_on_c, 1, 45, 127
8, 54777, Note_off_c, 1, 45, 127
8, 54816, Note_on_c, 1, 47, 127
8, 54884, Note_off_c, 1, 47, 127
8, 55008, Note_on_c, 1, 42, 127
8, 55071, Note_off_c, 1, 42, 127
8, 55104, Note_on_c, 1, 40, 127
8, 55164, Note_off_c, 1, 40, 127
8, 55200, Note_on_c, 1, 37, 127
8, 55263, Note_off_c, 1, 37, 127
8, 55296, Note_on_c, 1, 42, 127
8, 55346, Note_off_c, 1, 42, 127
8, 55392, Note_on_c, 1, 37, 127
8, 55444, Note_off_c, 1, 37, 127
8, 55488, Note_on_c, 1, 40, 127
8, 55543, Note_off_c, 1, 40, 127
8, 55584, Note_on_c, 1, 42, 127
8, 55635, Note_off_c, 1, 42, 127
8, 55680, Note_on_c, 1, 40, 127
8, 55736, Note_off_c, 1, 40, 127
8, 55776, Note_on_c, 1, 37, 127
8, 55827, Note_off_c, 1, 37, 127
8, 55872, Note_on_c, 1, 35, 127
8, 55933, Note_off_c, 1, 35, 127
8, 55968, Note_on_c, 1, 37, 127
8, 56022, Note_off_c, 1, 37, 127
8, 56064, Note_on_c, 1, 42, 127
8, 56111, Note_off_c, 1, 42, 127
8, 56160, Note_on_c, 1, 37, 127
8, 56208, Note_off_c, 1, 37, 127
8, 56256, Note_on_c, 1, 40, 127
8, 56309, Note_off_c, 1, 40, 127
8, 56352, Note_on_c, 1, 42, 127
8, 56398, Note_off_c, 1, 42, 127
8, 56448, Note_on_c, 1, 40, 127
8, 56507, Note_off_c, 1, 40, 127
8, 56544, Note_on_c, 1, 37, 127
8, 56598, Note_off_c, 1, 37, 127
8, 56640, Note_on_c, 1, 35, 127
8, 56705, Note_off_c, 1, 35, 127
8, 56736, Note_on_c, 1, 37, 127
8, 56783, Note_off_c, 1, 37, 127
8, 56800, Control_c, 1, 11, 127
8, 56800, Control_c, 1, 99, 1
8, 56800, Control_c, 1, 98, 33
8, 56803, Control_c, 1, 6, 64
8, 56832, Note_on_c, 1, 38, 127
8, 57138, Note_off_c, 1, 38, 127
8, 57168, Note_on_c, 1, 38, 127
8, 57211, Note_off_c, 1, 38, 127
8, 57216, Note_on_c, 1, 38, 127
8, 57467, Note_off_c, 1, 38, 127
8, 57504, Note_on_c, 1, 38, 127
8, 57539, Pitch_bend_c, 1, 8192
8, 57578, Pitch_bend_c, 1, 12160
8, 57587, Pitch_bend_c, 1, 13440
8, 57600, Note_on_c, 1, 42, 127
8, 57603, Note_off_c, 1, 38, 127
8, 57611, Pitch_bend_c, 1, 8192
8, 57893, Note_off_c, 1, 42, 127
8, 57936, Note_on_c, 1, 30, 127
8, 57976, Note_off_c, 1, 30, 127
8, 57984, Note_on_c, 1, 30, 127
8, 58187, Note_off_c, 1, 30, 127
8, 58272, Note_on_c, 1, 35, 127
8, 58360, Note_off_c, 1, 35, 127
8, 58368, Note_on_c, 1, 38, 127
8, 58658, Note_off_c, 1, 38, 127
8, 58704, Note_on_c, 1, 38, 127
8, 58752, Note_off_c, 1, 38, 127
8, 58752, Note_on_c, 1, 38, 127
8, 59012, Note_off_c, 1, 38, 127
8, 59040, Note_on_c, 1, 38, 127
8, 59079, Pitch_bend_c, 1, 9856
8, 59084, Pitch_bend_c, 1, 11776
8, 59119, Pitch_bend_c, 1, 16256
8, 59135, Note_off_c, 1, 38, 127
8, 59136, Note_on_c, 1, 42, 127
8, 59148, Pitch_bend_c, 1, 8192
8, 59434, Note_off_c, 1, 42, 127
8, 59472, Note_on_c, 1, 30, 127
8, 59509, Note_off_c, 1, 30, 127
8, 59520, Note_on_c, 1, 30, 127
8, 59795, Note_off_c, 1, 30, 127
8, 59808, Note_on_c, 1, 35, 127
8, 59899, Note_off_c, 1, 35, 127
8, 59904, Note_on_c, 1, 38, 127
8, 60189, Note_off_c, 1, 38, 127
8, 60240, Note_on_c, 1, 38, 127
8, 60278, Note_off_c, 1, 38, 127
8, 60288, Note_on_c, 1, 38, 127
8, 60520, Note_off_c, 1, 38, 127
8, 60576, Note_on_c, 1, 38, 127
8, 60617, Pitch_bend_c, 1, 11520
8, 60631, Pitch_bend_c, 1, 15872
8, 60647, Pitch_bend_c, 1, 16256
8, 60669, Note_off_c, 1, 38, 127
8, 60672, Note_on_c, 1, 42, 127
8, 60674, Pitch_bend_c, 1, 8192
8, 60972, Note_off_c, 1, 42, 127
8, 61008, Note_on_c, 1, 30, 127
8, 61050, Note_off_c, 1, 30, 127
8, 61056, Note_on_c, 1, 30, 127
8, 61296, Note_off_c, 1, 30, 127
8, 61344, Note_on_c, 1, 35, 127
8, 61409, Pitch_bend_c, 1, 9984
8, 61417, Pitch_bend_c, 1, 11648
8, 61424, Pitch_bend_c, 1, 13824
8, 61429, Pitch_bend_c, 1, 15104
8, 61437, Note_off_c, 1, 35, 127
8, 61440, Note_on_c, 1, 38, 127
8, 61447, Pitch_bend_c, 1, 8192
8, 61719, Note_off_c, 1, 38, 127
8, 61776, Note_on_c, 1, 38, 127
8, 61824, Note_off_c, 1, 38, 127
8, 61824, Note_on_c, 1, 38, 127
8, 61979, Note_off_c, 1, 38, 127
8, 62016, Note_on_c, 1, 38, 127
8, 62106, Note_off_c, 1, 38, 127
8, 62112, Note_on_c, 1, 33, 127
8, 62196, Note_off_c, 1, 33, 127
8, 62208, Note_on_c, 1, 37, 127
8, 62265, Note_off_c, 1, 37, 127
8, 62304, Note_on_c, 1, 37, 123
8, 62396, Note_off_c, 1, 37, 123
8, 62400, Note_on_c, 1, 37, 127
8, 62473, Note_off_c, 1, 37, 127
8, 62496, Note_on_c, 1, 37, 127
8, 62555, Note_off_c, 1, 37, 127
8, 62592, Note_on_c, 1, 37, 127
8, 62664, Note_off_c, 1, 37, 127
8, 62688, Note_on_c, 1, 37, 127
8, 62761, Note_off_c, 1, 37, 127
8, 62784, Note_on_c, 1, 37, 127
8, 62836, Note_off_c, 1, 37, 127
8, 62880, Note_on_c, 1, 37, 127
8, 62927, Note_off_c, 1, 37, 127
8, 62943, Control_c, 1, 11, 127
8, 62947, Control_c, 1, 99, 1
8, 62948, Control_c, 1, 98, 33
8, 62950, Control_c, 1, 6, 70
8, 62976, Note_on_c, 1, 42, 127
8, 63026, Note_off_c, 1, 42, 127
8, 63072, Note_on_c, 1, 37, 127
8, 63124, Note_off_c, 1, 37, 127
8, 63168, Note_on_c, 1, 40, 127
8, 63223, Note_off_c, 1, 40, 127
8, 63264, Note_on_c, 1, 42, 127
8, 63315, Note_off_c, 1, 42, 127
8, 63360, Note_on_c, 1, 40, 127
8, 63416, Note_off_c, 1, 40, 127
8, 63456, Note_on_c, 1, 37, 127
8, 63507, Note_off_c, 1, 37, 127
8, 63552, Note_on_c, 1, 35, 127
8, 63613, Note_off_c, 1, 35, 127
8, 63648, Note_on_c, 1, 37, 127
8, 63702, Note_off_c, 1, 37, 127
8, 63744, Note_on_c, 1, 42, 127
8, 63791, Note_off_c, 1, 42, 127
8, 63840, Note_on_c, 1, 37, 127
8, 63888, Note_off_c, 1, 37, 127
8, 63936, Note_on_c, 1, 40, 127
8, 63989, Note_off_c, 1, 40, 127
8, 64032, Note_on_c, 1, 42, 127
8, 64078, Note_off_c, 1, 42, 127
8, 64128, Note_on_c, 1, 40, 127
8, 64187, Note_off_c, 1, 40, 127
8, 64224, Note_on_c, 1, 37, 127
8, 64278, Note_off_c, 1, 37, 127
8, 64320, Note_on_c, 1, 35, 127
8, 64385, Note_off_c, 1, 35, 127
8, 64416, Note_on_c, 1, 37, 127
8, 64467, Note_off_c, 1, 37, 127
8, 64512, Note_on_c, 1, 42, 127
8, 64562, Note_off_c, 1, 42, 127
8, 64608, Note_on_c, 1, 37, 127
8, 64660, Note_off_c, 1, 37, 127
8, 64704, Note_on_c, 1, 40, 127
8, 64759, Note_off_c, 1, 40, 127
8, 64800, Note_on_c, 1, 42, 127
8, 64851, Note_off_c, 1, 42, 127
8, 64896, Note_on_c, 1, 40, 127
8, 64952, Note_off_c, 1, 40, 127
8, 64992, Note_on_c, 1, 37, 127
8, 65043, Note_off_c, 1, 37, 127
8, 65088, Note_on_c, 1, 35, 127
8, 65149, Note_off_c, 1, 35, 127
8, 65184, Note_on_c, 1, 37, 127
8, 65238, Note_off_c, 1, 37, 127
8, 65280, Note_on_c, 1, 42, 127
8, 65327, Note_off_c, 1, 42, 127
8, 65376, Note_on_c, 1, 37, 127
8, 65424, Note_off_c, 1, 37, 127
8, 65472, Note_on_c, 1, 40, 127
8, 65525, Note_off_c, 1, 40, 127
8, 65568, Note_on_c, 1, 42, 127
8, 65614, Note_off_c, 1, 42, 127
8, 65664, Note_on_c, 1, 40, 127
8, 65723, Note_off_c, 1, 40, 127
8, 65760, Note_on_c, 1, 37, 127
8, 65814, Note_off_c, 1, 37, 127
8, 65856, Note_on_c, 1, 35, 127
8, 65921, Note_off_c, 1, 35, 127
8, 65952, Note_on_c, 1, 37, 127
8, 66003, Note_off_c, 1, 37, 127
8, 66048, Note_on_c, 1, 47, 127
8, 66096, Note_off_c, 1, 47, 127
8, 66144, Note_on_c, 1, 42, 127
8, 66179, Note_off_c, 1, 42, 127
8, 66240, Note_on_c, 1, 45, 127
8, 66292, Note_off_c, 1, 45, 127
8, 66336, Note_on_c, 1, 47, 127
8, 66406, Note_off_c, 1, 47, 127
8, 66528, Note_on_c, 1, 42, 127
8, 66584, Note_off_c, 1, 42, 127
8, 66624, Note_on_c, 1, 40, 127
8, 66684, Note_off_c, 1, 40, 127
8, 66720, Note_on_c, 1, 42, 127
8, 66772, Note_off_c, 1, 42, 127
8, 66816, Note_on_c, 1, 47, 127
8, 66865, Note_off_c, 1, 47, 127
8, 66912, Note_on_c, 1, 42, 127
8, 66962, Note_off_c, 1, 42, 127
8, 67008, Note_on_c, 1, 45, 127
8, 67065, Note_off_c, 1, 45, 127
8, 67104, Note_on_c, 1, 47, 127
8, 67172, Note_off_c, 1, 47, 127
8, 67296, Note_on_c, 1, 42, 127
8, 67359, Note_off_c, 1, 42, 127
8, 67392, Note_on_c, 1, 40, 127
8, 67452, Note_off_c, 1, 40, 127
8, 67488, Note_on_c, 1, 37, 127
8, 67551, Note_off_c, 1, 37, 127
8, 67584, Note_on_c, 1, 42, 127
8, 67634, Note_off_c, 1, 42, 127
8, 67680, Note_on_c, 1, 37, 127
8, 67732, Note_off_c, 1, 37, 127
8, 67776, Note_on_c, 1, 40, 127
8, 67831, Note_off_c, 1, 40, 127
8, 67872, Note_on_c, 1, 42, 127
8, 67923, Note_off_c, 1, 42, 127
8, 67968, Note_on_c, 1, 40, 127
8, 68024, Note_off_c, 1, 40, 127
8, 68064, Note_on_c, 1, 37, 127
8, 68115, Note_off_c, 1, 37, 127
8, 68160, Note_on_c, 1, 35, 127
8, 68221, Note_off_c, 1, 35, 127
8, 68256, Note_on_c, 1, 37, 127
8, 68310, Note_off_c, 1, 37, 127
8, 68352, Note_on_c, 1, 42, 127
8, 68399, Note_off_c, 1, 42, 127
8, 68448, Note_on_c, 1, 37, 127
8, 68496, Note_off_c, 1, 37, 127
8, 68544, Note_on_c, 1, 40, 127
8, 68597, Note_off_c, 1, 40, 127
8, 68640, Note_on_c, 1, 42, 127
8, 68686, Note_off_c, 1, 42, 127
8, 68736, Note_on_c, 1, 40, 127
8, 68795, Note_off_c, 1, 40, 127
8, 68832, Note_on_c, 1, 37, 127
8, 68886, Note_off_c, 1, 37, 127
8, 68928, Note_on_c, 1, 35, 127
8, 68993, Note_off_c, 1, 35, 127
8, 69024, Note_on_c, 1, 37, 127
8, 69075, Note_off_c, 1, 37, 127
8, 69120, Note_on_c, 1, 42, 127
8, 69170, Note_off_c, 1, 42, 127
8, 69216, Note_on_c, 1, 37, 127
8, 69268, Note_off_c, 1, 37, 127
8, 69312, Note_on_c, 1, 40, 127
8, 69367, Note_off_c, 1, 40, 127
8, 69408, Note_on_c, 1, 42, 127
8, 69459, Note_off_c, 1, 42, 127
8, 69504, Note_on_c, 1, 40, 127
8, 69560, Note_off_c, 1, 40, 127
8, 69600, Note_on_c, 1, 37, 127
8, 69651, Note_off_c, 1, 37, 127
8, 69696, Note_on_c, 1, 35, 127
8, 69757, Note_off_c, 1, 35, 127
8, 69792, Note_on_c, 1, 37, 127
8, 69846, Note_off_c, 1, 37, 127
8, 69888, Note_on_c, 1, 42, 127
8, 69935, Note_off_c, 1, 42, 127
8, 69984, Note_on_c, 1, 37, 127
8, 70032, Note_off_c, 1, 37, 127
8, 70080, Note_on_c, 1, 40, 127
8, 70133, Note_off_c, 1, 40, 127
8, 70176, Note_on_c, 1, 42, 127
8, 70222, Note_off_c, 1, 42, 127
8, 70272, Note_on_c, 1, 40, 127
8, 70331, Note_off_c, 1, 40, 127
8, 70368, Note_on_c, 1, 37, 127
8, 70422, Note_off_c, 1, 37, 127
8, 70464, Note_on_c, 1, 35, 127
8, 70529, Note_off_c, 1, 35, 127
8, 70560, Note_on_c, 1, 37, 127
8, 70611, Note_off_c, 1, 37, 127
8, 70656, Note_on_c, 1, 42, 127
8, 70706, Note_off_c, 1, 42, 127
8, 70752, Note_on_c, 1, 37, 127
8, 70804, Note_off_c, 1, 37, 127
8, 70848, Note_on_c, 1, 40, 127
8, 70903, Note_off_c, 1, 40, 127
8, 70944, Note_on_c, 1, 42, 127
8, 70995, Note_off_c, 1, 42, 127
8, 71040, Note_on_c, 1, 40, 127
8, 71096, Note_off_c, 1, 40, 127
8, 71136, Note_on_c, 1, 37, 127
8, 71187, Note_off_c, 1, 37, 127
8, 71232, Note_on_c, 1, 35, 127
8, 71293, Note_off_c, 1, 35, 127
8, 71328, Note_on_c, 1, 37, 127
8, 71382, Note_off_c, 1, 37, 127
8, 71424, Note_on_c, 1, 42, 127
8, 71471, Note_off_c, 1, 42, 127
8, 71520, Note_on_c, 1, 37, 127
8, 71568, Note_off_c, 1, 37, 127
8, 71616, Note_on_c, 1, 40, 127
8, 71669, Note_off_c, 1, 40, 127
8, 71712, Note_on_c, 1, 42, 127
8, 71758, Note_off_c, 1, 42, 127
8, 71808, Note_on_c, 1, 40, 127
8, 71867, Note_off_c, 1, 40, 127
8, 71904, Note_on_c, 1, 37, 127
8, 71958, Note_off_c, 1, 37, 127
8, 72000, Note_on_c, 1, 35, 127
8, 72065, Note_off_c, 1, 35, 127
8, 72096, Note_on_c, 1, 37, 127
8, 72147, Note_off_c, 1, 37, 127
8, 72192, Note_on_c, 1, 47, 127
8, 72240, Note_off_c, 1, 47, 127
8, 72288, Note_on_c, 1, 42, 127
8, 72323, Note_off_c, 1, 42, 127
8, 72384, Note_on_c, 1, 45, 127
8, 72436, Note_off_c, 1, 45, 127
8, 72480, Note_on_c, 1, 47, 127
8, 72550, Note_off_c, 1, 47, 127
8, 72672, Note_on_c, 1, 42, 127
8, 72728, Note_off_c, 1, 42, 127
8, 72768, Note_on_c, 1, 40, 127
8, 72828, Note_off_c, 1, 40, 127
8, 72864, Note_on_c, 1, 42, 127
8, 72916, Note_off_c, 1, 42, 127
8, 72960, Note_on_c, 1, 47, 127
8, 73009, Note_off_c, 1, 47, 127
8, 73056, Note_on_c, 1, 42, 127
8, 73106, Note_off_c, 1, 42, 127
8, 73152, Note_on_c, 1, 45, 127
8, 73209, Note_off_c, 1, 45, 127
8, 73248, Note_on_c, 1, 47, 127
8, 73316, Note_off_c, 1, 47, 127
8, 73440, Note_on_c, 1, 42, 127
8, 73503, Note_off_c, 1, 42, 127
8, 73536, Note_on_c, 1, 40, 127
8, 73596, Note_off_c, 1, 40, 127
8, 73632, Note_on_c, 1, 37, 127
8, 73695, Note_off_c, 1, 37, 127
8, 73728, Note_on_c, 1, 42, 127
8, 73778, Note_off_c, 1, 42, 127
8, 73824, Note_on_c, 1, 37, 127
8, 73876, Note_off_c, 1, 37, 127
8, 73920, Note_on_c, 1, 40, 127
8, 73975, Note_off_c, 1, 40, 127
8, 74016, Note_on_c, 1, 42, 127
8, 74067, Note_off_c, 1, 42, 127
8, 74112, Note_on_c, 1, 40, 127
8, 74168, Note_off_c, 1, 40, 127
8, 74208, Note_on_c, 1, 37, 127
8, 74259, Note_off_c, 1, 37, 127
8, 74304, Note_on_c, 1, 35, 127
8, 74365, Note_off_c, 1, 35, 127
8, 74400, Note_on_c, 1, 37, 127
8, 74454, Note_off_c, 1, 37, 127
8, 74496, Note_on_c, 1, 42, 127
8, 74543, Note_off_c, 1, 42, 127
8, 74592, Note_on_c, 1, 37, 127
8, 74640, Note_off_c, 1, 37, 127
8, 74688, Note_on_c, 1, 40, 127
8, 74741, Note_off_c, 1, 40, 127
8, 74784, Note_on_c, 1, 42, 127
8, 74830, Note_off_c, 1, 42, 127
8, 74880, Note_on_c, 1, 40, 127
8, 74939, Note_off_c, 1, 40, 127
8, 74976, Note_on_c, 1, 37, 127
8, 75030, Note_off_c, 1, 37, 127
8, 75072, Note_on_c, 1, 35, 127
8, 75137, Note_off_c, 1, 35, 127
8, 75168, Note_on_c, 1, 37, 127
8, 75219, Note_off_c, 1, 37, 127
8, 75264, Note_on_c, 1, 47, 127
8, 75312, Note_off_c, 1, 47, 127
8, 75360, Note_on_c, 1, 42, 127
8, 75395, Note_off_c, 1, 42, 127
8, 75456, Note_on_c, 1, 45, 127
8, 75508, Note_off_c, 1, 45, 127
8, 75552, Note_on_c, 1, 47, 127
8, 75622, Note_off_c, 1, 47, 127
8, 75744, Note_on_c, 1, 42, 127
8, 75800, Note_off_c, 1, 42, 127
8, 75840, Note_on_c, 1, 40, 127
8, 75900, Note_off_c, 1, 40, 127
8, 75936, Note_on_c, 1, 42, 127
8, 75988, Note_off_c, 1, 42, 127
8, 76032, Note_on_c, 1, 47, 127
8, 76081, Note_off_c, 1, 47, 127
8, 76128, Note_on_c, 1, 42, 127
8, 76178, Note_off_c, 1, 42, 127
8, 76224, Note_on_c, 1, 45, 127
8, 76281, Note_off_c, 1, 45, 127
8, 76320, Note_on_c, 1, 47, 127
8, 76388, Note_off_c, 1, 47, 127
8, 76512, Note_on_c, 1, 42, 127
8, 76575, Note_off_c, 1, 42, 127
8, 76608, Note_on_c, 1, 40, 127
8, 76668, Note_off_c, 1, 40, 127
8, 76704, Note_on_c, 1, 37, 127
8, 76767, Note_off_c, 1, 37, 127
8, 76800, Note_on_c, 1, 42, 127
8, 76850, Note_off_c, 1, 42, 127
8, 76896, Note_on_c, 1, 37, 127
8, 76948, Note_off_c, 1, 37, 127
8, 76992, Note_on_c, 1, 40, 127
8, 77047, Note_off_c, 1, 40, 127
8, 77088, Note_on_c, 1, 42, 127
8, 77139, Note_off_c, 1, 42, 127
8, 77184, Note_on_c, 1, 40, 127
8, 77240, Note_off_c, 1, 40, 127
8, 77280, Note_on_c, 1, 37, 127
8, 77331, Note_off_c, 1, 37, 127
8, 77376, Note_on_c, 1, 35, 127
8, 77437, Note_off_c, 1, 35, 127
8, 77472, Note_on_c, 1, 37, 127
8, 77526, Note_off_c, 1, 37, 127
8, 77568, Note_on_c, 1, 42, 127
8, 77615, Note_off_c, 1, 42, 127
8, 77664, Note_on_c, 1, 37, 127
8, 77712, Note_off_c, 1, 37, 127
8, 77760, Note_on_c, 1, 40, 127
8, 77813, Note_off_c, 1, 40, 127
8, 77856, Note_on_c, 1, 42, 127
8, 77902, Note_off_c, 1, 42, 127
8, 77952, Note_on_c, 1, 40, 127
8, 78011, Note_off_c, 1, 40, 127
8, 78048, Note_on_c, 1, 37, 127
8, 78102, Note_off_c, 1, 37, 127
8, 78144, Note_on_c, 1, 35, 127
8, 78209, Note_off_c, 1, 35, 127
8, 78240, Note_on_c, 1, 37, 127
8, 78291, Note_off_c, 1, 37, 127
8, 78336, Note_on_c, 1, 42, 127
8, 78386, Note_off_c, 1, 42, 127
8, 78432, Note_on_c, 1, 37, 127
8, 78484, Note_off_c, 1, 37, 127
8, 78528, Note_on_c, 1, 40, 127
8, 78583, Note_off_c, 1, 40, 127
8, 78624, Note_on_c, 1, 42, 127
8, 78675, Note_off_c, 1, 42, 127
8, 78720, Note_on_c, 1, 40, 127
8, 78776, Note_off_c, 1, 40, 127
8, 78816, Note_on_c, 1, 37, 127
8, 78867, Note_off_c, 1, 37, 127
8, 78912, Note_on_c, 1, 35, 127
8, 78973, Note_off_c, 1, 35, 127
8, 79008, Note_on_c, 1, 37, 127
8, 79062, Note_off_c, 1, 37, 127
8, 79104, Note_on_c, 1, 42, 127
8, 79151, Note_off_c, 1, 42, 127
8, 79200, Note_on_c, 1, 37, 127
8, 79248, Note_off_c, 1, 37, 127
8, 79296, Note_on_c, 1, 40, 127
8, 79349, Note_off_c, 1, 40, 127
8, 79392, Note_on_c, 1, 42, 127
8, 79438, Note_off_c, 1, 42, 127
8, 79488, Note_on_c, 1, 40, 127
8, 79547, Note_off_c, 1, 40, 127
8, 79584, Note_on_c, 1, 37, 127
8, 79638, Note_off_c, 1, 37, 127
8, 79680, Note_on_c, 1, 35, 127
8, 79745, Note_off_c, 1, 35, 127
8, 79776, Note_on_c, 1, 37, 127
8, 79827, Note_off_c, 1, 37, 127
8, 79872, Note_on_c, 1, 42, 127
8, 79922, Note_off_c, 1, 42, 127
8, 79968, Note_on_c, 1, 37, 127
8, 80020, Note_off_c, 1, 37, 127
8, 80064, Note_on_c, 1, 40, 127
8, 80119, Note_off_c, 1, 40, 127
8, 80160, Note_on_c, 1, 42, 127
8, 80211, Note_off_c, 1, 42, 127
8, 80256, Note_on_c, 1, 40, 127
8, 80312, Note_off_c, 1, 40, 127
8, 80352, Note_on_c, 1, 37, 127
8, 80403, Note_off_c, 1, 37, 127
8, 80448, Note_on_c, 1, 35, 127
8, 80509, Note_off_c, 1, 35, 127
8, 80544, Note_on_c, 1, 37, 127
8, 80598, Note_off_c, 1, 37, 127
8, 80640, Note_on_c, 1, 42, 127
8, 80687, Note_off_c, 1, 42, 127
8, 80736, Note_on_c, 1, 37, 127
8, 80784, Note_off_c, 1, 37, 127
8, 80832, Note_on_c, 1, 40, 127
8, 80885, Note_off_c, 1, 40, 127
8, 80928, Note_on_c, 1, 42, 127
8, 80974, Note_off_c, 1, 42, 127
8, 81024, Note_on_c, 1, 40, 127
8, 81083, Note_off_c, 1, 40, 127
8, 81120, Note_on_c, 1, 37, 127
8, 81174, Note_off_c, 1, 37, 127
8, 81216, Note_on_c, 1, 35, 127
8, 81281, Note_off_c, 1, 35, 127
8, 81312, Note_on_c, 1, 37, 127
8, 81363, Note_off_c, 1, 37, 127
8, 81408, Note_on_c, 1, 42, 127
8, 81458, Note_off_c, 1, 42, 127
8, 81504, Note_on_c, 1, 37, 127
8, 81556, Note_off_c, 1, 37, 127
8, 81600, Note_on_c, 1, 40, 127
8, 81655, Note_off_c, 1, 40, 127
8, 81696, Note_on_c, 1, 42, 127
8, 81747, Note_off_c, 1, 42, 127
8, 81792, Note_on_c, 1, 40, 127
8, 81848, Note_off_c, 1, 40, 127
8, 81888, Note_on_c, 1, 37, 127
8, 81939, Note_off_c, 1, 37, 127
8, 81984, Note_on_c, 1, 35, 127
8, 82045, Note_off_c, 1, 35, 127
8, 82080, Note_on_c, 1, 37, 127
8, 82134, Note_off_c, 1, 37, 127
8, 82176, Note_on_c, 1, 42, 127
8, 82223, Note_off_c, 1, 42, 127
8, 82272, Note_on_c, 1, 37, 127
8, 82320, Note_off_c, 1, 37, 127
8, 82368, Note_on_c, 1, 40, 127
8, 82421, Note_off_c, 1, 40, 127
8, 82464, Note_on_c, 1, 42, 127
8, 82510, Note_off_c, 1, 42, 127
8, 82560, Note_on_c, 1, 40, 127
8, 82619, Note_off_c, 1, 40, 127
8, 82656, Note_on_c, 1, 37, 127
8, 82710, Note_off_c, 1, 37, 127
8, 82752, Note_on_c, 1, 35, 127
8, 82817, Note_off_c, 1, 35, 127
8, 82848, Note_on_c, 1, 37, 127
8, 82899, Note_off_c, 1, 37, 127
8, 82944, Note_on_c, 1, 42, 127
8, 82994, Note_off_c, 1, 42, 127
8, 83040, Note_on_c, 1, 37, 127
8, 83092, Note_off_c, 1, 37, 127
8, 83136, Note_on_c, 1, 40, 127
8, 83191, Note_off_c, 1, 40, 127
8, 83232, Note_on_c, 1, 42, 127
8, 83283, Note_off_c, 1, 42, 127
8, 83328, Note_on_c, 1, 40, 127
8, 83384, Note_off_c, 1, 40, 127
8, 83424, Note_on_c, 1, 37, 127
8, 83475, Note_off_c, 1, 37, 127
8, 83520, Note_on_c, 1, 35, 127
8, 83581, Note_off_c, 1, 35, 127
8, 83616, Note_on_c, 1, 37, 127
8, 83670, Note_off_c, 1, 37, 127
8, 83712, Note_on_c, 1, 42, 127
8, 83759, Note_off_c, 1, 42, 127
8, 83808, Note_on_c, 1, 37, 127
8, 83856, Note_off_c, 1, 37, 127
8, 83904, Note_on_c, 1, 40, 127
8, 83957, Note_off_c, 1, 40, 127
8, 84000, Note_on_c, 1, 42, 127
8, 84046, Note_off_c, 1, 42, 127
8, 84096, Note_on_c, 1, 40, 127
8, 84155, Note_off_c, 1, 40, 127
8, 84192, Note_on_c, 1, 37, 127
8, 84246, Note_off_c, 1, 37, 127
8, 84288, Note_on_c, 1, 35, 127
8, 84353, Note_off_c, 1, 35, 127
8, 84384, Note_on_c, 1, 37, 127
8, 84435, Note_off_c, 1, 37, 127
8, 84480, Note_on_c, 1, 47, 127
8, 84528, Note_off_c, 1, 47, 127
8, 84576, Note_on_c, 1, 42, 127
8, 84611, Note_off_c, 1, 42, 127
8, 84672, Note_on_c, 1, 45, 127
8, 84724, Note_off_c, 1, 45, 127
8, 84768, Note_on_c, 1, 47, 127
8, 84838, Note_off_c, 1, 47, 127
8, 84960, Note_on_c, 1, 42, 127
8, 85016, Note_off_c, 1, 42, 127
8, 85056, Note_on_c, 1, 40, 127
8, 85116, Note_off_c, 1, 40, 127
8, 85152, Note_on_c, 1, 42, 127
8, 85204, Note_off_c, 1, 42, 127
8, 85248, Note_on_c, 1, 47, 127
8, 85297, Note_off_c, 1, 47, 127
8, 85344, Note_on_c, 1, 42, 127
8, 85394, Note_off_c, 1, 42, 127
8, 85440, Note_on_c, 1, 45, 127
8, 85497, Note_off_c, 1, 45, 127
8, 85536, Note_on_c, 1, 47, 127
8, 85604, Note_off_c, 1, 47, 127
8, 85728, Note_on_c, 1, 42, 127
8, 85791, Note_off_c, 1, 42, 127
8, 85824, Note_on_c, 1, 40, 127
8, 85884, Note_off_c, 1, 40, 127
8, 85920, Note_on_c, 1, 37, 127
8, 85983, Note_off_c, 1, 37, 127
8, 86016, Note_on_c, 1, 42, 127
8, 86066, Note_off_c, 1, 42, 127
8, 86112, Note_on_c, 1, 37, 127
8, 86164, Note_off_c, 1, 37, 127
8, 86208, Note_on_c, 1, 40, 127
8, 86263, Note_off_c, 1, 40, 127
8, 86304, Note_on_c, 1, 42, 127
8, 86355, Note_off_c, 1, 42, 127
8, 86400, Note_on_c, 1, 40, 127
8, 86456, Note_off_c, 1, 40, 127
8, 86496, Note_on_c, 1, 37, 127
8, 86547, Note_off_c, 1, 37, 127
8, 86592, Note_on_c, 1, 35, 127
8, 86653, Note_off_c, 1, 35, 127
8, 86688, Note_on_c, 1, 37, 127
8, 86742, Note_off_c, 1, 37, 127
8, 86784, Note_on_c, 1, 42, 127
8, 86831, Note_off_c, 1, 42, 127
8, 86880, Note_on_c, 1, 37, 127
8, 86928, Note_off_c, 1, 37, 127
8, 86976, Note_on_c, 1, 40, 127
8, 87029, Note_off_c, 1, 40, 127
8, 87072, Note_on_c, 1, 42, 127
8, 87118, Note_off_c, 1, 42, 127
8, 87168, Note_on_c, 1, 40, 127
8, 87227, Note_off_c, 1, 40, 127
8, 87264, Note_on_c, 1, 37, 127
8, 87318, Note_off_c, 1, 37, 127
8, 87360, Note_on_c, 1, 35, 127
8, 87425, Note_off_c, 1, 35, 127
8, 87456, Note_on_c, 1, 37, 127
8, 87507, Note_off_c, 1, 37, 127
8, 87552, Note_on_c, 1, 42, 127
8, 87602, Note_off_c, 1, 42, 127
8, 87648, Note_on_c, 1, 37, 127
8, 87700, Note_off_c, 1, 37, 127
8, 87744, Note_on_c, 1, 40, 127
8, 87799, Note_off_c, 1, 40, 127
8, 87840, Note_on_c, 1, 42, 127
8, 87891, Note_off_c, 1, 42, 127
8, 87936, Note_on_c, 1, 40, 127
8, 87992, Note_off_c, 1, 40, 127
8, 88032, Note_on_c, 1, 37, 127
8, 88083, Note_off_c, 1, 37, 127
8, 88128, Note_on_c, 1, 35, 127
8, 88189, Note_off_c, 1, 35, 127
8, 88224, Note_on_c, 1, 37, 127
8, 88278, Note_off_c, 1, 37, 127
8, 88320, Note_on_c, 1, 42, 127
8, 88367, Note_off_c, 1, 42, 127
8, 88416, Note_on_c, 1, 37, 127
8, 88464, Note_off_c, 1, 37, 127
8, 88512, Note_on_c, 1, 40, 127
8, 88565, Note_off_c, 1, 40, 127
8, 88608, Note_on_c, 1, 42, 127
8, 88654, Note_off_c, 1, 42, 127
8, 88704, Note_on_c, 1, 40, 127
8, 88763, Note_off_c, 1, 40, 127
8, 88800, Note_on_c, 1, 37, 127
8, 88854, Note_off_c, 1, 37, 127
8, 88896, Note_on_c, 1, 35, 127
8, 88961, Note_off_c, 1, 35, 127
8, 88992, Note_on_c, 1, 37, 127
8, 89043, Note_off_c, 1, 37, 127
8, 89088, Note_on_c, 1, 42, 127
8, 89138, Note_off_c, 1, 42, 127
8, 89184, Note_on_c, 1, 37, 127
8, 89236, Note_off_c, 1, 37, 127
8, 89280, Note_on_c, 1, 40, 127
8, 89335, Note_off_c, 1, 40, 127
8, 89376, Note_on_c, 1, 42, 127
8, 89427, Note_off_c, 1, 42, 127
8, 89472, Note_on_c, 1, 40, 127
8, 89528, Note_off_c, 1, 40, 127
8, 89568, Note_on_c, 1, 37, 127
8, 89619, Note_off_c, 1, 37, 127
8, 89664, Note_on_c, 1, 35, 127
8, 89725, Note_off_c, 1, 35, 127
8, 89760, Note_on_c, 1, 37, 127
8, 89814, Note_off_c, 1, 37, 127
8, 89856, Note_on_c, 1, 42, 127
8, 89903, Note_off_c, 1, 42, 127
8, 89952, Note_on_c, 1, 37, 127
8, 90000, Note_off_c, 1, 37, 127
8, 90048, Note_on_c, 1, 40, 127
8, 90101, Note_off_c, 1, 40, 127
8, 90144, Note_on_c, 1, 42, 127
8, 90190, Note_off_c, 1, 42, 127
8, 90240, Note_on_c, 1, 40, 127
8, 90299, Note_off_c, 1, 40, 127
8, 90336, Note_on_c, 1, 37, 127
8, 90390, Note_off_c, 1, 37, 127
8, 90432, Note_on_c, 1, 35, 127
8, 90497, Note_off_c, 1, 35, 127
8, 90528, Note_on_c, 1, 37, 127
8, 90579, Note_off_c, 1, 37, 127
8, 90624, Note_on_c, 1, 47, 127
8, 90672, Note_off_c, 1, 47, 127
8, 90720, Note_on_c, 1, 42, 127
8, 90755, Note_off_c, 1, 42, 127
8, 90816, Note_on_c, 1, 45, 127
8, 90868, Note_off_c, 1, 45, 127
8, 90912, Note_on_c, 1, 47, 127
8, 90982, Note_off_c, 1, 47, 127
8, 91104, Note_on_c, 1, 42, 127
8, 91160, Note_off_c, 1, 42, 127
8, 91200, Note_on_c, 1, 40, 127
8, 91260, Note_off_c, 1, 40, 127
8, 91296, Note_on_c, 1, 42, 127
8, 91348, Note_off_c, 1, 42, 127
8, 91392, Note_on_c, 1, 47, 127
8, 91441, Note_off_c, 1, 47, 127
8, 91488, Note_on_c, 1, 42, 127
8, 91538, Note_off_c, 1, 42, 127
8, 91584, Note_on_c, 1, 45, 127
8, 91641, Note_off_c, 1, 45, 127
8, 91680, Note_on_c, 1, 47, 127
8, 91748, Note_off_c, 1, 47, 127
8, 91872, Note_on_c, 1, 42, 127
8, 91935, Note_off_c, 1, 42, 127
8, 91968, Note_on_c, 1, 40, 127
8, 92028, Note_off_c, 1, 40, 127
8, 92064, Note_on_c, 1, 37, 127
8, 92127, Note_off_c, 1, 37, 127
8, 92160, Note_on_c, 1, 42, 127
8, 92210, Note_off_c, 1, 42, 127
8, 92256, Note_on_c, 1, 37, 127
8, 92308, Note_off_c, 1, 37, 127
8, 92352, Note_on_c, 1, 40, 127
8, 92407, Note_off_c, 1, 40, 127
8, 92448, Note_on_c, 1, 42, 127
8, 92499, Note_off_c, 1, 42, 127
8, 92544, Note_on_c, 1, 40, 127
8, 92600, Note_off_c, 1, 40, 127
8, 92640, Note_on_c, 1, 37, 127
8, 92691, Note_off_c, 1, 37, 127
8, 92736, Note_on_c, 1, 35, 127
8, 92797, Note_off_c, 1, 35, 127
8, 92832, Note_on_c, 1, 37, 127
8, 92886, Note_off_c, 1, 37, 127
8, 92928, Note_on_c, 1, 42, 127
8, 92975, Note_off_c, 1, 42, 127
8, 93024, Note_on_c, 1, 37, 127
8, 93072, Note_off_c, 1, 37, 127
8, 93120, Note_on_c, 1, 40, 127
8, 93173, Note_off_c, 1, 40, 127
8, 93216, Note_on_c, 1, 42, 127
8, 93262, Note_off_c, 1, 42, 127
8, 93312, Note_on_c, 1, 40, 127
8, 93371, Note_off_c, 1, 40, 127
8, 93408, Note_on_c, 1, 37, 127
8, 93462, Note_off_c, 1, 37, 127
8, 93504, Note_on_c, 1, 35, 127
8, 93569, Note_off_c, 1, 35, 127
8, 93600, Note_on_c, 1, 37, 127
8, 93651, Note_off_c, 1, 37, 127
8, 93696, Note_on_c, 1, 47, 127
8, 93744, Note_off_c, 1, 47, 127
8, 93792, Note_on_c, 1, 42, 127
8, 93827, Note_off_c, 1, 42, 127
8, 93888, Note_on_c, 1, 45, 127
8, 93940, Note_off_c, 1, 45, 127
8, 93984, Note_on_c, 1, 47, 127
8, 94054, Note_off_c, 1, 47, 127
8, 94176, Note_on_c, 1, 42, 127
8, 94232, Note_off_c, 1, 42, 127
8, 94272, Note_on_c, 1, 40, 127
8, 94332, Note_off_c, 1, 40, 127
8, 94368, Note_on_c, 1, 42, 127
8, 94420, Note_off_c, 1, 42, 127
8, 94464, Note_on_c, 1, 47, 127
8, 94513, Note_off_c, 1, 47, 127
8, 94560, Note_on_c, 1, 42, 127
8, 94610, Note_off_c, 1, 42, 127
8, 94656, Note_on_c, 1, 45, 127
8, 94713, Note_off_c, 1, 45, 127
8, 94752, Note_on_c, 1, 47, 127
8, 94820, Note_off_c, 1, 47, 127
8, 94944, Note_on_c, 1, 42, 127
8, 95007, Note_off_c, 1, 42, 127
8, 95040, Note_on_c, 1, 40, 127
8, 95100, Note_off_c, 1, 40, 127
8, 95136, Note_on_c, 1, 37, 127
8, 95199, Note_off_c, 1, 37, 127
8, 95232, Note_on_c, 1, 42, 127
8, 95282, Note_off_c, 1, 42, 127
8, 95328, Note_on_c, 1, 37, 127
8, 95380, Note_off_c, 1, 37, 127
8, 95424, Note_on_c, 1, 40, 127
8, 95479, Note_off_c, 1, 40, 127
8, 95520, Note_on_c, 1, 42, 127
8, 95571, Note_off_c, 1, 42, 127
8, 95616, Note_on_c, 1, 40, 127
8, 95672, Note_off_c, 1, 40, 127
8, 95712, Note_on_c, 1, 37, 127
8, 95763, Note_off_c, 1, 37, 127
8, 95808, Note_on_c, 1, 35, 127
8, 95869, Note_off_c, 1, 35, 127
8, 95904, Note_on_c, 1, 37, 127
8, 95958, Note_off_c, 1, 37, 127
8, 96000, Note_on_c, 1, 42, 127
8, 96047, Note_off_c, 1, 42, 127
8, 96096, Note_on_c, 1, 37, 127
8, 96144, Note_off_c, 1, 37, 127
8, 96192, Note_on_c, 1, 40, 127
8, 96245, Note_off_c, 1, 40, 127
8, 96288, Note_on_c, 1, 42, 127
8, 96334, Note_off_c, 1, 42, 127
8, 96384, Note_on_c, 1, 40, 127
8, 96443, Note_off_c, 1, 40, 127
8, 96480, Note_on_c, 1, 37, 127
8, 96534, Note_off_c, 1, 37, 127
8, 96576, Note_on_c, 1, 35, 127
8, 96641, Note_off_c, 1, 35, 127
8, 96672, Note_on_c, 1, 37, 127
8, 96723, Note_off_c, 1, 37, 127
8, 96768, Note_on_c, 1, 42, 127
8, 96818, Note_off_c, 1, 42, 127
8, 96864, Note_on_c, 1, 37, 127
8, 96916, Note_off_c, 1, 37, 127
8, 96960, Note_on_c, 1, 40, 127
8, 97015, Note_off_c, 1, 40, 127
8, 97056, Note_on_c, 1, 42, 127
8, 97107, Note_off_c, 1, 42, 127
8, 97152, Note_on_c, 1, 40, 127
8, 97208, Note_off_c, 1, 40, 127
8, 97248, Note_on_c, 1, 37, 127
8, 97299, Note_off_c, 1, 37, 127
8, 97344, Note_on_c, 1, 35, 127
8, 97405, Note_off_c, 1, 35, 127
8, 97440, Note_on_c, 1, 37, 127
8, 97494, Note_off_c, 1, 37, 127
8, 97536, Note_on_c, 1, 42, 127
8, 97583, Note_off_c, 1, 42, 127
8, 97632, Note_on_c, 1, 37, 127
8, 97680, Note_off_c, 1, 37, 127
8, 97728, Note_on_c, 1, 40, 127
8, 97781, Note_off_c, 1, 40, 127
8, 97824, Note_on_c, 1, 42, 127
8, 97870, Note_off_c, 1, 42, 127
8, 97920, Note_on_c, 1, 40, 127
8, 97979, Note_off_c, 1, 40, 127
8, 98016, Note_on_c, 1, 37, 127
8, 98070, Note_off_c, 1, 37, 127
8, 98112, Note_on_c, 1, 35, 127
8, 98177, Note_off_c, 1, 35, 127
8, 98208, Note_on_c, 1, 37, 127
8, 98259, Note_off_c, 1, 37, 127
8, 98304, Note_on_c, 1, 42, 127
8, 98354, Note_off_c, 1, 42, 127
8, 98400, Note_on_c, 1, 37, 127
8, 98452, Note_off_c, 1, 37, 127
8, 98496, Note_on_c, 1, 40, 127
8, 98551, Note_off_c, 1, 40, 127
8, 98592, Note_on_c, 1, 42, 127
8, 98643, Note_off_c, 1, 42, 127
8, 98688, Note_on_c, 1, 40, 127
8, 98744, Note_off_c, 1, 40, 127
8, 98784, Note_on_c, 1, 37, 127
8, 98835, Note_off_c, 1, 37, 127
8, 98880, Note_on_c, 1, 35, 127
8, 98941, Note_off_c, 1, 35, 127
8, 98976, Note_on_c, 1, 37, 127
8, 99030, Note_off_c, 1, 37, 127
8, 99072, Note_on_c, 1, 42, 127
8, 99119, Note_off_c, 1, 42, 127
8, 99168, Note_on_c, 1, 37, 127
8, 99216, Note_off_c, 1, 37, 127
8, 99264, Note_on_c, 1, 40, 127
8, 99317, Note_off_c, 1, 40, 127
8, 99360, Note_on_c, 1, 42, 127
8, 99406, Note_off_c, 1, 42, 127
8, 99456, Note_on_c, 1, 40, 127
8, 99515, Note_off_c, 1, 40, 127
8, 99552, Note_on_c, 1, 37, 127
8, 99606, Note_off_c, 1, 37, 127
8, 99648, Note_on_c, 1, 35, 127
8, 99713, Note_off_c, 1, 35, 127
8, 99744, Note_on_c, 1, 37, 127
8, 99795, Note_off_c, 1, 37, 127
8, 99840, Note_on_c, 1, 42, 127
8, 99890, Note_off_c, 1, 42, 127
8, 99936, Note_on_c, 1, 37, 127
8, 99988, Note_off_c, 1, 37, 127
8, 100032, Note_on_c, 1, 40, 127
8, 100087, Note_off_c, 1, 40, 127
8, 100128, Note_on_c, 1, 42, 127
8, 100179, Note_off_c, 1, 42, 127
8, 100224, Note_on_c, 1, 40, 127
8, 100280, Note_off_c, 1, 40, 127
8, 100320, Note_on_c, 1, 37, 127
8, 100371, Note_off_c, 1, 37, 127
8, 100416, Note_on_c, 1, 35, 127
8, 100477, Note_off_c, 1, 35, 127
8, 100512, Note_on_c, 1, 37, 127
8, 100566, Note_off_c, 1, 37, 127
8, 100608, Note_on_c, 1, 42, 127
8, 100655, Note_off_c, 1, 42, 127
8, 100704, Note_on_c, 1, 37, 127
8, 100752, Note_off_c, 1, 37, 127
8, 100800, Note_on_c, 1, 40, 127
8, 100853, Note_off_c, 1, 40, 127
8, 100896, Note_on_c, 1, 42, 127
8, 100942, Note_off_c, 1, 42, 127
8, 100992, Note_on_c, 1, 40, 127
8, 101051, Note_off_c, 1, 40, 127
8, 101088, Note_on_c, 1, 37, 127
8, 101142, Note_off_c, 1, 37, 127
8, 101184, Note_on_c, 1, 35, 127
8, 101249, Note_off_c, 1, 35, 127
8, 101280, Note_on_c, 1, 37, 127
8, 101331, Note_off_c, 1, 37, 127
8, 101376, Note_on_c, 1, 42, 127
8, 101426, Note_off_c, 1, 42, 127
8, 101472, Note_on_c, 1, 37, 127
8, 101524, Note_off_c, 1, 37, 127
8, 101568, Note_on_c, 1, 40, 127
8, 101623, Note_off_c, 1, 40, 127
8, 101664, Note_on_c, 1, 42, 127
8, 101715, Note_off_c, 1, 42, 127
8, 101760, Note_on_c, 1, 40, 127
8, 101816, Note_off_c, 1, 40, 127
8, 101856, Note_on_c, 1, 37, 127
8, 101907, Note_off_c, 1, 37, 127
8, 101952, Note_on_c, 1, 35, 127
8, 102013, Note_off_c, 1, 35, 127
8, 102048, Note_on_c, 1, 37, 127
8, 102102, Note_off_c, 1, 37, 127
8, 102144, Note_on_c, 1, 42, 127
8, 102191, Note_off_c, 1, 42, 127
8, 102240, Note_on_c, 1, 37, 127
8, 102288, Note_off_c, 1, 37, 127
8, 102336, Note_on_c, 1, 40, 127
8, 102389, Note_off_c, 1, 40, 127
8, 102432, Note_on_c, 1, 42, 127
8, 102478, Note_off_c, 1, 42, 127
8, 102528, Note_on_c, 1, 40, 127
8, 102587, Note_off_c, 1, 40, 127
8, 102624, Note_on_c, 1, 37, 127
8, 102678, Note_off_c, 1, 37, 127
8, 102720, Note_on_c, 1, 35, 127
8, 102785, Note_off_c, 1, 35, 127
8, 102816, Note_on_c, 1, 37, 127
8, 102867, Note_off_c, 1, 37, 127
8, 102912, Note_on_c, 1, 42, 127
8, 102928, Control_c, 1, 11, 127
8, 102962, Note_off_c, 1, 42, 127
8, 102976, Control_c, 1, 11, 126
8, 103008, Note_on_c, 1, 37, 127
8, 103016, Control_c, 1, 11, 125
8, 103056, Control_c, 1, 11, 124
8, 103060, Note_off_c, 1, 37, 127
8, 103096, Control_c, 1, 11, 123
8, 103104, Note_on_c, 1, 40, 127
8, 103144, Control_c, 1, 11, 122
8, 103159, Note_off_c, 1, 40, 127
8, 103184, Control_c, 1, 11, 121
8, 103200, Note_on_c, 1, 42, 127
8, 103224, Control_c, 1, 11, 120
8, 103251, Note_off_c, 1, 42, 127
8, 103264, Control_c, 1, 11, 119
8, 103296, Note_on_c, 1, 40, 127
8, 103312, Control_c, 1, 11, 118
8, 103352, Note_off_c, 1, 40, 127
8, 103352, Control_c, 1, 11, 117
8, 103392, Control_c, 1, 11, 116
8, 103392, Note_on_c, 1, 37, 127
8, 103432, Control_c, 1, 11, 115
8, 103443, Note_off_c, 1, 37, 127
8, 103480, Control_c, 1, 11, 114
8, 103488, Note_on_c, 1, 35, 127
8, 103520, Control_c, 1, 11, 113
8, 103549, Note_off_c, 1, 35, 127
8, 103560, Control_c, 1, 11, 112
8, 103584, Note_on_c, 1, 37, 127
8, 103600, Control_c, 1, 11, 111
8, 103638, Note_off_c, 1, 37, 127
8, 103648, Control_c, 1, 11, 110
8, 103680, Note_on_c, 1, 42, 127
8, 103688, Control_c, 1, 11, 109
8, 103727, Note_off_c, 1, 42, 127
8, 103728, Control_c, 1, 11, 108
8, 103768, Control_c, 1, 11, 107
8, 103776, Note_on_c, 1, 37, 127
8, 103816, Control_c, 1, 11, 106
8, 103824, Note_off_c, 1, 37, 127
8, 103856, Control_c, 1, 11, 105
8, 103872, Note_on_c, 1, 40, 127
8, 103896, Control_c, 1, 11, 104
8, 103925, Note_off_c, 1, 40, 127
8, 103936, Control_c, 1, 11, 103
8, 103968, Note_on_c, 1, 42, 127
8, 103984, Control_c, 1, 11, 102
8, 104014, Note_off_c, 1, 42, 127
8, 104024, Control_c, 1, 11, 101
8, 104064, Control_c, 1, 11, 100
8, 104064, Note_on_c, 1, 40, 127
8, 104104, Control_c, 1, 11, 99
8, 104123, Note_off_c, 1, 40, 127
8, 104152, Control_c, 1, 11, 98
8, 104160, Note_on_c, 1, 37, 127
8, 104192, Control_c, 1, 11, 97
8, 104214, Note_off_c, 1, 37, 127
8, 104232, Control_c, 1, 11, 96
8, 104256, Note_on_c, 1, 35, 127
8, 104272, Control_c, 1, 11, 95
8, 104312, Control_c, 1, 11, 94
8, 104321, Note_off_c, 1, 35, 127
8, 104352, Note_on_c, 1, 37, 127
8, 104360, Control_c, 1, 11, 93
8, 104400, Control_c, 1, 11, 92
8, 104403, Note_off_c, 1, 37, 127
8, 104440, Control_c, 1, 11, 91
8, 104448, Note_on_c, 1, 42, 127
8, 104480, Control_c, 1, 11, 90
8, 104498, Note_off_c, 1, 42, 127
8, 104528, Control_c, 1, 11, 89
8, 104544, Note_on_c, 1, 37, 127
8, 104568, Control_c, 1, 11, 88
8, 104596, Note_off_c, 1, 37, 127
8, 104608, Control_c, 1, 11, 87
8, 104640, Note_on_c, 1, 40, 127
8, 104648, Control_c, 1, 11, 86
8, 104695, Note_off_c, 1, 40, 127
8, 104696, Control_c, 1, 11, 85
8, 104736, Control_c, 1, 11, 84
8, 104736, Note_on_c, 1, 42, 127
8, 104776, Control_c, 1, 11, 83
8, 104787, Note_off_c, 1, 42, 127
8, 104816, Control_c, 1, 11, 82
8, 104832, Note_on_c, 1, 40, 127
8, 104864, Control_c, 1, 11, 81
8, 104888, Note_off_c, 1, 40, 127
8, 104904, Control_c, 1, 11, 80
8, 104928, Note_on_c, 1, 37, 127
8, 104944, Control_c, 1, 11, 79
8, 104979, Note_off_c, 1, 37, 127
8, 104984, Control_c, 1, 11, 78
8, 105024, Note_on_c, 1, 35, 127
8, 105032, Control_c, 1, 11, 77
8, 105072, Control_c, 1, 11, 76
8, 105085, Note_off_c, 1, 35, 127
8, 105112, Control_c, 1, 11, 75
8, 105120, Note_on_c, 1, 37, 127
8, 105152, Control_c, 1, 11, 74
8, 105174, Note_off_c, 1, 37, 127
8, 105200, Control_c, 1, 11, 73
8, 105216, Note_on_c, 1, 42, 127
8, 105240, Control_c, 1, 11, 72
8, 105263, Note_off_c, 1, 42, 127
8, 105280, Control_c, 1, 11, 71
8, 105312, Note_on_c, 1, 37, 127
8, 105320, Control_c, 1, 11, 70
8, 105360, Note_off_c, 1, 37, 127
8, 105368, Control_c, 1, 11, 69
8, 105408, Control_c, 1, 11, 68
8, 105408, Note_on_c, 1, 40, 127
8, 105448, Control_c, 1, 11, 67
8, 105461, Note_off_c, 1, 40, 127
8, 105488, Control_c, 1, 11, 66
8, 105504, Note_on_c, 1, 42, 127
8, 105536, Control_c, 1, 11, 65
8, 105550, Note_off_c, 1, 42, 127
8, 105576, Control_c, 1, 11, 64
8, 105600, Note_on_c, 1, 40, 127
8, 105616, Control_c, 1, 11, 63
8, 105656, Control_c, 1, 11, 62
8, 105659, Note_off_c, 1, 40, 127
8, 105696, Control_c, 1, 11, 61
8, 105696, Note_on_c, 1, 37, 127
8, 105744, Control_c, 1, 11, 60
8, 105750, Note_off_c, 1, 37, 127
8, 105784, Control_c, 1, 11, 59
8, 105792, Note_on_c, 1, 35, 127
8, 105824, Control_c, 1, 11, 58
8, 105857, Note_off_c, 1, 35, 127
8, 105864, Control_c, 1, 11, 57
8, 105888, Note_on_c, 1, 37, 127
8, 105912, Control_c, 1, 11, 56
8, 105939, Note_off_c, 1, 37, 127
8, 105952, Control_c, 1, 11, 55
8, 105984, Note_on_c, 1, 42, 127
8, 105992, Control_c, 1, 11, 54
8, 106032, Control_c, 1, 11, 53
8, 106034, Note_off_c, 1, 42, 127
8, 106080, Control_c, 1, 11, 52
8, 106080, Note_on_c, 1, 37, 127
8, 106120, Control_c, 1, 11, 51
8, 106132, Note_off_c, 1, 37, 127
8, 106160, Control_c, 1, 11, 50
8, 106176, Note_on_c, 1, 40, 127
8, 106200, Control_c, 1, 11, 49
8, 106231, Note_off_c, 1, 40, 127
8, 106248, Control_c, 1, 11, 48
8, 106272, Note_on_c, 1, 42, 127
8, 106288, Control_c, 1, 11, 47
8, 106323, Note_off_c, 1, 42, 127
8, 106328, Control_c, 1, 11, 46
8, 106368, Control_c, 1, 11, 45
8, 106368, Note_on_c, 1, 40, 127
8, 106416, Control_c, 1, 11, 44
8, 106424, Note_off_c, 1, 40, 127
8, 106456, Control_c, 1, 11, 43
8, 106464, Note_on_c, 1, 37, 127
8, 106496, Control_c, 1, 11, 42
8, 106515, Note_off_c, 1, 37, 127
8, 106536, Control_c, 1, 11, 41
8, 106560, Note_on_c, 1, 35, 127
8, 106584, Control_c, 1, 11, 40
8, 106621, Note_off_c, 1, 35, 127
8, 106624, Control_c, 1, 11, 39
8, 106656, Note_on_c, 1, 37, 127
8, 106664, Control_c, 1, 11, 38
8, 106704, Control_c, 1, 11, 37
8, 106710, Note_off_c, 1, 37, 127
8, 106752, Control_c, 1, 11, 36
8, 106752, Note_on_c, 1, 42, 127
8, 106792, Control_c, 1, 11, 35
8, 106799, Note_off_c, 1, 42, 127
8, 106832, Control_c, 1, 11, 34
8, 106848, Note_on_c, 1, 37, 127
8, 106872, Control_c, 1, 11, 33
8, 106896, Note_off_c, 1, 37, 127
8, 106920, Control_c, 1, 11, 32
8, 106944, Note_on_c, 1, 40, 127
8, 106960, Control_c, 1, 11, 31
8, 106997, Note_off_c, 1, 40, 127
8, 107000, Control_c, 1, 11, 30
8, 107040, Control_c, 1, 11, 29
8, 107040, Note_on_c, 1, 42, 127
8, 107080, Control_c, 1, 11, 28
8, 107086, Note_off_c, 1, 42, 127
8, 107128, Control_c, 1, 11, 27
8, 107136, Note_on_c, 1, 40, 127
8, 107168, Control_c, 1, 11, 26
8, 107195, Note_off_c, 1, 40, 127
8, 107208, Control_c, 1, 11, 25
8, 107232, Note_on_c, 1, 37, 127
8, 107248, Control_c, 1, 11, 24
8, 107286, Note_off_c, 1, 37, 127
8, 107296, Control_c, 1, 11, 23
8, 107328, Note_on_c, 1, 35, 127
8, 107336, Control_c, 1, 11, 22
8, 107376, Control_c, 1, 11, 21
8, 107393, Note_off_c, 1, 35, 127
8, 107416, Control_c, 1, 11, 20
8, 107424, Note_on_c, 1, 37, 127
8, 107464, Control_c, 1, 11, 19
8, 107475, Note_off_c, 1, 37, 127
8, 107504, Control_c, 1, 11, 18
8, 107520, Note_on_c, 1, 42, 47
8, 107544, Control_c, 1, 11, 17
8, 107570, Note_off_c, 1, 42, 47
8, 107584, Control_c, 1, 11, 16
8, 107616, Note_on_c, 1, 37, 127
8, 107632, Control_c, 1, 11, 15
8, 107668, Note_off_c, 1, 37, 127
8, 107672, Control_c, 1, 11, 14
8, 107712, Control_c, 1, 11, 13
8, 107712, Note_on_c, 1, 40, 127
8, 107752, Control_c, 1, 11, 12
8, 107767, Note_off_c, 1, 40, 127
8, 107800, Control_c, 1, 11, 11
8, 107808, Note_on_c, 1, 42, 127
8, 107840, Control_c, 1, 11, 10
8, 107859, Note_off_c, 1, 42, 127
8, 107880, Control_c, 1, 11, 9
8, 107904, Note_on_c, 1, 40, 127
8, 107920, Control_c, 1, 11, 8
8, 107960, Note_off_c, 1, 40, 127
8, 107968, Control_c, 1, 11, 7
8, 108000, Note_on_c, 1, 37, 127
8, 108008, Control_c, 1, 11, 6
8, 108048, Control_c, 1, 11, 5
8, 108051, Note_off_c, 1, 37, 127
8, 108088, Control_c, 1, 11, 4
8, 108096, Note_on_c, 1, 35, 127
8, 108136, Control_c, 1, 11, 3
8, 108157, Note_off_c, 1, 35, 127
8, 108176, Control_c, 1, 11, 2
8, 108192, Note_on_c, 1, 37, 127
8, 108216, Control_c, 1, 11, 1
8, 108246, Note_off_c, 1, 37, 127
8, 108256, Control_c, 1, 11, 0
8, 108256, End_track
9, 0, Start_track
9, 0, Text_t, "Drums"
9, 192, Control_c, 9, 121, 0
9, 237, Control_c, 9, 0, 0
9, 240, Control_c, 9, 32, 0
9, 257, Program_c, 9, 0
9, 283, Control_c, 9, 10, 64
9, 298, Control_c, 9, 91, 110
9, 317, Control_c, 9, 93, 30
9, 347, Control_c, 9, 7, 123
9, 380, Control_c, 9, 11, 127
9, 414, Control_c, 9, 99, 28
9, 437, Control_c, 9, 98, 42
9, 456, Control_c, 9, 6, 1
9, 478, Control_c, 9, 99, 29
9, 496, Control_c, 9, 98, 42
9, 516, Control_c, 9, 6, 20
9, 543, Control_c, 9, 99, 24
9, 559, Control_c, 9, 98, 36
9, 587, Control_c, 9, 6, 63
9, 603, Control_c, 9, 99, 24
9, 629, Control_c, 9, 98, 40
9, 645, Control_c, 9, 6, 64
9, 671, Control_c, 9, 99, 29
9, 692, Control_c, 9, 98, 36
9, 698, Control_c, 9, 6, 5
9, 711, Control_c, 9, 99, 29
9, 726, Control_c, 9, 98, 40
9, 735, Control_c, 9, 6, 20
9, 768, Note_on_c, 9, 36, 105
9, 768, Note_on_c, 9, 42, 54
9, 780, Note_off_c, 9, 42, 54
9, 780, Note_off_c, 9, 36, 105
9, 802, Control_c, 9, 99, 28
9, 825, Control_c, 9, 98, 82
9, 844, Control_c, 9, 6, 126
9, 864, Note_on_c, 9, 42, 69
9, 874, Control_c, 9, 99, 29
9, 876, Note_off_c, 9, 42, 69
9, 894, Control_c, 9, 98, 82
9, 913, Control_c, 9, 6, 1
9, 960, Note_on_c, 9, 40, 113
9, 960, Note_on_c, 9, 42, 49
9, 972, Note_off_c, 9, 42, 49
9, 972, Note_off_c, 9, 40, 113
9, 1056, Note_on_c, 9, 42, 79
9, 1068, Note_off_c, 9, 42, 79
9, 1152, Note_on_c, 9, 36, 105
9, 1152, Note_on_c, 9, 42, 46
9, 1164, Note_off_c, 9, 42, 46
9, 1164, Note_off_c, 9, 36, 105
9, 1248, Note_on_c, 9, 42, 74
9, 1260, Note_off_c, 9, 42, 74
9, 1344, Note_on_c, 9, 40, 113
9, 1344, Note_on_c, 9, 42, 46
9, 1356, Note_off_c, 9, 42, 46
9, 1356, Note_off_c, 9, 40, 113
9, 1440, Note_on_c, 9, 42, 79
9, 1452, Note_off_c, 9, 42, 79
9, 1536, Note_on_c, 9, 36, 105
9, 1536, Note_on_c, 9, 42, 42
9, 1548, Note_off_c, 9, 42, 42
9, 1548, Note_off_c, 9, 36, 105
9, 1632, Note_on_c, 9, 42, 69
9, 1644, Note_off_c, 9, 42, 69
9, 1728, Note_on_c, 9, 40, 112
9, 1728, Note_on_c, 9, 42, 54
9, 1740, Note_off_c, 9, 42, 54
9, 1740, Note_off_c, 9, 40, 112
9, 1824, Note_on_c, 9, 42, 74
9, 1836, Note_off_c, 9, 42, 74
9, 1920, Note_on_c, 9, 36, 105
9, 1920, Note_on_c, 9, 42, 57
9, 1932, Note_off_c, 9, 42, 57
9, 1932, Note_off_c, 9, 36, 105
9, 2016, Note_on_c, 9, 42, 69
9, 2028, Note_off_c, 9, 42, 69
9, 2112, Note_on_c, 9, 40, 113
9, 2112, Note_on_c, 9, 42, 57
9, 2124, Note_off_c, 9, 42, 57
9, 2124, Note_off_c, 9, 40, 113
9, 2208, Note_on_c, 9, 42, 79
9, 2220, Note_off_c, 9, 42, 79
9, 2304, Note_on_c, 9, 36, 105
9, 2304, Note_on_c, 9, 42, 54
9, 2304, Note_on_c, 9, 82, 62
9, 2316, Note_off_c, 9, 82, 62
9, 2316, Note_off_c, 9, 42, 54
9, 2316, Note_off_c, 9, 36, 105
9, 2400, Note_on_c, 9, 42, 69
9, 2400, Note_on_c, 9, 82, 55
9, 2412, Note_off_c, 9, 82, 55
9, 2412, Note_off_c, 9, 42, 69
9, 2496, Note_on_c, 9, 40, 113
9, 2496, Note_on_c, 9, 42, 49
9, 2496, Note_on_c, 9, 82, 55
9, 2508, Note_off_c, 9, 82, 55
9, 2508, Note_off_c, 9, 42, 49
9, 2508, Note_off_c, 9, 40, 113
9, 2592, Note_on_c, 9, 42, 79
9, 2592, Note_on_c, 9, 82, 51
9, 2604, Note_off_c, 9, 82, 51
9, 2604, Note_off_c, 9, 42, 79
9, 2688, Note_on_c, 9, 36, 105
9, 2688, Note_on_c, 9, 42, 46
9, 2688, Note_on_c, 9, 82, 58
9, 2700, Note_off_c, 9, 82, 58
9, 2700, Note_off_c, 9, 42, 46
9, 2700, Note_off_c, 9, 36, 105
9, 2784, Note_on_c, 9, 42, 74
9, 2784, Note_on_c, 9, 82, 47
9, 2796, Note_off_c, 9, 82, 47
9, 2796, Note_off_c, 9, 42, 74
9, 2880, Note_on_c, 9, 40, 113
9, 2880, Note_on_c, 9, 42, 46
9, 2880, Note_on_c, 9, 82, 62
9, 2892, Note_off_c, 9, 82, 62
9, 2892, Note_off_c, 9, 42, 46
9, 2892, Note_off_c, 9, 40, 113
9, 2976, Note_on_c, 9, 42, 79
9, 2976, Note_on_c, 9, 82, 58
9, 2988, Note_off_c, 9, 82, 58
9, 2988, Note_off_c, 9, 42, 79
9, 3072, Note_on_c, 9, 36, 105
9, 3072, Note_on_c, 9, 42, 42
9, 3072, Note_on_c, 9, 82, 56
9, 3084, Note_off_c, 9, 82, 56
9, 3084, Note_off_c, 9, 42, 42
9, 3084, Note_off_c, 9, 36, 105
9, 3168, Note_on_c, 9, 42, 69
9, 3168, Note_on_c, 9, 82, 46
9, 3180, Note_off_c, 9, 82, 46
9, 3180, Note_off_c, 9, 42, 69
9, 3264, Note_on_c, 9, 40, 112
9, 3264, Note_on_c, 9, 42, 54
9, 3264, Note_on_c, 9, 82, 64
9, 3276, Note_off_c, 9, 82, 64
9, 3276, Note_off_c, 9, 42, 54
9, 3276, Note_off_c, 9, 40, 112
9, 3360, Note_on_c, 9, 42, 74
9, 3360, Note_on_c, 9, 82, 53
9, 3372, Note_off_c, 9, 82, 53
9, 3372, Note_off_c, 9, 42, 74
9, 3456, Note_on_c, 9, 36, 105
9, 3456, Note_on_c, 9, 42, 57
9, 3456, Note_on_c, 9, 82, 62
9, 3468, Note_off_c, 9, 82, 62
9, 3468, Note_off_c, 9, 42, 57
9, 3468, Note_off_c, 9, 36, 105
9, 3552, Note_on_c, 9, 42, 69
9, 3552, Note_on_c, 9, 82, 60
9, 3564, Note_off_c, 9, 82, 60
9, 3564, Note_off_c, 9, 42, 69
9, 3648, Note_on_c, 9, 40, 113
9, 3648, Note_on_c, 9, 42, 57
9, 3648, Note_on_c, 9, 82, 68
9, 3660, Note_off_c, 9, 82, 68
9, 3660, Note_off_c, 9, 42, 57
9, 3660, Note_off_c, 9, 40, 113
9, 3744, Note_on_c, 9, 42, 79
9, 3744, Note_on_c, 9, 82, 50
9, 3756, Note_off_c, 9, 82, 50
9, 3756, Note_off_c, 9, 42, 79
9, 3840, Note_on_c, 9, 36, 105
9, 3840, Note_on_c, 9, 42, 54
9, 3840, Note_on_c, 9, 82, 68
9, 3852, Note_off_c, 9, 82, 68
9, 3852, Note_off_c, 9, 42, 54
9, 3852, Note_off_c, 9, 36, 105
9, 3936, Note_on_c, 9, 42, 69
9, 3936, Note_on_c, 9, 82, 58
9, 3948, Note_off_c, 9, 82, 58
9, 3948, Note_off_c, 9, 42, 69
9, 4032, Note_on_c, 9, 40, 113
9, 4032, Note_on_c, 9, 42, 49
9, 4032, Note_on_c, 9, 82, 66
9, 4044, Note_off_c, 9, 82, 66
9, 4044, Note_off_c, 9, 42, 49
9, 4044, Note_off_c, 9, 40, 113
9, 4128, Note_on_c, 9, 42, 79
9, 4128, Note_on_c, 9, 82, 60
9, 4140, Note_off_c, 9, 82, 60
9, 4140, Note_off_c, 9, 42, 79
9, 4224, Note_on_c, 9, 36, 105
9, 4224, Note_on_c, 9, 42, 46
9, 4224, Note_on_c, 9, 82, 56
9, 4236, Note_off_c, 9, 82, 56
9, 4236, Note_off_c, 9, 42, 46
9, 4236, Note_off_c, 9, 36, 105
9, 4320, Note_on_c, 9, 42, 74
9, 4320, Note_on_c, 9, 82, 60
9, 4332, Note_off_c, 9, 82, 60
9, 4332, Note_off_c, 9, 42, 74
9, 4416, Note_on_c, 9, 40, 113
9, 4416, Note_on_c, 9, 42, 46
9, 4416, Note_on_c, 9, 82, 64
9, 4428, Note_off_c, 9, 82, 64
9, 4428, Note_off_c, 9, 42, 46
9, 4428, Note_off_c, 9, 40, 113
9, 4512, Note_on_c, 9, 42, 79
9, 4512, Note_on_c, 9, 69, 100
9, 4512, Note_on_c, 9, 82, 64
9, 4524, Note_off_c, 9, 82, 64
9, 4524, Note_off_c, 9, 69, 100
9, 4524, Note_off_c, 9, 42, 79
9, 4539, Control_c, 9, 11, 127
9, 4551, Control_c, 9, 99, 28
9, 4560, Control_c, 9, 98, 69
9, 4573, Control_c, 9, 6, 126
9, 4608, Note_on_c, 9, 36, 105
9, 4608, Note_on_c, 9, 42, 42
9, 4608, Note_on_c, 9, 69, 113
9, 4608, Note_on_c, 9, 82, 66
9, 4620, Note_off_c, 9, 82, 66
9, 4620, Note_off_c, 9, 69, 113
9, 4620, Note_off_c, 9, 42, 42
9, 4620, Note_off_c, 9, 36, 105
9, 4704, Note_on_c, 9, 42, 69
9, 4704, Note_on_c, 9, 69, 117
9, 4704, Note_on_c, 9, 82, 64
9, 4716, Note_off_c, 9, 82, 64
9, 4716, Note_off_c, 9, 69, 117
9, 4716, Note_off_c, 9, 42, 69
9, 4800, Note_on_c, 9, 40, 112
9, 4800, Note_on_c, 9, 42, 54
9, 4800, Note_on_c, 9, 69, 93
9, 4800, Note_on_c, 9, 82, 62
9, 4812, Note_off_c, 9, 82, 62
9, 4812, Note_off_c, 9, 69, 93
9, 4812, Note_off_c, 9, 42, 54
9, 4812, Note_off_c, 9, 40, 112
9, 4896, Note_on_c, 9, 42, 74
9, 4896, Note_on_c, 9, 82, 64
9, 4900, Note_on_c, 9, 69, 80
9, 4908, Note_off_c, 9, 82, 64
9, 4908, Note_off_c, 9, 42, 74
9, 4912, Note_off_c, 9, 69, 80
9, 4936, Control_c, 9, 99, 28
9, 4955, Control_c, 9, 98, 69
9, 4971, Control_c, 9, 6, 1
9, 4992, Note_on_c, 9, 36, 105
9, 4992, Note_on_c, 9, 42, 57
9, 4992, Note_on_c, 9, 82, 64
9, 5004, Note_off_c, 9, 82, 64
9, 5004, Note_off_c, 9, 42, 57
9, 5004, Note_off_c, 9, 36, 105
9, 5088, Note_on_c, 9, 42, 69
9, 5088, Note_on_c, 9, 82, 68
9, 5100, Note_off_c, 9, 82, 68
9, 5100, Note_off_c, 9, 42, 69
9, 5184, Note_on_c, 9, 40, 113
9, 5184, Note_on_c, 9, 42, 57
9, 5184, Note_on_c, 9, 82, 62
9, 5196, Note_off_c, 9, 82, 62
9, 5196, Note_off_c, 9, 42, 57
9, 5196, Note_off_c, 9, 40, 113
9, 5280, Note_on_c, 9, 42, 79
9, 5280, Note_on_c, 9, 82, 64
9, 5292, Note_off_c, 9, 82, 64
9, 5292, Note_off_c, 9, 42, 79
9, 5376, Note_on_c, 9, 36, 105
9, 5376, Note_on_c, 9, 42, 54
9, 5376, Note_on_c, 9, 82, 62
9, 5388, Note_off_c, 9, 82, 62
9, 5388, Note_off_c, 9, 42, 54
9, 5388, Note_off_c, 9, 36, 105
9, 5472, Note_on_c, 9, 42, 69
9, 5472, Note_on_c, 9, 82, 55
9, 5484, Note_off_c, 9, 82, 55
9, 5484, Note_off_c, 9, 42, 69
9, 5568, Note_on_c, 9, 40, 113
9, 5568, Note_on_c, 9, 42, 49
9, 5568, Note_on_c, 9, 82, 55
9, 5580, Note_off_c, 9, 82, 55
9, 5580, Note_off_c, 9, 42, 49
9, 5580, Note_off_c, 9, 40, 113
9, 5664, Note_on_c, 9, 42, 79
9, 5664, Note_on_c, 9, 82, 51
9, 5676, Note_off_c, 9, 82, 51
9, 5676, Note_off_c, 9, 42, 79
9, 5760, Note_on_c, 9, 36, 105
9, 5760, Note_on_c, 9, 42, 46
9, 5760, Note_on_c, 9, 82, 58
9, 5772, Note_off_c, 9, 82, 58
9, 5772, Note_off_c, 9, 42, 46
9, 5772, Note_off_c, 9, 36, 105
9, 5856, Note_on_c, 9, 42, 74
9, 5856, Note_on_c, 9, 82, 47
9, 5868, Note_off_c, 9, 82, 47
9, 5868, Note_off_c, 9, 42, 74
9, 5952, Note_on_c, 9, 40, 113
9, 5952, Note_on_c, 9, 42, 46
9, 5952, Note_on_c, 9, 82, 62
9, 5964, Note_off_c, 9, 82, 62
9, 5964, Note_off_c, 9, 42, 46
9, 5964, Note_off_c, 9, 40, 113
9, 6048, Note_on_c, 9, 42, 79
9, 6048, Note_on_c, 9, 82, 58
9, 6060, Note_off_c, 9, 82, 58
9, 6060, Note_off_c, 9, 42, 79
9, 6144, Note_on_c, 9, 36, 105
9, 6144, Note_on_c, 9, 42, 42
9, 6144, Note_on_c, 9, 82, 56
9, 6156, Note_off_c, 9, 82, 56
9, 6156, Note_off_c, 9, 42, 42
9, 6156, Note_off_c, 9, 36, 105
9, 6240, Note_on_c, 9, 42, 69
9, 6240, Note_on_c, 9, 82, 46
9, 6252, Note_off_c, 9, 82, 46
9, 6252, Note_off_c, 9, 42, 69
9, 6336, Note_on_c, 9, 40, 112
9, 6336, Note_on_c, 9, 42, 54
9, 6336, Note_on_c, 9, 82, 64
9, 6348, Note_off_c, 9, 82, 64
9, 6348, Note_off_c, 9, 42, 54
9, 6348, Note_off_c, 9, 40, 112
9, 6432, Note_on_c, 9, 42, 74
9, 6432, Note_on_c, 9, 82, 53
9, 6444, Note_off_c, 9, 82, 53
9, 6444, Note_off_c, 9, 42, 74
9, 6528, Note_on_c, 9, 36, 105
9, 6528, Note_on_c, 9, 42, 57
9, 6528, Note_on_c, 9, 82, 62
9, 6540, Note_off_c, 9, 82, 62
9, 6540, Note_off_c, 9, 42, 57
9, 6540, Note_off_c, 9, 36, 105
9, 6624, Note_on_c, 9, 42, 69
9, 6624, Note_on_c, 9, 82, 60
9, 6636, Note_off_c, 9, 82, 60
9, 6636, Note_off_c, 9, 42, 69
9, 6720, Note_on_c, 9, 40, 113
9, 6720, Note_on_c, 9, 42, 57
9, 6720, Note_on_c, 9, 82, 68
9, 6732, Note_off_c, 9, 82, 68
9, 6732, Note_off_c, 9, 42, 57
9, 6732, Note_off_c, 9, 40, 113
9, 6816, Note_on_c, 9, 42, 79
9, 6816, Note_on_c, 9, 82, 50
9, 6828, Note_off_c, 9, 82, 50
9, 6828, Note_off_c, 9, 42, 79
9, 6912, Note_on_c, 9, 36, 105
9, 6912, Note_on_c, 9, 42, 54
9, 6912, Note_on_c, 9, 82, 68
9, 6924, Note_off_c, 9, 82, 68
9, 6924, Note_off_c, 9, 42, 54
9, 6924, Note_off_c, 9, 36, 105
9, 7008, Note_on_c, 9, 42, 69
9, 7008, Note_on_c, 9, 82, 58
9, 7020, Note_off_c, 9, 82, 58
9, 7020, Note_off_c, 9, 42, 69
9, 7104, Note_on_c, 9, 40, 113
9, 7104, Note_on_c, 9, 42, 49
9, 7104, Note_on_c, 9, 82, 66
9, 7116, Note_off_c, 9, 82, 66
9, 7116, Note_off_c, 9, 42, 49
9, 7116, Note_off_c, 9, 40, 113
9, 7200, Note_on_c, 9, 42, 79
9, 7200, Note_on_c, 9, 82, 60
9, 7212, Note_off_c, 9, 82, 60
9, 7212, Note_off_c, 9, 42, 79
9, 7296, Note_on_c, 9, 36, 105
9, 7296, Note_on_c, 9, 42, 46
9, 7296, Note_on_c, 9, 82, 56
9, 7308, Note_off_c, 9, 82, 56
9, 7308, Note_off_c, 9, 42, 46
9, 7308, Note_off_c, 9, 36, 105
9, 7392, Note_on_c, 9, 42, 74
9, 7392, Note_on_c, 9, 82, 60
9, 7404, Note_off_c, 9, 82, 60
9, 7404, Note_off_c, 9, 42, 74
9, 7488, Note_on_c, 9, 40, 113
9, 7488, Note_on_c, 9, 42, 46
9, 7488, Note_on_c, 9, 82, 64
9, 7500, Note_off_c, 9, 82, 64
9, 7500, Note_off_c, 9, 42, 46
9, 7500, Note_off_c, 9, 40, 113
9, 7584, Note_on_c, 9, 42, 79
9, 7584, Note_on_c, 9, 82, 64
9, 7596, Note_off_c, 9, 82, 64
9, 7596, Note_off_c, 9, 42, 79
9, 7680, Note_on_c, 9, 36, 105
9, 7680, Note_on_c, 9, 42, 42
9, 7680, Note_on_c, 9, 82, 66
9, 7692, Note_off_c, 9, 82, 66
9, 7692, Note_off_c, 9, 42, 42
9, 7692, Note_off_c, 9, 36, 105
9, 7776, Note_on_c, 9, 42, 69
9, 7776, Note_on_c, 9, 82, 64
9, 7788, Note_off_c, 9, 82, 64
9, 7788, Note_off_c, 9, 42, 69
9, 7872, Note_on_c, 9, 40, 112
9, 7872, Note_on_c, 9, 42, 54
9, 7872, Note_on_c, 9, 82, 62
9, 7884, Note_off_c, 9, 82, 62
9, 7884, Note_off_c, 9, 42, 54
9, 7884, Note_off_c, 9, 40, 112
9, 7968, Note_on_c, 9, 42, 74
9, 7968, Note_on_c, 9, 82, 64
9, 7980, Note_off_c, 9, 82, 64
9, 7980, Note_off_c, 9, 42, 74
9, 8064, Note_on_c, 9, 36, 105
9, 8064, Note_on_c, 9, 42, 57
9, 8064, Note_on_c, 9, 82, 64
9, 8076, Note_off_c, 9, 82, 64
9, 8076, Note_off_c, 9, 42, 57
9, 8076, Note_off_c, 9, 36, 105
9, 8160, Note_on_c, 9, 42, 69
9, 8160, Note_on_c, 9, 82, 68
9, 8172, Note_off_c, 9, 82, 68
9, 8172, Note_off_c, 9, 42, 69
9, 8256, Note_on_c, 9, 40, 113
9, 8256, Note_on_c, 9, 42, 57
9, 8256, Note_on_c, 9, 82, 62
9, 8268, Note_off_c, 9, 82, 62
9, 8268, Note_off_c, 9, 42, 57
9, 8268, Note_off_c, 9, 40, 113
9, 8352, Note_on_c, 9, 42, 79
9, 8352, Note_on_c, 9, 82, 64
9, 8364, Note_off_c, 9, 82, 64
9, 8364, Note_off_c, 9, 42, 79
9, 8448, Note_on_c, 9, 36, 105
9, 8448, Note_on_c, 9, 42, 54
9, 8448, Note_on_c, 9, 82, 62
9, 8460, Note_off_c, 9, 82, 62
9, 8460, Note_off_c, 9, 42, 54
9, 8460, Note_off_c, 9, 36, 105
9, 8544, Note_on_c, 9, 42, 69
9, 8544, Note_on_c, 9, 82, 55
9, 8556, Note_off_c, 9, 82, 55
9, 8556, Note_off_c, 9, 42, 69
9, 8640, Note_on_c, 9, 40, 113
9, 8640, Note_on_c, 9, 42, 49
9, 8640, Note_on_c, 9, 82, 55
9, 8652, Note_off_c, 9, 82, 55
9, 8652, Note_off_c, 9, 42, 49
9, 8652, Note_off_c, 9, 40, 113
9, 8736, Note_on_c, 9, 42, 79
9, 8736, Note_on_c, 9, 82, 51
9, 8748, Note_off_c, 9, 82, 51
9, 8748, Note_off_c, 9, 42, 79
9, 8832, Note_on_c, 9, 36, 105
9, 8832, Note_on_c, 9, 42, 46
9, 8832, Note_on_c, 9, 82, 58
9, 8844, Note_off_c, 9, 82, 58
9, 8844, Note_off_c, 9, 42, 46
9, 8844, Note_off_c, 9, 36, 105
9, 8928, Note_on_c, 9, 42, 74
9, 8928, Note_on_c, 9, 82, 47
9, 8940, Note_off_c, 9, 82, 47
9, 8940, Note_off_c, 9, 42, 74
9, 9024, Note_on_c, 9, 40, 113
9, 9024, Note_on_c, 9, 42, 46
9, 9024, Note_on_c, 9, 82, 62
9, 9036, Note_off_c, 9, 82, 62
9, 9036, Note_off_c, 9, 42, 46
9, 9036, Note_off_c, 9, 40, 113
9, 9120, Note_on_c, 9, 42, 79
9, 9120, Note_on_c, 9, 82, 58
9, 9132, Note_off_c, 9, 82, 58
9, 9132, Note_off_c, 9, 42, 79
9, 9216, Note_on_c, 9, 36, 105
9, 9216, Note_on_c, 9, 42, 42
9, 9216, Note_on_c, 9, 82, 56
9, 9228, Note_off_c, 9, 82, 56
9, 9228, Note_off_c, 9, 42, 42
9, 9228, Note_off_c, 9, 36, 105
9, 9312, Note_on_c, 9, 42, 69
9, 9312, Note_on_c, 9, 82, 46
9, 9324, Note_off_c, 9, 82, 46
9, 9324, Note_off_c, 9, 42, 69
9, 9408, Note_on_c, 9, 40, 112
9, 9408, Note_on_c, 9, 42, 54
9, 9408, Note_on_c, 9, 82, 64
9, 9420, Note_off_c, 9, 82, 64
9, 9420, Note_off_c, 9, 42, 54
9, 9420, Note_off_c, 9, 40, 112
9, 9504, Note_on_c, 9, 42, 74
9, 9504, Note_on_c, 9, 82, 53
9, 9516, Note_off_c, 9, 82, 53
9, 9516, Note_off_c, 9, 42, 74
9, 9600, Note_on_c, 9, 36, 105
9, 9600, Note_on_c, 9, 42, 57
9, 9600, Note_on_c, 9, 82, 62
9, 9612, Note_off_c, 9, 82, 62
9, 9612, Note_off_c, 9, 42, 57
9, 9612, Note_off_c, 9, 36, 105
9, 9696, Note_on_c, 9, 42, 69
9, 9696, Note_on_c, 9, 82, 60
9, 9708, Note_off_c, 9, 82, 60
9, 9708, Note_off_c, 9, 42, 69
9, 9792, Note_on_c, 9, 40, 113
9, 9792, Note_on_c, 9, 42, 57
9, 9792, Note_on_c, 9, 82, 68
9, 9804, Note_off_c, 9, 82, 68
9, 9804, Note_off_c, 9, 42, 57
9, 9804, Note_off_c, 9, 40, 113
9, 9888, Note_on_c, 9, 42, 79
9, 9888, Note_on_c, 9, 82, 50
9, 9900, Note_off_c, 9, 82, 50
9, 9900, Note_off_c, 9, 42, 79
9, 9984, Note_on_c, 9, 36, 105
9, 9984, Note_on_c, 9, 42, 54
9, 9984, Note_on_c, 9, 82, 68
9, 9996, Note_off_c, 9, 82, 68
9, 9996, Note_off_c, 9, 42, 54
9, 9996, Note_off_c, 9, 36, 105
9, 10080, Note_on_c, 9, 42, 69
9, 10080, Note_on_c, 9, 82, 58
9, 10092, Note_off_c, 9, 82, 58
9, 10092, Note_off_c, 9, 42, 69
9, 10176, Note_on_c, 9, 40, 113
9, 10176, Note_on_c, 9, 42, 49
9, 10176, Note_on_c, 9, 82, 66
9, 10176, Note_on_c, 9, 85, 94
9, 10188, Note_off_c, 9, 85, 94
9, 10188, Note_off_c, 9, 82, 66
9, 10188, Note_off_c, 9, 42, 49
9, 10188, Note_off_c, 9, 40, 113
9, 10272, Note_on_c, 9, 42, 79
9, 10272, Note_on_c, 9, 82, 60
9, 10284, Note_off_c, 9, 82, 60
9, 10284, Note_off_c, 9, 42, 79
9, 10368, Note_on_c, 9, 36, 105
9, 10368, Note_on_c, 9, 42, 46
9, 10368, Note_on_c, 9, 82, 56
9, 10380, Note_off_c, 9, 82, 56
9, 10380, Note_off_c, 9, 42, 46
9, 10380, Note_off_c, 9, 36, 105
9, 10464, Note_on_c, 9, 42, 74
9, 10464, Note_on_c, 9, 82, 60
9, 10476, Note_off_c, 9, 82, 60
9, 10476, Note_off_c, 9, 42, 74
9, 10560, Note_on_c, 9, 40, 113
9, 10560, Note_on_c, 9, 42, 46
9, 10560, Note_on_c, 9, 82, 64
9, 10560, Note_on_c, 9, 85, 94
9, 10572, Note_off_c, 9, 85, 94
9, 10572, Note_off_c, 9, 82, 64
9, 10572, Note_off_c, 9, 42, 46
9, 10572, Note_off_c, 9, 40, 113
9, 10656, Note_on_c, 9, 42, 79
9, 10656, Note_on_c, 9, 82, 64
9, 10668, Note_off_c, 9, 82, 64
9, 10668, Note_off_c, 9, 42, 79
9, 10752, Note_on_c, 9, 36, 105
9, 10752, Note_on_c, 9, 42, 42
9, 10752, Note_on_c, 9, 82, 66
9, 10764, Note_off_c, 9, 82, 66
9, 10764, Note_off_c, 9, 42, 42
9, 10764, Note_off_c, 9, 36, 105
9, 10848, Note_on_c, 9, 42, 69
9, 10848, Note_on_c, 9, 82, 64
9, 10860, Note_off_c, 9, 82, 64
9, 10860, Note_off_c, 9, 42, 69
9, 10944, Note_on_c, 9, 40, 112
9, 10944, Note_on_c, 9, 42, 54
9, 10944, Note_on_c, 9, 82, 62
9, 10956, Note_off_c, 9, 82, 62
9, 10956, Note_off_c, 9, 42, 54
9, 10956, Note_off_c, 9, 40, 112
9, 11040, Note_on_c, 9, 42, 74
9, 11040, Note_on_c, 9, 82, 64
9, 11052, Note_off_c, 9, 82, 64
9, 11052, Note_off_c, 9, 42, 74
9, 11136, Note_on_c, 9, 36, 105
9, 11136, Note_on_c, 9, 42, 57
9, 11136, Note_on_c, 9, 82, 64
9, 11148, Note_off_c, 9, 82, 64
9, 11148, Note_off_c, 9, 42, 57
9, 11148, Note_off_c, 9, 36, 105
9, 11232, Note_on_c, 9, 42, 69
9, 11232, Note_on_c, 9, 82, 68
9, 11244, Note_off_c, 9, 82, 68
9, 11244, Note_off_c, 9, 42, 69
9, 11328, Note_on_c, 9, 40, 113
9, 11328, Note_on_c, 9, 42, 57
9, 11328, Note_on_c, 9, 82, 62
9, 11340, Note_off_c, 9, 82, 62
9, 11340, Note_off_c, 9, 42, 57
9, 11340, Note_off_c, 9, 40, 113
9, 11424, Note_on_c, 9, 42, 79
9, 11424, Note_on_c, 9, 82, 64
9, 11436, Note_off_c, 9, 82, 64
9, 11436, Note_off_c, 9, 42, 79
9, 11520, Note_on_c, 9, 36, 105
9, 11520, Note_on_c, 9, 42, 54
9, 11520, Note_on_c, 9, 82, 62
9, 11532, Note_off_c, 9, 82, 62
9, 11532, Note_off_c, 9, 42, 54
9, 11532, Note_off_c, 9, 36, 105
9, 11616, Note_on_c, 9, 42, 69
9, 11616, Note_on_c, 9, 82, 55
9, 11628, Note_off_c, 9, 82, 55
9, 11628, Note_off_c, 9, 42, 69
9, 11712, Note_on_c, 9, 40, 113
9, 11712, Note_on_c, 9, 42, 49
9, 11712, Note_on_c, 9, 82, 55
9, 11724, Note_off_c, 9, 82, 55
9, 11724, Note_off_c, 9, 42, 49
9, 11724, Note_off_c, 9, 40, 113
9, 11808, Note_on_c, 9, 42, 79
9, 11808, Note_on_c, 9, 82, 51
9, 11820, Note_off_c, 9, 82, 51
9, 11820, Note_off_c, 9, 42, 79
9, 11904, Note_on_c, 9, 36, 105
9, 11904, Note_on_c, 9, 42, 46
9, 11904, Note_on_c, 9, 82, 58
9, 11916, Note_off_c, 9, 82, 58
9, 11916, Note_off_c, 9, 42, 46
9, 11916, Note_off_c, 9, 36, 105
9, 12000, Note_on_c, 9, 42, 74
9, 12000, Note_on_c, 9, 82, 47
9, 12012, Note_off_c, 9, 82, 47
9, 12012, Note_off_c, 9, 42, 74
9, 12096, Note_on_c, 9, 40, 113
9, 12096, Note_on_c, 9, 42, 46
9, 12096, Note_on_c, 9, 82, 62
9, 12108, Note_off_c, 9, 82, 62
9, 12108, Note_off_c, 9, 42, 46
9, 12108, Note_off_c, 9, 40, 113
9, 12192, Note_on_c, 9, 42, 79
9, 12192, Note_on_c, 9, 82, 58
9, 12204, Note_off_c, 9, 82, 58
9, 12204, Note_off_c, 9, 42, 79
9, 12288, Note_on_c, 9, 36, 105
9, 12288, Note_on_c, 9, 42, 42
9, 12288, Note_on_c, 9, 82, 56
9, 12300, Note_off_c, 9, 82, 56
9, 12300, Note_off_c, 9, 42, 42
9, 12300, Note_off_c, 9, 36, 105
9, 12384, Note_on_c, 9, 42, 69
9, 12384, Note_on_c, 9, 82, 46
9, 12396, Note_off_c, 9, 82, 46
9, 12396, Note_off_c, 9, 42, 69
9, 12480, Note_on_c, 9, 40, 112
9, 12480, Note_on_c, 9, 42, 54
9, 12480, Note_on_c, 9, 82, 64
9, 12492, Note_off_c, 9, 82, 64
9, 12492, Note_off_c, 9, 42, 54
9, 12492, Note_off_c, 9, 40, 112
9, 12576, Note_on_c, 9, 42, 74
9, 12576, Note_on_c, 9, 82, 53
9, 12588, Note_off_c, 9, 82, 53
9, 12588, Note_off_c, 9, 42, 74
9, 12672, Note_on_c, 9, 36, 105
9, 12672, Note_on_c, 9, 42, 57
9, 12672, Note_on_c, 9, 82, 62
9, 12684, Note_off_c, 9, 82, 62
9, 12684, Note_off_c, 9, 42, 57
9, 12684, Note_off_c, 9, 36, 105
9, 12768, Note_on_c, 9, 42, 69
9, 12768, Note_on_c, 9, 82, 60
9, 12780, Note_off_c, 9, 82, 60
9, 12780, Note_off_c, 9, 42, 69
9, 12864, Note_on_c, 9, 40, 113
9, 12864, Note_on_c, 9, 42, 57
9, 12864, Note_on_c, 9, 82, 68
9, 12876, Note_off_c, 9, 82, 68
9, 12876, Note_off_c, 9, 42, 57
9, 12876, Note_off_c, 9, 40, 113
9, 12960, Note_on_c, 9, 42, 79
9, 12960, Note_on_c, 9, 82, 50
9, 12972, Note_off_c, 9, 82, 50
9, 12972, Note_off_c, 9, 42, 79
9, 13056, Note_on_c, 9, 36, 105
9, 13056, Note_on_c, 9, 42, 54
9, 13056, Note_on_c, 9, 82, 68
9, 13068, Note_off_c, 9, 82, 68
9, 13068, Note_off_c, 9, 42, 54
9, 13068, Note_off_c, 9, 36, 105
9, 13152, Note_on_c, 9, 42, 69
9, 13152, Note_on_c, 9, 82, 58
9, 13164, Note_off_c, 9, 82, 58
9, 13164, Note_off_c, 9, 42, 69
9, 13248, Note_on_c, 9, 40, 113
9, 13248, Note_on_c, 9, 42, 49
9, 13248, Note_on_c, 9, 82, 66
9, 13260, Note_off_c, 9, 82, 66
9, 13260, Note_off_c, 9, 42, 49
9, 13260, Note_off_c, 9, 40, 113
9, 13344, Note_on_c, 9, 42, 79
9, 13344, Note_on_c, 9, 82, 60
9, 13356, Note_off_c, 9, 82, 60
9, 13356, Note_off_c, 9, 42, 79
9, 13440, Note_on_c, 9, 36, 105
9, 13440, Note_on_c, 9, 42, 46
9, 13440, Note_on_c, 9, 82, 56
9, 13452, Note_off_c, 9, 82, 56
9, 13452, Note_off_c, 9, 42, 46
9, 13452, Note_off_c, 9, 36, 105
9, 13536, Note_on_c, 9, 42, 74
9, 13536, Note_on_c, 9, 82, 60
9, 13548, Note_off_c, 9, 82, 60
9, 13548, Note_off_c, 9, 42, 74
9, 13632, Note_on_c, 9, 40, 113
9, 13632, Note_on_c, 9, 42, 46
9, 13632, Note_on_c, 9, 82, 64
9, 13644, Note_off_c, 9, 82, 64
9, 13644, Note_off_c, 9, 42, 46
9, 13644, Note_off_c, 9, 40, 113
9, 13728, Note_on_c, 9, 42, 79
9, 13728, Note_on_c, 9, 82, 64
9, 13740, Note_off_c, 9, 82, 64
9, 13740, Note_off_c, 9, 42, 79
9, 13824, Note_on_c, 9, 36, 105
9, 13824, Note_on_c, 9, 42, 42
9, 13824, Note_on_c, 9, 82, 66
9, 13836, Note_off_c, 9, 82, 66
9, 13836, Note_off_c, 9, 42, 42
9, 13836, Note_off_c, 9, 36, 105
9, 13920, Note_on_c, 9, 42, 69
9, 13920, Note_on_c, 9, 82, 64
9, 13932, Note_off_c, 9, 82, 64
9, 13932, Note_off_c, 9, 42, 69
9, 14016, Note_on_c, 9, 40, 112
9, 14016, Note_on_c, 9, 42, 54
9, 14016, Note_on_c, 9, 82, 62
9, 14028, Note_off_c, 9, 82, 62
9, 14028, Note_off_c, 9, 42, 54
9, 14028, Note_off_c, 9, 40, 112
9, 14112, Note_on_c, 9, 42, 74
9, 14112, Note_on_c, 9, 82, 64
9, 14124, Note_off_c, 9, 82, 64
9, 14124, Note_off_c, 9, 42, 74
9, 14208, Note_on_c, 9, 36, 105
9, 14208, Note_on_c, 9, 42, 57
9, 14208, Note_on_c, 9, 82, 64
9, 14220, Note_off_c, 9, 82, 64
9, 14220, Note_off_c, 9, 42, 57
9, 14220, Note_off_c, 9, 36, 105
9, 14304, Note_on_c, 9, 42, 69
9, 14304, Note_on_c, 9, 82, 68
9, 14316, Note_off_c, 9, 82, 68
9, 14316, Note_off_c, 9, 42, 69
9, 14400, Note_on_c, 9, 40, 113
9, 14400, Note_on_c, 9, 42, 57
9, 14400, Note_on_c, 9, 82, 62
9, 14412, Note_off_c, 9, 82, 62
9, 14412, Note_off_c, 9, 42, 57
9, 14412, Note_off_c, 9, 40, 113
9, 14496, Note_on_c, 9, 42, 79
9, 14496, Note_on_c, 9, 82, 64
9, 14508, Note_off_c, 9, 82, 64
9, 14508, Note_off_c, 9, 42, 79
9, 14592, Note_on_c, 9, 36, 105
9, 14592, Note_on_c, 9, 42, 54
9, 14592, Note_on_c, 9, 82, 62
9, 14604, Note_off_c, 9, 82, 62
9, 14604, Note_off_c, 9, 42, 54
9, 14604, Note_off_c, 9, 36, 105
9, 14688, Note_on_c, 9, 42, 69
9, 14688, Note_on_c, 9, 82, 55
9, 14700, Note_off_c, 9, 82, 55
9, 14700, Note_off_c, 9, 42, 69
9, 14784, Note_on_c, 9, 40, 113
9, 14784, Note_on_c, 9, 42, 49
9, 14784, Note_on_c, 9, 82, 55
9, 14796, Note_off_c, 9, 82, 55
9, 14796, Note_off_c, 9, 42, 49
9, 14796, Note_off_c, 9, 40, 113
9, 14880, Note_on_c, 9, 42, 79
9, 14880, Note_on_c, 9, 82, 51
9, 14892, Note_off_c, 9, 82, 51
9, 14892, Note_off_c, 9, 42, 79
9, 14976, Note_on_c, 9, 36, 105
9, 14976, Note_on_c, 9, 42, 46
9, 14976, Note_on_c, 9, 82, 58
9, 14988, Note_off_c, 9, 82, 58
9, 14988, Note_off_c, 9, 42, 46
9, 14988, Note_off_c, 9, 36, 105
9, 15072, Note_on_c, 9, 42, 74
9, 15072, Note_on_c, 9, 82, 47
9, 15084, Note_off_c, 9, 82, 47
9, 15084, Note_off_c, 9, 42, 74
9, 15168, Note_on_c, 9, 40, 113
9, 15168, Note_on_c, 9, 42, 46
9, 15168, Note_on_c, 9, 82, 62
9, 15180, Note_off_c, 9, 82, 62
9, 15180, Note_off_c, 9, 42, 46
9, 15180, Note_off_c, 9, 40, 113
9, 15264, Note_on_c, 9, 42, 79
9, 15264, Note_on_c, 9, 82, 58
9, 15276, Note_off_c, 9, 82, 58
9, 15276, Note_off_c, 9, 42, 79
9, 15360, Note_on_c, 9, 36, 105
9, 15360, Note_on_c, 9, 42, 42
9, 15360, Note_on_c, 9, 82, 56
9, 15372, Note_off_c, 9, 82, 56
9, 15372, Note_off_c, 9, 42, 42
9, 15372, Note_off_c, 9, 36, 105
9, 15456, Note_on_c, 9, 42, 69
9, 15456, Note_on_c, 9, 82, 46
9, 15468, Note_off_c, 9, 82, 46
9, 15468, Note_off_c, 9, 42, 69
9, 15552, Note_on_c, 9, 40, 112
9, 15552, Note_on_c, 9, 42, 54
9, 15552, Note_on_c, 9, 82, 64
9, 15564, Note_off_c, 9, 82, 64
9, 15564, Note_off_c, 9, 42, 54
9, 15564, Note_off_c, 9, 40, 112
9, 15648, Note_on_c, 9, 42, 74
9, 15648, Note_on_c, 9, 82, 53
9, 15660, Note_off_c, 9, 82, 53
9, 15660, Note_off_c, 9, 42, 74
9, 15744, Note_on_c, 9, 36, 105
9, 15744, Note_on_c, 9, 42, 57
9, 15744, Note_on_c, 9, 82, 62
9, 15756, Note_off_c, 9, 82, 62
9, 15756, Note_off_c, 9, 42, 57
9, 15756, Note_off_c, 9, 36, 105
9, 15840, Note_on_c, 9, 42, 69
9, 15840, Note_on_c, 9, 82, 60
9, 15852, Note_off_c, 9, 82, 60
9, 15852, Note_off_c, 9, 42, 69
9, 15936, Note_on_c, 9, 40, 113
9, 15936, Note_on_c, 9, 42, 57
9, 15936, Note_on_c, 9, 82, 68
9, 15948, Note_off_c, 9, 82, 68
9, 15948, Note_off_c, 9, 42, 57
9, 15948, Note_off_c, 9, 40, 113
9, 16032, Note_on_c, 9, 42, 79
9, 16032, Note_on_c, 9, 82, 50
9, 16044, Note_off_c, 9, 82, 50
9, 16044, Note_off_c, 9, 42, 79
9, 16128, Note_on_c, 9, 36, 105
9, 16128, Note_on_c, 9, 42, 54
9, 16128, Note_on_c, 9, 82, 68
9, 16140, Note_off_c, 9, 82, 68
9, 16140, Note_off_c, 9, 42, 54
9, 16140, Note_off_c, 9, 36, 105
9, 16224, Note_on_c, 9, 42, 69
9, 16224, Note_on_c, 9, 82, 58
9, 16236, Note_off_c, 9, 82, 58
9, 16236, Note_off_c, 9, 42, 69
9, 16320, Note_on_c, 9, 40, 113
9, 16320, Note_on_c, 9, 42, 49
9, 16320, Note_on_c, 9, 82, 66
9, 16332, Note_off_c, 9, 82, 66
9, 16332, Note_off_c, 9, 42, 49
9, 16332, Note_off_c, 9, 40, 113
9, 16416, Note_on_c, 9, 42, 79
9, 16416, Note_on_c, 9, 82, 60
9, 16428, Note_off_c, 9, 82, 60
9, 16428, Note_off_c, 9, 42, 79
9, 16512, Note_on_c, 9, 36, 105
9, 16512, Note_on_c, 9, 42, 46
9, 16512, Note_on_c, 9, 82, 56
9, 16524, Note_off_c, 9, 82, 56
9, 16524, Note_off_c, 9, 42, 46
9, 16524, Note_off_c, 9, 36, 105
9, 16608, Note_on_c, 9, 42, 74
9, 16608, Note_on_c, 9, 82, 60
9, 16620, Note_off_c, 9, 82, 60
9, 16620, Note_off_c, 9, 42, 74
9, 16704, Note_on_c, 9, 40, 113
9, 16704, Note_on_c, 9, 42, 46
9, 16704, Note_on_c, 9, 82, 64
9, 16716, Note_off_c, 9, 82, 64
9, 16716, Note_off_c, 9, 42, 46
9, 16716, Note_off_c, 9, 40, 113
9, 16800, Note_on_c, 9, 42, 79
9, 16800, Note_on_c, 9, 82, 64
9, 16812, Note_off_c, 9, 82, 64
9, 16812, Note_off_c, 9, 42, 79
9, 16896, Note_on_c, 9, 36, 105
9, 16896, Note_on_c, 9, 42, 42
9, 16896, Note_on_c, 9, 82, 66
9, 16908, Note_off_c, 9, 82, 66
9, 16908, Note_off_c, 9, 42, 42
9, 16908, Note_off_c, 9, 36, 105
9, 16992, Note_on_c, 9, 42, 69
9, 16992, Note_on_c, 9, 82, 64
9, 17004, Note_off_c, 9, 82, 64
9, 17004, Note_off_c, 9, 42, 69
9, 17088, Note_on_c, 9, 40, 112
9, 17088, Note_on_c, 9, 42, 54
9, 17088, Note_on_c, 9, 82, 62
9, 17100, Note_off_c, 9, 82, 62
9, 17100, Note_off_c, 9, 42, 54
9, 17100, Note_off_c, 9, 40, 112
9, 17184, Note_on_c, 9, 42, 74
9, 17184, Note_on_c, 9, 82, 64
9, 17196, Note_off_c, 9, 82, 64
9, 17196, Note_off_c, 9, 42, 74
9, 17280, Note_on_c, 9, 36, 105
9, 17280, Note_on_c, 9, 42, 57
9, 17280, Note_on_c, 9, 82, 64
9, 17292, Note_off_c, 9, 82, 64
9, 17292, Note_off_c, 9, 42, 57
9, 17292, Note_off_c, 9, 36, 105
9, 17376, Note_on_c, 9, 42, 69
9, 17376, Note_on_c, 9, 82, 68
9, 17388, Note_off_c, 9, 82, 68
9, 17388, Note_off_c, 9, 42, 69
9, 17472, Note_on_c, 9, 40, 113
9, 17472, Note_on_c, 9, 42, 57
9, 17472, Note_on_c, 9, 82, 62
9, 17484, Note_off_c, 9, 82, 62
9, 17484, Note_off_c, 9, 42, 57
9, 17484, Note_off_c, 9, 40, 113
9, 17568, Note_on_c, 9, 42, 79
9, 17568, Note_on_c, 9, 82, 64
9, 17580, Note_off_c, 9, 82, 64
9, 17580, Note_off_c, 9, 42, 79
9, 17664, Note_on_c, 9, 36, 105
9, 17664, Note_on_c, 9, 42, 54
9, 17664, Note_on_c, 9, 82, 62
9, 17676, Note_off_c, 9, 82, 62
9, 17676, Note_off_c, 9, 42, 54
9, 17676, Note_off_c, 9, 36, 105
9, 17760, Note_on_c, 9, 42, 69
9, 17760, Note_on_c, 9, 82, 55
9, 17772, Note_off_c, 9, 82, 55
9, 17772, Note_off_c, 9, 42, 69
9, 17856, Note_on_c, 9, 40, 113
9, 17856, Note_on_c, 9, 42, 49
9, 17856, Note_on_c, 9, 82, 55
9, 17868, Note_off_c, 9, 82, 55
9, 17868, Note_off_c, 9, 42, 49
9, 17868, Note_off_c, 9, 40, 113
9, 17952, Note_on_c, 9, 42, 79
9, 17952, Note_on_c, 9, 82, 51
9, 17964, Note_off_c, 9, 82, 51
9, 17964, Note_off_c, 9, 42, 79
9, 18048, Note_on_c, 9, 36, 105
9, 18048, Note_on_c, 9, 42, 46
9, 18048, Note_on_c, 9, 82, 58
9, 18060, Note_off_c, 9, 82, 58
9, 18060, Note_off_c, 9, 42, 46
9, 18060, Note_off_c, 9, 36, 105
9, 18144, Note_on_c, 9, 42, 74
9, 18144, Note_on_c, 9, 82, 47
9, 18156, Note_off_c, 9, 82, 47
9, 18156, Note_off_c, 9, 42, 74
9, 18240, Note_on_c, 9, 40, 113
9, 18240, Note_on_c, 9, 42, 46
9, 18240, Note_on_c, 9, 82, 62
9, 18252, Note_off_c, 9, 82, 62
9, 18252, Note_off_c, 9, 42, 46
9, 18252, Note_off_c, 9, 40, 113
9, 18336, Note_on_c, 9, 42, 79
9, 18336, Note_on_c, 9, 82, 58
9, 18348, Note_off_c, 9, 82, 58
9, 18348, Note_off_c, 9, 42, 79
9, 18432, Note_on_c, 9, 36, 105
9, 18432, Note_on_c, 9, 42, 42
9, 18432, Note_on_c, 9, 82, 56
9, 18444, Note_off_c, 9, 82, 56
9, 18444, Note_off_c, 9, 42, 42
9, 18444, Note_off_c, 9, 36, 105
9, 18528, Note_on_c, 9, 42, 69
9, 18528, Note_on_c, 9, 82, 46
9, 18540, Note_off_c, 9, 82, 46
9, 18540, Note_off_c, 9, 42, 69
9, 18624, Note_on_c, 9, 40, 112
9, 18624, Note_on_c, 9, 42, 54
9, 18624, Note_on_c, 9, 82, 64
9, 18636, Note_off_c, 9, 82, 64
9, 18636, Note_off_c, 9, 42, 54
9, 18636, Note_off_c, 9, 40, 112
9, 18720, Note_on_c, 9, 42, 74
9, 18720, Note_on_c, 9, 82, 53
9, 18732, Note_off_c, 9, 82, 53
9, 18732, Note_off_c, 9, 42, 74
9, 18816, Note_on_c, 9, 36, 105
9, 18816, Note_on_c, 9, 42, 57
9, 18816, Note_on_c, 9, 82, 62
9, 18828, Note_off_c, 9, 82, 62
9, 18828, Note_off_c, 9, 42, 57
9, 18828, Note_off_c, 9, 36, 105
9, 18912, Note_on_c, 9, 42, 69
9, 18912, Note_on_c, 9, 82, 60
9, 18924, Note_off_c, 9, 82, 60
9, 18924, Note_off_c, 9, 42, 69
9, 19008, Note_on_c, 9, 40, 113
9, 19008, Note_on_c, 9, 42, 57
9, 19008, Note_on_c, 9, 82, 68
9, 19020, Note_off_c, 9, 82, 68
9, 19020, Note_off_c, 9, 42, 57
9, 19020, Note_off_c, 9, 40, 113
9, 19104, Note_on_c, 9, 42, 79
9, 19104, Note_on_c, 9, 82, 50
9, 19116, Note_off_c, 9, 82, 50
9, 19116, Note_off_c, 9, 42, 79
9, 19200, Note_on_c, 9, 36, 105
9, 19200, Note_on_c, 9, 42, 54
9, 19200, Note_on_c, 9, 82, 68
9, 19212, Note_off_c, 9, 82, 68
9, 19212, Note_off_c, 9, 42, 54
9, 19212, Note_off_c, 9, 36, 105
9, 19296, Note_on_c, 9, 42, 69
9, 19296, Note_on_c, 9, 82, 58
9, 19308, Note_off_c, 9, 82, 58
9, 19308, Note_off_c, 9, 42, 69
9, 19392, Note_on_c, 9, 40, 113
9, 19392, Note_on_c, 9, 42, 49
9, 19392, Note_on_c, 9, 82, 66
9, 19404, Note_off_c, 9, 82, 66
9, 19404, Note_off_c, 9, 42, 49
9, 19404, Note_off_c, 9, 40, 113
9, 19488, Note_on_c, 9, 42, 79
9, 19488, Note_on_c, 9, 82, 60
9, 19500, Note_off_c, 9, 82, 60
9, 19500, Note_off_c, 9, 42, 79
9, 19584, Note_on_c, 9, 36, 105
9, 19584, Note_on_c, 9, 42, 46
9, 19584, Note_on_c, 9, 82, 56
9, 19596, Note_off_c, 9, 82, 56
9, 19596, Note_off_c, 9, 42, 46
9, 19596, Note_off_c, 9, 36, 105
9, 19680, Note_on_c, 9, 42, 74
9, 19680, Note_on_c, 9, 82, 60
9, 19692, Note_off_c, 9, 82, 60
9, 19692, Note_off_c, 9, 42, 74
9, 19776, Note_on_c, 9, 40, 113
9, 19776, Note_on_c, 9, 42, 46
9, 19776, Note_on_c, 9, 82, 64
9, 19788, Note_off_c, 9, 82, 64
9, 19788, Note_off_c, 9, 42, 46
9, 19788, Note_off_c, 9, 40, 113
9, 19872, Note_on_c, 9, 42, 79
9, 19872, Note_on_c, 9, 82, 64
9, 19884, Note_off_c, 9, 82, 64
9, 19884, Note_off_c, 9, 42, 79
9, 19968, Note_on_c, 9, 36, 105
9, 19968, Note_on_c, 9, 42, 42
9, 19968, Note_on_c, 9, 82, 66
9, 19980, Note_off_c, 9, 82, 66
9, 19980, Note_off_c, 9, 42, 42
9, 19980, Note_off_c, 9, 36, 105
9, 20064, Note_on_c, 9, 42, 69
9, 20064, Note_on_c, 9, 82, 64
9, 20076, Note_off_c, 9, 82, 64
9, 20076, Note_off_c, 9, 42, 69
9, 20160, Note_on_c, 9, 40, 112
9, 20160, Note_on_c, 9, 42, 54
9, 20160, Note_on_c, 9, 82, 62
9, 20172, Note_off_c, 9, 82, 62
9, 20172, Note_off_c, 9, 42, 54
9, 20172, Note_off_c, 9, 40, 112
9, 20256, Note_on_c, 9, 42, 74
9, 20256, Note_on_c, 9, 82, 64
9, 20268, Note_off_c, 9, 82, 64
9, 20268, Note_off_c, 9, 42, 74
9, 20352, Note_on_c, 9, 36, 105
9, 20352, Note_on_c, 9, 42, 57
9, 20352, Note_on_c, 9, 82, 64
9, 20364, Note_off_c, 9, 82, 64
9, 20364, Note_off_c, 9, 42, 57
9, 20364, Note_off_c, 9, 36, 105
9, 20448, Note_on_c, 9, 42, 69
9, 20448, Note_on_c, 9, 82, 68
9, 20460, Note_off_c, 9, 82, 68
9, 20460, Note_off_c, 9, 42, 69
9, 20544, Note_on_c, 9, 40, 113
9, 20544, Note_on_c, 9, 42, 57
9, 20544, Note_on_c, 9, 82, 62
9, 20556, Note_off_c, 9, 82, 62
9, 20556, Note_off_c, 9, 42, 57
9, 20556, Note_off_c, 9, 40, 113
9, 20640, Note_on_c, 9, 42, 79
9, 20640, Note_on_c, 9, 82, 64
9, 20652, Note_off_c, 9, 82, 64
9, 20652, Note_off_c, 9, 42, 79
9, 20736, Note_on_c, 9, 36, 105
9, 20736, Note_on_c, 9, 42, 54
9, 20736, Note_on_c, 9, 82, 62
9, 20748, Note_off_c, 9, 82, 62
9, 20748, Note_off_c, 9, 42, 54
9, 20748, Note_off_c, 9, 36, 105
9, 20832, Note_on_c, 9, 42, 69
9, 20832, Note_on_c, 9, 82, 55
9, 20844, Note_off_c, 9, 82, 55
9, 20844, Note_off_c, 9, 42, 69
9, 20928, Note_on_c, 9, 40, 113
9, 20928, Note_on_c, 9, 42, 49
9, 20928, Note_on_c, 9, 82, 55
9, 20940, Note_off_c, 9, 82, 55
9, 20940, Note_off_c, 9, 42, 49
9, 20940, Note_off_c, 9, 40, 113
9, 21024, Note_on_c, 9, 42, 79
9, 21024, Note_on_c, 9, 82, 51
9, 21036, Note_off_c, 9, 82, 51
9, 21036, Note_off_c, 9, 42, 79
9, 21120, Note_on_c, 9, 36, 105
9, 21120, Note_on_c, 9, 42, 46
9, 21120, Note_on_c, 9, 82, 58
9, 21132, Note_off_c, 9, 82, 58
9, 21132, Note_off_c, 9, 42, 46
9, 21132, Note_off_c, 9, 36, 105
9, 21216, Note_on_c, 9, 42, 74
9, 21216, Note_on_c, 9, 82, 47
9, 21228, Note_off_c, 9, 82, 47
9, 21228, Note_off_c, 9, 42, 74
9, 21312, Note_on_c, 9, 40, 113
9, 21312, Note_on_c, 9, 42, 46
9, 21312, Note_on_c, 9, 82, 62
9, 21324, Note_off_c, 9, 82, 62
9, 21324, Note_off_c, 9, 42, 46
9, 21324, Note_off_c, 9, 40, 113
9, 21408, Note_on_c, 9, 42, 79
9, 21408, Note_on_c, 9, 82, 58
9, 21420, Note_off_c, 9, 82, 58
9, 21420, Note_off_c, 9, 42, 79
9, 21504, Note_on_c, 9, 36, 105
9, 21504, Note_on_c, 9, 42, 42
9, 21504, Note_on_c, 9, 82, 56
9, 21516, Note_off_c, 9, 82, 56
9, 21516, Note_off_c, 9, 42, 42
9, 21516, Note_off_c, 9, 36, 105
9, 21600, Note_on_c, 9, 42, 69
9, 21600, Note_on_c, 9, 82, 46
9, 21612, Note_off_c, 9, 82, 46
9, 21612, Note_off_c, 9, 42, 69
9, 21696, Note_on_c, 9, 40, 112
9, 21696, Note_on_c, 9, 42, 54
9, 21696, Note_on_c, 9, 82, 64
9, 21708, Note_off_c, 9, 82, 64
9, 21708, Note_off_c, 9, 42, 54
9, 21708, Note_off_c, 9, 40, 112
9, 21792, Note_on_c, 9, 42, 74
9, 21792, Note_on_c, 9, 82, 53
9, 21804, Note_off_c, 9, 82, 53
9, 21804, Note_off_c, 9, 42, 74
9, 21888, Note_on_c, 9, 36, 105
9, 21888, Note_on_c, 9, 42, 57
9, 21888, Note_on_c, 9, 82, 62
9, 21900, Note_off_c, 9, 82, 62
9, 21900, Note_off_c, 9, 42, 57
9, 21900, Note_off_c, 9, 36, 105
9, 21984, Note_on_c, 9, 42, 69
9, 21984, Note_on_c, 9, 82, 60
9, 21996, Note_off_c, 9, 82, 60
9, 21996, Note_off_c, 9, 42, 69
9, 22080, Note_on_c, 9, 40, 113
9, 22080, Note_on_c, 9, 42, 57
9, 22080, Note_on_c, 9, 82, 68
9, 22092, Note_off_c, 9, 82, 68
9, 22092, Note_off_c, 9, 42, 57
9, 22092, Note_off_c, 9, 40, 113
9, 22176, Note_on_c, 9, 42, 79
9, 22176, Note_on_c, 9, 82, 50
9, 22188, Note_off_c, 9, 82, 50
9, 22188, Note_off_c, 9, 42, 79
9, 22272, Note_on_c, 9, 36, 105
9, 22272, Note_on_c, 9, 42, 54
9, 22272, Note_on_c, 9, 82, 68
9, 22284, Note_off_c, 9, 82, 68
9, 22284, Note_off_c, 9, 42, 54
9, 22284, Note_off_c, 9, 36, 105
9, 22368, Note_on_c, 9, 42, 69
9, 22368, Note_on_c, 9, 82, 58
9, 22380, Note_off_c, 9, 82, 58
9, 22380, Note_off_c, 9, 42, 69
9, 22464, Note_on_c, 9, 40, 113
9, 22464, Note_on_c, 9, 42, 49
9, 22464, Note_on_c, 9, 82, 66
9, 22476, Note_off_c, 9, 82, 66
9, 22476, Note_off_c, 9, 42, 49
9, 22476, Note_off_c, 9, 40, 113
9, 22560, Note_on_c, 9, 42, 79
9, 22560, Note_on_c, 9, 82, 60
9, 22572, Note_off_c, 9, 82, 60
9, 22572, Note_off_c, 9, 42, 79
9, 22656, Note_on_c, 9, 36, 105
9, 22656, Note_on_c, 9, 42, 46
9, 22656, Note_on_c, 9, 82, 56
9, 22668, Note_off_c, 9, 82, 56
9, 22668, Note_off_c, 9, 42, 46
9, 22668, Note_off_c, 9, 36, 105
9, 22752, Note_on_c, 9, 42, 74
9, 22752, Note_on_c, 9, 82, 60
9, 22764, Note_off_c, 9, 82, 60
9, 22764, Note_off_c, 9, 42, 74
9, 22848, Note_on_c, 9, 40, 113
9, 22848, Note_on_c, 9, 42, 46
9, 22848, Note_on_c, 9, 82, 64
9, 22860, Note_off_c, 9, 82, 64
9, 22860, Note_off_c, 9, 42, 46
9, 22860, Note_off_c, 9, 40, 113
9, 22944, Note_on_c, 9, 42, 79
9, 22944, Note_on_c, 9, 82, 64
9, 22956, Note_off_c, 9, 82, 64
9, 22956, Note_off_c, 9, 42, 79
9, 23040, Note_on_c, 9, 36, 105
9, 23040, Note_on_c, 9, 42, 42
9, 23040, Note_on_c, 9, 82, 66
9, 23052, Note_off_c, 9, 82, 66
9, 23052, Note_off_c, 9, 42, 42
9, 23052, Note_off_c, 9, 36, 105
9, 23136, Note_on_c, 9, 42, 69
9, 23136, Note_on_c, 9, 82, 64
9, 23148, Note_off_c, 9, 82, 64
9, 23148, Note_off_c, 9, 42, 69
9, 23232, Note_on_c, 9, 40, 112
9, 23232, Note_on_c, 9, 42, 54
9, 23232, Note_on_c, 9, 82, 62
9, 23244, Note_off_c, 9, 82, 62
9, 23244, Note_off_c, 9, 42, 54
9, 23244, Note_off_c, 9, 40, 112
9, 23328, Note_on_c, 9, 42, 74
9, 23328, Note_on_c, 9, 82, 64
9, 23340, Note_off_c, 9, 82, 64
9, 23340, Note_off_c, 9, 42, 74
9, 23424, Note_on_c, 9, 36, 105
9, 23424, Note_on_c, 9, 42, 57
9, 23424, Note_on_c, 9, 82, 64
9, 23436, Note_off_c, 9, 82, 64
9, 23436, Note_off_c, 9, 42, 57
9, 23436, Note_off_c, 9, 36, 105
9, 23520, Note_on_c, 9, 42, 69
9, 23520, Note_on_c, 9, 82, 68
9, 23532, Note_off_c, 9, 82, 68
9, 23532, Note_off_c, 9, 42, 69
9, 23616, Note_on_c, 9, 40, 113
9, 23616, Note_on_c, 9, 42, 57
9, 23616, Note_on_c, 9, 82, 62
9, 23628, Note_off_c, 9, 82, 62
9, 23628, Note_off_c, 9, 42, 57
9, 23628, Note_off_c, 9, 40, 113
9, 23712, Note_on_c, 9, 42, 79
9, 23712, Note_on_c, 9, 82, 64
9, 23724, Note_off_c, 9, 82, 64
9, 23724, Note_off_c, 9, 42, 79
9, 23808, Note_on_c, 9, 36, 105
9, 23808, Note_on_c, 9, 42, 54
9, 23808, Note_on_c, 9, 82, 62
9, 23820, Note_off_c, 9, 82, 62
9, 23820, Note_off_c, 9, 42, 54
9, 23820, Note_off_c, 9, 36, 105
9, 23904, Note_on_c, 9, 42, 69
9, 23904, Note_on_c, 9, 82, 55
9, 23916, Note_off_c, 9, 82, 55
9, 23916, Note_off_c, 9, 42, 69
9, 24000, Note_on_c, 9, 40, 113
9, 24000, Note_on_c, 9, 42, 49
9, 24000, Note_on_c, 9, 82, 55
9, 24012, Note_off_c, 9, 82, 55
9, 24012, Note_off_c, 9, 42, 49
9, 24012, Note_off_c, 9, 40, 113
9, 24096, Note_on_c, 9, 42, 79
9, 24096, Note_on_c, 9, 82, 51
9, 24108, Note_off_c, 9, 82, 51
9, 24108, Note_off_c, 9, 42, 79
9, 24192, Note_on_c, 9, 36, 105
9, 24192, Note_on_c, 9, 42, 46
9, 24192, Note_on_c, 9, 82, 58
9, 24204, Note_off_c, 9, 82, 58
9, 24204, Note_off_c, 9, 42, 46
9, 24204, Note_off_c, 9, 36, 105
9, 24288, Note_on_c, 9, 42, 74
9, 24288, Note_on_c, 9, 82, 47
9, 24300, Note_off_c, 9, 82, 47
9, 24300, Note_off_c, 9, 42, 74
9, 24384, Note_on_c, 9, 40, 113
9, 24384, Note_on_c, 9, 42, 46
9, 24384, Note_on_c, 9, 82, 62
9, 24396, Note_off_c, 9, 82, 62
9, 24396, Note_off_c, 9, 42, 46
9, 24396, Note_off_c, 9, 40, 113
9, 24480, Note_on_c, 9, 42, 79
9, 24480, Note_on_c, 9, 82, 58
9, 24492, Note_off_c, 9, 82, 58
9, 24492, Note_off_c, 9, 42, 79
9, 24576, Note_on_c, 9, 36, 105
9, 24576, Note_on_c, 9, 42, 42
9, 24576, Note_on_c, 9, 82, 56
9, 24588, Note_off_c, 9, 82, 56
9, 24588, Note_off_c, 9, 42, 42
9, 24588, Note_off_c, 9, 36, 105
9, 24672, Note_on_c, 9, 42, 69
9, 24672, Note_on_c, 9, 82, 46
9, 24684, Note_off_c, 9, 82, 46
9, 24684, Note_off_c, 9, 42, 69
9, 24768, Note_on_c, 9, 40, 112
9, 24768, Note_on_c, 9, 42, 54
9, 24768, Note_on_c, 9, 82, 64
9, 24780, Note_off_c, 9, 82, 64
9, 24780, Note_off_c, 9, 42, 54
9, 24780, Note_off_c, 9, 40, 112
9, 24864, Note_on_c, 9, 42, 74
9, 24864, Note_on_c, 9, 82, 53
9, 24876, Note_off_c, 9, 82, 53
9, 24876, Note_off_c, 9, 42, 74
9, 24960, Note_on_c, 9, 36, 105
9, 24960, Note_on_c, 9, 42, 57
9, 24960, Note_on_c, 9, 82, 62
9, 24972, Note_off_c, 9, 82, 62
9, 24972, Note_off_c, 9, 42, 57
9, 24972, Note_off_c, 9, 36, 105
9, 25056, Note_on_c, 9, 42, 69
9, 25056, Note_on_c, 9, 82, 60
9, 25068, Note_off_c, 9, 82, 60
9, 25068, Note_off_c, 9, 42, 69
9, 25152, Note_on_c, 9, 40, 113
9, 25152, Note_on_c, 9, 42, 57
9, 25152, Note_on_c, 9, 82, 68
9, 25164, Note_off_c, 9, 82, 68
9, 25164, Note_off_c, 9, 42, 57
9, 25164, Note_off_c, 9, 40, 113
9, 25248, Note_on_c, 9, 42, 79
9, 25248, Note_on_c, 9, 82, 50
9, 25260, Note_off_c, 9, 82, 50
9, 25260, Note_off_c, 9, 42, 79
9, 25344, Note_on_c, 9, 36, 105
9, 25344, Note_on_c, 9, 42, 54
9, 25344, Note_on_c, 9, 82, 68
9, 25356, Note_off_c, 9, 82, 68
9, 25356, Note_off_c, 9, 42, 54
9, 25356, Note_off_c, 9, 36, 105
9, 25440, Note_on_c, 9, 42, 69
9, 25440, Note_on_c, 9, 82, 58
9, 25452, Note_off_c, 9, 82, 58
9, 25452, Note_off_c, 9, 42, 69
9, 25536, Note_on_c, 9, 40, 113
9, 25536, Note_on_c, 9, 42, 49
9, 25536, Note_on_c, 9, 82, 66
9, 25548, Note_off_c, 9, 82, 66
9, 25548, Note_off_c, 9, 42, 49
9, 25548, Note_off_c, 9, 40, 113
9, 25632, Note_on_c, 9, 42, 79
9, 25632, Note_on_c, 9, 82, 60
9, 25644, Note_off_c, 9, 82, 60
9, 25644, Note_off_c, 9, 42, 79
9, 25728, Note_on_c, 9, 36, 105
9, 25728, Note_on_c, 9, 42, 46
9, 25728, Note_on_c, 9, 82, 56
9, 25740, Note_off_c, 9, 82, 56
9, 25740, Note_off_c, 9, 42, 46
9, 25740, Note_off_c, 9, 36, 105
9, 25824, Note_on_c, 9, 42, 74
9, 25824, Note_on_c, 9, 82, 60
9, 25836, Note_off_c, 9, 82, 60
9, 25836, Note_off_c, 9, 42, 74
9, 25920, Note_on_c, 9, 40, 113
9, 25920, Note_on_c, 9, 42, 46
9, 25920, Note_on_c, 9, 82, 64
9, 25932, Note_off_c, 9, 82, 64
9, 25932, Note_off_c, 9, 42, 46
9, 25932, Note_off_c, 9, 40, 113
9, 26016, Note_on_c, 9, 40, 117
9, 26016, Note_on_c, 9, 46, 94
9, 26016, Note_on_c, 9, 82, 64
9, 26028, Note_off_c, 9, 82, 64
9, 26028, Note_off_c, 9, 46, 94
9, 26028, Note_off_c, 9, 40, 117
9, 26064, Note_on_c, 9, 40, 121
9, 26076, Note_off_c, 9, 40, 121
9, 26112, Note_on_c, 9, 36, 105
9, 26112, Note_on_c, 9, 42, 42
9, 26112, Note_on_c, 9, 82, 66
9, 26124, Note_off_c, 9, 82, 66
9, 26124, Note_off_c, 9, 42, 42
9, 26124, Note_off_c, 9, 36, 105
9, 26208, Note_on_c, 9, 42, 69
9, 26208, Note_on_c, 9, 82, 64
9, 26220, Note_off_c, 9, 82, 64
9, 26220, Note_off_c, 9, 42, 69
9, 26304, Note_on_c, 9, 40, 112
9, 26304, Note_on_c, 9, 42, 54
9, 26304, Note_on_c, 9, 82, 62
9, 26316, Note_off_c, 9, 82, 62
9, 26316, Note_off_c, 9, 42, 54
9, 26316, Note_off_c, 9, 40, 112
9, 26400, Note_on_c, 9, 42, 74
9, 26400, Note_on_c, 9, 82, 64
9, 26412, Note_off_c, 9, 82, 64
9, 26412, Note_off_c, 9, 42, 74
9, 26496, Note_on_c, 9, 36, 105
9, 26496, Note_on_c, 9, 42, 57
9, 26496, Note_on_c, 9, 82, 64
9, 26508, Note_off_c, 9, 82, 64
9, 26508, Note_off_c, 9, 42, 57
9, 26508, Note_off_c, 9, 36, 105
9, 26592, Note_on_c, 9, 42, 69
9, 26592, Note_on_c, 9, 82, 68
9, 26604, Note_off_c, 9, 82, 68
9, 26604, Note_off_c, 9, 42, 69
9, 26688, Note_on_c, 9, 40, 113
9, 26688, Note_on_c, 9, 42, 57
9, 26688, Note_on_c, 9, 82, 62
9, 26700, Note_off_c, 9, 82, 62
9, 26700, Note_off_c, 9, 42, 57
9, 26700, Note_off_c, 9, 40, 113
9, 26784, Note_on_c, 9, 42, 79
9, 26784, Note_on_c, 9, 82, 64
9, 26796, Note_off_c, 9, 82, 64
9, 26796, Note_off_c, 9, 42, 79
9, 26880, Note_on_c, 9, 36, 105
9, 26880, Note_on_c, 9, 42, 54
9, 26880, Note_on_c, 9, 82, 62
9, 26892, Note_off_c, 9, 82, 62
9, 26892, Note_off_c, 9, 42, 54
9, 26892, Note_off_c, 9, 36, 105
9, 26976, Note_on_c, 9, 42, 69
9, 26976, Note_on_c, 9, 82, 55
9, 26988, Note_off_c, 9, 82, 55
9, 26988, Note_off_c, 9, 42, 69
9, 27072, Note_on_c, 9, 40, 113
9, 27072, Note_on_c, 9, 42, 49
9, 27072, Note_on_c, 9, 82, 55
9, 27084, Note_off_c, 9, 82, 55
9, 27084, Note_off_c, 9, 42, 49
9, 27084, Note_off_c, 9, 40, 113
9, 27168, Note_on_c, 9, 42, 79
9, 27168, Note_on_c, 9, 82, 51
9, 27180, Note_off_c, 9, 82, 51
9, 27180, Note_off_c, 9, 42, 79
9, 27264, Note_on_c, 9, 36, 105
9, 27264, Note_on_c, 9, 42, 46
9, 27264, Note_on_c, 9, 82, 58
9, 27276, Note_off_c, 9, 82, 58
9, 27276, Note_off_c, 9, 42, 46
9, 27276, Note_off_c, 9, 36, 105
9, 27360, Note_on_c, 9, 42, 74
9, 27360, Note_on_c, 9, 82, 47
9, 27372, Note_off_c, 9, 82, 47
9, 27372, Note_off_c, 9, 42, 74
9, 27456, Note_on_c, 9, 40, 113
9, 27456, Note_on_c, 9, 42, 46
9, 27456, Note_on_c, 9, 52, 84
9, 27456, Note_on_c, 9, 82, 62
9, 27468, Note_off_c, 9, 82, 62
9, 27468, Note_off_c, 9, 52, 84
9, 27468, Note_off_c, 9, 42, 46
9, 27468, Note_off_c, 9, 40, 113
9, 27552, Note_on_c, 9, 46, 98
9, 27552, Note_on_c, 9, 82, 58
9, 27564, Note_off_c, 9, 82, 58
9, 27564, Note_off_c, 9, 46, 98
9, 27648, Note_on_c, 9, 36, 105
9, 27648, Note_on_c, 9, 42, 42
9, 27648, Note_on_c, 9, 82, 56
9, 27660, Note_off_c, 9, 82, 56
9, 27660, Note_off_c, 9, 42, 42
9, 27660, Note_off_c, 9, 36, 105
9, 27744, Note_on_c, 9, 42, 69
9, 27744, Note_on_c, 9, 82, 46
9, 27756, Note_off_c, 9, 82, 46
9, 27756, Note_off_c, 9, 42, 69
9, 27840, Note_on_c, 9, 40, 112
9, 27840, Note_on_c, 9, 42, 54
9, 27840, Note_on_c, 9, 82, 64
9, 27852, Note_off_c, 9, 82, 64
9, 27852, Note_off_c, 9, 42, 54
9, 27852, Note_off_c, 9, 40, 112
9, 27936, Note_on_c, 9, 42, 74
9, 27936, Note_on_c, 9, 82, 53
9, 27948, Note_off_c, 9, 82, 53
9, 27948, Note_off_c, 9, 42, 74
9, 28032, Note_on_c, 9, 36, 105
9, 28032, Note_on_c, 9, 42, 57
9, 28032, Note_on_c, 9, 82, 62
9, 28044, Note_off_c, 9, 82, 62
9, 28044, Note_off_c, 9, 42, 57
9, 28044, Note_off_c, 9, 36, 105
9, 28128, Note_on_c, 9, 42, 69
9, 28128, Note_on_c, 9, 82, 60
9, 28140, Note_off_c, 9, 82, 60
9, 28140, Note_off_c, 9, 42, 69
9, 28224, Note_on_c, 9, 40, 113
9, 28224, Note_on_c, 9, 42, 57
9, 28224, Note_on_c, 9, 82, 68
9, 28236, Note_off_c, 9, 82, 68
9, 28236, Note_off_c, 9, 42, 57
9, 28236, Note_off_c, 9, 40, 113
9, 28320, Note_on_c, 9, 42, 79
9, 28320, Note_on_c, 9, 82, 50
9, 28332, Note_off_c, 9, 82, 50
9, 28332, Note_off_c, 9, 42, 79
9, 28416, Note_on_c, 9, 36, 105
9, 28416, Note_on_c, 9, 42, 54
9, 28416, Note_on_c, 9, 82, 68
9, 28428, Note_off_c, 9, 82, 68
9, 28428, Note_off_c, 9, 42, 54
9, 28428, Note_off_c, 9, 36, 105
9, 28512, Note_on_c, 9, 42, 69
9, 28512, Note_on_c, 9, 82, 58
9, 28524, Note_off_c, 9, 82, 58
9, 28524, Note_off_c, 9, 42, 69
9, 28608, Note_on_c, 9, 40, 113
9, 28608, Note_on_c, 9, 42, 49
9, 28608, Note_on_c, 9, 82, 66
9, 28620, Note_off_c, 9, 82, 66
9, 28620, Note_off_c, 9, 42, 49
9, 28620, Note_off_c, 9, 40, 113
9, 28704, Note_on_c, 9, 42, 79
9, 28704, Note_on_c, 9, 82, 60
9, 28716, Note_off_c, 9, 82, 60
9, 28716, Note_off_c, 9, 42, 79
9, 28800, Note_on_c, 9, 36, 105
9, 28800, Note_on_c, 9, 42, 46
9, 28800, Note_on_c, 9, 82, 56
9, 28812, Note_off_c, 9, 82, 56
9, 28812, Note_off_c, 9, 42, 46
9, 28812, Note_off_c, 9, 36, 105
9, 28896, Note_on_c, 9, 42, 74
9, 28896, Note_on_c, 9, 82, 60
9, 28908, Note_off_c, 9, 82, 60
9, 28908, Note_off_c, 9, 42, 74
9, 28992, Note_on_c, 9, 40, 113
9, 28992, Note_on_c, 9, 42, 46
9, 28992, Note_on_c, 9, 52, 84
9, 28992, Note_on_c, 9, 82, 64
9, 29004, Note_off_c, 9, 82, 64
9, 29004, Note_off_c, 9, 52, 84
9, 29004, Note_off_c, 9, 42, 46
9, 29004, Note_off_c, 9, 40, 113
9, 29088, Note_on_c, 9, 46, 103
9, 29088, Note_on_c, 9, 82, 64
9, 29100, Note_off_c, 9, 82, 64
9, 29100, Note_off_c, 9, 46, 103
9, 29184, Note_on_c, 9, 36, 105
9, 29184, Note_on_c, 9, 42, 42
9, 29184, Note_on_c, 9, 82, 66
9, 29196, Note_off_c, 9, 82, 66
9, 29196, Note_off_c, 9, 42, 42
9, 29196, Note_off_c, 9, 36, 105
9, 29280, Note_on_c, 9, 42, 69
9, 29280, Note_on_c, 9, 82, 64
9, 29292, Note_off_c, 9, 82, 64
9, 29292, Note_off_c, 9, 42, 69
9, 29376, Note_on_c, 9, 40, 112
9, 29376, Note_on_c, 9, 42, 54
9, 29376, Note_on_c, 9, 82, 62
9, 29388, Note_off_c, 9, 82, 62
9, 29388, Note_off_c, 9, 42, 54
9, 29388, Note_off_c, 9, 40, 112
9, 29472, Note_on_c, 9, 42, 74
9, 29472, Note_on_c, 9, 82, 64
9, 29484, Note_off_c, 9, 82, 64
9, 29484, Note_off_c, 9, 42, 74
9, 29568, Note_on_c, 9, 36, 105
9, 29568, Note_on_c, 9, 42, 57
9, 29568, Note_on_c, 9, 82, 64
9, 29580, Note_off_c, 9, 82, 64
9, 29580, Note_off_c, 9, 42, 57
9, 29580, Note_off_c, 9, 36, 105
9, 29664, Note_on_c, 9, 42, 69
9, 29664, Note_on_c, 9, 82, 68
9, 29676, Note_off_c, 9, 82, 68
9, 29676, Note_off_c, 9, 42, 69
9, 29760, Note_on_c, 9, 40, 113
9, 29760, Note_on_c, 9, 42, 57
9, 29760, Note_on_c, 9, 82, 62
9, 29772, Note_off_c, 9, 82, 62
9, 29772, Note_off_c, 9, 42, 57
9, 29772, Note_off_c, 9, 40, 113
9, 29856, Note_on_c, 9, 42, 79
9, 29856, Note_on_c, 9, 82, 64
9, 29868, Note_off_c, 9, 82, 64
9, 29868, Note_off_c, 9, 42, 79
9, 29952, Note_on_c, 9, 36, 105
9, 29952, Note_on_c, 9, 42, 54
9, 29952, Note_on_c, 9, 82, 62
9, 29964, Note_off_c, 9, 82, 62
9, 29964, Note_off_c, 9, 42, 54
9, 29964, Note_off_c, 9, 36, 105
9, 30048, Note_on_c, 9, 42, 69
9, 30048, Note_on_c, 9, 82, 55
9, 30060, Note_off_c, 9, 82, 55
9, 30060, Note_off_c, 9, 42, 69
9, 30144, Note_on_c, 9, 40, 113
9, 30144, Note_on_c, 9, 42, 49
9, 30144, Note_on_c, 9, 82, 55
9, 30156, Note_off_c, 9, 82, 55
9, 30156, Note_off_c, 9, 42, 49
9, 30156, Note_off_c, 9, 40, 113
9, 30240, Note_on_c, 9, 42, 79
9, 30240, Note_on_c, 9, 82, 51
9, 30252, Note_off_c, 9, 82, 51
9, 30252, Note_off_c, 9, 42, 79
9, 30336, Note_on_c, 9, 36, 105
9, 30336, Note_on_c, 9, 42, 46
9, 30336, Note_on_c, 9, 82, 58
9, 30348, Note_off_c, 9, 82, 58
9, 30348, Note_off_c, 9, 42, 46
9, 30348, Note_off_c, 9, 36, 105
9, 30432, Note_on_c, 9, 42, 74
9, 30432, Note_on_c, 9, 82, 47
9, 30444, Note_off_c, 9, 82, 47
9, 30444, Note_off_c, 9, 42, 74
9, 30528, Note_on_c, 9, 40, 113
9, 30528, Note_on_c, 9, 42, 46
9, 30528, Note_on_c, 9, 52, 84
9, 30528, Note_on_c, 9, 82, 62
9, 30540, Note_off_c, 9, 82, 62
9, 30540, Note_off_c, 9, 52, 84
9, 30540, Note_off_c, 9, 42, 46
9, 30540, Note_off_c, 9, 40, 113
9, 30624, Note_on_c, 9, 46, 101
9, 30624, Note_on_c, 9, 82, 58
9, 30636, Note_off_c, 9, 82, 58
9, 30636, Note_off_c, 9, 46, 101
9, 30720, Note_on_c, 9, 36, 105
9, 30720, Note_on_c, 9, 42, 36
9, 30720, Note_on_c, 9, 82, 56
9, 30732, Note_off_c, 9, 82, 56
9, 30732, Note_off_c, 9, 42, 36
9, 30732, Note_off_c, 9, 36, 105
9, 30816, Note_on_c, 9, 42, 34
9, 30816, Note_on_c, 9, 82, 46
9, 30828, Note_off_c, 9, 82, 46
9, 30828, Note_off_c, 9, 42, 34
9, 30912, Note_on_c, 9, 40, 112
9, 30912, Note_on_c, 9, 42, 59
9, 30912, Note_on_c, 9, 82, 64
9, 30924, Note_off_c, 9, 82, 64
9, 30924, Note_off_c, 9, 42, 59
9, 30924, Note_off_c, 9, 40, 112
9, 31008, Note_on_c, 9, 46, 89
9, 31008, Note_on_c, 9, 82, 53
9, 31020, Note_off_c, 9, 82, 53
9, 31020, Note_off_c, 9, 46, 89
9, 31104, Note_on_c, 9, 36, 105
9, 31104, Note_on_c, 9, 42, 62
9, 31104, Note_on_c, 9, 82, 62
9, 31116, Note_off_c, 9, 82, 62
9, 31116, Note_off_c, 9, 42, 62
9, 31116, Note_off_c, 9, 36, 105
9, 31200, Note_on_c, 9, 42, 49
9, 31200, Note_on_c, 9, 82, 60
9, 31212, Note_off_c, 9, 82, 60
9, 31212, Note_off_c, 9, 42, 49
9, 31296, Note_on_c, 9, 40, 113
9, 31296, Note_on_c, 9, 42, 59
9, 31296, Note_on_c, 9, 82, 68
9, 31308, Note_off_c, 9, 82, 68
9, 31308, Note_off_c, 9, 42, 59
9, 31308, Note_off_c, 9, 40, 113
9, 31392, Note_on_c, 9, 46, 99
9, 31392, Note_on_c, 9, 82, 50
9, 31404, Note_off_c, 9, 82, 50
9, 31404, Note_off_c, 9, 46, 99
9, 31488, Note_on_c, 9, 36, 105
9, 31488, Note_on_c, 9, 42, 62
9, 31488, Note_on_c, 9, 82, 68
9, 31500, Note_off_c, 9, 82, 68
9, 31500, Note_off_c, 9, 42, 62
9, 31500, Note_off_c, 9, 36, 105
9, 31584, Note_on_c, 9, 42, 47
9, 31584, Note_on_c, 9, 82, 58
9, 31596, Note_off_c, 9, 82, 58
9, 31596, Note_off_c, 9, 42, 47
9, 31680, Note_on_c, 9, 40, 113
9, 31680, Note_on_c, 9, 42, 59
9, 31680, Note_on_c, 9, 82, 66
9, 31692, Note_off_c, 9, 82, 66
9, 31692, Note_off_c, 9, 42, 59
9, 31692, Note_off_c, 9, 40, 113
9, 31776, Note_on_c, 9, 46, 94
9, 31776, Note_on_c, 9, 82, 60
9, 31788, Note_off_c, 9, 82, 60
9, 31788, Note_off_c, 9, 46, 94
9, 31872, Note_on_c, 9, 36, 105
9, 31872, Note_on_c, 9, 42, 62
9, 31872, Note_on_c, 9, 82, 56
9, 31884, Note_off_c, 9, 82, 56
9, 31884, Note_off_c, 9, 42, 62
9, 31884, Note_off_c, 9, 36, 105
9, 31968, Note_on_c, 9, 42, 49
9, 31968, Note_on_c, 9, 82, 60
9, 31980, Note_off_c, 9, 82, 60
9, 31980, Note_off_c, 9, 42, 49
9, 32064, Note_on_c, 9, 40, 113
9, 32064, Note_on_c, 9, 42, 56
9, 32064, Note_on_c, 9, 52, 84
9, 32064, Note_on_c, 9, 82, 64
9, 32076, Note_off_c, 9, 82, 64
9, 32076, Note_off_c, 9, 52, 84
9, 32076, Note_off_c, 9, 42, 56
9, 32076, Note_off_c, 9, 40, 113
9, 32080, Control_c, 9, 11, 127
9, 32114, Control_c, 9, 99, 24
9, 32137, Control_c, 9, 98, 39
9, 32156, Control_c, 9, 6, 70
9, 32160, Note_on_c, 9, 46, 94
9, 32160, Note_on_c, 9, 82, 64
9, 32172, Note_off_c, 9, 82, 64
9, 32172, Note_off_c, 9, 46, 94
9, 32186, Control_c, 9, 99, 29
9, 32206, Control_c, 9, 98, 39
9, 32225, Control_c, 9, 6, 40
9, 32256, Note_on_c, 9, 36, 105
9, 32256, Note_on_c, 9, 42, 42
9, 32256, Note_on_c, 9, 57, 75
9, 32256, Note_on_c, 9, 82, 66
9, 32268, Note_off_c, 9, 82, 66
9, 32268, Note_off_c, 9, 42, 42
9, 32268, Note_off_c, 9, 36, 105
9, 32307, Note_off_c, 9, 57, 75
9, 32352, Note_on_c, 9, 42, 69
9, 32352, Note_on_c, 9, 82, 64
9, 32364, Note_off_c, 9, 82, 64
9, 32364, Note_off_c, 9, 42, 69
9, 32448, Note_on_c, 9, 39, 110
9, 32448, Note_on_c, 9, 40, 112
9, 32448, Note_on_c, 9, 42, 54
9, 32448, Note_on_c, 9, 82, 62
9, 32460, Note_off_c, 9, 82, 62
9, 32460, Note_off_c, 9, 42, 54
9, 32460, Note_off_c, 9, 40, 112
9, 32460, Note_off_c, 9, 39, 110
9, 32544, Note_on_c, 9, 42, 74
9, 32544, Note_on_c, 9, 82, 64
9, 32556, Note_off_c, 9, 82, 64
9, 32556, Note_off_c, 9, 42, 74
9, 32640, Note_on_c, 9, 36, 105
9, 32640, Note_on_c, 9, 42, 57
9, 32640, Note_on_c, 9, 82, 64
9, 32652, Note_off_c, 9, 82, 64
9, 32652, Note_off_c, 9, 42, 57
9, 32652, Note_off_c, 9, 36, 105
9, 32736, Note_on_c, 9, 42, 69
9, 32736, Note_on_c, 9, 82, 68
9, 32748, Note_off_c, 9, 82, 68
9, 32748, Note_off_c, 9, 42, 69
9, 32832, Note_on_c, 9, 39, 110
9, 32832, Note_on_c, 9, 40, 113
9, 32832, Note_on_c, 9, 42, 57
9, 32832, Note_on_c, 9, 82, 62
9, 32844, Note_off_c, 9, 82, 62
9, 32844, Note_off_c, 9, 42, 57
9, 32844, Note_off_c, 9, 40, 113
9, 32844, Note_off_c, 9, 39, 110
9, 32928, Note_on_c, 9, 42, 79
9, 32928, Note_on_c, 9, 82, 64
9, 32940, Note_off_c, 9, 82, 64
9, 32940, Note_off_c, 9, 42, 79
9, 33024, Note_on_c, 9, 36, 105
9, 33024, Note_on_c, 9, 42, 54
9, 33024, Note_on_c, 9, 82, 62
9, 33036, Note_off_c, 9, 82, 62
9, 33036, Note_off_c, 9, 42, 54
9, 33036, Note_off_c, 9, 36, 105
9, 33120, Note_on_c, 9, 42, 69
9, 33120, Note_on_c, 9, 82, 55
9, 33132, Note_off_c, 9, 82, 55
9, 33132, Note_off_c, 9, 42, 69
9, 33216, Note_on_c, 9, 39, 110
9, 33216, Note_on_c, 9, 40, 113
9, 33216, Note_on_c, 9, 42, 49
9, 33216, Note_on_c, 9, 82, 55
9, 33228, Note_off_c, 9, 82, 55
9, 33228, Note_off_c, 9, 42, 49
9, 33228, Note_off_c, 9, 40, 113
9, 33228, Note_off_c, 9, 39, 110
9, 33312, Note_on_c, 9, 42, 79
9, 33312, Note_on_c, 9, 82, 51
9, 33324, Note_off_c, 9, 82, 51
9, 33324, Note_off_c, 9, 42, 79
9, 33408, Note_on_c, 9, 36, 105
9, 33408, Note_on_c, 9, 42, 46
9, 33408, Note_on_c, 9, 82, 58
9, 33420, Note_off_c, 9, 82, 58
9, 33420, Note_off_c, 9, 42, 46
9, 33420, Note_off_c, 9, 36, 105
9, 33504, Note_on_c, 9, 42, 74
9, 33504, Note_on_c, 9, 82, 47
9, 33516, Note_off_c, 9, 82, 47
9, 33516, Note_off_c, 9, 42, 74
9, 33552, Note_on_c, 9, 45, 97
9, 33564, Note_off_c, 9, 45, 97
9, 33600, Note_on_c, 9, 39, 110
9, 33600, Note_on_c, 9, 40, 113
9, 33600, Note_on_c, 9, 42, 46
9, 33600, Note_on_c, 9, 43, 103
9, 33600, Note_on_c, 9, 82, 62
9, 33612, Note_off_c, 9, 82, 62
9, 33612, Note_off_c, 9, 43, 103
9, 33612, Note_off_c, 9, 42, 46
9, 33612, Note_off_c, 9, 40, 113
9, 33612, Note_off_c, 9, 39, 110
9, 33696, Note_on_c, 9, 42, 79
9, 33696, Note_on_c, 9, 82, 66
9, 33708, Note_off_c, 9, 82, 66
9, 33708, Note_off_c, 9, 42, 79
9, 33744, Note_on_c, 9, 82, 69
9, 33756, Note_off_c, 9, 82, 69
9, 33792, Note_on_c, 9, 36, 105
9, 33792, Note_on_c, 9, 42, 42
9, 33792, Note_on_c, 9, 82, 56
9, 33804, Note_off_c, 9, 82, 56
9, 33804, Note_off_c, 9, 42, 42
9, 33804, Note_off_c, 9, 36, 105
9, 33888, Note_on_c, 9, 42, 69
9, 33888, Note_on_c, 9, 82, 46
9, 33900, Note_off_c, 9, 82, 46
9, 33900, Note_off_c, 9, 42, 69
9, 33984, Note_on_c, 9, 39, 110
9, 33984, Note_on_c, 9, 40, 112
9, 33984, Note_on_c, 9, 42, 54
9, 33984, Note_on_c, 9, 82, 64
9, 33996, Note_off_c, 9, 82, 64
9, 33996, Note_off_c, 9, 42, 54
9, 33996, Note_off_c, 9, 40, 112
9, 33996, Note_off_c, 9, 39, 110
9, 34080, Note_on_c, 9, 42, 74
9, 34080, Note_on_c, 9, 82, 53
9, 34092, Note_off_c, 9, 82, 53
9, 34092, Note_off_c, 9, 42, 74
9, 34176, Note_on_c, 9, 36, 105
9, 34176, Note_on_c, 9, 42, 57
9, 34176, Note_on_c, 9, 82, 62
9, 34188, Note_off_c, 9, 82, 62
9, 34188, Note_off_c, 9, 42, 57
9, 34188, Note_off_c, 9, 36, 105
9, 34272, Note_on_c, 9, 42, 69
9, 34272, Note_on_c, 9, 82, 60
9, 34284, Note_off_c, 9, 82, 60
9, 34284, Note_off_c, 9, 42, 69
9, 34368, Note_on_c, 9, 39, 110
9, 34368, Note_on_c, 9, 40, 113
9, 34368, Note_on_c, 9, 42, 57
9, 34368, Note_on_c, 9, 82, 68
9, 34380, Note_off_c, 9, 82, 68
9, 34380, Note_off_c, 9, 42, 57
9, 34380, Note_off_c, 9, 40, 113
9, 34380, Note_off_c, 9, 39, 110
9, 34464, Note_on_c, 9, 42, 79
9, 34464, Note_on_c, 9, 82, 50
9, 34476, Note_off_c, 9, 82, 50
9, 34476, Note_off_c, 9, 42, 79
9, 34560, Note_on_c, 9, 36, 105
9, 34560, Note_on_c, 9, 42, 54
9, 34560, Note_on_c, 9, 82, 68
9, 34572, Note_off_c, 9, 82, 68
9, 34572, Note_off_c, 9, 42, 54
9, 34572, Note_off_c, 9, 36, 105
9, 34656, Note_on_c, 9, 42, 69
9, 34656, Note_on_c, 9, 82, 58
9, 34668, Note_off_c, 9, 82, 58
9, 34668, Note_off_c, 9, 42, 69
9, 34752, Note_on_c, 9, 39, 110
9, 34752, Note_on_c, 9, 40, 113
9, 34752, Note_on_c, 9, 42, 49
9, 34752, Note_on_c, 9, 82, 66
9, 34764, Note_off_c, 9, 82, 66
9, 34764, Note_off_c, 9, 42, 49
9, 34764, Note_off_c, 9, 40, 113
9, 34764, Note_off_c, 9, 39, 110
9, 34848, Note_on_c, 9, 42, 79
9, 34848, Note_on_c, 9, 82, 60
9, 34860, Note_off_c, 9, 82, 60
9, 34860, Note_off_c, 9, 42, 79
9, 34944, Note_on_c, 9, 36, 105
9, 34944, Note_on_c, 9, 42, 46
9, 34944, Note_on_c, 9, 82, 56
9, 34956, Note_off_c, 9, 82, 56
9, 34956, Note_off_c, 9, 42, 46
9, 34956, Note_off_c, 9, 36, 105
9, 35040, Note_on_c, 9, 42, 74
9, 35040, Note_on_c, 9, 82, 60
9, 35052, Note_off_c, 9, 82, 60
9, 35052, Note_off_c, 9, 42, 74
9, 35136, Note_on_c, 9, 39, 110
9, 35136, Note_on_c, 9, 40, 113
9, 35136, Note_on_c, 9, 42, 46
9, 35136, Note_on_c, 9, 82, 64
9, 35148, Note_off_c, 9, 82, 64
9, 35148, Note_off_c, 9, 42, 46
9, 35148, Note_off_c, 9, 40, 113
9, 35148, Note_off_c, 9, 39, 110
9, 35232, Note_on_c, 9, 42, 79
9, 35232, Note_on_c, 9, 82, 64
9, 35244, Note_off_c, 9, 82, 64
9, 35244, Note_off_c, 9, 42, 79
9, 35328, Note_on_c, 9, 36, 105
9, 35328, Note_on_c, 9, 42, 42
9, 35328, Note_on_c, 9, 82, 66
9, 35340, Note_off_c, 9, 82, 66
9, 35340, Note_off_c, 9, 42, 42
9, 35340, Note_off_c, 9, 36, 105
9, 35424, Note_on_c, 9, 42, 69
9, 35424, Note_on_c, 9, 82, 64
9, 35436, Note_off_c, 9, 82, 64
9, 35436, Note_off_c, 9, 42, 69
9, 35520, Note_on_c, 9, 39, 110
9, 35520, Note_on_c, 9, 40, 112
9, 35520, Note_on_c, 9, 42, 54
9, 35520, Note_on_c, 9, 82, 62
9, 35532, Note_off_c, 9, 82, 62
9, 35532, Note_off_c, 9, 42, 54
9, 35532, Note_off_c, 9, 40, 112
9, 35532, Note_off_c, 9, 39, 110
9, 35616, Note_on_c, 9, 42, 74
9, 35616, Note_on_c, 9, 82, 64
9, 35628, Note_off_c, 9, 82, 64
9, 35628, Note_off_c, 9, 42, 74
9, 35712, Note_on_c, 9, 36, 105
9, 35712, Note_on_c, 9, 42, 57
9, 35712, Note_on_c, 9, 82, 64
9, 35724, Note_off_c, 9, 82, 64
9, 35724, Note_off_c, 9, 42, 57
9, 35724, Note_off_c, 9, 36, 105
9, 35808, Note_on_c, 9, 42, 69
9, 35808, Note_on_c, 9, 82, 68
9, 35820, Note_off_c, 9, 82, 68
9, 35820, Note_off_c, 9, 42, 69
9, 35904, Note_on_c, 9, 39, 110
9, 35904, Note_on_c, 9, 40, 113
9, 35904, Note_on_c, 9, 42, 57
9, 35904, Note_on_c, 9, 82, 62
9, 35916, Note_off_c, 9, 82, 62
9, 35916, Note_off_c, 9, 42, 57
9, 35916, Note_off_c, 9, 40, 113
9, 35916, Note_off_c, 9, 39, 110
9, 36000, Note_on_c, 9, 42, 79
9, 36000, Note_on_c, 9, 82, 64
9, 36012, Note_off_c, 9, 82, 64
9, 36012, Note_off_c, 9, 42, 79
9, 36096, Note_on_c, 9, 36, 105
9, 36096, Note_on_c, 9, 42, 54
9, 36096, Note_on_c, 9, 82, 62
9, 36108, Note_off_c, 9, 82, 62
9, 36108, Note_off_c, 9, 42, 54
9, 36108, Note_off_c, 9, 36, 105
9, 36192, Note_on_c, 9, 42, 69
9, 36192, Note_on_c, 9, 82, 55
9, 36204, Note_off_c, 9, 82, 55
9, 36204, Note_off_c, 9, 42, 69
9, 36288, Note_on_c, 9, 39, 110
9, 36288, Note_on_c, 9, 40, 113
9, 36288, Note_on_c, 9, 42, 49
9, 36288, Note_on_c, 9, 82, 55
9, 36300, Note_off_c, 9, 82, 55
9, 36300, Note_off_c, 9, 42, 49
9, 36300, Note_off_c, 9, 40, 113
9, 36300, Note_off_c, 9, 39, 110
9, 36384, Note_on_c, 9, 42, 79
9, 36384, Note_on_c, 9, 82, 51
9, 36396, Note_off_c, 9, 82, 51
9, 36396, Note_off_c, 9, 42, 79
9, 36480, Note_on_c, 9, 36, 105
9, 36480, Note_on_c, 9, 42, 46
9, 36480, Note_on_c, 9, 82, 58
9, 36492, Note_off_c, 9, 82, 58
9, 36492, Note_off_c, 9, 42, 46
9, 36492, Note_off_c, 9, 36, 105
9, 36576, Note_on_c, 9, 42, 74
9, 36576, Note_on_c, 9, 82, 47
9, 36588, Note_off_c, 9, 82, 47
9, 36588, Note_off_c, 9, 42, 74
9, 36672, Note_on_c, 9, 39, 110
9, 36672, Note_on_c, 9, 40, 113
9, 36672, Note_on_c, 9, 42, 46
9, 36672, Note_on_c, 9, 82, 62
9, 36684, Note_off_c, 9, 82, 62
9, 36684, Note_off_c, 9, 42, 46
9, 36684, Note_off_c, 9, 40, 113
9, 36684, Note_off_c, 9, 39, 110
9, 36768, Note_on_c, 9, 42, 79
9, 36768, Note_on_c, 9, 82, 58
9, 36780, Note_off_c, 9, 82, 58
9, 36780, Note_off_c, 9, 42, 79
9, 36864, Note_on_c, 9, 36, 105
9, 36864, Note_on_c, 9, 42, 42
9, 36864, Note_on_c, 9, 82, 56
9, 36876, Note_off_c, 9, 82, 56
9, 36876, Note_off_c, 9, 42, 42
9, 36876, Note_off_c, 9, 36, 105
9, 36960, Note_on_c, 9, 42, 69
9, 36960, Note_on_c, 9, 82, 46
9, 36972, Note_off_c, 9, 82, 46
9, 36972, Note_off_c, 9, 42, 69
9, 37056, Note_on_c, 9, 39, 110
9, 37056, Note_on_c, 9, 40, 112
9, 37056, Note_on_c, 9, 42, 54
9, 37056, Note_on_c, 9, 82, 64
9, 37068, Note_off_c, 9, 82, 64
9, 37068, Note_off_c, 9, 42, 54
9, 37068, Note_off_c, 9, 40, 112
9, 37068, Note_off_c, 9, 39, 110
9, 37152, Note_on_c, 9, 42, 74
9, 37152, Note_on_c, 9, 82, 53
9, 37164, Note_off_c, 9, 82, 53
9, 37164, Note_off_c, 9, 42, 74
9, 37248, Note_on_c, 9, 36, 105
9, 37248, Note_on_c, 9, 42, 57
9, 37248, Note_on_c, 9, 82, 62
9, 37260, Note_off_c, 9, 82, 62
9, 37260, Note_off_c, 9, 42, 57
9, 37260, Note_off_c, 9, 36, 105
9, 37344, Note_on_c, 9, 42, 69
9, 37344, Note_on_c, 9, 82, 60
9, 37356, Note_off_c, 9, 82, 60
9, 37356, Note_off_c, 9, 42, 69
9, 37440, Note_on_c, 9, 39, 110
9, 37440, Note_on_c, 9, 40, 113
9, 37440, Note_on_c, 9, 42, 57
9, 37440, Note_on_c, 9, 82, 68
9, 37452, Note_off_c, 9, 82, 68
9, 37452, Note_off_c, 9, 42, 57
9, 37452, Note_off_c, 9, 40, 113
9, 37452, Note_off_c, 9, 39, 110
9, 37536, Note_on_c, 9, 42, 79
9, 37536, Note_on_c, 9, 82, 50
9, 37548, Note_off_c, 9, 82, 50
9, 37548, Note_off_c, 9, 42, 79
9, 37632, Note_on_c, 9, 36, 105
9, 37632, Note_on_c, 9, 42, 54
9, 37632, Note_on_c, 9, 82, 68
9, 37644, Note_off_c, 9, 82, 68
9, 37644, Note_off_c, 9, 42, 54
9, 37644, Note_off_c, 9, 36, 105
9, 37728, Note_on_c, 9, 42, 69
9, 37728, Note_on_c, 9, 82, 58
9, 37740, Note_off_c, 9, 82, 58
9, 37740, Note_off_c, 9, 42, 69
9, 37824, Note_on_c, 9, 39, 110
9, 37824, Note_on_c, 9, 40, 113
9, 37824, Note_on_c, 9, 42, 49
9, 37824, Note_on_c, 9, 82, 66
9, 37836, Note_off_c, 9, 82, 66
9, 37836, Note_off_c, 9, 42, 49
9, 37836, Note_off_c, 9, 40, 113
9, 37836, Note_off_c, 9, 39, 110
9, 37920, Note_on_c, 9, 42, 79
9, 37920, Note_on_c, 9, 82, 60
9, 37932, Note_off_c, 9, 82, 60
9, 37932, Note_off_c, 9, 42, 79
9, 38016, Note_on_c, 9, 36, 105
9, 38016, Note_on_c, 9, 42, 46
9, 38016, Note_on_c, 9, 82, 56
9, 38028, Note_off_c, 9, 82, 56
9, 38028, Note_off_c, 9, 42, 46
9, 38028, Note_off_c, 9, 36, 105
9, 38112, Note_on_c, 9, 42, 74
9, 38112, Note_on_c, 9, 82, 60
9, 38124, Note_off_c, 9, 82, 60
9, 38124, Note_off_c, 9, 42, 74
9, 38208, Note_on_c, 9, 39, 110
9, 38208, Note_on_c, 9, 40, 113
9, 38208, Note_on_c, 9, 42, 46
9, 38208, Note_on_c, 9, 82, 64
9, 38220, Note_off_c, 9, 82, 64
9, 38220, Note_off_c, 9, 42, 46
9, 38220, Note_off_c, 9, 40, 113
9, 38220, Note_off_c, 9, 39, 110
9, 38304, Note_on_c, 9, 42, 79
9, 38304, Note_on_c, 9, 82, 64
9, 38316, Note_off_c, 9, 82, 64
9, 38316, Note_off_c, 9, 42, 79
9, 38400, Note_on_c, 9, 36, 105
9, 38400, Note_on_c, 9, 42, 42
9, 38400, Note_on_c, 9, 82, 66
9, 38412, Note_off_c, 9, 82, 66
9, 38412, Note_off_c, 9, 42, 42
9, 38412, Note_off_c, 9, 36, 105
9, 38496, Note_on_c, 9, 42, 69
9, 38496, Note_on_c, 9, 82, 64
9, 38508, Note_off_c, 9, 82, 64
9, 38508, Note_off_c, 9, 42, 69
9, 38592, Note_on_c, 9, 39, 110
9, 38592, Note_on_c, 9, 40, 112
9, 38592, Note_on_c, 9, 42, 54
9, 38592, Note_on_c, 9, 82, 62
9, 38604, Note_off_c, 9, 82, 62
9, 38604, Note_off_c, 9, 42, 54
9, 38604, Note_off_c, 9, 40, 112
9, 38604, Note_off_c, 9, 39, 110
9, 38688, Note_on_c, 9, 42, 74
9, 38688, Note_on_c, 9, 82, 64
9, 38700, Note_off_c, 9, 82, 64
9, 38700, Note_off_c, 9, 42, 74
9, 38784, Note_on_c, 9, 36, 105
9, 38784, Note_on_c, 9, 42, 57
9, 38784, Note_on_c, 9, 82, 64
9, 38796, Note_off_c, 9, 82, 64
9, 38796, Note_off_c, 9, 42, 57
9, 38796, Note_off_c, 9, 36, 105
9, 38880, Note_on_c, 9, 42, 69
9, 38880, Note_on_c, 9, 82, 68
9, 38892, Note_off_c, 9, 82, 68
9, 38892, Note_off_c, 9, 42, 69
9, 38976, Note_on_c, 9, 39, 110
9, 38976, Note_on_c, 9, 40, 113
9, 38976, Note_on_c, 9, 42, 57
9, 38976, Note_on_c, 9, 82, 62
9, 38988, Note_off_c, 9, 82, 62
9, 38988, Note_off_c, 9, 42, 57
9, 38988, Note_off_c, 9, 40, 113
9, 38988, Note_off_c, 9, 39, 110
9, 39072, Note_on_c, 9, 42, 79
9, 39072, Note_on_c, 9, 82, 64
9, 39084, Note_off_c, 9, 82, 64
9, 39084, Note_off_c, 9, 42, 79
9, 39168, Note_on_c, 9, 36, 105
9, 39168, Note_on_c, 9, 42, 54
9, 39168, Note_on_c, 9, 82, 62
9, 39180, Note_off_c, 9, 82, 62
9, 39180, Note_off_c, 9, 42, 54
9, 39180, Note_off_c, 9, 36, 105
9, 39264, Note_on_c, 9, 42, 69
9, 39264, Note_on_c, 9, 82, 55
9, 39276, Note_off_c, 9, 82, 55
9, 39276, Note_off_c, 9, 42, 69
9, 39360, Note_on_c, 9, 39, 110
9, 39360, Note_on_c, 9, 40, 113
9, 39360, Note_on_c, 9, 42, 49
9, 39360, Note_on_c, 9, 82, 55
9, 39372, Note_off_c, 9, 82, 55
9, 39372, Note_off_c, 9, 42, 49
9, 39372, Note_off_c, 9, 40, 113
9, 39372, Note_off_c, 9, 39, 110
9, 39456, Note_on_c, 9, 42, 79
9, 39456, Note_on_c, 9, 82, 51
9, 39468, Note_off_c, 9, 82, 51
9, 39468, Note_off_c, 9, 42, 79
9, 39552, Note_on_c, 9, 36, 105
9, 39552, Note_on_c, 9, 42, 46
9, 39552, Note_on_c, 9, 82, 58
9, 39564, Note_off_c, 9, 82, 58
9, 39564, Note_off_c, 9, 42, 46
9, 39564, Note_off_c, 9, 36, 105
9, 39648, Note_on_c, 9, 42, 74
9, 39648, Note_on_c, 9, 82, 47
9, 39660, Note_off_c, 9, 82, 47
9, 39660, Note_off_c, 9, 42, 74
9, 39744, Note_on_c, 9, 39, 110
9, 39744, Note_on_c, 9, 40, 113
9, 39744, Note_on_c, 9, 42, 46
9, 39744, Note_on_c, 9, 82, 62
9, 39756, Note_off_c, 9, 82, 62
9, 39756, Note_off_c, 9, 42, 46
9, 39756, Note_off_c, 9, 40, 113
9, 39756, Note_off_c, 9, 39, 110
9, 39840, Note_on_c, 9, 42, 79
9, 39840, Note_on_c, 9, 82, 58
9, 39852, Note_off_c, 9, 82, 58
9, 39852, Note_off_c, 9, 42, 79
9, 39936, Note_on_c, 9, 36, 105
9, 39936, Note_on_c, 9, 42, 42
9, 39936, Note_on_c, 9, 82, 56
9, 39948, Note_off_c, 9, 82, 56
9, 39948, Note_off_c, 9, 42, 42
9, 39948, Note_off_c, 9, 36, 105
9, 40032, Note_on_c, 9, 42, 69
9, 40032, Note_on_c, 9, 82, 46
9, 40044, Note_off_c, 9, 82, 46
9, 40044, Note_off_c, 9, 42, 69
9, 40128, Note_on_c, 9, 39, 110
9, 40128, Note_on_c, 9, 40, 112
9, 40128, Note_on_c, 9, 42, 54
9, 40128, Note_on_c, 9, 82, 64
9, 40140, Note_off_c, 9, 82, 64
9, 40140, Note_off_c, 9, 42, 54
9, 40140, Note_off_c, 9, 40, 112
9, 40140, Note_off_c, 9, 39, 110
9, 40224, Note_on_c, 9, 42, 74
9, 40224, Note_on_c, 9, 82, 53
9, 40236, Note_off_c, 9, 82, 53
9, 40236, Note_off_c, 9, 42, 74
9, 40320, Note_on_c, 9, 36, 105
9, 40320, Note_on_c, 9, 42, 57
9, 40320, Note_on_c, 9, 82, 62
9, 40332, Note_off_c, 9, 82, 62
9, 40332, Note_off_c, 9, 42, 57
9, 40332, Note_off_c, 9, 36, 105
9, 40416, Note_on_c, 9, 42, 69
9, 40416, Note_on_c, 9, 82, 60
9, 40428, Note_off_c, 9, 82, 60
9, 40428, Note_off_c, 9, 42, 69
9, 40512, Note_on_c, 9, 39, 110
9, 40512, Note_on_c, 9, 40, 113
9, 40512, Note_on_c, 9, 42, 57
9, 40512, Note_on_c, 9, 82, 68
9, 40524, Note_off_c, 9, 82, 68
9, 40524, Note_off_c, 9, 42, 57
9, 40524, Note_off_c, 9, 40, 113
9, 40524, Note_off_c, 9, 39, 110
9, 40608, Note_on_c, 9, 42, 79
9, 40608, Note_on_c, 9, 82, 50
9, 40620, Note_off_c, 9, 82, 50
9, 40620, Note_off_c, 9, 42, 79
9, 40704, Note_on_c, 9, 36, 105
9, 40704, Note_on_c, 9, 42, 54
9, 40704, Note_on_c, 9, 82, 68
9, 40716, Note_off_c, 9, 82, 68
9, 40716, Note_off_c, 9, 42, 54
9, 40716, Note_off_c, 9, 36, 105
9, 40800, Note_on_c, 9, 42, 69
9, 40800, Note_on_c, 9, 82, 58
9, 40812, Note_off_c, 9, 82, 58
9, 40812, Note_off_c, 9, 42, 69
9, 40896, Note_on_c, 9, 39, 110
9, 40896, Note_on_c, 9, 40, 113
9, 40896, Note_on_c, 9, 42, 49
9, 40896, Note_on_c, 9, 82, 66
9, 40908, Note_off_c, 9, 82, 66
9, 40908, Note_off_c, 9, 42, 49
9, 40908, Note_off_c, 9, 40, 113
9, 40908, Note_off_c, 9, 39, 110
9, 40992, Note_on_c, 9, 42, 79
9, 40992, Note_on_c, 9, 82, 60
9, 41004, Note_off_c, 9, 82, 60
9, 41004, Note_off_c, 9, 42, 79
9, 41088, Note_on_c, 9, 36, 105
9, 41088, Note_on_c, 9, 42, 46
9, 41088, Note_on_c, 9, 82, 56
9, 41100, Note_off_c, 9, 82, 56
9, 41100, Note_off_c, 9, 42, 46
9, 41100, Note_off_c, 9, 36, 105
9, 41184, Note_on_c, 9, 42, 74
9, 41184, Note_on_c, 9, 82, 60
9, 41196, Note_off_c, 9, 82, 60
9, 41196, Note_off_c, 9, 42, 74
9, 41280, Note_on_c, 9, 39, 110
9, 41280, Note_on_c, 9, 40, 113
9, 41280, Note_on_c, 9, 42, 46
9, 41280, Note_on_c, 9, 82, 64
9, 41292, Note_off_c, 9, 82, 64
9, 41292, Note_off_c, 9, 42, 46
9, 41292, Note_off_c, 9, 40, 113
9, 41292, Note_off_c, 9, 39, 110
9, 41376, Note_on_c, 9, 46, 99
9, 41376, Note_on_c, 9, 82, 64
9, 41388, Note_off_c, 9, 82, 64
9, 41388, Note_off_c, 9, 46, 99
9, 41472, Note_on_c, 9, 36, 105
9, 41472, Note_on_c, 9, 42, 42
9, 41472, Note_on_c, 9, 82, 66
9, 41484, Note_off_c, 9, 82, 66
9, 41484, Note_off_c, 9, 42, 42
9, 41484, Note_off_c, 9, 36, 105
9, 41568, Note_on_c, 9, 42, 69
9, 41568, Note_on_c, 9, 82, 64
9, 41580, Note_off_c, 9, 82, 64
9, 41580, Note_off_c, 9, 42, 69
9, 41664, Note_on_c, 9, 40, 112
9, 41664, Note_on_c, 9, 42, 54
9, 41664, Note_on_c, 9, 82, 62
9, 41676, Note_off_c, 9, 82, 62
9, 41676, Note_off_c, 9, 42, 54
9, 41676, Note_off_c, 9, 40, 112
9, 41760, Note_on_c, 9, 42, 74
9, 41760, Note_on_c, 9, 82, 64
9, 41772, Note_off_c, 9, 82, 64
9, 41772, Note_off_c, 9, 42, 74
9, 41856, Note_on_c, 9, 36, 105
9, 41856, Note_on_c, 9, 42, 57
9, 41856, Note_on_c, 9, 82, 64
9, 41868, Note_off_c, 9, 82, 64
9, 41868, Note_off_c, 9, 42, 57
9, 41868, Note_off_c, 9, 36, 105
9, 41952, Note_on_c, 9, 42, 69
9, 41952, Note_on_c, 9, 82, 68
9, 41964, Note_off_c, 9, 82, 68
9, 41964, Note_off_c, 9, 42, 69
9, 42048, Note_on_c, 9, 40, 113
9, 42048, Note_on_c, 9, 42, 57
9, 42048, Note_on_c, 9, 82, 62
9, 42060, Note_off_c, 9, 82, 62
9, 42060, Note_off_c, 9, 42, 57
9, 42060, Note_off_c, 9, 40, 113
9, 42144, Note_on_c, 9, 42, 79
9, 42144, Note_on_c, 9, 82, 64
9, 42156, Note_off_c, 9, 82, 64
9, 42156, Note_off_c, 9, 42, 79
9, 42240, Note_on_c, 9, 36, 105
9, 42240, Note_on_c, 9, 42, 54
9, 42240, Note_on_c, 9, 82, 62
9, 42252, Note_off_c, 9, 82, 62
9, 42252, Note_off_c, 9, 42, 54
9, 42252, Note_off_c, 9, 36, 105
9, 42336, Note_on_c, 9, 42, 69
9, 42336, Note_on_c, 9, 82, 55
9, 42348, Note_off_c, 9, 82, 55
9, 42348, Note_off_c, 9, 42, 69
9, 42432, Note_on_c, 9, 40, 113
9, 42432, Note_on_c, 9, 42, 49
9, 42432, Note_on_c, 9, 82, 55
9, 42444, Note_off_c, 9, 82, 55
9, 42444, Note_off_c, 9, 42, 49
9, 42444, Note_off_c, 9, 40, 113
9, 42528, Note_on_c, 9, 42, 79
9, 42528, Note_on_c, 9, 82, 51
9, 42540, Note_off_c, 9, 82, 51
9, 42540, Note_off_c, 9, 42, 79
9, 42624, Note_on_c, 9, 36, 105
9, 42624, Note_on_c, 9, 42, 46
9, 42624, Note_on_c, 9, 82, 58
9, 42636, Note_off_c, 9, 82, 58
9, 42636, Note_off_c, 9, 42, 46
9, 42636, Note_off_c, 9, 36, 105
9, 42720, Note_on_c, 9, 42, 74
9, 42720, Note_on_c, 9, 82, 47
9, 42732, Note_off_c, 9, 82, 47
9, 42732, Note_off_c, 9, 42, 74
9, 42816, Note_on_c, 9, 40, 113
9, 42816, Note_on_c, 9, 42, 46
9, 42816, Note_on_c, 9, 82, 62
9, 42828, Note_off_c, 9, 82, 62
9, 42828, Note_off_c, 9, 42, 46
9, 42828, Note_off_c, 9, 40, 113
9, 42912, Note_on_c, 9, 42, 79
9, 42912, Note_on_c, 9, 82, 58
9, 42924, Note_off_c, 9, 82, 58
9, 42924, Note_off_c, 9, 42, 79
9, 43008, Note_on_c, 9, 36, 105
9, 43008, Note_on_c, 9, 42, 42
9, 43008, Note_on_c, 9, 82, 56
9, 43020, Note_off_c, 9, 82, 56
9, 43020, Note_off_c, 9, 42, 42
9, 43020, Note_off_c, 9, 36, 105
9, 43104, Note_on_c, 9, 42, 69
9, 43104, Note_on_c, 9, 82, 46
9, 43116, Note_off_c, 9, 82, 46
9, 43116, Note_off_c, 9, 42, 69
9, 43200, Note_on_c, 9, 40, 112
9, 43200, Note_on_c, 9, 42, 54
9, 43200, Note_on_c, 9, 82, 64
9, 43212, Note_off_c, 9, 82, 64
9, 43212, Note_off_c, 9, 42, 54
9, 43212, Note_off_c, 9, 40, 112
9, 43296, Note_on_c, 9, 42, 74
9, 43296, Note_on_c, 9, 82, 53
9, 43308, Note_off_c, 9, 82, 53
9, 43308, Note_off_c, 9, 42, 74
9, 43392, Note_on_c, 9, 36, 105
9, 43392, Note_on_c, 9, 42, 57
9, 43392, Note_on_c, 9, 82, 62
9, 43404, Note_off_c, 9, 82, 62
9, 43404, Note_off_c, 9, 42, 57
9, 43404, Note_off_c, 9, 36, 105
9, 43488, Note_on_c, 9, 42, 69
9, 43488, Note_on_c, 9, 82, 60
9, 43500, Note_off_c, 9, 82, 60
9, 43500, Note_off_c, 9, 42, 69
9, 43584, Note_on_c, 9, 40, 113
9, 43584, Note_on_c, 9, 42, 57
9, 43584, Note_on_c, 9, 82, 68
9, 43596, Note_off_c, 9, 82, 68
9, 43596, Note_off_c, 9, 42, 57
9, 43596, Note_off_c, 9, 40, 113
9, 43680, Note_on_c, 9, 42, 79
9, 43680, Note_on_c, 9, 82, 50
9, 43692, Note_off_c, 9, 82, 50
9, 43692, Note_off_c, 9, 42, 79
9, 43776, Note_on_c, 9, 36, 105
9, 43776, Note_on_c, 9, 42, 54
9, 43776, Note_on_c, 9, 82, 68
9, 43788, Note_off_c, 9, 82, 68
9, 43788, Note_off_c, 9, 42, 54
9, 43788, Note_off_c, 9, 36, 105
9, 43872, Note_on_c, 9, 42, 69
9, 43872, Note_on_c, 9, 82, 58
9, 43884, Note_off_c, 9, 82, 58
9, 43884, Note_off_c, 9, 42, 69
9, 43968, Note_on_c, 9, 40, 113
9, 43968, Note_on_c, 9, 42, 49
9, 43968, Note_on_c, 9, 82, 66
9, 43980, Note_off_c, 9, 82, 66
9, 43980, Note_off_c, 9, 42, 49
9, 43980, Note_off_c, 9, 40, 113
9, 44064, Note_on_c, 9, 42, 79
9, 44064, Note_on_c, 9, 82, 60
9, 44076, Note_off_c, 9, 82, 60
9, 44076, Note_off_c, 9, 42, 79
9, 44160, Note_on_c, 9, 36, 105
9, 44160, Note_on_c, 9, 42, 46
9, 44160, Note_on_c, 9, 82, 56
9, 44172, Note_off_c, 9, 82, 56
9, 44172, Note_off_c, 9, 42, 46
9, 44172, Note_off_c, 9, 36, 105
9, 44256, Note_on_c, 9, 42, 74
9, 44256, Note_on_c, 9, 82, 60
9, 44268, Note_off_c, 9, 82, 60
9, 44268, Note_off_c, 9, 42, 74
9, 44352, Note_on_c, 9, 40, 113
9, 44352, Note_on_c, 9, 42, 46
9, 44352, Note_on_c, 9, 82, 64
9, 44364, Note_off_c, 9, 82, 64
9, 44364, Note_off_c, 9, 42, 46
9, 44364, Note_off_c, 9, 40, 113
9, 44448, Note_on_c, 9, 42, 79
9, 44448, Note_on_c, 9, 82, 64
9, 44460, Note_off_c, 9, 82, 64
9, 44460, Note_off_c, 9, 42, 79
9, 44544, Note_on_c, 9, 36, 105
9, 44544, Note_on_c, 9, 42, 42
9, 44544, Note_on_c, 9, 82, 66
9, 44556, Note_off_c, 9, 82, 66
9, 44556, Note_off_c, 9, 42, 42
9, 44556, Note_off_c, 9, 36, 105
9, 44640, Note_on_c, 9, 42, 69
9, 44640, Note_on_c, 9, 82, 64
9, 44652, Note_off_c, 9, 82, 64
9, 44652, Note_off_c, 9, 42, 69
9, 44736, Note_on_c, 9, 40, 112
9, 44736, Note_on_c, 9, 42, 54
9, 44736, Note_on_c, 9, 82, 62
9, 44748, Note_off_c, 9, 82, 62
9, 44748, Note_off_c, 9, 42, 54
9, 44748, Note_off_c, 9, 40, 112
9, 44832, Note_on_c, 9, 42, 74
9, 44832, Note_on_c, 9, 82, 64
9, 44844, Note_off_c, 9, 82, 64
9, 44844, Note_off_c, 9, 42, 74
9, 44928, Note_on_c, 9, 36, 105
9, 44928, Note_on_c, 9, 42, 57
9, 44928, Note_on_c, 9, 82, 64
9, 44940, Note_off_c, 9, 82, 64
9, 44940, Note_off_c, 9, 42, 57
9, 44940, Note_off_c, 9, 36, 105
9, 45024, Note_on_c, 9, 42, 69
9, 45024, Note_on_c, 9, 82, 68
9, 45036, Note_off_c, 9, 82, 68
9, 45036, Note_off_c, 9, 42, 69
9, 45120, Note_on_c, 9, 40, 113
9, 45120, Note_on_c, 9, 42, 57
9, 45120, Note_on_c, 9, 82, 62
9, 45132, Note_off_c, 9, 82, 62
9, 45132, Note_off_c, 9, 42, 57
9, 45132, Note_off_c, 9, 40, 113
9, 45216, Note_on_c, 9, 42, 79
9, 45216, Note_on_c, 9, 82, 64
9, 45228, Note_off_c, 9, 82, 64
9, 45228, Note_off_c, 9, 42, 79
9, 45312, Note_on_c, 9, 36, 105
9, 45312, Note_on_c, 9, 42, 54
9, 45312, Note_on_c, 9, 82, 62
9, 45324, Note_off_c, 9, 82, 62
9, 45324, Note_off_c, 9, 42, 54
9, 45324, Note_off_c, 9, 36, 105
9, 45408, Note_on_c, 9, 42, 69
9, 45408, Note_on_c, 9, 82, 55
9, 45420, Note_off_c, 9, 82, 55
9, 45420, Note_off_c, 9, 42, 69
9, 45504, Note_on_c, 9, 40, 113
9, 45504, Note_on_c, 9, 42, 49
9, 45504, Note_on_c, 9, 82, 55
9, 45516, Note_off_c, 9, 82, 55
9, 45516, Note_off_c, 9, 42, 49
9, 45516, Note_off_c, 9, 40, 113
9, 45600, Note_on_c, 9, 42, 79
9, 45600, Note_on_c, 9, 82, 51
9, 45612, Note_off_c, 9, 82, 51
9, 45612, Note_off_c, 9, 42, 79
9, 45696, Note_on_c, 9, 36, 105
9, 45696, Note_on_c, 9, 42, 46
9, 45696, Note_on_c, 9, 82, 58
9, 45708, Note_off_c, 9, 82, 58
9, 45708, Note_off_c, 9, 42, 46
9, 45708, Note_off_c, 9, 36, 105
9, 45792, Note_on_c, 9, 42, 74
9, 45792, Note_on_c, 9, 82, 47
9, 45804, Note_off_c, 9, 82, 47
9, 45804, Note_off_c, 9, 42, 74
9, 45888, Note_on_c, 9, 40, 113
9, 45888, Note_on_c, 9, 42, 46
9, 45888, Note_on_c, 9, 82, 62
9, 45900, Note_off_c, 9, 82, 62
9, 45900, Note_off_c, 9, 42, 46
9, 45900, Note_off_c, 9, 40, 113
9, 45984, Note_on_c, 9, 42, 79
9, 45984, Note_on_c, 9, 82, 58
9, 45996, Note_off_c, 9, 82, 58
9, 45996, Note_off_c, 9, 42, 79
9, 46080, Note_on_c, 9, 36, 105
9, 46080, Note_on_c, 9, 42, 42
9, 46080, Note_on_c, 9, 82, 56
9, 46092, Note_off_c, 9, 82, 56
9, 46092, Note_off_c, 9, 42, 42
9, 46092, Note_off_c, 9, 36, 105
9, 46176, Note_on_c, 9, 42, 69
9, 46176, Note_on_c, 9, 82, 46
9, 46188, Note_off_c, 9, 82, 46
9, 46188, Note_off_c, 9, 42, 69
9, 46272, Note_on_c, 9, 40, 112
9, 46272, Note_on_c, 9, 42, 54
9, 46272, Note_on_c, 9, 82, 64
9, 46284, Note_off_c, 9, 82, 64
9, 46284, Note_off_c, 9, 42, 54
9, 46284, Note_off_c, 9, 40, 112
9, 46368, Note_on_c, 9, 42, 74
9, 46368, Note_on_c, 9, 82, 53
9, 46380, Note_off_c, 9, 82, 53
9, 46380, Note_off_c, 9, 42, 74
9, 46464, Note_on_c, 9, 36, 105
9, 46464, Note_on_c, 9, 42, 57
9, 46464, Note_on_c, 9, 82, 62
9, 46476, Note_off_c, 9, 82, 62
9, 46476, Note_off_c, 9, 42, 57
9, 46476, Note_off_c, 9, 36, 105
9, 46560, Note_on_c, 9, 42, 69
9, 46560, Note_on_c, 9, 82, 60
9, 46572, Note_off_c, 9, 82, 60
9, 46572, Note_off_c, 9, 42, 69
9, 46656, Note_on_c, 9, 40, 113
9, 46656, Note_on_c, 9, 42, 57
9, 46656, Note_on_c, 9, 82, 68
9, 46668, Note_off_c, 9, 82, 68
9, 46668, Note_off_c, 9, 42, 57
9, 46668, Note_off_c, 9, 40, 113
9, 46752, Note_on_c, 9, 42, 79
9, 46752, Note_on_c, 9, 82, 50
9, 46764, Note_off_c, 9, 82, 50
9, 46764, Note_off_c, 9, 42, 79
9, 46848, Note_on_c, 9, 36, 105
9, 46848, Note_on_c, 9, 42, 54
9, 46848, Note_on_c, 9, 82, 68
9, 46860, Note_off_c, 9, 82, 68
9, 46860, Note_off_c, 9, 42, 54
9, 46860, Note_off_c, 9, 36, 105
9, 46944, Note_on_c, 9, 42, 69
9, 46944, Note_on_c, 9, 82, 58
9, 46956, Note_off_c, 9, 82, 58
9, 46956, Note_off_c, 9, 42, 69
9, 47040, Note_on_c, 9, 40, 113
9, 47040, Note_on_c, 9, 42, 49
9, 47040, Note_on_c, 9, 82, 66
9, 47052, Note_off_c, 9, 82, 66
9, 47052, Note_off_c, 9, 42, 49
9, 47052, Note_off_c, 9, 40, 113
9, 47136, Note_on_c, 9, 42, 79
9, 47136, Note_on_c, 9, 82, 60
9, 47148, Note_off_c, 9, 82, 60
9, 47148, Note_off_c, 9, 42, 79
9, 47232, Note_on_c, 9, 36, 105
9, 47232, Note_on_c, 9, 42, 46
9, 47232, Note_on_c, 9, 82, 56
9, 47244, Note_off_c, 9, 82, 56
9, 47244, Note_off_c, 9, 42, 46
9, 47244, Note_off_c, 9, 36, 105
9, 47328, Note_on_c, 9, 42, 74
9, 47328, Note_on_c, 9, 82, 60
9, 47340, Note_off_c, 9, 82, 60
9, 47340, Note_off_c, 9, 42, 74
9, 47424, Note_on_c, 9, 40, 113
9, 47424, Note_on_c, 9, 42, 46
9, 47424, Note_on_c, 9, 82, 64
9, 47436, Note_off_c, 9, 82, 64
9, 47436, Note_off_c, 9, 42, 46
9, 47436, Note_off_c, 9, 40, 113
9, 47520, Note_on_c, 9, 42, 79
9, 47520, Note_on_c, 9, 82, 64
9, 47532, Note_off_c, 9, 82, 64
9, 47532, Note_off_c, 9, 42, 79
9, 47616, Note_on_c, 9, 36, 105
9, 47616, Note_on_c, 9, 42, 42
9, 47616, Note_on_c, 9, 82, 66
9, 47628, Note_off_c, 9, 82, 66
9, 47628, Note_off_c, 9, 42, 42
9, 47628, Note_off_c, 9, 36, 105
9, 47712, Note_on_c, 9, 42, 69
9, 47712, Note_on_c, 9, 82, 64
9, 47724, Note_off_c, 9, 82, 64
9, 47724, Note_off_c, 9, 42, 69
9, 47808, Note_on_c, 9, 40, 112
9, 47808, Note_on_c, 9, 42, 54
9, 47808, Note_on_c, 9, 82, 62
9, 47820, Note_off_c, 9, 82, 62
9, 47820, Note_off_c, 9, 42, 54
9, 47820, Note_off_c, 9, 40, 112
9, 47904, Note_on_c, 9, 42, 74
9, 47904, Note_on_c, 9, 82, 64
9, 47916, Note_off_c, 9, 82, 64
9, 47916, Note_off_c, 9, 42, 74
9, 48000, Note_on_c, 9, 36, 105
9, 48000, Note_on_c, 9, 42, 57
9, 48000, Note_on_c, 9, 82, 64
9, 48012, Note_off_c, 9, 82, 64
9, 48012, Note_off_c, 9, 42, 57
9, 48012, Note_off_c, 9, 36, 105
9, 48096, Note_on_c, 9, 42, 69
9, 48096, Note_on_c, 9, 82, 68
9, 48108, Note_off_c, 9, 82, 68
9, 48108, Note_off_c, 9, 42, 69
9, 48192, Note_on_c, 9, 40, 113
9, 48192, Note_on_c, 9, 42, 57
9, 48192, Note_on_c, 9, 82, 62
9, 48204, Note_off_c, 9, 82, 62
9, 48204, Note_off_c, 9, 42, 57
9, 48204, Note_off_c, 9, 40, 113
9, 48288, Note_on_c, 9, 42, 79
9, 48288, Note_on_c, 9, 82, 64
9, 48300, Note_off_c, 9, 82, 64
9, 48300, Note_off_c, 9, 42, 79
9, 48384, Note_on_c, 9, 36, 105
9, 48384, Note_on_c, 9, 42, 54
9, 48384, Note_on_c, 9, 82, 62
9, 48396, Note_off_c, 9, 82, 62
9, 48396, Note_off_c, 9, 42, 54
9, 48396, Note_off_c, 9, 36, 105
9, 48480, Note_on_c, 9, 42, 69
9, 48480, Note_on_c, 9, 82, 55
9, 48492, Note_off_c, 9, 82, 55
9, 48492, Note_off_c, 9, 42, 69
9, 48576, Note_on_c, 9, 40, 113
9, 48576, Note_on_c, 9, 42, 49
9, 48576, Note_on_c, 9, 82, 55
9, 48588, Note_off_c, 9, 82, 55
9, 48588, Note_off_c, 9, 42, 49
9, 48588, Note_off_c, 9, 40, 113
9, 48672, Note_on_c, 9, 42, 79
9, 48672, Note_on_c, 9, 82, 51
9, 48684, Note_off_c, 9, 82, 51
9, 48684, Note_off_c, 9, 42, 79
9, 48768, Note_on_c, 9, 36, 105
9, 48768, Note_on_c, 9, 42, 46
9, 48768, Note_on_c, 9, 82, 58
9, 48780, Note_off_c, 9, 82, 58
9, 48780, Note_off_c, 9, 42, 46
9, 48780, Note_off_c, 9, 36, 105
9, 48864, Note_on_c, 9, 42, 74
9, 48864, Note_on_c, 9, 82, 47
9, 48876, Note_off_c, 9, 82, 47
9, 48876, Note_off_c, 9, 42, 74
9, 48960, Note_on_c, 9, 40, 113
9, 48960, Note_on_c, 9, 42, 46
9, 48960, Note_on_c, 9, 82, 62
9, 48972, Note_off_c, 9, 82, 62
9, 48972, Note_off_c, 9, 42, 46
9, 48972, Note_off_c, 9, 40, 113
9, 49056, Note_on_c, 9, 42, 79
9, 49056, Note_on_c, 9, 82, 58
9, 49068, Note_off_c, 9, 82, 58
9, 49068, Note_off_c, 9, 42, 79
9, 49152, Note_on_c, 9, 36, 105
9, 49152, Note_on_c, 9, 42, 42
9, 49152, Note_on_c, 9, 82, 56
9, 49164, Note_off_c, 9, 82, 56
9, 49164, Note_off_c, 9, 42, 42
9, 49164, Note_off_c, 9, 36, 105
9, 49248, Note_on_c, 9, 42, 69
9, 49248, Note_on_c, 9, 82, 46
9, 49260, Note_off_c, 9, 82, 46
9, 49260, Note_off_c, 9, 42, 69
9, 49344, Note_on_c, 9, 40, 112
9, 49344, Note_on_c, 9, 42, 54
9, 49344, Note_on_c, 9, 82, 64
9, 49356, Note_off_c, 9, 82, 64
9, 49356, Note_off_c, 9, 42, 54
9, 49356, Note_off_c, 9, 40, 112
9, 49440, Note_on_c, 9, 42, 74
9, 49440, Note_on_c, 9, 82, 53
9, 49452, Note_off_c, 9, 82, 53
9, 49452, Note_off_c, 9, 42, 74
9, 49536, Note_on_c, 9, 36, 105
9, 49536, Note_on_c, 9, 42, 57
9, 49536, Note_on_c, 9, 82, 62
9, 49548, Note_off_c, 9, 82, 62
9, 49548, Note_off_c, 9, 42, 57
9, 49548, Note_off_c, 9, 36, 105
9, 49632, Note_on_c, 9, 42, 69
9, 49632, Note_on_c, 9, 82, 60
9, 49644, Note_off_c, 9, 82, 60
9, 49644, Note_off_c, 9, 42, 69
9, 49728, Note_on_c, 9, 40, 113
9, 49728, Note_on_c, 9, 42, 57
9, 49728, Note_on_c, 9, 82, 68
9, 49740, Note_off_c, 9, 82, 68
9, 49740, Note_off_c, 9, 42, 57
9, 49740, Note_off_c, 9, 40, 113
9, 49824, Note_on_c, 9, 42, 79
9, 49824, Note_on_c, 9, 82, 50
9, 49836, Note_off_c, 9, 82, 50
9, 49836, Note_off_c, 9, 42, 79
9, 49920, Note_on_c, 9, 36, 105
9, 49920, Note_on_c, 9, 42, 54
9, 49920, Note_on_c, 9, 82, 68
9, 49932, Note_off_c, 9, 82, 68
9, 49932, Note_off_c, 9, 42, 54
9, 49932, Note_off_c, 9, 36, 105
9, 50016, Note_on_c, 9, 42, 69
9, 50016, Note_on_c, 9, 82, 58
9, 50028, Note_off_c, 9, 82, 58
9, 50028, Note_off_c, 9, 42, 69
9, 50112, Note_on_c, 9, 40, 113
9, 50112, Note_on_c, 9, 42, 49
9, 50112, Note_on_c, 9, 82, 66
9, 50124, Note_off_c, 9, 82, 66
9, 50124, Note_off_c, 9, 42, 49
9, 50124, Note_off_c, 9, 40, 113
9, 50208, Note_on_c, 9, 42, 79
9, 50208, Note_on_c, 9, 82, 60
9, 50220, Note_off_c, 9, 82, 60
9, 50220, Note_off_c, 9, 42, 79
9, 50304, Note_on_c, 9, 36, 105
9, 50304, Note_on_c, 9, 42, 46
9, 50304, Note_on_c, 9, 82, 56
9, 50316, Note_off_c, 9, 82, 56
9, 50316, Note_off_c, 9, 42, 46
9, 50316, Note_off_c, 9, 36, 105
9, 50400, Note_on_c, 9, 42, 74
9, 50400, Note_on_c, 9, 82, 60
9, 50412, Note_off_c, 9, 82, 60
9, 50412, Note_off_c, 9, 42, 74
9, 50496, Note_on_c, 9, 40, 113
9, 50496, Note_on_c, 9, 42, 46
9, 50496, Note_on_c, 9, 82, 64
9, 50508, Note_off_c, 9, 82, 64
9, 50508, Note_off_c, 9, 42, 46
9, 50508, Note_off_c, 9, 40, 113
9, 50592, Note_on_c, 9, 46, 99
9, 50592, Note_on_c, 9, 82, 64
9, 50604, Note_off_c, 9, 82, 64
9, 50604, Note_off_c, 9, 46, 99
9, 50688, Note_on_c, 9, 36, 105
9, 50688, Note_on_c, 9, 42, 42
9, 50688, Note_on_c, 9, 82, 66
9, 50700, Note_off_c, 9, 82, 66
9, 50700, Note_off_c, 9, 42, 42
9, 50700, Note_off_c, 9, 36, 105
9, 50784, Note_on_c, 9, 42, 69
9, 50784, Note_on_c, 9, 82, 64
9, 50796, Note_off_c, 9, 82, 64
9, 50796, Note_off_c, 9, 42, 69
9, 50880, Note_on_c, 9, 40, 112
9, 50880, Note_on_c, 9, 42, 54
9, 50880, Note_on_c, 9, 82, 62
9, 50892, Note_off_c, 9, 82, 62
9, 50892, Note_off_c, 9, 42, 54
9, 50892, Note_off_c, 9, 40, 112
9, 50976, Note_on_c, 9, 42, 74
9, 50976, Note_on_c, 9, 82, 64
9, 50988, Note_off_c, 9, 82, 64
9, 50988, Note_off_c, 9, 42, 74
9, 51072, Note_on_c, 9, 36, 105
9, 51072, Note_on_c, 9, 42, 57
9, 51072, Note_on_c, 9, 82, 64
9, 51084, Note_off_c, 9, 82, 64
9, 51084, Note_off_c, 9, 42, 57
9, 51084, Note_off_c, 9, 36, 105
9, 51168, Note_on_c, 9, 42, 69
9, 51168, Note_on_c, 9, 82, 68
9, 51180, Note_off_c, 9, 82, 68
9, 51180, Note_off_c, 9, 42, 69
9, 51264, Note_on_c, 9, 40, 113
9, 51264, Note_on_c, 9, 42, 57
9, 51264, Note_on_c, 9, 82, 62
9, 51276, Note_off_c, 9, 82, 62
9, 51276, Note_off_c, 9, 42, 57
9, 51276, Note_off_c, 9, 40, 113
9, 51360, Note_on_c, 9, 42, 79
9, 51360, Note_on_c, 9, 82, 64
9, 51372, Note_off_c, 9, 82, 64
9, 51372, Note_off_c, 9, 42, 79
9, 51456, Note_on_c, 9, 36, 105
9, 51456, Note_on_c, 9, 42, 54
9, 51456, Note_on_c, 9, 82, 62
9, 51468, Note_off_c, 9, 82, 62
9, 51468, Note_off_c, 9, 42, 54
9, 51468, Note_off_c, 9, 36, 105
9, 51552, Note_on_c, 9, 42, 69
9, 51552, Note_on_c, 9, 82, 55
9, 51564, Note_off_c, 9, 82, 55
9, 51564, Note_off_c, 9, 42, 69
9, 51648, Note_on_c, 9, 40, 113
9, 51648, Note_on_c, 9, 42, 49
9, 51648, Note_on_c, 9, 82, 55
9, 51660, Note_off_c, 9, 82, 55
9, 51660, Note_off_c, 9, 42, 49
9, 51660, Note_off_c, 9, 40, 113
9, 51744, Note_on_c, 9, 42, 79
9, 51744, Note_on_c, 9, 82, 51
9, 51756, Note_off_c, 9, 82, 51
9, 51756, Note_off_c, 9, 42, 79
9, 51840, Note_on_c, 9, 36, 105
9, 51840, Note_on_c, 9, 42, 46
9, 51840, Note_on_c, 9, 82, 58
9, 51852, Note_off_c, 9, 82, 58
9, 51852, Note_off_c, 9, 42, 46
9, 51852, Note_off_c, 9, 36, 105
9, 51936, Note_on_c, 9, 42, 74
9, 51936, Note_on_c, 9, 82, 47
9, 51948, Note_off_c, 9, 82, 47
9, 51948, Note_off_c, 9, 42, 74
9, 52032, Note_on_c, 9, 40, 113
9, 52032, Note_on_c, 9, 42, 46
9, 52032, Note_on_c, 9, 82, 62
9, 52044, Note_off_c, 9, 82, 62
9, 52044, Note_off_c, 9, 42, 46
9, 52044, Note_off_c, 9, 40, 113
9, 52128, Note_on_c, 9, 42, 79
9, 52128, Note_on_c, 9, 82, 58
9, 52140, Note_off_c, 9, 82, 58
9, 52140, Note_off_c, 9, 42, 79
9, 52224, Note_on_c, 9, 36, 105
9, 52224, Note_on_c, 9, 42, 42
9, 52224, Note_on_c, 9, 82, 56
9, 52236, Note_off_c, 9, 82, 56
9, 52236, Note_off_c, 9, 42, 42
9, 52236, Note_off_c, 9, 36, 105
9, 52320, Note_on_c, 9, 42, 69
9, 52320, Note_on_c, 9, 82, 46
9, 52332, Note_off_c, 9, 82, 46
9, 52332, Note_off_c, 9, 42, 69
9, 52416, Note_on_c, 9, 40, 112
9, 52416, Note_on_c, 9, 42, 54
9, 52416, Note_on_c, 9, 82, 64
9, 52428, Note_off_c, 9, 82, 64
9, 52428, Note_off_c, 9, 42, 54
9, 52428, Note_off_c, 9, 40, 112
9, 52512, Note_on_c, 9, 42, 74
9, 52512, Note_on_c, 9, 82, 53
9, 52524, Note_off_c, 9, 82, 53
9, 52524, Note_off_c, 9, 42, 74
9, 52608, Note_on_c, 9, 36, 105
9, 52608, Note_on_c, 9, 42, 57
9, 52608, Note_on_c, 9, 82, 62
9, 52620, Note_off_c, 9, 82, 62
9, 52620, Note_off_c, 9, 42, 57
9, 52620, Note_off_c, 9, 36, 105
9, 52704, Note_on_c, 9, 42, 69
9, 52704, Note_on_c, 9, 82, 60
9, 52716, Note_off_c, 9, 82, 60
9, 52716, Note_off_c, 9, 42, 69
9, 52800, Note_on_c, 9, 40, 113
9, 52800, Note_on_c, 9, 42, 57
9, 52800, Note_on_c, 9, 82, 68
9, 52812, Note_off_c, 9, 82, 68
9, 52812, Note_off_c, 9, 42, 57
9, 52812, Note_off_c, 9, 40, 113
9, 52896, Note_on_c, 9, 42, 79
9, 52896, Note_on_c, 9, 82, 50
9, 52908, Note_off_c, 9, 82, 50
9, 52908, Note_off_c, 9, 42, 79
9, 52992, Note_on_c, 9, 36, 105
9, 52992, Note_on_c, 9, 42, 54
9, 52992, Note_on_c, 9, 82, 68
9, 53004, Note_off_c, 9, 82, 68
9, 53004, Note_off_c, 9, 42, 54
9, 53004, Note_off_c, 9, 36, 105
9, 53088, Note_on_c, 9, 42, 69
9, 53088, Note_on_c, 9, 82, 58
9, 53100, Note_off_c, 9, 82, 58
9, 53100, Note_off_c, 9, 42, 69
9, 53184, Note_on_c, 9, 40, 113
9, 53184, Note_on_c, 9, 42, 49
9, 53184, Note_on_c, 9, 82, 66
9, 53196, Note_off_c, 9, 82, 66
9, 53196, Note_off_c, 9, 42, 49
9, 53196, Note_off_c, 9, 40, 113
9, 53280, Note_on_c, 9, 42, 79
9, 53280, Note_on_c, 9, 82, 60
9, 53292, Note_off_c, 9, 82, 60
9, 53292, Note_off_c, 9, 42, 79
9, 53376, Note_on_c, 9, 36, 105
9, 53376, Note_on_c, 9, 42, 46
9, 53376, Note_on_c, 9, 82, 56
9, 53388, Note_off_c, 9, 82, 56
9, 53388, Note_off_c, 9, 42, 46
9, 53388, Note_off_c, 9, 36, 105
9, 53472, Note_on_c, 9, 42, 74
9, 53472, Note_on_c, 9, 82, 60
9, 53484, Note_off_c, 9, 82, 60
9, 53484, Note_off_c, 9, 42, 74
9, 53568, Note_on_c, 9, 40, 113
9, 53568, Note_on_c, 9, 42, 46
9, 53568, Note_on_c, 9, 82, 64
9, 53580, Note_off_c, 9, 82, 64
9, 53580, Note_off_c, 9, 42, 46
9, 53580, Note_off_c, 9, 40, 113
9, 53664, Note_on_c, 9, 42, 79
9, 53664, Note_on_c, 9, 82, 64
9, 53676, Note_off_c, 9, 82, 64
9, 53676, Note_off_c, 9, 42, 79
9, 53760, Note_on_c, 9, 36, 105
9, 53760, Note_on_c, 9, 42, 42
9, 53760, Note_on_c, 9, 82, 66
9, 53772, Note_off_c, 9, 82, 66
9, 53772, Note_off_c, 9, 42, 42
9, 53772, Note_off_c, 9, 36, 105
9, 53856, Note_on_c, 9, 42, 69
9, 53856, Note_on_c, 9, 82, 64
9, 53868, Note_off_c, 9, 82, 64
9, 53868, Note_off_c, 9, 42, 69
9, 53952, Note_on_c, 9, 40, 112
9, 53952, Note_on_c, 9, 42, 54
9, 53952, Note_on_c, 9, 82, 62
9, 53964, Note_off_c, 9, 82, 62
9, 53964, Note_off_c, 9, 42, 54
9, 53964, Note_off_c, 9, 40, 112
9, 54048, Note_on_c, 9, 42, 74
9, 54048, Note_on_c, 9, 82, 64
9, 54060, Note_off_c, 9, 82, 64
9, 54060, Note_off_c, 9, 42, 74
9, 54144, Note_on_c, 9, 36, 105
9, 54144, Note_on_c, 9, 42, 57
9, 54144, Note_on_c, 9, 82, 64
9, 54156, Note_off_c, 9, 82, 64
9, 54156, Note_off_c, 9, 42, 57
9, 54156, Note_off_c, 9, 36, 105
9, 54240, Note_on_c, 9, 42, 69
9, 54240, Note_on_c, 9, 82, 68
9, 54252, Note_off_c, 9, 82, 68
9, 54252, Note_off_c, 9, 42, 69
9, 54336, Note_on_c, 9, 40, 113
9, 54336, Note_on_c, 9, 42, 57
9, 54336, Note_on_c, 9, 82, 62
9, 54348, Note_off_c, 9, 82, 62
9, 54348, Note_off_c, 9, 42, 57
9, 54348, Note_off_c, 9, 40, 113
9, 54432, Note_on_c, 9, 42, 79
9, 54432, Note_on_c, 9, 82, 64
9, 54444, Note_off_c, 9, 82, 64
9, 54444, Note_off_c, 9, 42, 79
9, 54528, Note_on_c, 9, 36, 105
9, 54528, Note_on_c, 9, 42, 54
9, 54528, Note_on_c, 9, 82, 62
9, 54540, Note_off_c, 9, 82, 62
9, 54540, Note_off_c, 9, 42, 54
9, 54540, Note_off_c, 9, 36, 105
9, 54624, Note_on_c, 9, 42, 69
9, 54624, Note_on_c, 9, 82, 55
9, 54636, Note_off_c, 9, 82, 55
9, 54636, Note_off_c, 9, 42, 69
9, 54720, Note_on_c, 9, 40, 113
9, 54720, Note_on_c, 9, 42, 49
9, 54720, Note_on_c, 9, 82, 55
9, 54732, Note_off_c, 9, 82, 55
9, 54732, Note_off_c, 9, 42, 49
9, 54732, Note_off_c, 9, 40, 113
9, 54816, Note_on_c, 9, 42, 79
9, 54816, Note_on_c, 9, 82, 51
9, 54828, Note_off_c, 9, 82, 51
9, 54828, Note_off_c, 9, 42, 79
9, 54912, Note_on_c, 9, 36, 105
9, 54912, Note_on_c, 9, 42, 46
9, 54912, Note_on_c, 9, 82, 58
9, 54924, Note_off_c, 9, 82, 58
9, 54924, Note_off_c, 9, 42, 46
9, 54924, Note_off_c, 9, 36, 105
9, 55008, Note_on_c, 9, 42, 74
9, 55008, Note_on_c, 9, 82, 47
9, 55020, Note_off_c, 9, 82, 47
9, 55020, Note_off_c, 9, 42, 74
9, 55104, Note_on_c, 9, 40, 113
9, 55104, Note_on_c, 9, 42, 46
9, 55104, Note_on_c, 9, 82, 62
9, 55116, Note_off_c, 9, 82, 62
9, 55116, Note_off_c, 9, 42, 46
9, 55116, Note_off_c, 9, 40, 113
9, 55200, Note_on_c, 9, 42, 79
9, 55200, Note_on_c, 9, 82, 58
9, 55212, Note_off_c, 9, 82, 58
9, 55212, Note_off_c, 9, 42, 79
9, 55296, Note_on_c, 9, 36, 105
9, 55296, Note_on_c, 9, 42, 42
9, 55296, Note_on_c, 9, 82, 56
9, 55308, Note_off_c, 9, 82, 56
9, 55308, Note_off_c, 9, 42, 42
9, 55308, Note_off_c, 9, 36, 105
9, 55392, Note_on_c, 9, 42, 69
9, 55392, Note_on_c, 9, 82, 46
9, 55404, Note_off_c, 9, 82, 46
9, 55404, Note_off_c, 9, 42, 69
9, 55488, Note_on_c, 9, 40, 112
9, 55488, Note_on_c, 9, 42, 54
9, 55488, Note_on_c, 9, 82, 64
9, 55500, Note_off_c, 9, 82, 64
9, 55500, Note_off_c, 9, 42, 54
9, 55500, Note_off_c, 9, 40, 112
9, 55584, Note_on_c, 9, 42, 74
9, 55584, Note_on_c, 9, 82, 53
9, 55596, Note_off_c, 9, 82, 53
9, 55596, Note_off_c, 9, 42, 74
9, 55680, Note_on_c, 9, 36, 105
9, 55680, Note_on_c, 9, 42, 57
9, 55680, Note_on_c, 9, 82, 62
9, 55692, Note_off_c, 9, 82, 62
9, 55692, Note_off_c, 9, 42, 57
9, 55692, Note_off_c, 9, 36, 105
9, 55776, Note_on_c, 9, 42, 69
9, 55776, Note_on_c, 9, 82, 60
9, 55788, Note_off_c, 9, 82, 60
9, 55788, Note_off_c, 9, 42, 69
9, 55872, Note_on_c, 9, 40, 113
9, 55872, Note_on_c, 9, 42, 57
9, 55872, Note_on_c, 9, 82, 68
9, 55884, Note_off_c, 9, 82, 68
9, 55884, Note_off_c, 9, 42, 57
9, 55884, Note_off_c, 9, 40, 113
9, 55968, Note_on_c, 9, 42, 79
9, 55968, Note_on_c, 9, 82, 50
9, 55980, Note_off_c, 9, 82, 50
9, 55980, Note_off_c, 9, 42, 79
9, 56064, Note_on_c, 9, 36, 105
9, 56064, Note_on_c, 9, 42, 54
9, 56064, Note_on_c, 9, 82, 68
9, 56076, Note_off_c, 9, 82, 68
9, 56076, Note_off_c, 9, 42, 54
9, 56076, Note_off_c, 9, 36, 105
9, 56160, Note_on_c, 9, 42, 69
9, 56160, Note_on_c, 9, 82, 58
9, 56172, Note_off_c, 9, 82, 58
9, 56172, Note_off_c, 9, 42, 69
9, 56256, Note_on_c, 9, 40, 113
9, 56256, Note_on_c, 9, 42, 49
9, 56256, Note_on_c, 9, 82, 66
9, 56268, Note_off_c, 9, 82, 66
9, 56268, Note_off_c, 9, 42, 49
9, 56268, Note_off_c, 9, 40, 113
9, 56352, Note_on_c, 9, 42, 79
9, 56352, Note_on_c, 9, 82, 60
9, 56364, Note_off_c, 9, 82, 60
9, 56364, Note_off_c, 9, 42, 79
9, 56448, Note_on_c, 9, 36, 105
9, 56448, Note_on_c, 9, 42, 46
9, 56448, Note_on_c, 9, 82, 56
9, 56460, Note_off_c, 9, 82, 56
9, 56460, Note_off_c, 9, 42, 46
9, 56460, Note_off_c, 9, 36, 105
9, 56544, Note_on_c, 9, 42, 74
9, 56544, Note_on_c, 9, 82, 60
9, 56556, Note_off_c, 9, 82, 60
9, 56556, Note_off_c, 9, 42, 74
9, 56640, Note_on_c, 9, 40, 113
9, 56640, Note_on_c, 9, 42, 46
9, 56640, Note_on_c, 9, 82, 64
9, 56652, Note_off_c, 9, 82, 64
9, 56652, Note_off_c, 9, 42, 46
9, 56652, Note_off_c, 9, 40, 113
9, 56736, Note_on_c, 9, 40, 117
9, 56736, Note_on_c, 9, 46, 100
9, 56736, Note_on_c, 9, 82, 64
9, 56748, Note_off_c, 9, 82, 64
9, 56748, Note_off_c, 9, 46, 100
9, 56748, Note_off_c, 9, 40, 117
9, 56784, Note_on_c, 9, 40, 121
9, 56796, Note_off_c, 9, 40, 121
9, 56832, Note_on_c, 9, 36, 105
9, 56832, Note_on_c, 9, 42, 42
9, 56832, Note_on_c, 9, 82, 66
9, 56844, Note_off_c, 9, 82, 66
9, 56844, Note_off_c, 9, 42, 42
9, 56844, Note_off_c, 9, 36, 105
9, 56928, Note_on_c, 9, 42, 69
9, 56928, Note_on_c, 9, 82, 64
9, 56940, Note_off_c, 9, 82, 64
9, 56940, Note_off_c, 9, 42, 69
9, 57024, Note_on_c, 9, 40, 112
9, 57024, Note_on_c, 9, 42, 54
9, 57024, Note_on_c, 9, 82, 62
9, 57036, Note_off_c, 9, 82, 62
9, 57036, Note_off_c, 9, 42, 54
9, 57036, Note_off_c, 9, 40, 112
9, 57120, Note_on_c, 9, 42, 74
9, 57120, Note_on_c, 9, 82, 64
9, 57132, Note_off_c, 9, 82, 64
9, 57132, Note_off_c, 9, 42, 74
9, 57216, Note_on_c, 9, 36, 105
9, 57216, Note_on_c, 9, 42, 57
9, 57216, Note_on_c, 9, 82, 64
9, 57228, Note_off_c, 9, 82, 64
9, 57228, Note_off_c, 9, 42, 57
9, 57228, Note_off_c, 9, 36, 105
9, 57312, Note_on_c, 9, 42, 69
9, 57312, Note_on_c, 9, 82, 68
9, 57324, Note_off_c, 9, 82, 68
9, 57324, Note_off_c, 9, 42, 69
9, 57408, Note_on_c, 9, 40, 113
9, 57408, Note_on_c, 9, 42, 57
9, 57408, Note_on_c, 9, 82, 62
9, 57420, Note_off_c, 9, 82, 62
9, 57420, Note_off_c, 9, 42, 57
9, 57420, Note_off_c, 9, 40, 113
9, 57504, Note_on_c, 9, 42, 79
9, 57504, Note_on_c, 9, 82, 64
9, 57516, Note_off_c, 9, 82, 64
9, 57516, Note_off_c, 9, 42, 79
9, 57600, Note_on_c, 9, 36, 105
9, 57600, Note_on_c, 9, 42, 54
9, 57600, Note_on_c, 9, 82, 62
9, 57612, Note_off_c, 9, 82, 62
9, 57612, Note_off_c, 9, 42, 54
9, 57612, Note_off_c, 9, 36, 105
9, 57696, Note_on_c, 9, 42, 69
9, 57696, Note_on_c, 9, 82, 55
9, 57708, Note_off_c, 9, 82, 55
9, 57708, Note_off_c, 9, 42, 69
9, 57792, Note_on_c, 9, 40, 113
9, 57792, Note_on_c, 9, 42, 49
9, 57792, Note_on_c, 9, 82, 55
9, 57804, Note_off_c, 9, 82, 55
9, 57804, Note_off_c, 9, 42, 49
9, 57804, Note_off_c, 9, 40, 113
9, 57888, Note_on_c, 9, 42, 79
9, 57888, Note_on_c, 9, 82, 51
9, 57900, Note_off_c, 9, 82, 51
9, 57900, Note_off_c, 9, 42, 79
9, 57984, Note_on_c, 9, 36, 105
9, 57984, Note_on_c, 9, 42, 46
9, 57984, Note_on_c, 9, 82, 58
9, 57996, Note_off_c, 9, 82, 58
9, 57996, Note_off_c, 9, 42, 46
9, 57996, Note_off_c, 9, 36, 105
9, 58080, Note_on_c, 9, 42, 74
9, 58080, Note_on_c, 9, 82, 47
9, 58092, Note_off_c, 9, 82, 47
9, 58092, Note_off_c, 9, 42, 74
9, 58176, Note_on_c, 9, 40, 113
9, 58176, Note_on_c, 9, 42, 46
9, 58176, Note_on_c, 9, 52, 99
9, 58176, Note_on_c, 9, 82, 62
9, 58188, Note_off_c, 9, 82, 62
9, 58188, Note_off_c, 9, 52, 99
9, 58188, Note_off_c, 9, 42, 46
9, 58188, Note_off_c, 9, 40, 113
9, 58272, Note_on_c, 9, 46, 99
9, 58272, Note_on_c, 9, 82, 58
9, 58284, Note_off_c, 9, 82, 58
9, 58284, Note_off_c, 9, 46, 99
9, 58368, Note_on_c, 9, 36, 105
9, 58368, Note_on_c, 9, 42, 42
9, 58368, Note_on_c, 9, 82, 56
9, 58380, Note_off_c, 9, 82, 56
9, 58380, Note_off_c, 9, 42, 42
9, 58380, Note_off_c, 9, 36, 105
9, 58464, Note_on_c, 9, 42, 69
9, 58464, Note_on_c, 9, 82, 46
9, 58476, Note_off_c, 9, 82, 46
9, 58476, Note_off_c, 9, 42, 69
9, 58560, Note_on_c, 9, 40, 112
9, 58560, Note_on_c, 9, 42, 54
9, 58560, Note_on_c, 9, 82, 64
9, 58572, Note_off_c, 9, 82, 64
9, 58572, Note_off_c, 9, 42, 54
9, 58572, Note_off_c, 9, 40, 112
9, 58656, Note_on_c, 9, 42, 74
9, 58656, Note_on_c, 9, 82, 53
9, 58668, Note_off_c, 9, 82, 53
9, 58668, Note_off_c, 9, 42, 74
9, 58752, Note_on_c, 9, 36, 105
9, 58752, Note_on_c, 9, 42, 57
9, 58752, Note_on_c, 9, 82, 62
9, 58764, Note_off_c, 9, 82, 62
9, 58764, Note_off_c, 9, 42, 57
9, 58764, Note_off_c, 9, 36, 105
9, 58848, Note_on_c, 9, 42, 69
9, 58848, Note_on_c, 9, 82, 60
9, 58860, Note_off_c, 9, 82, 60
9, 58860, Note_off_c, 9, 42, 69
9, 58944, Note_on_c, 9, 40, 113
9, 58944, Note_on_c, 9, 42, 57
9, 58944, Note_on_c, 9, 82, 68
9, 58956, Note_off_c, 9, 82, 68
9, 58956, Note_off_c, 9, 42, 57
9, 58956, Note_off_c, 9, 40, 113
9, 59040, Note_on_c, 9, 42, 79
9, 59040, Note_on_c, 9, 82, 50
9, 59052, Note_off_c, 9, 82, 50
9, 59052, Note_off_c, 9, 42, 79
9, 59136, Note_on_c, 9, 36, 105
9, 59136, Note_on_c, 9, 42, 54
9, 59136, Note_on_c, 9, 82, 68
9, 59148, Note_off_c, 9, 82, 68
9, 59148, Note_off_c, 9, 42, 54
9, 59148, Note_off_c, 9, 36, 105
9, 59232, Note_on_c, 9, 42, 69
9, 59232, Note_on_c, 9, 82, 58
9, 59244, Note_off_c, 9, 82, 58
9, 59244, Note_off_c, 9, 42, 69
9, 59328, Note_on_c, 9, 40, 113
9, 59328, Note_on_c, 9, 42, 49
9, 59328, Note_on_c, 9, 82, 66
9, 59340, Note_off_c, 9, 82, 66
9, 59340, Note_off_c, 9, 42, 49
9, 59340, Note_off_c, 9, 40, 113
9, 59424, Note_on_c, 9, 42, 79
9, 59424, Note_on_c, 9, 82, 60
9, 59436, Note_off_c, 9, 82, 60
9, 59436, Note_off_c, 9, 42, 79
9, 59520, Note_on_c, 9, 36, 105
9, 59520, Note_on_c, 9, 42, 46
9, 59520, Note_on_c, 9, 82, 56
9, 59532, Note_off_c, 9, 82, 56
9, 59532, Note_off_c, 9, 42, 46
9, 59532, Note_off_c, 9, 36, 105
9, 59616, Note_on_c, 9, 42, 74
9, 59616, Note_on_c, 9, 82, 60
9, 59628, Note_off_c, 9, 82, 60
9, 59628, Note_off_c, 9, 42, 74
9, 59712, Note_on_c, 9, 40, 113
9, 59712, Note_on_c, 9, 42, 46
9, 59712, Note_on_c, 9, 52, 99
9, 59712, Note_on_c, 9, 82, 64
9, 59724, Note_off_c, 9, 82, 64
9, 59724, Note_off_c, 9, 52, 99
9, 59724, Note_off_c, 9, 42, 46
9, 59724, Note_off_c, 9, 40, 113
9, 59808, Note_on_c, 9, 46, 99
9, 59808, Note_on_c, 9, 82, 64
9, 59820, Note_off_c, 9, 82, 64
9, 59820, Note_off_c, 9, 46, 99
9, 59904, Note_on_c, 9, 36, 105
9, 59904, Note_on_c, 9, 42, 42
9, 59904, Note_on_c, 9, 82, 66
9, 59916, Note_off_c, 9, 82, 66
9, 59916, Note_off_c, 9, 42, 42
9, 59916, Note_off_c, 9, 36, 105
9, 60000, Note_on_c, 9, 42, 69
9, 60000, Note_on_c, 9, 82, 64
9, 60012, Note_off_c, 9, 82, 64
9, 60012, Note_off_c, 9, 42, 69
9, 60096, Note_on_c, 9, 40, 112
9, 60096, Note_on_c, 9, 42, 54
9, 60096, Note_on_c, 9, 82, 62
9, 60108, Note_off_c, 9, 82, 62
9, 60108, Note_off_c, 9, 42, 54
9, 60108, Note_off_c, 9, 40, 112
9, 60192, Note_on_c, 9, 42, 74
9, 60192, Note_on_c, 9, 82, 64
9, 60204, Note_off_c, 9, 82, 64
9, 60204, Note_off_c, 9, 42, 74
9, 60288, Note_on_c, 9, 36, 105
9, 60288, Note_on_c, 9, 42, 57
9, 60288, Note_on_c, 9, 82, 64
9, 60300, Note_off_c, 9, 82, 64
9, 60300, Note_off_c, 9, 42, 57
9, 60300, Note_off_c, 9, 36, 105
9, 60384, Note_on_c, 9, 42, 69
9, 60384, Note_on_c, 9, 82, 68
9, 60396, Note_off_c, 9, 82, 68
9, 60396, Note_off_c, 9, 42, 69
9, 60480, Note_on_c, 9, 40, 113
9, 60480, Note_on_c, 9, 42, 57
9, 60480, Note_on_c, 9, 82, 62
9, 60492, Note_off_c, 9, 82, 62
9, 60492, Note_off_c, 9, 42, 57
9, 60492, Note_off_c, 9, 40, 113
9, 60576, Note_on_c, 9, 42, 79
9, 60576, Note_on_c, 9, 82, 64
9, 60588, Note_off_c, 9, 82, 64
9, 60588, Note_off_c, 9, 42, 79
9, 60672, Note_on_c, 9, 36, 105
9, 60672, Note_on_c, 9, 42, 54
9, 60672, Note_on_c, 9, 82, 62
9, 60684, Note_off_c, 9, 82, 62
9, 60684, Note_off_c, 9, 42, 54
9, 60684, Note_off_c, 9, 36, 105
9, 60768, Note_on_c, 9, 42, 69
9, 60768, Note_on_c, 9, 82, 55
9, 60780, Note_off_c, 9, 82, 55
9, 60780, Note_off_c, 9, 42, 69
9, 60864, Note_on_c, 9, 40, 113
9, 60864, Note_on_c, 9, 42, 49
9, 60864, Note_on_c, 9, 82, 55
9, 60876, Note_off_c, 9, 82, 55
9, 60876, Note_off_c, 9, 42, 49
9, 60876, Note_off_c, 9, 40, 113
9, 60960, Note_on_c, 9, 42, 79
9, 60960, Note_on_c, 9, 82, 51
9, 60972, Note_off_c, 9, 82, 51
9, 60972, Note_off_c, 9, 42, 79
9, 61056, Note_on_c, 9, 36, 105
9, 61056, Note_on_c, 9, 42, 46
9, 61056, Note_on_c, 9, 82, 58
9, 61068, Note_off_c, 9, 82, 58
9, 61068, Note_off_c, 9, 42, 46
9, 61068, Note_off_c, 9, 36, 105
9, 61152, Note_on_c, 9, 42, 74
9, 61152, Note_on_c, 9, 82, 47
9, 61164, Note_off_c, 9, 82, 47
9, 61164, Note_off_c, 9, 42, 74
9, 61248, Note_on_c, 9, 40, 113
9, 61248, Note_on_c, 9, 42, 46
9, 61248, Note_on_c, 9, 52, 99
9, 61248, Note_on_c, 9, 82, 62
9, 61260, Note_off_c, 9, 82, 62
9, 61260, Note_off_c, 9, 52, 99
9, 61260, Note_off_c, 9, 42, 46
9, 61260, Note_off_c, 9, 40, 113
9, 61344, Note_on_c, 9, 46, 99
9, 61344, Note_on_c, 9, 82, 58
9, 61356, Note_off_c, 9, 82, 58
9, 61356, Note_off_c, 9, 46, 99
9, 61440, Note_on_c, 9, 36, 105
9, 61440, Note_on_c, 9, 42, 49
9, 61440, Note_on_c, 9, 82, 56
9, 61452, Note_off_c, 9, 82, 56
9, 61452, Note_off_c, 9, 42, 49
9, 61452, Note_off_c, 9, 36, 105
9, 61536, Note_on_c, 9, 42, 38
9, 61536, Note_on_c, 9, 82, 46
9, 61548, Note_off_c, 9, 82, 46
9, 61548, Note_off_c, 9, 42, 38
9, 61632, Note_on_c, 9, 40, 112
9, 61632, Note_on_c, 9, 42, 51
9, 61632, Note_on_c, 9, 82, 64
9, 61644, Note_off_c, 9, 82, 64
9, 61644, Note_off_c, 9, 42, 51
9, 61644, Note_off_c, 9, 40, 112
9, 61728, Note_on_c, 9, 46, 89
9, 61728, Note_on_c, 9, 82, 53
9, 61740, Note_off_c, 9, 82, 53
9, 61740, Note_off_c, 9, 46, 89
9, 61824, Note_on_c, 9, 36, 105
9, 61824, Note_on_c, 9, 42, 59
9, 61824, Note_on_c, 9, 82, 62
9, 61836, Note_off_c, 9, 82, 62
9, 61836, Note_off_c, 9, 42, 59
9, 61836, Note_off_c, 9, 36, 105
9, 61920, Note_on_c, 9, 42, 36
9, 61920, Note_on_c, 9, 82, 60
9, 61932, Note_off_c, 9, 82, 60
9, 61932, Note_off_c, 9, 42, 36
9, 62016, Note_on_c, 9, 40, 113
9, 62016, Note_on_c, 9, 42, 62
9, 62016, Note_on_c, 9, 82, 68
9, 62028, Note_off_c, 9, 82, 68
9, 62028, Note_off_c, 9, 42, 62
9, 62028, Note_off_c, 9, 40, 113
9, 62112, Note_on_c, 9, 46, 94
9, 62112, Note_on_c, 9, 82, 50
9, 62124, Note_off_c, 9, 82, 50
9, 62124, Note_off_c, 9, 46, 94
9, 62208, Note_on_c, 9, 36, 105
9, 62208, Note_on_c, 9, 42, 59
9, 62208, Note_on_c, 9, 82, 68
9, 62220, Note_off_c, 9, 82, 68
9, 62220, Note_off_c, 9, 42, 59
9, 62220, Note_off_c, 9, 36, 105
9, 62304, Note_on_c, 9, 46, 94
9, 62304, Note_on_c, 9, 82, 58
9, 62316, Note_off_c, 9, 82, 58
9, 62316, Note_off_c, 9, 46, 94
9, 62400, Note_on_c, 9, 40, 113
9, 62400, Note_on_c, 9, 42, 56
9, 62400, Note_on_c, 9, 82, 66
9, 62412, Note_off_c, 9, 82, 66
9, 62412, Note_off_c, 9, 42, 56
9, 62412, Note_off_c, 9, 40, 113
9, 62496, Note_on_c, 9, 46, 89
9, 62496, Note_on_c, 9, 82, 60
9, 62508, Note_off_c, 9, 82, 60
9, 62508, Note_off_c, 9, 46, 89
9, 62592, Note_on_c, 9, 36, 105
9, 62592, Note_on_c, 9, 42, 66
9, 62592, Note_on_c, 9, 82, 56
9, 62604, Note_off_c, 9, 82, 56
9, 62604, Note_off_c, 9, 42, 66
9, 62604, Note_off_c, 9, 36, 105
9, 62688, Note_on_c, 9, 46, 94
9, 62688, Note_on_c, 9, 82, 60
9, 62700, Note_off_c, 9, 82, 60
9, 62700, Note_off_c, 9, 46, 94
9, 62784, Note_on_c, 9, 40, 113
9, 62784, Note_on_c, 9, 42, 62
9, 62784, Note_on_c, 9, 52, 92
9, 62784, Note_on_c, 9, 82, 64
9, 62796, Note_off_c, 9, 82, 64
9, 62796, Note_off_c, 9, 52, 92
9, 62796, Note_off_c, 9, 42, 62
9, 62796, Note_off_c, 9, 40, 113
9, 62880, Note_on_c, 9, 46, 94
9, 62880, Note_on_c, 9, 82, 64
9, 62892, Note_off_c, 9, 82, 64
9, 62892, Note_off_c, 9, 46, 94
9, 62976, Note_on_c, 9, 36, 105
9, 62976, Note_on_c, 9, 42, 42
9, 62976, Note_on_c, 9, 57, 78
9, 62976, Note_on_c, 9, 82, 66
9, 62988, Note_off_c, 9, 82, 66
9, 62988, Note_off_c, 9, 57, 78
9, 62988, Note_off_c, 9, 42, 42
9, 62988, Note_off_c, 9, 36, 105
9, 63072, Note_on_c, 9, 42, 69
9, 63072, Note_on_c, 9, 82, 64
9, 63084, Note_off_c, 9, 82, 64
9, 63084, Note_off_c, 9, 42, 69
9, 63168, Note_on_c, 9, 39, 110
9, 63168, Note_on_c, 9, 40, 112
9, 63168, Note_on_c, 9, 42, 54
9, 63168, Note_on_c, 9, 52, 72
9, 63168, Note_on_c, 9, 82, 62
9, 63180, Note_off_c, 9, 82, 62
9, 63180, Note_off_c, 9, 52, 72
9, 63180, Note_off_c, 9, 42, 54
9, 63180, Note_off_c, 9, 40, 112
9, 63180, Note_off_c, 9, 39, 110
9, 63264, Note_on_c, 9, 42, 74
9, 63264, Note_on_c, 9, 82, 64
9, 63276, Note_off_c, 9, 82, 64
9, 63276, Note_off_c, 9, 42, 74
9, 63360, Note_on_c, 9, 36, 105
9, 63360, Note_on_c, 9, 42, 57
9, 63360, Note_on_c, 9, 82, 64
9, 63372, Note_off_c, 9, 82, 64
9, 63372, Note_off_c, 9, 42, 57
9, 63372, Note_off_c, 9, 36, 105
9, 63456, Note_on_c, 9, 42, 69
9, 63456, Note_on_c, 9, 82, 68
9, 63468, Note_off_c, 9, 82, 68
9, 63468, Note_off_c, 9, 42, 69
9, 63552, Note_on_c, 9, 39, 110
9, 63552, Note_on_c, 9, 40, 113
9, 63552, Note_on_c, 9, 42, 57
9, 63552, Note_on_c, 9, 82, 62
9, 63564, Note_off_c, 9, 82, 62
9, 63564, Note_off_c, 9, 42, 57
9, 63564, Note_off_c, 9, 40, 113
9, 63564, Note_off_c, 9, 39, 110
9, 63648, Note_on_c, 9, 42, 79
9, 63648, Note_on_c, 9, 82, 64
9, 63660, Note_off_c, 9, 82, 64
9, 63660, Note_off_c, 9, 42, 79
9, 63744, Note_on_c, 9, 36, 105
9, 63744, Note_on_c, 9, 42, 54
9, 63744, Note_on_c, 9, 82, 62
9, 63756, Note_off_c, 9, 82, 62
9, 63756, Note_off_c, 9, 42, 54
9, 63756, Note_off_c, 9, 36, 105
9, 63840, Note_on_c, 9, 42, 69
9, 63840, Note_on_c, 9, 82, 55
9, 63852, Note_off_c, 9, 82, 55
9, 63852, Note_off_c, 9, 42, 69
9, 63936, Note_on_c, 9, 39, 110
9, 63936, Note_on_c, 9, 40, 113
9, 63936, Note_on_c, 9, 42, 49
9, 63936, Note_on_c, 9, 82, 55
9, 63948, Note_off_c, 9, 82, 55
9, 63948, Note_off_c, 9, 42, 49
9, 63948, Note_off_c, 9, 40, 113
9, 63948, Note_off_c, 9, 39, 110
9, 64032, Note_on_c, 9, 42, 79
9, 64032, Note_on_c, 9, 82, 51
9, 64044, Note_off_c, 9, 82, 51
9, 64044, Note_off_c, 9, 42, 79
9, 64128, Note_on_c, 9, 36, 105
9, 64128, Note_on_c, 9, 42, 46
9, 64128, Note_on_c, 9, 82, 58
9, 64140, Note_off_c, 9, 82, 58
9, 64140, Note_off_c, 9, 42, 46
9, 64140, Note_off_c, 9, 36, 105
9, 64224, Note_on_c, 9, 42, 74
9, 64224, Note_on_c, 9, 82, 47
9, 64236, Note_off_c, 9, 82, 47
9, 64236, Note_off_c, 9, 42, 74
9, 64272, Note_on_c, 9, 45, 97
9, 64284, Note_off_c, 9, 45, 97
9, 64320, Note_on_c, 9, 39, 110
9, 64320, Note_on_c, 9, 40, 113
9, 64320, Note_on_c, 9, 42, 46
9, 64320, Note_on_c, 9, 43, 103
9, 64320, Note_on_c, 9, 82, 62
9, 64332, Note_off_c, 9, 82, 62
9, 64332, Note_off_c, 9, 43, 103
9, 64332, Note_off_c, 9, 42, 46
9, 64332, Note_off_c, 9, 40, 113
9, 64332, Note_off_c, 9, 39, 110
9, 64416, Note_on_c, 9, 42, 79
9, 64416, Note_on_c, 9, 82, 58
9, 64428, Note_off_c, 9, 82, 58
9, 64428, Note_off_c, 9, 42, 79
9, 64512, Note_on_c, 9, 36, 105
9, 64512, Note_on_c, 9, 42, 42
9, 64512, Note_on_c, 9, 82, 56
9, 64524, Note_off_c, 9, 82, 56
9, 64524, Note_off_c, 9, 42, 42
9, 64524, Note_off_c, 9, 36, 105
9, 64608, Note_on_c, 9, 42, 69
9, 64608, Note_on_c, 9, 82, 46
9, 64620, Note_off_c, 9, 82, 46
9, 64620, Note_off_c, 9, 42, 69
9, 64704, Note_on_c, 9, 39, 110
9, 64704, Note_on_c, 9, 40, 112
9, 64704, Note_on_c, 9, 42, 54
9, 64704, Note_on_c, 9, 82, 64
9, 64716, Note_off_c, 9, 82, 64
9, 64716, Note_off_c, 9, 42, 54
9, 64716, Note_off_c, 9, 40, 112
9, 64716, Note_off_c, 9, 39, 110
9, 64800, Note_on_c, 9, 42, 74
9, 64800, Note_on_c, 9, 82, 53
9, 64812, Note_off_c, 9, 82, 53
9, 64812, Note_off_c, 9, 42, 74
9, 64896, Note_on_c, 9, 36, 105
9, 64896, Note_on_c, 9, 42, 57
9, 64896, Note_on_c, 9, 82, 62
9, 64908, Note_off_c, 9, 82, 62
9, 64908, Note_off_c, 9, 42, 57
9, 64908, Note_off_c, 9, 36, 105
9, 64992, Note_on_c, 9, 42, 69
9, 64992, Note_on_c, 9, 82, 60
9, 65004, Note_off_c, 9, 82, 60
9, 65004, Note_off_c, 9, 42, 69
9, 65088, Note_on_c, 9, 39, 110
9, 65088, Note_on_c, 9, 40, 113
9, 65088, Note_on_c, 9, 42, 57
9, 65088, Note_on_c, 9, 82, 68
9, 65100, Note_off_c, 9, 82, 68
9, 65100, Note_off_c, 9, 42, 57
9, 65100, Note_off_c, 9, 40, 113
9, 65100, Note_off_c, 9, 39, 110
9, 65184, Note_on_c, 9, 42, 79
9, 65184, Note_on_c, 9, 82, 50
9, 65196, Note_off_c, 9, 82, 50
9, 65196, Note_off_c, 9, 42, 79
9, 65280, Note_on_c, 9, 36, 105
9, 65280, Note_on_c, 9, 42, 54
9, 65280, Note_on_c, 9, 82, 68
9, 65292, Note_off_c, 9, 82, 68
9, 65292, Note_off_c, 9, 42, 54
9, 65292, Note_off_c, 9, 36, 105
9, 65376, Note_on_c, 9, 42, 69
9, 65376, Note_on_c, 9, 82, 58
9, 65388, Note_off_c, 9, 82, 58
9, 65388, Note_off_c, 9, 42, 69
9, 65472, Note_on_c, 9, 39, 110
9, 65472, Note_on_c, 9, 40, 113
9, 65472, Note_on_c, 9, 42, 49
9, 65472, Note_on_c, 9, 82, 66
9, 65484, Note_off_c, 9, 82, 66
9, 65484, Note_off_c, 9, 42, 49
9, 65484, Note_off_c, 9, 40, 113
9, 65484, Note_off_c, 9, 39, 110
9, 65568, Note_on_c, 9, 42, 79
9, 65568, Note_on_c, 9, 82, 60
9, 65580, Note_off_c, 9, 82, 60
9, 65580, Note_off_c, 9, 42, 79
9, 65664, Note_on_c, 9, 36, 105
9, 65664, Note_on_c, 9, 42, 46
9, 65664, Note_on_c, 9, 82, 56
9, 65676, Note_off_c, 9, 82, 56
9, 65676, Note_off_c, 9, 42, 46
9, 65676, Note_off_c, 9, 36, 105
9, 65760, Note_on_c, 9, 42, 74
9, 65760, Note_on_c, 9, 82, 60
9, 65772, Note_off_c, 9, 82, 60
9, 65772, Note_off_c, 9, 42, 74
9, 65856, Note_on_c, 9, 39, 110
9, 65856, Note_on_c, 9, 40, 113
9, 65856, Note_on_c, 9, 42, 46
9, 65856, Note_on_c, 9, 82, 64
9, 65868, Note_off_c, 9, 82, 64
9, 65868, Note_off_c, 9, 42, 46
9, 65868, Note_off_c, 9, 40, 113
9, 65868, Note_off_c, 9, 39, 110
9, 65952, Note_on_c, 9, 42, 79
9, 65952, Note_on_c, 9, 82, 64
9, 65964, Note_off_c, 9, 82, 64
9, 65964, Note_off_c, 9, 42, 79
9, 66048, Note_on_c, 9, 36, 105
9, 66048, Note_on_c, 9, 42, 42
9, 66048, Note_on_c, 9, 82, 66
9, 66060, Note_off_c, 9, 82, 66
9, 66060, Note_off_c, 9, 42, 42
9, 66060, Note_off_c, 9, 36, 105
9, 66144, Note_on_c, 9, 42, 69
9, 66144, Note_on_c, 9, 82, 64
9, 66156, Note_off_c, 9, 82, 64
9, 66156, Note_off_c, 9, 42, 69
9, 66240, Note_on_c, 9, 39, 110
9, 66240, Note_on_c, 9, 40, 112
9, 66240, Note_on_c, 9, 42, 54
9, 66240, Note_on_c, 9, 82, 62
9, 66252, Note_off_c, 9, 82, 62
9, 66252, Note_off_c, 9, 42, 54
9, 66252, Note_off_c, 9, 40, 112
9, 66252, Note_off_c, 9, 39, 110
9, 66336, Note_on_c, 9, 42, 74
9, 66336, Note_on_c, 9, 82, 64
9, 66348, Note_off_c, 9, 82, 64
9, 66348, Note_off_c, 9, 42, 74
9, 66432, Note_on_c, 9, 36, 105
9, 66432, Note_on_c, 9, 42, 57
9, 66432, Note_on_c, 9, 82, 64
9, 66444, Note_off_c, 9, 82, 64
9, 66444, Note_off_c, 9, 42, 57
9, 66444, Note_off_c, 9, 36, 105
9, 66528, Note_on_c, 9, 42, 69
9, 66528, Note_on_c, 9, 82, 68
9, 66540, Note_off_c, 9, 82, 68
9, 66540, Note_off_c, 9, 42, 69
9, 66624, Note_on_c, 9, 39, 110
9, 66624, Note_on_c, 9, 40, 113
9, 66624, Note_on_c, 9, 42, 57
9, 66624, Note_on_c, 9, 82, 62
9, 66636, Note_off_c, 9, 82, 62
9, 66636, Note_off_c, 9, 42, 57
9, 66636, Note_off_c, 9, 40, 113
9, 66636, Note_off_c, 9, 39, 110
9, 66720, Note_on_c, 9, 42, 79
9, 66720, Note_on_c, 9, 82, 64
9, 66732, Note_off_c, 9, 82, 64
9, 66732, Note_off_c, 9, 42, 79
9, 66816, Note_on_c, 9, 36, 105
9, 66816, Note_on_c, 9, 42, 54
9, 66816, Note_on_c, 9, 82, 62
9, 66828, Note_off_c, 9, 82, 62
9, 66828, Note_off_c, 9, 42, 54
9, 66828, Note_off_c, 9, 36, 105
9, 66912, Note_on_c, 9, 42, 69
9, 66912, Note_on_c, 9, 82, 55
9, 66924, Note_off_c, 9, 82, 55
9, 66924, Note_off_c, 9, 42, 69
9, 67008, Note_on_c, 9, 39, 110
9, 67008, Note_on_c, 9, 40, 113
9, 67008, Note_on_c, 9, 42, 49
9, 67008, Note_on_c, 9, 82, 55
9, 67020, Note_off_c, 9, 82, 55
9, 67020, Note_off_c, 9, 42, 49
9, 67020, Note_off_c, 9, 40, 113
9, 67020, Note_off_c, 9, 39, 110
9, 67104, Note_on_c, 9, 42, 79
9, 67104, Note_on_c, 9, 82, 51
9, 67116, Note_off_c, 9, 82, 51
9, 67116, Note_off_c, 9, 42, 79
9, 67200, Note_on_c, 9, 36, 105
9, 67200, Note_on_c, 9, 42, 46
9, 67200, Note_on_c, 9, 82, 58
9, 67212, Note_off_c, 9, 82, 58
9, 67212, Note_off_c, 9, 42, 46
9, 67212, Note_off_c, 9, 36, 105
9, 67296, Note_on_c, 9, 42, 74
9, 67296, Note_on_c, 9, 82, 47
9, 67308, Note_off_c, 9, 82, 47
9, 67308, Note_off_c, 9, 42, 74
9, 67392, Note_on_c, 9, 39, 110
9, 67392, Note_on_c, 9, 40, 113
9, 67392, Note_on_c, 9, 42, 46
9, 67392, Note_on_c, 9, 82, 62
9, 67404, Note_off_c, 9, 82, 62
9, 67404, Note_off_c, 9, 42, 46
9, 67404, Note_off_c, 9, 40, 113
9, 67404, Note_off_c, 9, 39, 110
9, 67488, Note_on_c, 9, 42, 79
9, 67488, Note_on_c, 9, 82, 58
9, 67500, Note_off_c, 9, 82, 58
9, 67500, Note_off_c, 9, 42, 79
9, 67584, Note_on_c, 9, 36, 105
9, 67584, Note_on_c, 9, 42, 42
9, 67584, Note_on_c, 9, 82, 56
9, 67596, Note_off_c, 9, 82, 56
9, 67596, Note_off_c, 9, 42, 42
9, 67596, Note_off_c, 9, 36, 105
9, 67680, Note_on_c, 9, 42, 69
9, 67680, Note_on_c, 9, 82, 46
9, 67692, Note_off_c, 9, 82, 46
9, 67692, Note_off_c, 9, 42, 69
9, 67776, Note_on_c, 9, 39, 110
9, 67776, Note_on_c, 9, 40, 112
9, 67776, Note_on_c, 9, 42, 54
9, 67776, Note_on_c, 9, 82, 64
9, 67788, Note_off_c, 9, 82, 64
9, 67788, Note_off_c, 9, 42, 54
9, 67788, Note_off_c, 9, 40, 112
9, 67788, Note_off_c, 9, 39, 110
9, 67872, Note_on_c, 9, 42, 74
9, 67872, Note_on_c, 9, 82, 53
9, 67884, Note_off_c, 9, 82, 53
9, 67884, Note_off_c, 9, 42, 74
9, 67968, Note_on_c, 9, 36, 105
9, 67968, Note_on_c, 9, 42, 57
9, 67968, Note_on_c, 9, 82, 62
9, 67980, Note_off_c, 9, 82, 62
9, 67980, Note_off_c, 9, 42, 57
9, 67980, Note_off_c, 9, 36, 105
9, 68064, Note_on_c, 9, 42, 69
9, 68064, Note_on_c, 9, 82, 60
9, 68076, Note_off_c, 9, 82, 60
9, 68076, Note_off_c, 9, 42, 69
9, 68160, Note_on_c, 9, 39, 110
9, 68160, Note_on_c, 9, 40, 113
9, 68160, Note_on_c, 9, 42, 57
9, 68160, Note_on_c, 9, 82, 68
9, 68172, Note_off_c, 9, 82, 68
9, 68172, Note_off_c, 9, 42, 57
9, 68172, Note_off_c, 9, 40, 113
9, 68172, Note_off_c, 9, 39, 110
9, 68256, Note_on_c, 9, 42, 79
9, 68256, Note_on_c, 9, 82, 50
9, 68268, Note_off_c, 9, 82, 50
9, 68268, Note_off_c, 9, 42, 79
9, 68352, Note_on_c, 9, 36, 105
9, 68352, Note_on_c, 9, 42, 54
9, 68352, Note_on_c, 9, 82, 68
9, 68364, Note_off_c, 9, 82, 68
9, 68364, Note_off_c, 9, 42, 54
9, 68364, Note_off_c, 9, 36, 105
9, 68448, Note_on_c, 9, 42, 69
9, 68448, Note_on_c, 9, 82, 58
9, 68460, Note_off_c, 9, 82, 58
9, 68460, Note_off_c, 9, 42, 69
9, 68544, Note_on_c, 9, 39, 110
9, 68544, Note_on_c, 9, 40, 113
9, 68544, Note_on_c, 9, 42, 49
9, 68544, Note_on_c, 9, 82, 66
9, 68556, Note_off_c, 9, 82, 66
9, 68556, Note_off_c, 9, 42, 49
9, 68556, Note_off_c, 9, 40, 113
9, 68556, Note_off_c, 9, 39, 110
9, 68640, Note_on_c, 9, 42, 79
9, 68640, Note_on_c, 9, 82, 60
9, 68652, Note_off_c, 9, 82, 60
9, 68652, Note_off_c, 9, 42, 79
9, 68736, Note_on_c, 9, 36, 105
9, 68736, Note_on_c, 9, 42, 46
9, 68736, Note_on_c, 9, 82, 56
9, 68748, Note_off_c, 9, 82, 56
9, 68748, Note_off_c, 9, 42, 46
9, 68748, Note_off_c, 9, 36, 105
9, 68832, Note_on_c, 9, 42, 74
9, 68832, Note_on_c, 9, 82, 60
9, 68844, Note_off_c, 9, 82, 60
9, 68844, Note_off_c, 9, 42, 74
9, 68880, Note_on_c, 9, 45, 97
9, 68892, Note_off_c, 9, 45, 97
9, 68928, Note_on_c, 9, 39, 110
9, 68928, Note_on_c, 9, 40, 113
9, 68928, Note_on_c, 9, 42, 46
9, 68928, Note_on_c, 9, 43, 103
9, 68928, Note_on_c, 9, 82, 64
9, 68940, Note_off_c, 9, 82, 64
9, 68940, Note_off_c, 9, 43, 103
9, 68940, Note_off_c, 9, 42, 46
9, 68940, Note_off_c, 9, 40, 113
9, 68940, Note_off_c, 9, 39, 110
9, 69024, Note_on_c, 9, 42, 79
9, 69024, Note_on_c, 9, 82, 64
9, 69036, Note_off_c, 9, 82, 64
9, 69036, Note_off_c, 9, 42, 79
9, 69120, Note_on_c, 9, 36, 105
9, 69120, Note_on_c, 9, 42, 42
9, 69120, Note_on_c, 9, 82, 66
9, 69132, Note_off_c, 9, 82, 66
9, 69132, Note_off_c, 9, 42, 42
9, 69132, Note_off_c, 9, 36, 105
9, 69216, Note_on_c, 9, 42, 69
9, 69216, Note_on_c, 9, 82, 64
9, 69228, Note_off_c, 9, 82, 64
9, 69228, Note_off_c, 9, 42, 69
9, 69312, Note_on_c, 9, 39, 110
9, 69312, Note_on_c, 9, 40, 112
9, 69312, Note_on_c, 9, 42, 54
9, 69312, Note_on_c, 9, 82, 62
9, 69324, Note_off_c, 9, 82, 62
9, 69324, Note_off_c, 9, 42, 54
9, 69324, Note_off_c, 9, 40, 112
9, 69324, Note_off_c, 9, 39, 110
9, 69408, Note_on_c, 9, 42, 74
9, 69408, Note_on_c, 9, 82, 64
9, 69420, Note_off_c, 9, 82, 64
9, 69420, Note_off_c, 9, 42, 74
9, 69504, Note_on_c, 9, 36, 105
9, 69504, Note_on_c, 9, 42, 57
9, 69504, Note_on_c, 9, 82, 64
9, 69516, Note_off_c, 9, 82, 64
9, 69516, Note_off_c, 9, 42, 57
9, 69516, Note_off_c, 9, 36, 105
9, 69600, Note_on_c, 9, 42, 69
9, 69600, Note_on_c, 9, 82, 68
9, 69612, Note_off_c, 9, 82, 68
9, 69612, Note_off_c, 9, 42, 69
9, 69696, Note_on_c, 9, 39, 110
9, 69696, Note_on_c, 9, 40, 113
9, 69696, Note_on_c, 9, 42, 57
9, 69696, Note_on_c, 9, 82, 62
9, 69708, Note_off_c, 9, 82, 62
9, 69708, Note_off_c, 9, 42, 57
9, 69708, Note_off_c, 9, 40, 113
9, 69708, Note_off_c, 9, 39, 110
9, 69792, Note_on_c, 9, 42, 79
9, 69792, Note_on_c, 9, 82, 64
9, 69804, Note_off_c, 9, 82, 64
9, 69804, Note_off_c, 9, 42, 79
9, 69888, Note_on_c, 9, 36, 105
9, 69888, Note_on_c, 9, 42, 54
9, 69888, Note_on_c, 9, 82, 62
9, 69900, Note_off_c, 9, 82, 62
9, 69900, Note_off_c, 9, 42, 54
9, 69900, Note_off_c, 9, 36, 105
9, 69984, Note_on_c, 9, 42, 69
9, 69984, Note_on_c, 9, 82, 55
9, 69996, Note_off_c, 9, 82, 55
9, 69996, Note_off_c, 9, 42, 69
9, 70080, Note_on_c, 9, 39, 110
9, 70080, Note_on_c, 9, 40, 113
9, 70080, Note_on_c, 9, 42, 49
9, 70080, Note_on_c, 9, 82, 55
9, 70092, Note_off_c, 9, 82, 55
9, 70092, Note_off_c, 9, 42, 49
9, 70092, Note_off_c, 9, 40, 113
9, 70092, Note_off_c, 9, 39, 110
9, 70176, Note_on_c, 9, 42, 79
9, 70176, Note_on_c, 9, 82, 51
9, 70188, Note_off_c, 9, 82, 51
9, 70188, Note_off_c, 9, 42, 79
9, 70272, Note_on_c, 9, 36, 105
9, 70272, Note_on_c, 9, 42, 46
9, 70272, Note_on_c, 9, 82, 58
9, 70284, Note_off_c, 9, 82, 58
9, 70284, Note_off_c, 9, 42, 46
9, 70284, Note_off_c, 9, 36, 105
9, 70368, Note_on_c, 9, 42, 74
9, 70368, Note_on_c, 9, 82, 47
9, 70380, Note_off_c, 9, 82, 47
9, 70380, Note_off_c, 9, 42, 74
9, 70416, Note_on_c, 9, 45, 97
9, 70428, Note_off_c, 9, 45, 97
9, 70464, Note_on_c, 9, 39, 110
9, 70464, Note_on_c, 9, 40, 113
9, 70464, Note_on_c, 9, 42, 46
9, 70464, Note_on_c, 9, 43, 103
9, 70464, Note_on_c, 9, 82, 62
9, 70476, Note_off_c, 9, 82, 62
9, 70476, Note_off_c, 9, 43, 103
9, 70476, Note_off_c, 9, 42, 46
9, 70476, Note_off_c, 9, 40, 113
9, 70476, Note_off_c, 9, 39, 110
9, 70560, Note_on_c, 9, 42, 79
9, 70560, Note_on_c, 9, 82, 58
9, 70572, Note_off_c, 9, 82, 58
9, 70572, Note_off_c, 9, 42, 79
9, 70656, Note_on_c, 9, 36, 105
9, 70656, Note_on_c, 9, 42, 42
9, 70656, Note_on_c, 9, 82, 56
9, 70668, Note_off_c, 9, 82, 56
9, 70668, Note_off_c, 9, 42, 42
9, 70668, Note_off_c, 9, 36, 105
9, 70752, Note_on_c, 9, 42, 69
9, 70752, Note_on_c, 9, 82, 46
9, 70764, Note_off_c, 9, 82, 46
9, 70764, Note_off_c, 9, 42, 69
9, 70848, Note_on_c, 9, 39, 110
9, 70848, Note_on_c, 9, 40, 112
9, 70848, Note_on_c, 9, 42, 54
9, 70848, Note_on_c, 9, 82, 64
9, 70860, Note_off_c, 9, 82, 64
9, 70860, Note_off_c, 9, 42, 54
9, 70860, Note_off_c, 9, 40, 112
9, 70860, Note_off_c, 9, 39, 110
9, 70944, Note_on_c, 9, 42, 74
9, 70944, Note_on_c, 9, 82, 53
9, 70956, Note_off_c, 9, 82, 53
9, 70956, Note_off_c, 9, 42, 74
9, 71040, Note_on_c, 9, 36, 105
9, 71040, Note_on_c, 9, 42, 57
9, 71040, Note_on_c, 9, 82, 62
9, 71052, Note_off_c, 9, 82, 62
9, 71052, Note_off_c, 9, 42, 57
9, 71052, Note_off_c, 9, 36, 105
9, 71136, Note_on_c, 9, 42, 69
9, 71136, Note_on_c, 9, 82, 60
9, 71148, Note_off_c, 9, 82, 60
9, 71148, Note_off_c, 9, 42, 69
9, 71232, Note_on_c, 9, 39, 110
9, 71232, Note_on_c, 9, 40, 113
9, 71232, Note_on_c, 9, 42, 57
9, 71232, Note_on_c, 9, 82, 68
9, 71244, Note_off_c, 9, 82, 68
9, 71244, Note_off_c, 9, 42, 57
9, 71244, Note_off_c, 9, 40, 113
9, 71244, Note_off_c, 9, 39, 110
9, 71328, Note_on_c, 9, 42, 79
9, 71328, Note_on_c, 9, 82, 50
9, 71340, Note_off_c, 9, 82, 50
9, 71340, Note_off_c, 9, 42, 79
9, 71424, Note_on_c, 9, 36, 105
9, 71424, Note_on_c, 9, 42, 54
9, 71424, Note_on_c, 9, 82, 68
9, 71436, Note_off_c, 9, 82, 68
9, 71436, Note_off_c, 9, 42, 54
9, 71436, Note_off_c, 9, 36, 105
9, 71520, Note_on_c, 9, 42, 69
9, 71520, Note_on_c, 9, 82, 58
9, 71532, Note_off_c, 9, 82, 58
9, 71532, Note_off_c, 9, 42, 69
9, 71616, Note_on_c, 9, 39, 110
9, 71616, Note_on_c, 9, 40, 113
9, 71616, Note_on_c, 9, 42, 49
9, 71616, Note_on_c, 9, 82, 66
9, 71628, Note_off_c, 9, 82, 66
9, 71628, Note_off_c, 9, 42, 49
9, 71628, Note_off_c, 9, 40, 113
9, 71628, Note_off_c, 9, 39, 110
9, 71712, Note_on_c, 9, 42, 79
9, 71712, Note_on_c, 9, 82, 60
9, 71724, Note_off_c, 9, 82, 60
9, 71724, Note_off_c, 9, 42, 79
9, 71808, Note_on_c, 9, 36, 105
9, 71808, Note_on_c, 9, 42, 46
9, 71808, Note_on_c, 9, 82, 56
9, 71820, Note_off_c, 9, 82, 56
9, 71820, Note_off_c, 9, 42, 46
9, 71820, Note_off_c, 9, 36, 105
9, 71904, Note_on_c, 9, 42, 74
9, 71904, Note_on_c, 9, 82, 60
9, 71916, Note_off_c, 9, 82, 60
9, 71916, Note_off_c, 9, 42, 74
9, 72000, Note_on_c, 9, 39, 110
9, 72000, Note_on_c, 9, 40, 113
9, 72000, Note_on_c, 9, 42, 46
9, 72000, Note_on_c, 9, 82, 64
9, 72012, Note_off_c, 9, 82, 64
9, 72012, Note_off_c, 9, 42, 46
9, 72012, Note_off_c, 9, 40, 113
9, 72012, Note_off_c, 9, 39, 110
9, 72096, Note_on_c, 9, 46, 100
9, 72096, Note_on_c, 9, 82, 64
9, 72108, Note_off_c, 9, 82, 64
9, 72108, Note_off_c, 9, 46, 100
9, 72192, Note_on_c, 9, 36, 105
9, 72192, Note_on_c, 9, 42, 42
9, 72192, Note_on_c, 9, 82, 66
9, 72204, Note_off_c, 9, 82, 66
9, 72204, Note_off_c, 9, 42, 42
9, 72204, Note_off_c, 9, 36, 105
9, 72288, Note_on_c, 9, 42, 69
9, 72288, Note_on_c, 9, 82, 64
9, 72300, Note_off_c, 9, 82, 64
9, 72300, Note_off_c, 9, 42, 69
9, 72384, Note_on_c, 9, 39, 110
9, 72384, Note_on_c, 9, 40, 112
9, 72384, Note_on_c, 9, 42, 54
9, 72384, Note_on_c, 9, 82, 62
9, 72396, Note_off_c, 9, 82, 62
9, 72396, Note_off_c, 9, 42, 54
9, 72396, Note_off_c, 9, 40, 112
9, 72396, Note_off_c, 9, 39, 110
9, 72480, Note_on_c, 9, 42, 74
9, 72480, Note_on_c, 9, 82, 64
9, 72492, Note_off_c, 9, 82, 64
9, 72492, Note_off_c, 9, 42, 74
9, 72576, Note_on_c, 9, 36, 105
9, 72576, Note_on_c, 9, 42, 57
9, 72576, Note_on_c, 9, 82, 64
9, 72588, Note_off_c, 9, 82, 64
9, 72588, Note_off_c, 9, 42, 57
9, 72588, Note_off_c, 9, 36, 105
9, 72672, Note_on_c, 9, 42, 69
9, 72672, Note_on_c, 9, 82, 68
9, 72684, Note_off_c, 9, 82, 68
9, 72684, Note_off_c, 9, 42, 69
9, 72768, Note_on_c, 9, 39, 110
9, 72768, Note_on_c, 9, 40, 113
9, 72768, Note_on_c, 9, 42, 57
9, 72768, Note_on_c, 9, 82, 62
9, 72780, Note_off_c, 9, 82, 62
9, 72780, Note_off_c, 9, 42, 57
9, 72780, Note_off_c, 9, 40, 113
9, 72780, Note_off_c, 9, 39, 110
9, 72864, Note_on_c, 9, 42, 79
9, 72864, Note_on_c, 9, 82, 64
9, 72876, Note_off_c, 9, 82, 64
9, 72876, Note_off_c, 9, 42, 79
9, 72960, Note_on_c, 9, 36, 105
9, 72960, Note_on_c, 9, 42, 54
9, 72960, Note_on_c, 9, 82, 62
9, 72972, Note_off_c, 9, 82, 62
9, 72972, Note_off_c, 9, 42, 54
9, 72972, Note_off_c, 9, 36, 105
9, 73056, Note_on_c, 9, 42, 69
9, 73056, Note_on_c, 9, 82, 55
9, 73068, Note_off_c, 9, 82, 55
9, 73068, Note_off_c, 9, 42, 69
9, 73152, Note_on_c, 9, 39, 110
9, 73152, Note_on_c, 9, 40, 113
9, 73152, Note_on_c, 9, 42, 49
9, 73152, Note_on_c, 9, 82, 55
9, 73164, Note_off_c, 9, 82, 55
9, 73164, Note_off_c, 9, 42, 49
9, 73164, Note_off_c, 9, 40, 113
9, 73164, Note_off_c, 9, 39, 110
9, 73248, Note_on_c, 9, 42, 79
9, 73248, Note_on_c, 9, 82, 51
9, 73260, Note_off_c, 9, 82, 51
9, 73260, Note_off_c, 9, 42, 79
9, 73344, Note_on_c, 9, 36, 105
9, 73344, Note_on_c, 9, 42, 46
9, 73344, Note_on_c, 9, 82, 58
9, 73356, Note_off_c, 9, 82, 58
9, 73356, Note_off_c, 9, 42, 46
9, 73356, Note_off_c, 9, 36, 105
9, 73440, Note_on_c, 9, 42, 74
9, 73440, Note_on_c, 9, 82, 47
9, 73452, Note_off_c, 9, 82, 47
9, 73452, Note_off_c, 9, 42, 74
9, 73536, Note_on_c, 9, 39, 110
9, 73536, Note_on_c, 9, 40, 113
9, 73536, Note_on_c, 9, 42, 46
9, 73536, Note_on_c, 9, 82, 62
9, 73548, Note_off_c, 9, 82, 62
9, 73548, Note_off_c, 9, 42, 46
9, 73548, Note_off_c, 9, 40, 113
9, 73548, Note_off_c, 9, 39, 110
9, 73632, Note_on_c, 9, 42, 79
9, 73632, Note_on_c, 9, 82, 58
9, 73644, Note_off_c, 9, 82, 58
9, 73644, Note_off_c, 9, 42, 79
9, 73728, Note_on_c, 9, 36, 105
9, 73728, Note_on_c, 9, 42, 42
9, 73728, Note_on_c, 9, 82, 56
9, 73740, Note_off_c, 9, 82, 56
9, 73740, Note_off_c, 9, 42, 42
9, 73740, Note_off_c, 9, 36, 105
9, 73824, Note_on_c, 9, 42, 69
9, 73824, Note_on_c, 9, 82, 46
9, 73836, Note_off_c, 9, 82, 46
9, 73836, Note_off_c, 9, 42, 69
9, 73920, Note_on_c, 9, 39, 110
9, 73920, Note_on_c, 9, 40, 112
9, 73920, Note_on_c, 9, 42, 54
9, 73920, Note_on_c, 9, 82, 64
9, 73932, Note_off_c, 9, 82, 64
9, 73932, Note_off_c, 9, 42, 54
9, 73932, Note_off_c, 9, 40, 112
9, 73932, Note_off_c, 9, 39, 110
9, 74016, Note_on_c, 9, 42, 74
9, 74016, Note_on_c, 9, 82, 53
9, 74028, Note_off_c, 9, 82, 53
9, 74028, Note_off_c, 9, 42, 74
9, 74112, Note_on_c, 9, 36, 105
9, 74112, Note_on_c, 9, 42, 57
9, 74112, Note_on_c, 9, 82, 62
9, 74124, Note_off_c, 9, 82, 62
9, 74124, Note_off_c, 9, 42, 57
9, 74124, Note_off_c, 9, 36, 105
9, 74208, Note_on_c, 9, 42, 69
9, 74208, Note_on_c, 9, 82, 60
9, 74220, Note_off_c, 9, 82, 60
9, 74220, Note_off_c, 9, 42, 69
9, 74304, Note_on_c, 9, 39, 110
9, 74304, Note_on_c, 9, 40, 113
9, 74304, Note_on_c, 9, 42, 57
9, 74304, Note_on_c, 9, 82, 68
9, 74316, Note_off_c, 9, 82, 68
9, 74316, Note_off_c, 9, 42, 57
9, 74316, Note_off_c, 9, 40, 113
9, 74316, Note_off_c, 9, 39, 110
9, 74400, Note_on_c, 9, 42, 79
9, 74400, Note_on_c, 9, 82, 50
9, 74412, Note_off_c, 9, 82, 50
9, 74412, Note_off_c, 9, 42, 79
9, 74496, Note_on_c, 9, 36, 105
9, 74496, Note_on_c, 9, 42, 54
9, 74496, Note_on_c, 9, 82, 68
9, 74508, Note_off_c, 9, 82, 68
9, 74508, Note_off_c, 9, 42, 54
9, 74508, Note_off_c, 9, 36, 105
9, 74592, Note_on_c, 9, 42, 69
9, 74592, Note_on_c, 9, 82, 58
9, 74604, Note_off_c, 9, 82, 58
9, 74604, Note_off_c, 9, 42, 69
9, 74688, Note_on_c, 9, 39, 110
9, 74688, Note_on_c, 9, 40, 113
9, 74688, Note_on_c, 9, 42, 49
9, 74688, Note_on_c, 9, 82, 66
9, 74700, Note_off_c, 9, 82, 66
9, 74700, Note_off_c, 9, 42, 49
9, 74700, Note_off_c, 9, 40, 113
9, 74700, Note_off_c, 9, 39, 110
9, 74784, Note_on_c, 9, 42, 79
9, 74784, Note_on_c, 9, 82, 60
9, 74796, Note_off_c, 9, 82, 60
9, 74796, Note_off_c, 9, 42, 79
9, 74880, Note_on_c, 9, 36, 105
9, 74880, Note_on_c, 9, 42, 46
9, 74880, Note_on_c, 9, 82, 56
9, 74892, Note_off_c, 9, 82, 56
9, 74892, Note_off_c, 9, 42, 46
9, 74892, Note_off_c, 9, 36, 105
9, 74976, Note_on_c, 9, 42, 74
9, 74976, Note_on_c, 9, 82, 60
9, 74988, Note_off_c, 9, 82, 60
9, 74988, Note_off_c, 9, 42, 74
9, 75072, Note_on_c, 9, 39, 110
9, 75072, Note_on_c, 9, 40, 113
9, 75072, Note_on_c, 9, 42, 46
9, 75072, Note_on_c, 9, 82, 64
9, 75084, Note_off_c, 9, 82, 64
9, 75084, Note_off_c, 9, 42, 46
9, 75084, Note_off_c, 9, 40, 113
9, 75084, Note_off_c, 9, 39, 110
9, 75168, Note_on_c, 9, 42, 79
9, 75168, Note_on_c, 9, 82, 64
9, 75180, Note_off_c, 9, 82, 64
9, 75180, Note_off_c, 9, 42, 79
9, 75264, Note_on_c, 9, 36, 105
9, 75264, Note_on_c, 9, 42, 42
9, 75264, Note_on_c, 9, 82, 66
9, 75276, Note_off_c, 9, 82, 66
9, 75276, Note_off_c, 9, 42, 42
9, 75276, Note_off_c, 9, 36, 105
9, 75360, Note_on_c, 9, 42, 69
9, 75360, Note_on_c, 9, 82, 64
9, 75372, Note_off_c, 9, 82, 64
9, 75372, Note_off_c, 9, 42, 69
9, 75456, Note_on_c, 9, 39, 110
9, 75456, Note_on_c, 9, 40, 112
9, 75456, Note_on_c, 9, 42, 54
9, 75456, Note_on_c, 9, 82, 62
9, 75468, Note_off_c, 9, 82, 62
9, 75468, Note_off_c, 9, 42, 54
9, 75468, Note_off_c, 9, 40, 112
9, 75468, Note_off_c, 9, 39, 110
9, 75552, Note_on_c, 9, 42, 74
9, 75552, Note_on_c, 9, 82, 64
9, 75564, Note_off_c, 9, 82, 64
9, 75564, Note_off_c, 9, 42, 74
9, 75648, Note_on_c, 9, 36, 105
9, 75648, Note_on_c, 9, 42, 57
9, 75648, Note_on_c, 9, 82, 64
9, 75660, Note_off_c, 9, 82, 64
9, 75660, Note_off_c, 9, 42, 57
9, 75660, Note_off_c, 9, 36, 105
9, 75744, Note_on_c, 9, 42, 69
9, 75744, Note_on_c, 9, 82, 68
9, 75756, Note_off_c, 9, 82, 68
9, 75756, Note_off_c, 9, 42, 69
9, 75840, Note_on_c, 9, 39, 110
9, 75840, Note_on_c, 9, 40, 113
9, 75840, Note_on_c, 9, 42, 57
9, 75840, Note_on_c, 9, 82, 62
9, 75852, Note_off_c, 9, 82, 62
9, 75852, Note_off_c, 9, 42, 57
9, 75852, Note_off_c, 9, 40, 113
9, 75852, Note_off_c, 9, 39, 110
9, 75936, Note_on_c, 9, 42, 79
9, 75936, Note_on_c, 9, 82, 64
9, 75948, Note_off_c, 9, 82, 64
9, 75948, Note_off_c, 9, 42, 79
9, 76032, Note_on_c, 9, 36, 105
9, 76032, Note_on_c, 9, 42, 54
9, 76032, Note_on_c, 9, 82, 62
9, 76044, Note_off_c, 9, 82, 62
9, 76044, Note_off_c, 9, 42, 54
9, 76044, Note_off_c, 9, 36, 105
9, 76128, Note_on_c, 9, 42, 69
9, 76128, Note_on_c, 9, 82, 55
9, 76140, Note_off_c, 9, 82, 55
9, 76140, Note_off_c, 9, 42, 69
9, 76224, Note_on_c, 9, 39, 110
9, 76224, Note_on_c, 9, 40, 113
9, 76224, Note_on_c, 9, 42, 49
9, 76224, Note_on_c, 9, 82, 55
9, 76236, Note_off_c, 9, 82, 55
9, 76236, Note_off_c, 9, 42, 49
9, 76236, Note_off_c, 9, 40, 113
9, 76236, Note_off_c, 9, 39, 110
9, 76320, Note_on_c, 9, 42, 79
9, 76320, Note_on_c, 9, 82, 51
9, 76332, Note_off_c, 9, 82, 51
9, 76332, Note_off_c, 9, 42, 79
9, 76416, Note_on_c, 9, 36, 105
9, 76416, Note_on_c, 9, 42, 46
9, 76416, Note_on_c, 9, 82, 58
9, 76428, Note_off_c, 9, 82, 58
9, 76428, Note_off_c, 9, 42, 46
9, 76428, Note_off_c, 9, 36, 105
9, 76512, Note_on_c, 9, 42, 74
9, 76512, Note_on_c, 9, 82, 47
9, 76524, Note_off_c, 9, 82, 47
9, 76524, Note_off_c, 9, 42, 74
9, 76608, Note_on_c, 9, 39, 110
9, 76608, Note_on_c, 9, 40, 113
9, 76608, Note_on_c, 9, 42, 46
9, 76608, Note_on_c, 9, 82, 62
9, 76620, Note_off_c, 9, 82, 62
9, 76620, Note_off_c, 9, 42, 46
9, 76620, Note_off_c, 9, 40, 113
9, 76620, Note_off_c, 9, 39, 110
9, 76704, Note_on_c, 9, 42, 79
9, 76704, Note_on_c, 9, 82, 58
9, 76716, Note_off_c, 9, 82, 58
9, 76716, Note_off_c, 9, 42, 79
9, 76800, Note_on_c, 9, 36, 105
9, 76800, Note_on_c, 9, 42, 42
9, 76800, Note_on_c, 9, 82, 56
9, 76812, Note_off_c, 9, 82, 56
9, 76812, Note_off_c, 9, 42, 42
9, 76812, Note_off_c, 9, 36, 105
9, 76896, Note_on_c, 9, 42, 69
9, 76896, Note_on_c, 9, 82, 46
9, 76908, Note_off_c, 9, 82, 46
9, 76908, Note_off_c, 9, 42, 69
9, 76992, Note_on_c, 9, 39, 110
9, 76992, Note_on_c, 9, 40, 112
9, 76992, Note_on_c, 9, 42, 54
9, 76992, Note_on_c, 9, 82, 64
9, 77004, Note_off_c, 9, 82, 64
9, 77004, Note_off_c, 9, 42, 54
9, 77004, Note_off_c, 9, 40, 112
9, 77004, Note_off_c, 9, 39, 110
9, 77088, Note_on_c, 9, 42, 74
9, 77088, Note_on_c, 9, 82, 53
9, 77100, Note_off_c, 9, 82, 53
9, 77100, Note_off_c, 9, 42, 74
9, 77184, Note_on_c, 9, 36, 105
9, 77184, Note_on_c, 9, 42, 57
9, 77184, Note_on_c, 9, 82, 62
9, 77196, Note_off_c, 9, 82, 62
9, 77196, Note_off_c, 9, 42, 57
9, 77196, Note_off_c, 9, 36, 105
9, 77280, Note_on_c, 9, 42, 69
9, 77280, Note_on_c, 9, 82, 60
9, 77292, Note_off_c, 9, 82, 60
9, 77292, Note_off_c, 9, 42, 69
9, 77376, Note_on_c, 9, 39, 110
9, 77376, Note_on_c, 9, 40, 113
9, 77376, Note_on_c, 9, 42, 57
9, 77376, Note_on_c, 9, 82, 68
9, 77388, Note_off_c, 9, 82, 68
9, 77388, Note_off_c, 9, 42, 57
9, 77388, Note_off_c, 9, 40, 113
9, 77388, Note_off_c, 9, 39, 110
9, 77472, Note_on_c, 9, 42, 79
9, 77472, Note_on_c, 9, 82, 50
9, 77484, Note_off_c, 9, 82, 50
9, 77484, Note_off_c, 9, 42, 79
9, 77568, Note_on_c, 9, 36, 105
9, 77568, Note_on_c, 9, 42, 54
9, 77568, Note_on_c, 9, 82, 68
9, 77580, Note_off_c, 9, 82, 68
9, 77580, Note_off_c, 9, 42, 54
9, 77580, Note_off_c, 9, 36, 105
9, 77664, Note_on_c, 9, 42, 69
9, 77664, Note_on_c, 9, 82, 58
9, 77676, Note_off_c, 9, 82, 58
9, 77676, Note_off_c, 9, 42, 69
9, 77760, Note_on_c, 9, 39, 110
9, 77760, Note_on_c, 9, 40, 113
9, 77760, Note_on_c, 9, 42, 49
9, 77760, Note_on_c, 9, 82, 66
9, 77772, Note_off_c, 9, 82, 66
9, 77772, Note_off_c, 9, 42, 49
9, 77772, Note_off_c, 9, 40, 113
9, 77772, Note_off_c, 9, 39, 110
9, 77856, Note_on_c, 9, 42, 79
9, 77856, Note_on_c, 9, 82, 60
9, 77868, Note_off_c, 9, 82, 60
9, 77868, Note_off_c, 9, 42, 79
9, 77952, Note_on_c, 9, 36, 105
9, 77952, Note_on_c, 9, 42, 46
9, 77952, Note_on_c, 9, 82, 56
9, 77964, Note_off_c, 9, 82, 56
9, 77964, Note_off_c, 9, 42, 46
9, 77964, Note_off_c, 9, 36, 105
9, 78048, Note_on_c, 9, 42, 74
9, 78048, Note_on_c, 9, 82, 60
9, 78060, Note_off_c, 9, 82, 60
9, 78060, Note_off_c, 9, 42, 74
9, 78096, Note_on_c, 9, 45, 97
9, 78108, Note_off_c, 9, 45, 97
9, 78144, Note_on_c, 9, 39, 110
9, 78144, Note_on_c, 9, 40, 113
9, 78144, Note_on_c, 9, 42, 46
9, 78144, Note_on_c, 9, 43, 103
9, 78144, Note_on_c, 9, 82, 64
9, 78156, Note_off_c, 9, 82, 64
9, 78156, Note_off_c, 9, 43, 103
9, 78156, Note_off_c, 9, 42, 46
9, 78156, Note_off_c, 9, 40, 113
9, 78156, Note_off_c, 9, 39, 110
9, 78240, Note_on_c, 9, 46, 100
9, 78240, Note_on_c, 9, 82, 64
9, 78252, Note_off_c, 9, 82, 64
9, 78252, Note_off_c, 9, 46, 100
9, 78336, Note_on_c, 9, 36, 105
9, 78336, Note_on_c, 9, 42, 42
9, 78336, Note_on_c, 9, 82, 66
9, 78348, Note_off_c, 9, 82, 66
9, 78348, Note_off_c, 9, 42, 42
9, 78348, Note_off_c, 9, 36, 105
9, 78432, Note_on_c, 9, 42, 69
9, 78432, Note_on_c, 9, 82, 64
9, 78444, Note_off_c, 9, 82, 64
9, 78444, Note_off_c, 9, 42, 69
9, 78528, Note_on_c, 9, 39, 110
9, 78528, Note_on_c, 9, 40, 112
9, 78528, Note_on_c, 9, 42, 54
9, 78528, Note_on_c, 9, 82, 62
9, 78540, Note_off_c, 9, 82, 62
9, 78540, Note_off_c, 9, 42, 54
9, 78540, Note_off_c, 9, 40, 112
9, 78540, Note_off_c, 9, 39, 110
9, 78624, Note_on_c, 9, 42, 74
9, 78624, Note_on_c, 9, 82, 64
9, 78636, Note_off_c, 9, 82, 64
9, 78636, Note_off_c, 9, 42, 74
9, 78720, Note_on_c, 9, 36, 105
9, 78720, Note_on_c, 9, 42, 57
9, 78720, Note_on_c, 9, 82, 64
9, 78732, Note_off_c, 9, 82, 64
9, 78732, Note_off_c, 9, 42, 57
9, 78732, Note_off_c, 9, 36, 105
9, 78816, Note_on_c, 9, 42, 69
9, 78816, Note_on_c, 9, 82, 68
9, 78828, Note_off_c, 9, 82, 68
9, 78828, Note_off_c, 9, 42, 69
9, 78912, Note_on_c, 9, 39, 110
9, 78912, Note_on_c, 9, 40, 113
9, 78912, Note_on_c, 9, 42, 57
9, 78912, Note_on_c, 9, 82, 62
9, 78924, Note_off_c, 9, 82, 62
9, 78924, Note_off_c, 9, 42, 57
9, 78924, Note_off_c, 9, 40, 113
9, 78924, Note_off_c, 9, 39, 110
9, 79008, Note_on_c, 9, 42, 79
9, 79008, Note_on_c, 9, 82, 64
9, 79020, Note_off_c, 9, 82, 64
9, 79020, Note_off_c, 9, 42, 79
9, 79104, Note_on_c, 9, 36, 105
9, 79104, Note_on_c, 9, 42, 54
9, 79104, Note_on_c, 9, 82, 62
9, 79116, Note_off_c, 9, 82, 62
9, 79116, Note_off_c, 9, 42, 54
9, 79116, Note_off_c, 9, 36, 105
9, 79200, Note_on_c, 9, 42, 69
9, 79200, Note_on_c, 9, 82, 55
9, 79212, Note_off_c, 9, 82, 55
9, 79212, Note_off_c, 9, 42, 69
9, 79296, Note_on_c, 9, 39, 110
9, 79296, Note_on_c, 9, 40, 113
9, 79296, Note_on_c, 9, 42, 49
9, 79296, Note_on_c, 9, 82, 55
9, 79308, Note_off_c, 9, 82, 55
9, 79308, Note_off_c, 9, 42, 49
9, 79308, Note_off_c, 9, 40, 113
9, 79308, Note_off_c, 9, 39, 110
9, 79392, Note_on_c, 9, 42, 79
9, 79392, Note_on_c, 9, 82, 51
9, 79404, Note_off_c, 9, 82, 51
9, 79404, Note_off_c, 9, 42, 79
9, 79488, Note_on_c, 9, 36, 105
9, 79488, Note_on_c, 9, 42, 46
9, 79488, Note_on_c, 9, 82, 58
9, 79500, Note_off_c, 9, 82, 58
9, 79500, Note_off_c, 9, 42, 46
9, 79500, Note_off_c, 9, 36, 105
9, 79584, Note_on_c, 9, 42, 74
9, 79584, Note_on_c, 9, 82, 47
9, 79596, Note_off_c, 9, 82, 47
9, 79596, Note_off_c, 9, 42, 74
9, 79680, Note_on_c, 9, 39, 110
9, 79680, Note_on_c, 9, 40, 113
9, 79680, Note_on_c, 9, 42, 46
9, 79680, Note_on_c, 9, 82, 62
9, 79692, Note_off_c, 9, 82, 62
9, 79692, Note_off_c, 9, 42, 46
9, 79692, Note_off_c, 9, 40, 113
9, 79692, Note_off_c, 9, 39, 110
9, 79776, Note_on_c, 9, 42, 79
9, 79776, Note_on_c, 9, 82, 58
9, 79788, Note_off_c, 9, 82, 58
9, 79788, Note_off_c, 9, 42, 79
9, 79872, Note_on_c, 9, 36, 105
9, 79872, Note_on_c, 9, 42, 42
9, 79872, Note_on_c, 9, 82, 56
9, 79884, Note_off_c, 9, 82, 56
9, 79884, Note_off_c, 9, 42, 42
9, 79884, Note_off_c, 9, 36, 105
9, 79968, Note_on_c, 9, 42, 69
9, 79968, Note_on_c, 9, 82, 46
9, 79980, Note_off_c, 9, 82, 46
9, 79980, Note_off_c, 9, 42, 69
9, 80064, Note_on_c, 9, 39, 110
9, 80064, Note_on_c, 9, 40, 112
9, 80064, Note_on_c, 9, 42, 54
9, 80064, Note_on_c, 9, 82, 64
9, 80076, Note_off_c, 9, 82, 64
9, 80076, Note_off_c, 9, 42, 54
9, 80076, Note_off_c, 9, 40, 112
9, 80076, Note_off_c, 9, 39, 110
9, 80160, Note_on_c, 9, 42, 74
9, 80160, Note_on_c, 9, 82, 53
9, 80172, Note_off_c, 9, 82, 53
9, 80172, Note_off_c, 9, 42, 74
9, 80256, Note_on_c, 9, 36, 105
9, 80256, Note_on_c, 9, 42, 57
9, 80256, Note_on_c, 9, 82, 62
9, 80268, Note_off_c, 9, 82, 62
9, 80268, Note_off_c, 9, 42, 57
9, 80268, Note_off_c, 9, 36, 105
9, 80352, Note_on_c, 9, 42, 69
9, 80352, Note_on_c, 9, 82, 60
9, 80364, Note_off_c, 9, 82, 60
9, 80364, Note_off_c, 9, 42, 69
9, 80448, Note_on_c, 9, 39, 110
9, 80448, Note_on_c, 9, 40, 113
9, 80448, Note_on_c, 9, 42, 57
9, 80448, Note_on_c, 9, 82, 68
9, 80460, Note_off_c, 9, 82, 68
9, 80460, Note_off_c, 9, 42, 57
9, 80460, Note_off_c, 9, 40, 113
9, 80460, Note_off_c, 9, 39, 110
9, 80544, Note_on_c, 9, 42, 79
9, 80544, Note_on_c, 9, 82, 50
9, 80556, Note_off_c, 9, 82, 50
9, 80556, Note_off_c, 9, 42, 79
9, 80640, Note_on_c, 9, 36, 105
9, 80640, Note_on_c, 9, 42, 54
9, 80640, Note_on_c, 9, 82, 68
9, 80652, Note_off_c, 9, 82, 68
9, 80652, Note_off_c, 9, 42, 54
9, 80652, Note_off_c, 9, 36, 105
9, 80736, Note_on_c, 9, 42, 69
9, 80736, Note_on_c, 9, 82, 58
9, 80748, Note_off_c, 9, 82, 58
9, 80748, Note_off_c, 9, 42, 69
9, 80832, Note_on_c, 9, 39, 110
9, 80832, Note_on_c, 9, 40, 113
9, 80832, Note_on_c, 9, 42, 49
9, 80832, Note_on_c, 9, 82, 66
9, 80844, Note_off_c, 9, 82, 66
9, 80844, Note_off_c, 9, 42, 49
9, 80844, Note_off_c, 9, 40, 113
9, 80844, Note_off_c, 9, 39, 110
9, 80928, Note_on_c, 9, 42, 79
9, 80928, Note_on_c, 9, 82, 60
9, 80940, Note_off_c, 9, 82, 60
9, 80940, Note_off_c, 9, 42, 79
9, 81024, Note_on_c, 9, 36, 105
9, 81024, Note_on_c, 9, 42, 46
9, 81024, Note_on_c, 9, 82, 56
9, 81036, Note_off_c, 9, 82, 56
9, 81036, Note_off_c, 9, 42, 46
9, 81036, Note_off_c, 9, 36, 105
9, 81120, Note_on_c, 9, 42, 74
9, 81120, Note_on_c, 9, 82, 60
9, 81132, Note_off_c, 9, 82, 60
9, 81132, Note_off_c, 9, 42, 74
9, 81216, Note_on_c, 9, 39, 110
9, 81216, Note_on_c, 9, 40, 113
9, 81216, Note_on_c, 9, 42, 46
9, 81216, Note_on_c, 9, 82, 64
9, 81228, Note_off_c, 9, 82, 64
9, 81228, Note_off_c, 9, 42, 46
9, 81228, Note_off_c, 9, 40, 113
9, 81228, Note_off_c, 9, 39, 110
9, 81312, Note_on_c, 9, 42, 79
9, 81312, Note_on_c, 9, 82, 64
9, 81324, Note_off_c, 9, 82, 64
9, 81324, Note_off_c, 9, 42, 79
9, 81408, Note_on_c, 9, 36, 105
9, 81408, Note_on_c, 9, 42, 42
9, 81408, Note_on_c, 9, 82, 66
9, 81420, Note_off_c, 9, 82, 66
9, 81420, Note_off_c, 9, 42, 42
9, 81420, Note_off_c, 9, 36, 105
9, 81504, Note_on_c, 9, 42, 69
9, 81504, Note_on_c, 9, 82, 64
9, 81516, Note_off_c, 9, 82, 64
9, 81516, Note_off_c, 9, 42, 69
9, 81600, Note_on_c, 9, 39, 110
9, 81600, Note_on_c, 9, 40, 112
9, 81600, Note_on_c, 9, 42, 54
9, 81600, Note_on_c, 9, 82, 62
9, 81612, Note_off_c, 9, 82, 62
9, 81612, Note_off_c, 9, 42, 54
9, 81612, Note_off_c, 9, 40, 112
9, 81612, Note_off_c, 9, 39, 110
9, 81696, Note_on_c, 9, 42, 74
9, 81696, Note_on_c, 9, 82, 64
9, 81708, Note_off_c, 9, 82, 64
9, 81708, Note_off_c, 9, 42, 74
9, 81792, Note_on_c, 9, 36, 105
9, 81792, Note_on_c, 9, 42, 57
9, 81792, Note_on_c, 9, 82, 64
9, 81804, Note_off_c, 9, 82, 64
9, 81804, Note_off_c, 9, 42, 57
9, 81804, Note_off_c, 9, 36, 105
9, 81888, Note_on_c, 9, 42, 69
9, 81888, Note_on_c, 9, 82, 68
9, 81900, Note_off_c, 9, 82, 68
9, 81900, Note_off_c, 9, 42, 69
9, 81984, Note_on_c, 9, 39, 110
9, 81984, Note_on_c, 9, 40, 113
9, 81984, Note_on_c, 9, 42, 57
9, 81984, Note_on_c, 9, 82, 62
9, 81996, Note_off_c, 9, 82, 62
9, 81996, Note_off_c, 9, 42, 57
9, 81996, Note_off_c, 9, 40, 113
9, 81996, Note_off_c, 9, 39, 110
9, 82080, Note_on_c, 9, 42, 79
9, 82080, Note_on_c, 9, 82, 64
9, 82092, Note_off_c, 9, 82, 64
9, 82092, Note_off_c, 9, 42, 79
9, 82176, Note_on_c, 9, 36, 105
9, 82176, Note_on_c, 9, 42, 54
9, 82176, Note_on_c, 9, 82, 62
9, 82188, Note_off_c, 9, 82, 62
9, 82188, Note_off_c, 9, 42, 54
9, 82188, Note_off_c, 9, 36, 105
9, 82272, Note_on_c, 9, 42, 69
9, 82272, Note_on_c, 9, 82, 55
9, 82284, Note_off_c, 9, 82, 55
9, 82284, Note_off_c, 9, 42, 69
9, 82368, Note_on_c, 9, 39, 110
9, 82368, Note_on_c, 9, 40, 113
9, 82368, Note_on_c, 9, 42, 49
9, 82368, Note_on_c, 9, 82, 55
9, 82380, Note_off_c, 9, 82, 55
9, 82380, Note_off_c, 9, 42, 49
9, 82380, Note_off_c, 9, 40, 113
9, 82380, Note_off_c, 9, 39, 110
9, 82464, Note_on_c, 9, 42, 79
9, 82464, Note_on_c, 9, 82, 51
9, 82476, Note_off_c, 9, 82, 51
9, 82476, Note_off_c, 9, 42, 79
9, 82560, Note_on_c, 9, 36, 105
9, 82560, Note_on_c, 9, 42, 46
9, 82560, Note_on_c, 9, 82, 58
9, 82572, Note_off_c, 9, 82, 58
9, 82572, Note_off_c, 9, 42, 46
9, 82572, Note_off_c, 9, 36, 105
9, 82656, Note_on_c, 9, 42, 74
9, 82656, Note_on_c, 9, 82, 47
9, 82668, Note_off_c, 9, 82, 47
9, 82668, Note_off_c, 9, 42, 74
9, 82704, Note_on_c, 9, 45, 97
9, 82716, Note_off_c, 9, 45, 97
9, 82752, Note_on_c, 9, 39, 110
9, 82752, Note_on_c, 9, 40, 113
9, 82752, Note_on_c, 9, 42, 46
9, 82752, Note_on_c, 9, 43, 103
9, 82752, Note_on_c, 9, 82, 62
9, 82764, Note_off_c, 9, 82, 62
9, 82764, Note_off_c, 9, 43, 103
9, 82764, Note_off_c, 9, 42, 46
9, 82764, Note_off_c, 9, 40, 113
9, 82764, Note_off_c, 9, 39, 110
9, 82848, Note_on_c, 9, 42, 79
9, 82848, Note_on_c, 9, 82, 58
9, 82860, Note_off_c, 9, 82, 58
9, 82860, Note_off_c, 9, 42, 79
9, 82944, Note_on_c, 9, 36, 105
9, 82944, Note_on_c, 9, 42, 42
9, 82944, Note_on_c, 9, 82, 56
9, 82956, Note_off_c, 9, 82, 56
9, 82956, Note_off_c, 9, 42, 42
9, 82956, Note_off_c, 9, 36, 105
9, 83040, Note_on_c, 9, 42, 69
9, 83040, Note_on_c, 9, 82, 46
9, 83052, Note_off_c, 9, 82, 46
9, 83052, Note_off_c, 9, 42, 69
9, 83136, Note_on_c, 9, 39, 110
9, 83136, Note_on_c, 9, 40, 112
9, 83136, Note_on_c, 9, 42, 54
9, 83136, Note_on_c, 9, 82, 64
9, 83148, Note_off_c, 9, 82, 64
9, 83148, Note_off_c, 9, 42, 54
9, 83148, Note_off_c, 9, 40, 112
9, 83148, Note_off_c, 9, 39, 110
9, 83232, Note_on_c, 9, 42, 74
9, 83232, Note_on_c, 9, 82, 53
9, 83244, Note_off_c, 9, 82, 53
9, 83244, Note_off_c, 9, 42, 74
9, 83328, Note_on_c, 9, 36, 105
9, 83328, Note_on_c, 9, 42, 57
9, 83328, Note_on_c, 9, 82, 62
9, 83340, Note_off_c, 9, 82, 62
9, 83340, Note_off_c, 9, 42, 57
9, 83340, Note_off_c, 9, 36, 105
9, 83424, Note_on_c, 9, 42, 69
9, 83424, Note_on_c, 9, 82, 60
9, 83436, Note_off_c, 9, 82, 60
9, 83436, Note_off_c, 9, 42, 69
9, 83520, Note_on_c, 9, 39, 110
9, 83520, Note_on_c, 9, 40, 113
9, 83520, Note_on_c, 9, 42, 57
9, 83520, Note_on_c, 9, 82, 68
9, 83532, Note_off_c, 9, 82, 68
9, 83532, Note_off_c, 9, 42, 57
9, 83532, Note_off_c, 9, 40, 113
9, 83532, Note_off_c, 9, 39, 110
9, 83616, Note_on_c, 9, 42, 79
9, 83616, Note_on_c, 9, 82, 50
9, 83628, Note_off_c, 9, 82, 50
9, 83628, Note_off_c, 9, 42, 79
9, 83712, Note_on_c, 9, 36, 105
9, 83712, Note_on_c, 9, 42, 54
9, 83712, Note_on_c, 9, 82, 68
9, 83724, Note_off_c, 9, 82, 68
9, 83724, Note_off_c, 9, 42, 54
9, 83724, Note_off_c, 9, 36, 105
9, 83808, Note_on_c, 9, 42, 69
9, 83808, Note_on_c, 9, 82, 58
9, 83820, Note_off_c, 9, 82, 58
9, 83820, Note_off_c, 9, 42, 69
9, 83904, Note_on_c, 9, 39, 110
9, 83904, Note_on_c, 9, 40, 113
9, 83904, Note_on_c, 9, 42, 49
9, 83904, Note_on_c, 9, 82, 66
9, 83916, Note_off_c, 9, 82, 66
9, 83916, Note_off_c, 9, 42, 49
9, 83916, Note_off_c, 9, 40, 113
9, 83916, Note_off_c, 9, 39, 110
9, 84000, Note_on_c, 9, 42, 79
9, 84000, Note_on_c, 9, 82, 60
9, 84012, Note_off_c, 9, 82, 60
9, 84012, Note_off_c, 9, 42, 79
9, 84096, Note_on_c, 9, 36, 105
9, 84096, Note_on_c, 9, 42, 46
9, 84096, Note_on_c, 9, 82, 56
9, 84108, Note_off_c, 9, 82, 56
9, 84108, Note_off_c, 9, 42, 46
9, 84108, Note_off_c, 9, 36, 105
9, 84192, Note_on_c, 9, 42, 74
9, 84192, Note_on_c, 9, 82, 60
9, 84204, Note_off_c, 9, 82, 60
9, 84204, Note_off_c, 9, 42, 74
9, 84288, Note_on_c, 9, 39, 110
9, 84288, Note_on_c, 9, 40, 113
9, 84288, Note_on_c, 9, 42, 46
9, 84288, Note_on_c, 9, 82, 64
9, 84300, Note_off_c, 9, 82, 64
9, 84300, Note_off_c, 9, 42, 46
9, 84300, Note_off_c, 9, 40, 113
9, 84300, Note_off_c, 9, 39, 110
9, 84384, Note_on_c, 9, 42, 79
9, 84384, Note_on_c, 9, 82, 64
9, 84396, Note_off_c, 9, 82, 64
9, 84396, Note_off_c, 9, 42, 79
9, 84480, Note_on_c, 9, 36, 105
9, 84480, Note_on_c, 9, 42, 42
9, 84480, Note_on_c, 9, 82, 66
9, 84492, Note_off_c, 9, 82, 66
9, 84492, Note_off_c, 9, 42, 42
9, 84492, Note_off_c, 9, 36, 105
9, 84576, Note_on_c, 9, 42, 69
9, 84576, Note_on_c, 9, 82, 64
9, 84588, Note_off_c, 9, 82, 64
9, 84588, Note_off_c, 9, 42, 69
9, 84672, Note_on_c, 9, 39, 110
9, 84672, Note_on_c, 9, 40, 112
9, 84672, Note_on_c, 9, 42, 54
9, 84672, Note_on_c, 9, 82, 62
9, 84684, Note_off_c, 9, 82, 62
9, 84684, Note_off_c, 9, 42, 54
9, 84684, Note_off_c, 9, 40, 112
9, 84684, Note_off_c, 9, 39, 110
9, 84768, Note_on_c, 9, 42, 74
9, 84768, Note_on_c, 9, 82, 64
9, 84780, Note_off_c, 9, 82, 64
9, 84780, Note_off_c, 9, 42, 74
9, 84864, Note_on_c, 9, 36, 105
9, 84864, Note_on_c, 9, 42, 57
9, 84864, Note_on_c, 9, 82, 64
9, 84876, Note_off_c, 9, 82, 64
9, 84876, Note_off_c, 9, 42, 57
9, 84876, Note_off_c, 9, 36, 105
9, 84960, Note_on_c, 9, 42, 69
9, 84960, Note_on_c, 9, 82, 68
9, 84972, Note_off_c, 9, 82, 68
9, 84972, Note_off_c, 9, 42, 69
9, 85056, Note_on_c, 9, 39, 110
9, 85056, Note_on_c, 9, 40, 113
9, 85056, Note_on_c, 9, 42, 57
9, 85056, Note_on_c, 9, 82, 62
9, 85068, Note_off_c, 9, 82, 62
9, 85068, Note_off_c, 9, 42, 57
9, 85068, Note_off_c, 9, 40, 113
9, 85068, Note_off_c, 9, 39, 110
9, 85152, Note_on_c, 9, 42, 79
9, 85152, Note_on_c, 9, 82, 64
9, 85164, Note_off_c, 9, 82, 64
9, 85164, Note_off_c, 9, 42, 79
9, 85248, Note_on_c, 9, 36, 105
9, 85248, Note_on_c, 9, 42, 54
9, 85248, Note_on_c, 9, 82, 62
9, 85260, Note_off_c, 9, 82, 62
9, 85260, Note_off_c, 9, 42, 54
9, 85260, Note_off_c, 9, 36, 105
9, 85344, Note_on_c, 9, 42, 69
9, 85344, Note_on_c, 9, 82, 55
9, 85356, Note_off_c, 9, 82, 55
9, 85356, Note_off_c, 9, 42, 69
9, 85440, Note_on_c, 9, 39, 110
9, 85440, Note_on_c, 9, 40, 113
9, 85440, Note_on_c, 9, 42, 49
9, 85440, Note_on_c, 9, 82, 55
9, 85452, Note_off_c, 9, 82, 55
9, 85452, Note_off_c, 9, 42, 49
9, 85452, Note_off_c, 9, 40, 113
9, 85452, Note_off_c, 9, 39, 110
9, 85536, Note_on_c, 9, 42, 79
9, 85536, Note_on_c, 9, 82, 51
9, 85548, Note_off_c, 9, 82, 51
9, 85548, Note_off_c, 9, 42, 79
9, 85632, Note_on_c, 9, 36, 105
9, 85632, Note_on_c, 9, 42, 46
9, 85632, Note_on_c, 9, 82, 58
9, 85644, Note_off_c, 9, 82, 58
9, 85644, Note_off_c, 9, 42, 46
9, 85644, Note_off_c, 9, 36, 105
9, 85728, Note_on_c, 9, 42, 74
9, 85728, Note_on_c, 9, 82, 47
9, 85740, Note_off_c, 9, 82, 47
9, 85740, Note_off_c, 9, 42, 74
9, 85824, Note_on_c, 9, 39, 110
9, 85824, Note_on_c, 9, 40, 113
9, 85824, Note_on_c, 9, 42, 46
9, 85824, Note_on_c, 9, 82, 62
9, 85836, Note_off_c, 9, 82, 62
9, 85836, Note_off_c, 9, 42, 46
9, 85836, Note_off_c, 9, 40, 113
9, 85836, Note_off_c, 9, 39, 110
9, 85920, Note_on_c, 9, 42, 79
9, 85920, Note_on_c, 9, 82, 58
9, 85932, Note_off_c, 9, 82, 58
9, 85932, Note_off_c, 9, 42, 79
9, 86016, Note_on_c, 9, 36, 105
9, 86016, Note_on_c, 9, 42, 42
9, 86016, Note_on_c, 9, 82, 56
9, 86028, Note_off_c, 9, 82, 56
9, 86028, Note_off_c, 9, 42, 42
9, 86028, Note_off_c, 9, 36, 105
9, 86112, Note_on_c, 9, 42, 69
9, 86112, Note_on_c, 9, 82, 46
9, 86124, Note_off_c, 9, 82, 46
9, 86124, Note_off_c, 9, 42, 69
9, 86208, Note_on_c, 9, 39, 110
9, 86208, Note_on_c, 9, 40, 112
9, 86208, Note_on_c, 9, 42, 54
9, 86208, Note_on_c, 9, 82, 64
9, 86220, Note_off_c, 9, 82, 64
9, 86220, Note_off_c, 9, 42, 54
9, 86220, Note_off_c, 9, 40, 112
9, 86220, Note_off_c, 9, 39, 110
9, 86304, Note_on_c, 9, 42, 74
9, 86304, Note_on_c, 9, 82, 53
9, 86316, Note_off_c, 9, 82, 53
9, 86316, Note_off_c, 9, 42, 74
9, 86400, Note_on_c, 9, 36, 105
9, 86400, Note_on_c, 9, 42, 57
9, 86400, Note_on_c, 9, 82, 62
9, 86412, Note_off_c, 9, 82, 62
9, 86412, Note_off_c, 9, 42, 57
9, 86412, Note_off_c, 9, 36, 105
9, 86496, Note_on_c, 9, 42, 69
9, 86496, Note_on_c, 9, 82, 60
9, 86508, Note_off_c, 9, 82, 60
9, 86508, Note_off_c, 9, 42, 69
9, 86592, Note_on_c, 9, 39, 110
9, 86592, Note_on_c, 9, 40, 113
9, 86592, Note_on_c, 9, 42, 57
9, 86592, Note_on_c, 9, 82, 68
9, 86604, Note_off_c, 9, 82, 68
9, 86604, Note_off_c, 9, 42, 57
9, 86604, Note_off_c, 9, 40, 113
9, 86604, Note_off_c, 9, 39, 110
9, 86688, Note_on_c, 9, 42, 79
9, 86688, Note_on_c, 9, 82, 50
9, 86700, Note_off_c, 9, 82, 50
9, 86700, Note_off_c, 9, 42, 79
9, 86784, Note_on_c, 9, 36, 105
9, 86784, Note_on_c, 9, 42, 54
9, 86784, Note_on_c, 9, 82, 68
9, 86796, Note_off_c, 9, 82, 68
9, 86796, Note_off_c, 9, 42, 54
9, 86796, Note_off_c, 9, 36, 105
9, 86880, Note_on_c, 9, 42, 69
9, 86880, Note_on_c, 9, 82, 58
9, 86892, Note_off_c, 9, 82, 58
9, 86892, Note_off_c, 9, 42, 69
9, 86976, Note_on_c, 9, 39, 110
9, 86976, Note_on_c, 9, 40, 113
9, 86976, Note_on_c, 9, 42, 49
9, 86976, Note_on_c, 9, 82, 66
9, 86988, Note_off_c, 9, 82, 66
9, 86988, Note_off_c, 9, 42, 49
9, 86988, Note_off_c, 9, 40, 113
9, 86988, Note_off_c, 9, 39, 110
9, 87072, Note_on_c, 9, 42, 79
9, 87072, Note_on_c, 9, 82, 60
9, 87084, Note_off_c, 9, 82, 60
9, 87084, Note_off_c, 9, 42, 79
9, 87168, Note_on_c, 9, 36, 105
9, 87168, Note_on_c, 9, 42, 46
9, 87168, Note_on_c, 9, 82, 56
9, 87180, Note_off_c, 9, 82, 56
9, 87180, Note_off_c, 9, 42, 46
9, 87180, Note_off_c, 9, 36, 105
9, 87264, Note_on_c, 9, 42, 74
9, 87264, Note_on_c, 9, 82, 60
9, 87276, Note_off_c, 9, 82, 60
9, 87276, Note_off_c, 9, 42, 74
9, 87312, Note_on_c, 9, 45, 97
9, 87324, Note_off_c, 9, 45, 97
9, 87360, Note_on_c, 9, 39, 110
9, 87360, Note_on_c, 9, 40, 113
9, 87360, Note_on_c, 9, 42, 46
9, 87360, Note_on_c, 9, 43, 103
9, 87360, Note_on_c, 9, 82, 64
9, 87372, Note_off_c, 9, 82, 64
9, 87372, Note_off_c, 9, 43, 103
9, 87372, Note_off_c, 9, 42, 46
9, 87372, Note_off_c, 9, 40, 113
9, 87372, Note_off_c, 9, 39, 110
9, 87456, Note_on_c, 9, 46, 99
9, 87456, Note_on_c, 9, 82, 64
9, 87468, Note_off_c, 9, 82, 64
9, 87468, Note_off_c, 9, 46, 99
9, 87552, Note_on_c, 9, 36, 105
9, 87552, Note_on_c, 9, 42, 42
9, 87552, Note_on_c, 9, 82, 66
9, 87564, Note_off_c, 9, 82, 66
9, 87564, Note_off_c, 9, 42, 42
9, 87564, Note_off_c, 9, 36, 105
9, 87648, Note_on_c, 9, 42, 69
9, 87648, Note_on_c, 9, 82, 64
9, 87660, Note_off_c, 9, 82, 64
9, 87660, Note_off_c, 9, 42, 69
9, 87744, Note_on_c, 9, 39, 110
9, 87744, Note_on_c, 9, 40, 112
9, 87744, Note_on_c, 9, 42, 54
9, 87744, Note_on_c, 9, 82, 62
9, 87756, Note_off_c, 9, 82, 62
9, 87756, Note_off_c, 9, 42, 54
9, 87756, Note_off_c, 9, 40, 112
9, 87756, Note_off_c, 9, 39, 110
9, 87840, Note_on_c, 9, 42, 74
9, 87840, Note_on_c, 9, 82, 64
9, 87852, Note_off_c, 9, 82, 64
9, 87852, Note_off_c, 9, 42, 74
9, 87936, Note_on_c, 9, 36, 105
9, 87936, Note_on_c, 9, 42, 57
9, 87936, Note_on_c, 9, 82, 64
9, 87948, Note_off_c, 9, 82, 64
9, 87948, Note_off_c, 9, 42, 57
9, 87948, Note_off_c, 9, 36, 105
9, 88032, Note_on_c, 9, 42, 69
9, 88032, Note_on_c, 9, 82, 68
9, 88044, Note_off_c, 9, 82, 68
9, 88044, Note_off_c, 9, 42, 69
9, 88128, Note_on_c, 9, 39, 110
9, 88128, Note_on_c, 9, 40, 113
9, 88128, Note_on_c, 9, 42, 57
9, 88128, Note_on_c, 9, 82, 62
9, 88140, Note_off_c, 9, 82, 62
9, 88140, Note_off_c, 9, 42, 57
9, 88140, Note_off_c, 9, 40, 113
9, 88140, Note_off_c, 9, 39, 110
9, 88224, Note_on_c, 9, 42, 79
9, 88224, Note_on_c, 9, 82, 64
9, 88236, Note_off_c, 9, 82, 64
9, 88236, Note_off_c, 9, 42, 79
9, 88320, Note_on_c, 9, 36, 105
9, 88320, Note_on_c, 9, 42, 54
9, 88320, Note_on_c, 9, 82, 62
9, 88332, Note_off_c, 9, 82, 62
9, 88332, Note_off_c, 9, 42, 54
9, 88332, Note_off_c, 9, 36, 105
9, 88416, Note_on_c, 9, 42, 69
9, 88416, Note_on_c, 9, 82, 55
9, 88428, Note_off_c, 9, 82, 55
9, 88428, Note_off_c, 9, 42, 69
9, 88512, Note_on_c, 9, 39, 110
9, 88512, Note_on_c, 9, 40, 113
9, 88512, Note_on_c, 9, 42, 49
9, 88512, Note_on_c, 9, 82, 55
9, 88524, Note_off_c, 9, 82, 55
9, 88524, Note_off_c, 9, 42, 49
9, 88524, Note_off_c, 9, 40, 113
9, 88524, Note_off_c, 9, 39, 110
9, 88608, Note_on_c, 9, 42, 79
9, 88608, Note_on_c, 9, 82, 51
9, 88620, Note_off_c, 9, 82, 51
9, 88620, Note_off_c, 9, 42, 79
9, 88704, Note_on_c, 9, 36, 105
9, 88704, Note_on_c, 9, 42, 46
9, 88704, Note_on_c, 9, 82, 58
9, 88716, Note_off_c, 9, 82, 58
9, 88716, Note_off_c, 9, 42, 46
9, 88716, Note_off_c, 9, 36, 105
9, 88800, Note_on_c, 9, 42, 74
9, 88800, Note_on_c, 9, 82, 47
9, 88812, Note_off_c, 9, 82, 47
9, 88812, Note_off_c, 9, 42, 74
9, 88848, Note_on_c, 9, 45, 97
9, 88860, Note_off_c, 9, 45, 97
9, 88896, Note_on_c, 9, 39, 110
9, 88896, Note_on_c, 9, 40, 113
9, 88896, Note_on_c, 9, 42, 46
9, 88896, Note_on_c, 9, 43, 103
9, 88896, Note_on_c, 9, 82, 62
9, 88908, Note_off_c, 9, 82, 62
9, 88908, Note_off_c, 9, 43, 103
9, 88908, Note_off_c, 9, 42, 46
9, 88908, Note_off_c, 9, 40, 113
9, 88908, Note_off_c, 9, 39, 110
9, 88992, Note_on_c, 9, 42, 79
9, 88992, Note_on_c, 9, 82, 58
9, 89004, Note_off_c, 9, 82, 58
9, 89004, Note_off_c, 9, 42, 79
9, 89088, Note_on_c, 9, 36, 105
9, 89088, Note_on_c, 9, 42, 42
9, 89088, Note_on_c, 9, 82, 56
9, 89100, Note_off_c, 9, 82, 56
9, 89100, Note_off_c, 9, 42, 42
9, 89100, Note_off_c, 9, 36, 105
9, 89184, Note_on_c, 9, 42, 69
9, 89184, Note_on_c, 9, 82, 46
9, 89196, Note_off_c, 9, 82, 46
9, 89196, Note_off_c, 9, 42, 69
9, 89280, Note_on_c, 9, 39, 110
9, 89280, Note_on_c, 9, 40, 112
9, 89280, Note_on_c, 9, 42, 54
9, 89280, Note_on_c, 9, 82, 64
9, 89292, Note_off_c, 9, 82, 64
9, 89292, Note_off_c, 9, 42, 54
9, 89292, Note_off_c, 9, 40, 112
9, 89292, Note_off_c, 9, 39, 110
9, 89376, Note_on_c, 9, 42, 74
9, 89376, Note_on_c, 9, 82, 53
9, 89388, Note_off_c, 9, 82, 53
9, 89388, Note_off_c, 9, 42, 74
9, 89472, Note_on_c, 9, 36, 105
9, 89472, Note_on_c, 9, 42, 57
9, 89472, Note_on_c, 9, 82, 62
9, 89484, Note_off_c, 9, 82, 62
9, 89484, Note_off_c, 9, 42, 57
9, 89484, Note_off_c, 9, 36, 105
9, 89568, Note_on_c, 9, 42, 69
9, 89568, Note_on_c, 9, 82, 60
9, 89580, Note_off_c, 9, 82, 60
9, 89580, Note_off_c, 9, 42, 69
9, 89664, Note_on_c, 9, 39, 110
9, 89664, Note_on_c, 9, 40, 113
9, 89664, Note_on_c, 9, 42, 57
9, 89664, Note_on_c, 9, 82, 68
9, 89676, Note_off_c, 9, 82, 68
9, 89676, Note_off_c, 9, 42, 57
9, 89676, Note_off_c, 9, 40, 113
9, 89676, Note_off_c, 9, 39, 110
9, 89760, Note_on_c, 9, 42, 79
9, 89760, Note_on_c, 9, 82, 50
9, 89772, Note_off_c, 9, 82, 50
9, 89772, Note_off_c, 9, 42, 79
9, 89856, Note_on_c, 9, 36, 105
9, 89856, Note_on_c, 9, 42, 54
9, 89856, Note_on_c, 9, 82, 68
9, 89868, Note_off_c, 9, 82, 68
9, 89868, Note_off_c, 9, 42, 54
9, 89868, Note_off_c, 9, 36, 105
9, 89952, Note_on_c, 9, 42, 69
9, 89952, Note_on_c, 9, 82, 58
9, 89964, Note_off_c, 9, 82, 58
9, 89964, Note_off_c, 9, 42, 69
9, 90048, Note_on_c, 9, 39, 110
9, 90048, Note_on_c, 9, 40, 113
9, 90048, Note_on_c, 9, 42, 49
9, 90048, Note_on_c, 9, 82, 66
9, 90060, Note_off_c, 9, 82, 66
9, 90060, Note_off_c, 9, 42, 49
9, 90060, Note_off_c, 9, 40, 113
9, 90060, Note_off_c, 9, 39, 110
9, 90144, Note_on_c, 9, 42, 79
9, 90144, Note_on_c, 9, 82, 60
9, 90156, Note_off_c, 9, 82, 60
9, 90156, Note_off_c, 9, 42, 79
9, 90240, Note_on_c, 9, 36, 105
9, 90240, Note_on_c, 9, 42, 46
9, 90240, Note_on_c, 9, 82, 56
9, 90252, Note_off_c, 9, 82, 56
9, 90252, Note_off_c, 9, 42, 46
9, 90252, Note_off_c, 9, 36, 105
9, 90336, Note_on_c, 9, 42, 74
9, 90336, Note_on_c, 9, 82, 60
9, 90348, Note_off_c, 9, 82, 60
9, 90348, Note_off_c, 9, 42, 74
9, 90432, Note_on_c, 9, 39, 110
9, 90432, Note_on_c, 9, 40, 113
9, 90432, Note_on_c, 9, 42, 46
9, 90432, Note_on_c, 9, 82, 64
9, 90444, Note_off_c, 9, 82, 64
9, 90444, Note_off_c, 9, 42, 46
9, 90444, Note_off_c, 9, 40, 113
9, 90444, Note_off_c, 9, 39, 110
9, 90528, Note_on_c, 9, 46, 99
9, 90528, Note_on_c, 9, 82, 64
9, 90540, Note_off_c, 9, 82, 64
9, 90540, Note_off_c, 9, 46, 99
9, 90624, Note_on_c, 9, 36, 105
9, 90624, Note_on_c, 9, 42, 42
9, 90624, Note_on_c, 9, 82, 66
9, 90636, Note_off_c, 9, 82, 66
9, 90636, Note_off_c, 9, 42, 42
9, 90636, Note_off_c, 9, 36, 105
9, 90720, Note_on_c, 9, 42, 69
9, 90720, Note_on_c, 9, 82, 64
9, 90732, Note_off_c, 9, 82, 64
9, 90732, Note_off_c, 9, 42, 69
9, 90816, Note_on_c, 9, 39, 110
9, 90816, Note_on_c, 9, 40, 112
9, 90816, Note_on_c, 9, 42, 54
9, 90816, Note_on_c, 9, 82, 62
9, 90828, Note_off_c, 9, 82, 62
9, 90828, Note_off_c, 9, 42, 54
9, 90828, Note_off_c, 9, 40, 112
9, 90828, Note_off_c, 9, 39, 110
9, 90912, Note_on_c, 9, 42, 74
9, 90912, Note_on_c, 9, 82, 64
9, 90924, Note_off_c, 9, 82, 64
9, 90924, Note_off_c, 9, 42, 74
9, 91008, Note_on_c, 9, 36, 105
9, 91008, Note_on_c, 9, 42, 57
9, 91008, Note_on_c, 9, 82, 64
9, 91020, Note_off_c, 9, 82, 64
9, 91020, Note_off_c, 9, 42, 57
9, 91020, Note_off_c, 9, 36, 105
9, 91104, Note_on_c, 9, 42, 69
9, 91104, Note_on_c, 9, 82, 68
9, 91116, Note_off_c, 9, 82, 68
9, 91116, Note_off_c, 9, 42, 69
9, 91200, Note_on_c, 9, 39, 110
9, 91200, Note_on_c, 9, 40, 113
9, 91200, Note_on_c, 9, 42, 57
9, 91200, Note_on_c, 9, 82, 62
9, 91212, Note_off_c, 9, 82, 62
9, 91212, Note_off_c, 9, 42, 57
9, 91212, Note_off_c, 9, 40, 113
9, 91212, Note_off_c, 9, 39, 110
9, 91296, Note_on_c, 9, 42, 79
9, 91296, Note_on_c, 9, 82, 64
9, 91308, Note_off_c, 9, 82, 64
9, 91308, Note_off_c, 9, 42, 79
9, 91392, Note_on_c, 9, 36, 105
9, 91392, Note_on_c, 9, 42, 54
9, 91392, Note_on_c, 9, 82, 62
9, 91404, Note_off_c, 9, 82, 62
9, 91404, Note_off_c, 9, 42, 54
9, 91404, Note_off_c, 9, 36, 105
9, 91488, Note_on_c, 9, 42, 69
9, 91488, Note_on_c, 9, 82, 55
9, 91500, Note_off_c, 9, 82, 55
9, 91500, Note_off_c, 9, 42, 69
9, 91584, Note_on_c, 9, 39, 110
9, 91584, Note_on_c, 9, 40, 113
9, 91584, Note_on_c, 9, 42, 49
9, 91584, Note_on_c, 9, 82, 55
9, 91596, Note_off_c, 9, 82, 55
9, 91596, Note_off_c, 9, 42, 49
9, 91596, Note_off_c, 9, 40, 113
9, 91596, Note_off_c, 9, 39, 110
9, 91680, Note_on_c, 9, 42, 79
9, 91680, Note_on_c, 9, 82, 51
9, 91692, Note_off_c, 9, 82, 51
9, 91692, Note_off_c, 9, 42, 79
9, 91776, Note_on_c, 9, 36, 105
9, 91776, Note_on_c, 9, 42, 46
9, 91776, Note_on_c, 9, 82, 58
9, 91788, Note_off_c, 9, 82, 58
9, 91788, Note_off_c, 9, 42, 46
9, 91788, Note_off_c, 9, 36, 105
9, 91872, Note_on_c, 9, 42, 74
9, 91872, Note_on_c, 9, 82, 47
9, 91884, Note_off_c, 9, 82, 47
9, 91884, Note_off_c, 9, 42, 74
9, 91968, Note_on_c, 9, 39, 110
9, 91968, Note_on_c, 9, 40, 113
9, 91968, Note_on_c, 9, 42, 46
9, 91968, Note_on_c, 9, 82, 62
9, 91980, Note_off_c, 9, 82, 62
9, 91980, Note_off_c, 9, 42, 46
9, 91980, Note_off_c, 9, 40, 113
9, 91980, Note_off_c, 9, 39, 110
9, 92064, Note_on_c, 9, 42, 79
9, 92064, Note_on_c, 9, 82, 58
9, 92076, Note_off_c, 9, 82, 58
9, 92076, Note_off_c, 9, 42, 79
9, 92160, Note_on_c, 9, 36, 105
9, 92160, Note_on_c, 9, 42, 42
9, 92160, Note_on_c, 9, 82, 56
9, 92172, Note_off_c, 9, 82, 56
9, 92172, Note_off_c, 9, 42, 42
9, 92172, Note_off_c, 9, 36, 105
9, 92256, Note_on_c, 9, 42, 69
9, 92256, Note_on_c, 9, 82, 46
9, 92268, Note_off_c, 9, 82, 46
9, 92268, Note_off_c, 9, 42, 69
9, 92352, Note_on_c, 9, 39, 110
9, 92352, Note_on_c, 9, 40, 112
9, 92352, Note_on_c, 9, 42, 54
9, 92352, Note_on_c, 9, 82, 64
9, 92364, Note_off_c, 9, 82, 64
9, 92364, Note_off_c, 9, 42, 54
9, 92364, Note_off_c, 9, 40, 112
9, 92364, Note_off_c, 9, 39, 110
9, 92448, Note_on_c, 9, 42, 74
9, 92448, Note_on_c, 9, 82, 53
9, 92460, Note_off_c, 9, 82, 53
9, 92460, Note_off_c, 9, 42, 74
9, 92544, Note_on_c, 9, 36, 105
9, 92544, Note_on_c, 9, 42, 57
9, 92544, Note_on_c, 9, 82, 62
9, 92556, Note_off_c, 9, 82, 62
9, 92556, Note_off_c, 9, 42, 57
9, 92556, Note_off_c, 9, 36, 105
9, 92640, Note_on_c, 9, 42, 69
9, 92640, Note_on_c, 9, 82, 60
9, 92652, Note_off_c, 9, 82, 60
9, 92652, Note_off_c, 9, 42, 69
9, 92736, Note_on_c, 9, 39, 110
9, 92736, Note_on_c, 9, 40, 113
9, 92736, Note_on_c, 9, 42, 57
9, 92736, Note_on_c, 9, 82, 68
9, 92748, Note_off_c, 9, 82, 68
9, 92748, Note_off_c, 9, 42, 57
9, 92748, Note_off_c, 9, 40, 113
9, 92748, Note_off_c, 9, 39, 110
9, 92832, Note_on_c, 9, 42, 79
9, 92832, Note_on_c, 9, 82, 50
9, 92844, Note_off_c, 9, 82, 50
9, 92844, Note_off_c, 9, 42, 79
9, 92928, Note_on_c, 9, 36, 105
9, 92928, Note_on_c, 9, 42, 54
9, 92928, Note_on_c, 9, 82, 68
9, 92940, Note_off_c, 9, 82, 68
9, 92940, Note_off_c, 9, 42, 54
9, 92940, Note_off_c, 9, 36, 105
9, 93024, Note_on_c, 9, 42, 69
9, 93024, Note_on_c, 9, 82, 58
9, 93036, Note_off_c, 9, 82, 58
9, 93036, Note_off_c, 9, 42, 69
9, 93120, Note_on_c, 9, 39, 110
9, 93120, Note_on_c, 9, 40, 113
9, 93120, Note_on_c, 9, 42, 49
9, 93120, Note_on_c, 9, 82, 66
9, 93132, Note_off_c, 9, 82, 66
9, 93132, Note_off_c, 9, 42, 49
9, 93132, Note_off_c, 9, 40, 113
9, 93132, Note_off_c, 9, 39, 110
9, 93216, Note_on_c, 9, 42, 79
9, 93216, Note_on_c, 9, 82, 60
9, 93228, Note_off_c, 9, 82, 60
9, 93228, Note_off_c, 9, 42, 79
9, 93312, Note_on_c, 9, 36, 105
9, 93312, Note_on_c, 9, 42, 46
9, 93312, Note_on_c, 9, 82, 56
9, 93324, Note_off_c, 9, 82, 56
9, 93324, Note_off_c, 9, 42, 46
9, 93324, Note_off_c, 9, 36, 105
9, 93408, Note_on_c, 9, 42, 74
9, 93408, Note_on_c, 9, 82, 60
9, 93420, Note_off_c, 9, 82, 60
9, 93420, Note_off_c, 9, 42, 74
9, 93504, Note_on_c, 9, 39, 110
9, 93504, Note_on_c, 9, 40, 113
9, 93504, Note_on_c, 9, 42, 46
9, 93504, Note_on_c, 9, 82, 64
9, 93516, Note_off_c, 9, 82, 64
9, 93516, Note_off_c, 9, 42, 46
9, 93516, Note_off_c, 9, 40, 113
9, 93516, Note_off_c, 9, 39, 110
9, 93600, Note_on_c, 9, 46, 99
9, 93600, Note_on_c, 9, 82, 64
9, 93612, Note_off_c, 9, 82, 64
9, 93612, Note_off_c, 9, 46, 99
9, 93696, Note_on_c, 9, 36, 105
9, 93696, Note_on_c, 9, 42, 42
9, 93696, Note_on_c, 9, 82, 66
9, 93708, Note_off_c, 9, 82, 66
9, 93708, Note_off_c, 9, 42, 42
9, 93708, Note_off_c, 9, 36, 105
9, 93792, Note_on_c, 9, 42, 69
9, 93792, Note_on_c, 9, 82, 64
9, 93804, Note_off_c, 9, 82, 64
9, 93804, Note_off_c, 9, 42, 69
9, 93888, Note_on_c, 9, 39, 110
9, 93888, Note_on_c, 9, 40, 112
9, 93888, Note_on_c, 9, 42, 54
9, 93888, Note_on_c, 9, 82, 62
9, 93900, Note_off_c, 9, 82, 62
9, 93900, Note_off_c, 9, 42, 54
9, 93900, Note_off_c, 9, 40, 112
9, 93900, Note_off_c, 9, 39, 110
9, 93984, Note_on_c, 9, 42, 74
9, 93984, Note_on_c, 9, 82, 64
9, 93996, Note_off_c, 9, 82, 64
9, 93996, Note_off_c, 9, 42, 74
9, 94080, Note_on_c, 9, 36, 105
9, 94080, Note_on_c, 9, 42, 57
9, 94080, Note_on_c, 9, 82, 64
9, 94092, Note_off_c, 9, 82, 64
9, 94092, Note_off_c, 9, 42, 57
9, 94092, Note_off_c, 9, 36, 105
9, 94176, Note_on_c, 9, 42, 69
9, 94176, Note_on_c, 9, 82, 68
9, 94188, Note_off_c, 9, 82, 68
9, 94188, Note_off_c, 9, 42, 69
9, 94272, Note_on_c, 9, 39, 110
9, 94272, Note_on_c, 9, 40, 113
9, 94272, Note_on_c, 9, 42, 57
9, 94272, Note_on_c, 9, 82, 62
9, 94284, Note_off_c, 9, 82, 62
9, 94284, Note_off_c, 9, 42, 57
9, 94284, Note_off_c, 9, 40, 113
9, 94284, Note_off_c, 9, 39, 110
9, 94368, Note_on_c, 9, 42, 79
9, 94368, Note_on_c, 9, 82, 64
9, 94380, Note_off_c, 9, 82, 64
9, 94380, Note_off_c, 9, 42, 79
9, 94464, Note_on_c, 9, 36, 105
9, 94464, Note_on_c, 9, 42, 54
9, 94464, Note_on_c, 9, 82, 62
9, 94476, Note_off_c, 9, 82, 62
9, 94476, Note_off_c, 9, 42, 54
9, 94476, Note_off_c, 9, 36, 105
9, 94560, Note_on_c, 9, 42, 69
9, 94560, Note_on_c, 9, 82, 55
9, 94572, Note_off_c, 9, 82, 55
9, 94572, Note_off_c, 9, 42, 69
9, 94656, Note_on_c, 9, 39, 110
9, 94656, Note_on_c, 9, 40, 113
9, 94656, Note_on_c, 9, 42, 49
9, 94656, Note_on_c, 9, 82, 55
9, 94668, Note_off_c, 9, 82, 55
9, 94668, Note_off_c, 9, 42, 49
9, 94668, Note_off_c, 9, 40, 113
9, 94668, Note_off_c, 9, 39, 110
9, 94752, Note_on_c, 9, 42, 79
9, 94752, Note_on_c, 9, 82, 51
9, 94764, Note_off_c, 9, 82, 51
9, 94764, Note_off_c, 9, 42, 79
9, 94848, Note_on_c, 9, 36, 105
9, 94848, Note_on_c, 9, 42, 46
9, 94848, Note_on_c, 9, 82, 58
9, 94860, Note_off_c, 9, 82, 58
9, 94860, Note_off_c, 9, 42, 46
9, 94860, Note_off_c, 9, 36, 105
9, 94944, Note_on_c, 9, 42, 74
9, 94944, Note_on_c, 9, 82, 47
9, 94956, Note_off_c, 9, 82, 47
9, 94956, Note_off_c, 9, 42, 74
9, 95040, Note_on_c, 9, 39, 110
9, 95040, Note_on_c, 9, 40, 113
9, 95040, Note_on_c, 9, 42, 46
9, 95040, Note_on_c, 9, 82, 62
9, 95052, Note_off_c, 9, 82, 62
9, 95052, Note_off_c, 9, 42, 46
9, 95052, Note_off_c, 9, 40, 113
9, 95052, Note_off_c, 9, 39, 110
9, 95136, Note_on_c, 9, 42, 79
9, 95136, Note_on_c, 9, 82, 58
9, 95148, Note_off_c, 9, 82, 58
9, 95148, Note_off_c, 9, 42, 79
9, 95232, Note_on_c, 9, 36, 105
9, 95232, Note_on_c, 9, 42, 42
9, 95232, Note_on_c, 9, 82, 56
9, 95244, Note_off_c, 9, 82, 56
9, 95244, Note_off_c, 9, 42, 42
9, 95244, Note_off_c, 9, 36, 105
9, 95328, Note_on_c, 9, 42, 69
9, 95328, Note_on_c, 9, 82, 46
9, 95340, Note_off_c, 9, 82, 46
9, 95340, Note_off_c, 9, 42, 69
9, 95424, Note_on_c, 9, 39, 110
9, 95424, Note_on_c, 9, 40, 112
9, 95424, Note_on_c, 9, 42, 54
9, 95424, Note_on_c, 9, 82, 64
9, 95436, Note_off_c, 9, 82, 64
9, 95436, Note_off_c, 9, 42, 54
9, 95436, Note_off_c, 9, 40, 112
9, 95436, Note_off_c, 9, 39, 110
9, 95520, Note_on_c, 9, 42, 74
9, 95520, Note_on_c, 9, 82, 53
9, 95532, Note_off_c, 9, 82, 53
9, 95532, Note_off_c, 9, 42, 74
9, 95616, Note_on_c, 9, 36, 105
9, 95616, Note_on_c, 9, 42, 57
9, 95616, Note_on_c, 9, 82, 62
9, 95628, Note_off_c, 9, 82, 62
9, 95628, Note_off_c, 9, 42, 57
9, 95628, Note_off_c, 9, 36, 105
9, 95712, Note_on_c, 9, 42, 69
9, 95712, Note_on_c, 9, 82, 60
9, 95724, Note_off_c, 9, 82, 60
9, 95724, Note_off_c, 9, 42, 69
9, 95808, Note_on_c, 9, 39, 110
9, 95808, Note_on_c, 9, 40, 113
9, 95808, Note_on_c, 9, 42, 57
9, 95808, Note_on_c, 9, 82, 68
9, 95820, Note_off_c, 9, 82, 68
9, 95820, Note_off_c, 9, 42, 57
9, 95820, Note_off_c, 9, 40, 113
9, 95820, Note_off_c, 9, 39, 110
9, 95904, Note_on_c, 9, 42, 79
9, 95904, Note_on_c, 9, 82, 50
9, 95916, Note_off_c, 9, 82, 50
9, 95916, Note_off_c, 9, 42, 79
9, 96000, Note_on_c, 9, 36, 105
9, 96000, Note_on_c, 9, 42, 54
9, 96000, Note_on_c, 9, 82, 68
9, 96012, Note_off_c, 9, 82, 68
9, 96012, Note_off_c, 9, 42, 54
9, 96012, Note_off_c, 9, 36, 105
9, 96096, Note_on_c, 9, 42, 69
9, 96096, Note_on_c, 9, 82, 58
9, 96108, Note_off_c, 9, 82, 58
9, 96108, Note_off_c, 9, 42, 69
9, 96192, Note_on_c, 9, 39, 110
9, 96192, Note_on_c, 9, 40, 113
9, 96192, Note_on_c, 9, 42, 49
9, 96192, Note_on_c, 9, 82, 66
9, 96204, Note_off_c, 9, 82, 66
9, 96204, Note_off_c, 9, 42, 49
9, 96204, Note_off_c, 9, 40, 113
9, 96204, Note_off_c, 9, 39, 110
9, 96288, Note_on_c, 9, 42, 79
9, 96288, Note_on_c, 9, 82, 60
9, 96300, Note_off_c, 9, 82, 60
9, 96300, Note_off_c, 9, 42, 79
9, 96384, Note_on_c, 9, 36, 105
9, 96384, Note_on_c, 9, 42, 46
9, 96384, Note_on_c, 9, 82, 56
9, 96396, Note_off_c, 9, 82, 56
9, 96396, Note_off_c, 9, 42, 46
9, 96396, Note_off_c, 9, 36, 105
9, 96480, Note_on_c, 9, 42, 74
9, 96480, Note_on_c, 9, 82, 60
9, 96492, Note_off_c, 9, 82, 60
9, 96492, Note_off_c, 9, 42, 74
9, 96528, Note_on_c, 9, 45, 97
9, 96540, Note_off_c, 9, 45, 97
9, 96576, Note_on_c, 9, 39, 110
9, 96576, Note_on_c, 9, 40, 113
9, 96576, Note_on_c, 9, 42, 46
9, 96576, Note_on_c, 9, 43, 103
9, 96576, Note_on_c, 9, 82, 64
9, 96588, Note_off_c, 9, 82, 64
9, 96588, Note_off_c, 9, 43, 103
9, 96588, Note_off_c, 9, 42, 46
9, 96588, Note_off_c, 9, 40, 113
9, 96588, Note_off_c, 9, 39, 110
9, 96672, Note_on_c, 9, 46, 99
9, 96672, Note_on_c, 9, 82, 64
9, 96684, Note_off_c, 9, 82, 64
9, 96684, Note_off_c, 9, 46, 99
9, 96768, Note_on_c, 9, 36, 105
9, 96768, Note_on_c, 9, 42, 42
9, 96768, Note_on_c, 9, 82, 66
9, 96780, Note_off_c, 9, 82, 66
9, 96780, Note_off_c, 9, 42, 42
9, 96780, Note_off_c, 9, 36, 105
9, 96864, Note_on_c, 9, 42, 69
9, 96864, Note_on_c, 9, 82, 64
9, 96876, Note_off_c, 9, 82, 64
9, 96876, Note_off_c, 9, 42, 69
9, 96960, Note_on_c, 9, 39, 110
9, 96960, Note_on_c, 9, 40, 112
9, 96960, Note_on_c, 9, 42, 54
9, 96960, Note_on_c, 9, 82, 62
9, 96972, Note_off_c, 9, 82, 62
9, 96972, Note_off_c, 9, 42, 54
9, 96972, Note_off_c, 9, 40, 112
9, 96972, Note_off_c, 9, 39, 110
9, 97056, Note_on_c, 9, 42, 74
9, 97056, Note_on_c, 9, 82, 64
9, 97068, Note_off_c, 9, 82, 64
9, 97068, Note_off_c, 9, 42, 74
9, 97152, Note_on_c, 9, 36, 105
9, 97152, Note_on_c, 9, 42, 57
9, 97152, Note_on_c, 9, 82, 64
9, 97164, Note_off_c, 9, 82, 64
9, 97164, Note_off_c, 9, 42, 57
9, 97164, Note_off_c, 9, 36, 105
9, 97248, Note_on_c, 9, 42, 69
9, 97248, Note_on_c, 9, 82, 68
9, 97260, Note_off_c, 9, 82, 68
9, 97260, Note_off_c, 9, 42, 69
9, 97344, Note_on_c, 9, 39, 110
9, 97344, Note_on_c, 9, 40, 113
9, 97344, Note_on_c, 9, 42, 57
9, 97344, Note_on_c, 9, 82, 62
9, 97356, Note_off_c, 9, 82, 62
9, 97356, Note_off_c, 9, 42, 57
9, 97356, Note_off_c, 9, 40, 113
9, 97356, Note_off_c, 9, 39, 110
9, 97440, Note_on_c, 9, 42, 74
9, 97440, Note_on_c, 9, 82, 64
9, 97452, Note_off_c, 9, 82, 64
9, 97452, Note_off_c, 9, 42, 74
9, 97536, Note_on_c, 9, 36, 105
9, 97536, Note_on_c, 9, 42, 54
9, 97536, Note_on_c, 9, 82, 62
9, 97548, Note_off_c, 9, 82, 62
9, 97548, Note_off_c, 9, 42, 54
9, 97548, Note_off_c, 9, 36, 105
9, 97632, Note_on_c, 9, 42, 69
9, 97632, Note_on_c, 9, 82, 55
9, 97644, Note_off_c, 9, 82, 55
9, 97644, Note_off_c, 9, 42, 69
9, 97728, Note_on_c, 9, 39, 110
9, 97728, Note_on_c, 9, 40, 113
9, 97728, Note_on_c, 9, 42, 49
9, 97728, Note_on_c, 9, 82, 55
9, 97740, Note_off_c, 9, 82, 55
9, 97740, Note_off_c, 9, 42, 49
9, 97740, Note_off_c, 9, 40, 113
9, 97740, Note_off_c, 9, 39, 110
9, 97824, Note_on_c, 9, 42, 79
9, 97824, Note_on_c, 9, 82, 51
9, 97836, Note_off_c, 9, 82, 51
9, 97836, Note_off_c, 9, 42, 79
9, 97920, Note_on_c, 9, 36, 105
9, 97920, Note_on_c, 9, 42, 46
9, 97920, Note_on_c, 9, 82, 58
9, 97932, Note_off_c, 9, 82, 58
9, 97932, Note_off_c, 9, 42, 46
9, 97932, Note_off_c, 9, 36, 105
9, 98016, Note_on_c, 9, 42, 74
9, 98016, Note_on_c, 9, 82, 47
9, 98028, Note_off_c, 9, 82, 47
9, 98028, Note_off_c, 9, 42, 74
9, 98064, Note_on_c, 9, 45, 97
9, 98076, Note_off_c, 9, 45, 97
9, 98112, Note_on_c, 9, 39, 110
9, 98112, Note_on_c, 9, 40, 113
9, 98112, Note_on_c, 9, 42, 46
9, 98112, Note_on_c, 9, 43, 103
9, 98112, Note_on_c, 9, 82, 62
9, 98124, Note_off_c, 9, 82, 62
9, 98124, Note_off_c, 9, 43, 103
9, 98124, Note_off_c, 9, 42, 46
9, 98124, Note_off_c, 9, 40, 113
9, 98124, Note_off_c, 9, 39, 110
9, 98208, Note_on_c, 9, 42, 79
9, 98208, Note_on_c, 9, 82, 58
9, 98220, Note_off_c, 9, 82, 58
9, 98220, Note_off_c, 9, 42, 79
9, 98304, Note_on_c, 9, 36, 105
9, 98304, Note_on_c, 9, 42, 42
9, 98304, Note_on_c, 9, 82, 56
9, 98316, Note_off_c, 9, 82, 56
9, 98316, Note_off_c, 9, 42, 42
9, 98316, Note_off_c, 9, 36, 105
9, 98400, Note_on_c, 9, 42, 69
9, 98400, Note_on_c, 9, 82, 46
9, 98412, Note_off_c, 9, 82, 46
9, 98412, Note_off_c, 9, 42, 69
9, 98496, Note_on_c, 9, 39, 110
9, 98496, Note_on_c, 9, 40, 112
9, 98496, Note_on_c, 9, 42, 54
9, 98496, Note_on_c, 9, 82, 64
9, 98508, Note_off_c, 9, 82, 64
9, 98508, Note_off_c, 9, 42, 54
9, 98508, Note_off_c, 9, 40, 112
9, 98508, Note_off_c, 9, 39, 110
9, 98592, Note_on_c, 9, 42, 74
9, 98592, Note_on_c, 9, 82, 53
9, 98604, Note_off_c, 9, 82, 53
9, 98604, Note_off_c, 9, 42, 74
9, 98688, Note_on_c, 9, 36, 105
9, 98688, Note_on_c, 9, 42, 57
9, 98688, Note_on_c, 9, 82, 62
9, 98700, Note_off_c, 9, 82, 62
9, 98700, Note_off_c, 9, 42, 57
9, 98700, Note_off_c, 9, 36, 105
9, 98784, Note_on_c, 9, 42, 69
9, 98784, Note_on_c, 9, 82, 60
9, 98796, Note_off_c, 9, 82, 60
9, 98796, Note_off_c, 9, 42, 69
9, 98880, Note_on_c, 9, 39, 110
9, 98880, Note_on_c, 9, 40, 113
9, 98880, Note_on_c, 9, 42, 57
9, 98880, Note_on_c, 9, 82, 68
9, 98892, Note_off_c, 9, 82, 68
9, 98892, Note_off_c, 9, 42, 57
9, 98892, Note_off_c, 9, 40, 113
9, 98892, Note_off_c, 9, 39, 110
9, 98976, Note_on_c, 9, 42, 79
9, 98976, Note_on_c, 9, 82, 50
9, 98988, Note_off_c, 9, 82, 50
9, 98988, Note_off_c, 9, 42, 79
9, 99072, Note_on_c, 9, 36, 105
9, 99072, Note_on_c, 9, 42, 54
9, 99072, Note_on_c, 9, 82, 68
9, 99084, Note_off_c, 9, 82, 68
9, 99084, Note_off_c, 9, 42, 54
9, 99084, Note_off_c, 9, 36, 105
9, 99168, Note_on_c, 9, 42, 69
9, 99168, Note_on_c, 9, 82, 58
9, 99180, Note_off_c, 9, 82, 58
9, 99180, Note_off_c, 9, 42, 69
9, 99264, Note_on_c, 9, 39, 110
9, 99264, Note_on_c, 9, 40, 113
9, 99264, Note_on_c, 9, 42, 49
9, 99264, Note_on_c, 9, 82, 66
9, 99276, Note_off_c, 9, 82, 66
9, 99276, Note_off_c, 9, 42, 49
9, 99276, Note_off_c, 9, 40, 113
9, 99276, Note_off_c, 9, 39, 110
9, 99360, Note_on_c, 9, 42, 79
9, 99360, Note_on_c, 9, 82, 60
9, 99372, Note_off_c, 9, 82, 60
9, 99372, Note_off_c, 9, 42, 79
9, 99456, Note_on_c, 9, 36, 105
9, 99456, Note_on_c, 9, 42, 46
9, 99456, Note_on_c, 9, 82, 56
9, 99468, Note_off_c, 9, 82, 56
9, 99468, Note_off_c, 9, 42, 46
9, 99468, Note_off_c, 9, 36, 105
9, 99552, Note_on_c, 9, 42, 74
9, 99552, Note_on_c, 9, 82, 60
9, 99564, Note_off_c, 9, 82, 60
9, 99564, Note_off_c, 9, 42, 74
9, 99600, Note_on_c, 9, 45, 97
9, 99612, Note_off_c, 9, 45, 97
9, 99648, Note_on_c, 9, 39, 110
9, 99648, Note_on_c, 9, 40, 113
9, 99648, Note_on_c, 9, 42, 46
9, 99648, Note_on_c, 9, 43, 103
9, 99648, Note_on_c, 9, 82, 64
9, 99660, Note_off_c, 9, 82, 64
9, 99660, Note_off_c, 9, 43, 103
9, 99660, Note_off_c, 9, 42, 46
9, 99660, Note_off_c, 9, 40, 113
9, 99660, Note_off_c, 9, 39, 110
9, 99744, Note_on_c, 9, 46, 99
9, 99744, Note_on_c, 9, 82, 64
9, 99756, Note_off_c, 9, 82, 64
9, 99756, Note_off_c, 9, 46, 99
9, 99840, Note_on_c, 9, 36, 105
9, 99840, Note_on_c, 9, 42, 42
9, 99840, Note_on_c, 9, 82, 66
9, 99852, Note_off_c, 9, 82, 66
9, 99852, Note_off_c, 9, 42, 42
9, 99852, Note_off_c, 9, 36, 105
9, 99936, Note_on_c, 9, 42, 69
9, 99936, Note_on_c, 9, 82, 64
9, 99948, Note_off_c, 9, 82, 64
9, 99948, Note_off_c, 9, 42, 69
9, 100032, Note_on_c, 9, 39, 110
9, 100032, Note_on_c, 9, 40, 112
9, 100032, Note_on_c, 9, 42, 54
9, 100032, Note_on_c, 9, 82, 62
9, 100044, Note_off_c, 9, 82, 62
9, 100044, Note_off_c, 9, 42, 54
9, 100044, Note_off_c, 9, 40, 112
9, 100044, Note_off_c, 9, 39, 110
9, 100128, Note_on_c, 9, 42, 74
9, 100128, Note_on_c, 9, 82, 64
9, 100140, Note_off_c, 9, 82, 64
9, 100140, Note_off_c, 9, 42, 74
9, 100224, Note_on_c, 9, 36, 105
9, 100224, Note_on_c, 9, 42, 57
9, 100224, Note_on_c, 9, 82, 64
9, 100236, Note_off_c, 9, 82, 64
9, 100236, Note_off_c, 9, 42, 57
9, 100236, Note_off_c, 9, 36, 105
9, 100320, Note_on_c, 9, 42, 69
9, 100320, Note_on_c, 9, 82, 68
9, 100332, Note_off_c, 9, 82, 68
9, 100332, Note_off_c, 9, 42, 69
9, 100416, Note_on_c, 9, 39, 110
9, 100416, Note_on_c, 9, 40, 113
9, 100416, Note_on_c, 9, 42, 57
9, 100416, Note_on_c, 9, 82, 62
9, 100428, Note_off_c, 9, 82, 62
9, 100428, Note_off_c, 9, 42, 57
9, 100428, Note_off_c, 9, 40, 113
9, 100428, Note_off_c, 9, 39, 110
9, 100512, Note_on_c, 9, 42, 79
9, 100512, Note_on_c, 9, 82, 64
9, 100524, Note_off_c, 9, 82, 64
9, 100524, Note_off_c, 9, 42, 79
9, 100608, Note_on_c, 9, 36, 105
9, 100608, Note_on_c, 9, 42, 54
9, 100608, Note_on_c, 9, 82, 62
9, 100620, Note_off_c, 9, 82, 62
9, 100620, Note_off_c, 9, 42, 54
9, 100620, Note_off_c, 9, 36, 105
9, 100704, Note_on_c, 9, 42, 69
9, 100704, Note_on_c, 9, 82, 55
9, 100716, Note_off_c, 9, 82, 55
9, 100716, Note_off_c, 9, 42, 69
9, 100800, Note_on_c, 9, 39, 110
9, 100800, Note_on_c, 9, 40, 113
9, 100800, Note_on_c, 9, 42, 49
9, 100800, Note_on_c, 9, 82, 55
9, 100812, Note_off_c, 9, 82, 55
9, 100812, Note_off_c, 9, 42, 49
9, 100812, Note_off_c, 9, 40, 113
9, 100812, Note_off_c, 9, 39, 110
9, 100896, Note_on_c, 9, 42, 79
9, 100896, Note_on_c, 9, 82, 51
9, 100908, Note_off_c, 9, 82, 51
9, 100908, Note_off_c, 9, 42, 79
9, 100992, Note_on_c, 9, 36, 105
9, 100992, Note_on_c, 9, 42, 46
9, 100992, Note_on_c, 9, 82, 58
9, 101004, Note_off_c, 9, 82, 58
9, 101004, Note_off_c, 9, 42, 46
9, 101004, Note_off_c, 9, 36, 105
9, 101088, Note_on_c, 9, 42, 74
9, 101088, Note_on_c, 9, 82, 47
9, 101100, Note_off_c, 9, 82, 47
9, 101100, Note_off_c, 9, 42, 74
9, 101184, Note_on_c, 9, 39, 110
9, 101184, Note_on_c, 9, 40, 113
9, 101184, Note_on_c, 9, 42, 46
9, 101184, Note_on_c, 9, 82, 62
9, 101196, Note_off_c, 9, 82, 62
9, 101196, Note_off_c, 9, 42, 46
9, 101196, Note_off_c, 9, 40, 113
9, 101196, Note_off_c, 9, 39, 110
9, 101280, Note_on_c, 9, 42, 79
9, 101280, Note_on_c, 9, 82, 58
9, 101292, Note_off_c, 9, 82, 58
9, 101292, Note_off_c, 9, 42, 79
9, 101376, Note_on_c, 9, 36, 105
9, 101376, Note_on_c, 9, 42, 42
9, 101376, Note_on_c, 9, 82, 56
9, 101388, Note_off_c, 9, 82, 56
9, 101388, Note_off_c, 9, 42, 42
9, 101388, Note_off_c, 9, 36, 105
9, 101472, Note_on_c, 9, 42, 69
9, 101472, Note_on_c, 9, 82, 46
9, 101484, Note_off_c, 9, 82, 46
9, 101484, Note_off_c, 9, 42, 69
9, 101568, Note_on_c, 9, 39, 110
9, 101568, Note_on_c, 9, 40, 112
9, 101568, Note_on_c, 9, 42, 54
9, 101568, Note_on_c, 9, 82, 64
9, 101580, Note_off_c, 9, 82, 64
9, 101580, Note_off_c, 9, 42, 54
9, 101580, Note_off_c, 9, 40, 112
9, 101580, Note_off_c, 9, 39, 110
9, 101664, Note_on_c, 9, 42, 74
9, 101664, Note_on_c, 9, 82, 53
9, 101676, Note_off_c, 9, 82, 53
9, 101676, Note_off_c, 9, 42, 74
9, 101760, Note_on_c, 9, 36, 105
9, 101760, Note_on_c, 9, 42, 57
9, 101760, Note_on_c, 9, 82, 62
9, 101772, Note_off_c, 9, 82, 62
9, 101772, Note_off_c, 9, 42, 57
9, 101772, Note_off_c, 9, 36, 105
9, 101856, Note_on_c, 9, 42, 69
9, 101856, Note_on_c, 9, 82, 60
9, 101868, Note_off_c, 9, 82, 60
9, 101868, Note_off_c, 9, 42, 69
9, 101952, Note_on_c, 9, 39, 110
9, 101952, Note_on_c, 9, 40, 113
9, 101952, Note_on_c, 9, 42, 57
9, 101952, Note_on_c, 9, 82, 68
9, 101964, Note_off_c, 9, 82, 68
9, 101964, Note_off_c, 9, 42, 57
9, 101964, Note_off_c, 9, 40, 113
9, 101964, Note_off_c, 9, 39, 110
9, 102048, Note_on_c, 9, 42, 79
9, 102048, Note_on_c, 9, 82, 50
9, 102060, Note_off_c, 9, 82, 50
9, 102060, Note_off_c, 9, 42, 79
9, 102144, Note_on_c, 9, 36, 105
9, 102144, Note_on_c, 9, 42, 54
9, 102144, Note_on_c, 9, 82, 68
9, 102156, Note_off_c, 9, 82, 68
9, 102156, Note_off_c, 9, 42, 54
9, 102156, Note_off_c, 9, 36, 105
9, 102240, Note_on_c, 9, 42, 69
9, 102240, Note_on_c, 9, 82, 58
9, 102252, Note_off_c, 9, 82, 58
9, 102252, Note_off_c, 9, 42, 69
9, 102336, Note_on_c, 9, 39, 110
9, 102336, Note_on_c, 9, 40, 113
9, 102336, Note_on_c, 9, 42, 49
9, 102336, Note_on_c, 9, 82, 66
9, 102348, Note_off_c, 9, 82, 66
9, 102348, Note_off_c, 9, 42, 49
9, 102348, Note_off_c, 9, 40, 113
9, 102348, Note_off_c, 9, 39, 110
9, 102432, Note_on_c, 9, 42, 79
9, 102432, Note_on_c, 9, 82, 60
9, 102444, Note_off_c, 9, 82, 60
9, 102444, Note_off_c, 9, 42, 79
9, 102528, Note_on_c, 9, 36, 105
9, 102528, Note_on_c, 9, 42, 46
9, 102528, Note_on_c, 9, 82, 56
9, 102540, Note_off_c, 9, 82, 56
9, 102540, Note_off_c, 9, 42, 46
9, 102540, Note_off_c, 9, 36, 105
9, 102624, Note_on_c, 9, 42, 74
9, 102624, Note_on_c, 9, 82, 60
9, 102636, Note_off_c, 9, 82, 60
9, 102636, Note_off_c, 9, 42, 74
9, 102720, Note_on_c, 9, 39, 110
9, 102720, Note_on_c, 9, 40, 113
9, 102720, Note_on_c, 9, 42, 46
9, 102720, Note_on_c, 9, 82, 64
9, 102732, Note_off_c, 9, 82, 64
9, 102732, Note_off_c, 9, 42, 46
9, 102732, Note_off_c, 9, 40, 113
9, 102732, Note_off_c, 9, 39, 110
9, 102816, Note_on_c, 9, 42, 79
9, 102816, Note_on_c, 9, 82, 64
9, 102828, Note_off_c, 9, 82, 64
9, 102828, Note_off_c, 9, 42, 79
9, 102912, Note_on_c, 9, 36, 105
9, 102912, Note_on_c, 9, 42, 42
9, 102912, Note_on_c, 9, 82, 66
9, 102912, Control_c, 9, 11, 127
9, 102924, Note_off_c, 9, 82, 66
9, 102924, Note_off_c, 9, 42, 42
9, 102924, Note_off_c, 9, 36, 105
9, 102960, Control_c, 9, 11, 126
9, 103000, Control_c, 9, 11, 125
9, 103008, Note_on_c, 9, 42, 69
9, 103008, Note_on_c, 9, 82, 64
9, 103020, Note_off_c, 9, 82, 64
9, 103020, Note_off_c, 9, 42, 69
9, 103040, Control_c, 9, 11, 124
9, 103088, Control_c, 9, 11, 123
9, 103104, Note_on_c, 9, 39, 110
9, 103104, Note_on_c, 9, 40, 112
9, 103104, Note_on_c, 9, 42, 54
9, 103104, Note_on_c, 9, 82, 62
9, 103116, Note_off_c, 9, 82, 62
9, 103116, Note_off_c, 9, 42, 54
9, 103116, Note_off_c, 9, 40, 112
9, 103116, Note_off_c, 9, 39, 110
9, 103128, Control_c, 9, 11, 122
9, 103168, Control_c, 9, 11, 121
9, 103200, Note_on_c, 9, 42, 74
9, 103200, Note_on_c, 9, 82, 64
9, 103208, Control_c, 9, 11, 120
9, 103212, Note_off_c, 9, 82, 64
9, 103212, Note_off_c, 9, 42, 74
9, 103256, Control_c, 9, 11, 119
9, 103296, Note_on_c, 9, 36, 105
9, 103296, Note_on_c, 9, 42, 57
9, 103296, Note_on_c, 9, 82, 64
9, 103296, Control_c, 9, 11, 118
9, 103308, Note_off_c, 9, 82, 64
9, 103308, Note_off_c, 9, 42, 57
9, 103308, Note_off_c, 9, 36, 105
9, 103336, Control_c, 9, 11, 117
9, 103376, Control_c, 9, 11, 116
9, 103392, Note_on_c, 9, 42, 69
9, 103392, Note_on_c, 9, 82, 68
9, 103404, Note_off_c, 9, 82, 68
9, 103404, Note_off_c, 9, 42, 69
9, 103424, Control_c, 9, 11, 115
9, 103464, Control_c, 9, 11, 114
9, 103488, Note_on_c, 9, 39, 110
9, 103488, Note_on_c, 9, 40, 113
9, 103488, Note_on_c, 9, 42, 57
9, 103488, Note_on_c, 9, 82, 62
9, 103500, Note_off_c, 9, 82, 62
9, 103500, Note_off_c, 9, 42, 57
9, 103500, Note_off_c, 9, 40, 113
9, 103500, Note_off_c, 9, 39, 110
9, 103504, Control_c, 9, 11, 113
9, 103544, Control_c, 9, 11, 112
9, 103584, Note_on_c, 9, 42, 79
9, 103584, Note_on_c, 9, 82, 64
9, 103592, Control_c, 9, 11, 111
9, 103596, Note_off_c, 9, 82, 64
9, 103596, Note_off_c, 9, 42, 79
9, 103632, Control_c, 9, 11, 110
9, 103672, Control_c, 9, 11, 109
9, 103680, Note_on_c, 9, 36, 105
9, 103680, Note_on_c, 9, 42, 54
9, 103680, Note_on_c, 9, 82, 62
9, 103692, Note_off_c, 9, 82, 62
9, 103692, Note_off_c, 9, 42, 54
9, 103692, Note_off_c, 9, 36, 105
9, 103712, Control_c, 9, 11, 108
9, 103760, Control_c, 9, 11, 107
9, 103776, Note_on_c, 9, 42, 69
9, 103776, Note_on_c, 9, 82, 55
9, 103788, Note_off_c, 9, 82, 55
9, 103788, Note_off_c, 9, 42, 69
9, 103800, Control_c, 9, 11, 106
9, 103840, Control_c, 9, 11, 105
9, 103872, Note_on_c, 9, 39, 110
9, 103872, Note_on_c, 9, 40, 113
9, 103872, Note_on_c, 9, 42, 49
9, 103872, Note_on_c, 9, 82, 55
9, 103880, Control_c, 9, 11, 104
9, 103884, Note_off_c, 9, 82, 55
9, 103884, Note_off_c, 9, 42, 49
9, 103884, Note_off_c, 9, 40, 113
9, 103884, Note_off_c, 9, 39, 110
9, 103928, Control_c, 9, 11, 103
9, 103968, Note_on_c, 9, 42, 79
9, 103968, Note_on_c, 9, 82, 51
9, 103968, Control_c, 9, 11, 102
9, 103980, Note_off_c, 9, 82, 51
9, 103980, Note_off_c, 9, 42, 79
9, 104008, Control_c, 9, 11, 101
9, 104048, Control_c, 9, 11, 100
9, 104064, Note_on_c, 9, 36, 105
9, 104064, Note_on_c, 9, 42, 46
9, 104064, Note_on_c, 9, 82, 58
9, 104076, Note_off_c, 9, 82, 58
9, 104076, Note_off_c, 9, 42, 46
9, 104076, Note_off_c, 9, 36, 105
9, 104096, Control_c, 9, 11, 99
9, 104136, Control_c, 9, 11, 98
9, 104160, Note_on_c, 9, 42, 74
9, 104160, Note_on_c, 9, 82, 47
9, 104172, Note_off_c, 9, 82, 47
9, 104172, Note_off_c, 9, 42, 74
9, 104176, Control_c, 9, 11, 97
9, 104208, Note_on_c, 9, 45, 97
9, 104216, Control_c, 9, 11, 96
9, 104220, Note_off_c, 9, 45, 97
9, 104256, Note_on_c, 9, 39, 110
9, 104256, Note_on_c, 9, 40, 113
9, 104256, Note_on_c, 9, 42, 46
9, 104256, Note_on_c, 9, 43, 103
9, 104256, Note_on_c, 9, 82, 62
9, 104264, Control_c, 9, 11, 95
9, 104268, Note_off_c, 9, 82, 62
9, 104268, Note_off_c, 9, 43, 103
9, 104268, Note_off_c, 9, 42, 46
9, 104268, Note_off_c, 9, 40, 113
9, 104268, Note_off_c, 9, 39, 110
9, 104304, Control_c, 9, 11, 94
9, 104344, Control_c, 9, 11, 93
9, 104352, Note_on_c, 9, 46, 99
9, 104352, Note_on_c, 9, 82, 58
9, 104364, Note_off_c, 9, 82, 58
9, 104364, Note_off_c, 9, 46, 99
9, 104392, Control_c, 9, 11, 92
9, 104432, Control_c, 9, 11, 91
9, 104448, Note_on_c, 9, 36, 105
9, 104448, Note_on_c, 9, 42, 42
9, 104448, Note_on_c, 9, 82, 56
9, 104460, Note_off_c, 9, 82, 56
9, 104460, Note_off_c, 9, 42, 42
9, 104460, Note_off_c, 9, 36, 105
9, 104472, Control_c, 9, 11, 90
9, 104512, Control_c, 9, 11, 89
9, 104544, Note_on_c, 9, 42, 69
9, 104544, Note_on_c, 9, 82, 46
9, 104556, Note_off_c, 9, 82, 46
9, 104556, Note_off_c, 9, 42, 69
9, 104560, Control_c, 9, 11, 88
9, 104600, Control_c, 9, 11, 87
9, 104640, Note_on_c, 9, 39, 110
9, 104640, Note_on_c, 9, 40, 112
9, 104640, Note_on_c, 9, 42, 54
9, 104640, Note_on_c, 9, 82, 64
9, 104640, Control_c, 9, 11, 86
9, 104652, Note_off_c, 9, 82, 64
9, 104652, Note_off_c, 9, 42, 54
9, 104652, Note_off_c, 9, 40, 112
9, 104652, Note_off_c, 9, 39, 110
9, 104680, Control_c, 9, 11, 85
9, 104728, Control_c, 9, 11, 84
9, 104736, Note_on_c, 9, 42, 74
9, 104736, Note_on_c, 9, 82, 53
9, 104748, Note_off_c, 9, 82, 53
9, 104748, Note_off_c, 9, 42, 74
9, 104768, Control_c, 9, 11, 83
9, 104808, Control_c, 9, 11, 82
9, 104832, Note_on_c, 9, 36, 105
9, 104832, Note_on_c, 9, 42, 57
9, 104832, Note_on_c, 9, 82, 62
9, 104844, Note_off_c, 9, 82, 62
9, 104844, Note_off_c, 9, 42, 57
9, 104844, Note_off_c, 9, 36, 105
9, 104848, Control_c, 9, 11, 81
9, 104896, Control_c, 9, 11, 80
9, 104928, Note_on_c, 9, 42, 69
9, 104928, Note_on_c, 9, 82, 60
9, 104936, Control_c, 9, 11, 79
9, 104940, Note_off_c, 9, 82, 60
9, 104940, Note_off_c, 9, 42, 69
9, 104976, Control_c, 9, 11, 78
9, 105016, Control_c, 9, 11, 77
9, 105024, Note_on_c, 9, 39, 110
9, 105024, Note_on_c, 9, 40, 113
9, 105024, Note_on_c, 9, 42, 57
9, 105024, Note_on_c, 9, 82, 68
9, 105036, Note_off_c, 9, 82, 68
9, 105036, Note_off_c, 9, 42, 57
9, 105036, Note_off_c, 9, 40, 113
9, 105036, Note_off_c, 9, 39, 110
9, 105064, Control_c, 9, 11, 76
9, 105104, Control_c, 9, 11, 75
9, 105120, Note_on_c, 9, 42, 74
9, 105120, Note_on_c, 9, 82, 50
9, 105132, Note_off_c, 9, 82, 50
9, 105132, Note_off_c, 9, 42, 74
9, 105144, Control_c, 9, 11, 74
9, 105184, Control_c, 9, 11, 73
9, 105216, Note_on_c, 9, 36, 105
9, 105216, Note_on_c, 9, 42, 59
9, 105216, Note_on_c, 9, 82, 68
9, 105228, Note_off_c, 9, 82, 68
9, 105228, Note_off_c, 9, 42, 59
9, 105228, Note_off_c, 9, 36, 105
9, 105232, Control_c, 9, 11, 72
9, 105272, Control_c, 9, 11, 71
9, 105312, Note_on_c, 9, 42, 74
9, 105312, Note_on_c, 9, 82, 58
9, 105312, Control_c, 9, 11, 70
9, 105324, Note_off_c, 9, 82, 58
9, 105324, Note_off_c, 9, 42, 74
9, 105352, Control_c, 9, 11, 69
9, 105400, Control_c, 9, 11, 68
9, 105408, Note_on_c, 9, 39, 110
9, 105408, Note_on_c, 9, 40, 113
9, 105408, Note_on_c, 9, 42, 54
9, 105408, Note_on_c, 9, 82, 66
9, 105420, Note_off_c, 9, 82, 66
9, 105420, Note_off_c, 9, 42, 54
9, 105420, Note_off_c, 9, 40, 113
9, 105420, Note_off_c, 9, 39, 110
9, 105440, Control_c, 9, 11, 67
9, 105480, Control_c, 9, 11, 66
9, 105504, Note_on_c, 9, 42, 84
9, 105504, Note_on_c, 9, 82, 60
9, 105516, Note_off_c, 9, 82, 60
9, 105516, Note_off_c, 9, 42, 84
9, 105520, Control_c, 9, 11, 65
9, 105568, Control_c, 9, 11, 64
9, 105600, Note_on_c, 9, 36, 105
9, 105600, Note_on_c, 9, 42, 51
9, 105600, Note_on_c, 9, 82, 56
9, 105608, Control_c, 9, 11, 63
9, 105612, Note_off_c, 9, 82, 56
9, 105612, Note_off_c, 9, 42, 51
9, 105612, Note_off_c, 9, 36, 105
9, 105648, Control_c, 9, 11, 62
9, 105696, Note_on_c, 9, 42, 79
9, 105696, Note_on_c, 9, 82, 60
9, 105696, Control_c, 9, 11, 61
9, 105708, Note_off_c, 9, 82, 60
9, 105708, Note_off_c, 9, 42, 79
9, 105736, Control_c, 9, 11, 60
9, 105776, Control_c, 9, 11, 59
9, 105792, Note_on_c, 9, 39, 110
9, 105792, Note_on_c, 9, 40, 113
9, 105792, Note_on_c, 9, 42, 51
9, 105792, Note_on_c, 9, 82, 64
9, 105804, Note_off_c, 9, 82, 64
9, 105804, Note_off_c, 9, 42, 51
9, 105804, Note_off_c, 9, 40, 113
9, 105804, Note_off_c, 9, 39, 110
9, 105816, Control_c, 9, 11, 58
9, 105864, Control_c, 9, 11, 57
9, 105888, Note_on_c, 9, 46, 104
9, 105888, Note_on_c, 9, 82, 64
9, 105900, Note_off_c, 9, 82, 64
9, 105900, Note_off_c, 9, 46, 104
9, 105904, Control_c, 9, 11, 56
9, 105944, Control_c, 9, 11, 55
9, 105984, Note_on_c, 9, 36, 105
9, 105984, Note_on_c, 9, 42, 59
9, 105984, Note_on_c, 9, 82, 68
9, 105984, Control_c, 9, 11, 54
9, 105996, Note_off_c, 9, 82, 68
9, 105996, Note_off_c, 9, 42, 59
9, 105996, Note_off_c, 9, 36, 105
9, 106032, Control_c, 9, 11, 53
9, 106072, Control_c, 9, 11, 52
9, 106080, Note_on_c, 9, 42, 74
9, 106080, Note_on_c, 9, 82, 58
9, 106092, Note_off_c, 9, 82, 58
9, 106092, Note_off_c, 9, 42, 74
9, 106112, Control_c, 9, 11, 51
9, 106152, Control_c, 9, 11, 50
9, 106176, Note_on_c, 9, 39, 110
9, 106176, Note_on_c, 9, 40, 113
9, 106176, Note_on_c, 9, 42, 54
9, 106176, Note_on_c, 9, 82, 66
9, 106188, Note_off_c, 9, 82, 66
9, 106188, Note_off_c, 9, 42, 54
9, 106188, Note_off_c, 9, 40, 113
9, 106188, Note_off_c, 9, 39, 110
9, 106200, Control_c, 9, 11, 49
9, 106240, Control_c, 9, 11, 48
9, 106272, Note_on_c, 9, 42, 84
9, 106272, Note_on_c, 9, 82, 60
9, 106280, Control_c, 9, 11, 47
9, 106284, Note_off_c, 9, 82, 60
9, 106284, Note_off_c, 9, 42, 84
9, 106320, Control_c, 9, 11, 46
9, 106368, Note_on_c, 9, 36, 105
9, 106368, Note_on_c, 9, 42, 51
9, 106368, Note_on_c, 9, 82, 56
9, 106368, Control_c, 9, 11, 45
9, 106380, Note_off_c, 9, 82, 56
9, 106380, Note_off_c, 9, 42, 51
9, 106380, Note_off_c, 9, 36, 105
9, 106408, Control_c, 9, 11, 44
9, 106448, Control_c, 9, 11, 43
9, 106464, Note_on_c, 9, 42, 79
9, 106464, Note_on_c, 9, 82, 60
9, 106476, Note_off_c, 9, 82, 60
9, 106476, Note_off_c, 9, 42, 79
9, 106488, Control_c, 9, 11, 42
9, 106536, Control_c, 9, 11, 41
9, 106560, Note_on_c, 9, 39, 110
9, 106560, Note_on_c, 9, 40, 113
9, 106560, Note_on_c, 9, 42, 51
9, 106560, Note_on_c, 9, 82, 64
9, 106572, Note_off_c, 9, 82, 64
9, 106572, Note_off_c, 9, 42, 51
9, 106572, Note_off_c, 9, 40, 113
9, 106572, Note_off_c, 9, 39, 110
9, 106576, Control_c, 9, 11, 40
9, 106616, Control_c, 9, 11, 39
9, 106656, Note_on_c, 9, 42, 84
9, 106656, Note_on_c, 9, 82, 64
9, 106656, Control_c, 9, 11, 38
9, 106668, Note_off_c, 9, 82, 64
9, 106668, Note_off_c, 9, 42, 84
9, 106704, Control_c, 9, 11, 37
9, 106744, Control_c, 9, 11, 36
9, 106752, Note_on_c, 9, 36, 105
9, 106752, Note_on_c, 9, 42, 59
9, 106752, Note_on_c, 9, 82, 65
9, 106764, Note_off_c, 9, 82, 65
9, 106764, Note_off_c, 9, 42, 59
9, 106764, Note_off_c, 9, 36, 105
9, 106784, Control_c, 9, 11, 35
9, 106824, Control_c, 9, 11, 34
9, 106848, Note_on_c, 9, 42, 74
9, 106848, Note_on_c, 9, 82, 43
9, 106860, Note_off_c, 9, 82, 43
9, 106860, Note_off_c, 9, 42, 74
9, 106872, Control_c, 9, 11, 33
9, 106912, Control_c, 9, 11, 32
9, 106944, Note_on_c, 9, 39, 110
9, 106944, Note_on_c, 9, 40, 113
9, 106944, Note_on_c, 9, 42, 54
9, 106944, Note_on_c, 9, 82, 67
9, 106952, Control_c, 9, 11, 31
9, 106956, Note_off_c, 9, 82, 67
9, 106956, Note_off_c, 9, 42, 54
9, 106956, Note_off_c, 9, 40, 113
9, 106956, Note_off_c, 9, 39, 110
9, 107000, Control_c, 9, 11, 30
9, 107040, Note_on_c, 9, 42, 84
9, 107040, Note_on_c, 9, 82, 60
9, 107040, Control_c, 9, 11, 29
9, 107052, Note_off_c, 9, 82, 60
9, 107052, Note_off_c, 9, 42, 84
9, 107080, Control_c, 9, 11, 28
9, 107088, Note_on_c, 9, 82, 65
9, 107100, Note_off_c, 9, 82, 65
9, 107120, Control_c, 9, 11, 27
9, 107136, Note_on_c, 9, 36, 105
9, 107136, Note_on_c, 9, 42, 51
9, 107136, Note_on_c, 9, 82, 65
9, 107148, Note_off_c, 9, 82, 65
9, 107148, Note_off_c, 9, 42, 51
9, 107148, Note_off_c, 9, 36, 105
9, 107168, Control_c, 9, 11, 26
9, 107208, Control_c, 9, 11, 25
9, 107232, Note_on_c, 9, 42, 79
9, 107232, Note_on_c, 9, 82, 65
9, 107244, Note_off_c, 9, 82, 65
9, 107244, Note_off_c, 9, 42, 79
9, 107248, Control_c, 9, 11, 24
9, 107280, Note_on_c, 9, 82, 70
9, 107288, Control_c, 9, 11, 23
9, 107292, Note_off_c, 9, 82, 70
9, 107328, Note_on_c, 9, 39, 78
9, 107328, Note_on_c, 9, 40, 71
9, 107328, Note_on_c, 9, 42, 51
9, 107328, Note_on_c, 9, 82, 77
9, 107336, Control_c, 9, 11, 22
9, 107340, Note_off_c, 9, 82, 77
9, 107340, Note_off_c, 9, 42, 51
9, 107340, Note_off_c, 9, 40, 71
9, 107340, Note_off_c, 9, 39, 78
9, 107376, Control_c, 9, 11, 21
9, 107416, Control_c, 9, 11, 20
9, 107424, Note_on_c, 9, 42, 84
9, 107424, Note_on_c, 9, 82, 50
9, 107436, Note_off_c, 9, 82, 50
9, 107436, Note_off_c, 9, 42, 84
9, 107456, Control_c, 9, 11, 19
9, 107472, Note_on_c, 9, 82, 60
9, 107484, Note_off_c, 9, 82, 60
9, 107504, Control_c, 9, 11, 18
9, 107520, Note_on_c, 9, 36, 39
9, 107520, Note_on_c, 9, 42, 18
9, 107520, Note_on_c, 9, 82, 16
9, 107532, Note_off_c, 9, 82, 16
9, 107532, Note_off_c, 9, 42, 18
9, 107532, Note_off_c, 9, 36, 39
9, 107544, Control_c, 9, 11, 17
9, 107584, Control_c, 9, 11, 16
9, 107616, Note_on_c, 9, 42, 10
9, 107616, Note_on_c, 9, 82, 8
9, 107624, Control_c, 9, 11, 15
9, 107628, Note_off_c, 9, 82, 8
9, 107628, Note_off_c, 9, 42, 10
9, 107672, Control_c, 9, 11, 14
9, 107712, Note_on_c, 9, 39, 62
9, 107712, Note_on_c, 9, 40, 23
9, 107712, Note_on_c, 9, 42, 6
9, 107712, Note_on_c, 9, 82, 6
9, 107712, Control_c, 9, 11, 13
9, 107724, Note_off_c, 9, 82, 6
9, 107724, Note_off_c, 9, 42, 6
9, 107724, Note_off_c, 9, 40, 23
9, 107724, Note_off_c, 9, 39, 62
9, 107752, Control_c, 9, 11, 12
9, 107792, Control_c, 9, 11, 11
9, 107808, Note_on_c, 9, 42, 2
9, 107808, Note_on_c, 9, 82, 6
9, 107820, Note_off_c, 9, 82, 6
9, 107820, Note_off_c, 9, 42, 2
9, 107840, Control_c, 9, 11, 10
9, 107880, Control_c, 9, 11, 9
9, 107904, Note_on_c, 9, 36, 27
9, 107904, Note_on_c, 9, 42, 1
9, 107904, Note_on_c, 9, 82, 6
9, 107916, Note_off_c, 9, 82, 6
9, 107916, Note_off_c, 9, 42, 1
9, 107916, Note_off_c, 9, 36, 27
9, 107920, Control_c, 9, 11, 8
9, 107960, Control_c, 9, 11, 7
9, 108000, Note_on_c, 9, 42, 1
9, 108000, Note_on_c, 9, 82, 6
9, 108008, Control_c, 9, 11, 6
9, 108012, Note_off_c, 9, 82, 6
9, 108012, Note_off_c, 9, 42, 1
9, 108048, Control_c, 9, 11, 5
9, 108088, Control_c, 9, 11, 4
9, 108096, Note_on_c, 9, 39, 46
9, 108096, Note_on_c, 9, 40, 15
9, 108096, Note_on_c, 9, 42, 1
9, 108096, Note_on_c, 9, 82, 6
9, 108108, Note_off_c, 9, 82, 6
9, 108108, Note_off_c, 9, 42, 1
9, 108108, Note_off_c, 9, 40, 15
9, 108108, Note_off_c, 9, 39, 46
9, 108128, Control_c, 9, 11, 3
9, 108176, Control_c, 9, 11, 2
9, 108192, Note_on_c, 9, 42, 1
9, 108192, Note_on_c, 9, 82, 6
9, 108204, Note_off_c, 9, 82, 6
9, 108204, Note_off_c, 9, 42, 1
9, 108216, Control_c, 9, 11, 1
9, 108256, Control_c, 9, 11, 0
9, 108376, Control_c, 9, 120, 0
9, 108376, End_track
0, 0, End_of_file